<svg xmlns="http://www.w3.org/2000/svg" width="1200" height="900" viewBox="0 0 1200 900">
<rect width="1200" height="900" fill="#08090d"/>
<text x="40" y="30" fill="#c9a84c" font-family="monospace" font-size="16" font-weight="bold">827-9999-905.stp  [REVOLUTION]</text>
<text x="40" y="50" fill="#786432" font-family="monospace" font-size="11">BBox: 5.5 x 5.5 x 25.3 mm   Diag: 26.5mm</text>
<rect x="40" y="70" width="365" height="740" fill="none" stroke="#1e1e23" stroke-width="1"/>
<text x="48" y="86" fill="#dcdcdc" font-family="monospace" font-size="11">Plane ⊥Z t1/25 (2 profiles)</text>
<defs><clipPath id="clip-0-827-9999-905"><rect x="41" y="71" width="363" height="738"/></clipPath></defs>
<g clip-path="url(#clip-0-827-9999-905)">
<line x1="-343.8" y1="70" x2="-343.8" y2="810" stroke="#1e1e23" stroke-width="0.5"/>
<line x1="222.5" y1="70" x2="222.5" y2="810" stroke="#1e1e23" stroke-width="0.5"/>
<line x1="788.8" y1="70" x2="788.8" y2="810" stroke="#1e1e23" stroke-width="0.5"/>
<line x1="40" y1="1013.8" x2="413" y2="1013.8" stroke="#1e1e23" stroke-width="0.5"/>
<line x1="40" y1="447.5" x2="413" y2="447.5" stroke="#1e1e23" stroke-width="0.5"/>
<line x1="40" y1="-118.8" x2="413" y2="-118.8" stroke="#1e1e23" stroke-width="0.5"/>
<circle cx="222.5" cy="447.5" r="157.5" fill="none" stroke="#c9a84c" stroke-width="1.5"/>
<text x="384.0" y="451.5" fill="#c9a84c" font-family="monospace" font-size="8">ø5.56</text>
<circle cx="222.5" cy="447.5" r="115.8" fill="none" stroke="#c9a84c" stroke-width="1.5"/>
<text x="342.3" y="451.5" fill="#c9a84c" font-family="monospace" font-size="8">ø4.09</text>
</g>
<text x="48" y="802" fill="#786432" font-family="monospace" font-size="9">Range: 5.6 x 5.6 mm</text>
<rect x="413" y="70" width="365" height="740" fill="none" stroke="#1e1e23" stroke-width="1"/>
<text x="421" y="86" fill="#dcdcdc" font-family="monospace" font-size="11">Plane ⊥Z t2/25 (2 profiles)</text>
<defs><clipPath id="clip-1-827-9999-905"><rect x="414" y="71" width="363" height="738"/></clipPath></defs>
<g clip-path="url(#clip-1-827-9999-905)">
<line x1="29.1" y1="70" x2="29.1" y2="810" stroke="#1e1e23" stroke-width="0.5"/>
<line x1="595.5" y1="70" x2="595.5" y2="810" stroke="#1e1e23" stroke-width="0.5"/>
<line x1="1161.9" y1="70" x2="1161.9" y2="810" stroke="#1e1e23" stroke-width="0.5"/>
<line x1="413" y1="1013.9" x2="786" y2="1013.9" stroke="#1e1e23" stroke-width="0.5"/>
<line x1="413" y1="447.5" x2="786" y2="447.5" stroke="#1e1e23" stroke-width="0.5"/>
<line x1="413" y1="-118.9" x2="786" y2="-118.9" stroke="#1e1e23" stroke-width="0.5"/>
<circle cx="595.5" cy="447.5" r="157.5" fill="none" stroke="#c9a84c" stroke-width="1.5"/>
<text x="757.0" y="451.5" fill="#c9a84c" font-family="monospace" font-size="8">ø5.56</text>
<circle cx="595.5" cy="447.5" r="115.8" fill="none" stroke="#c9a84c" stroke-width="1.5"/>
<text x="715.3" y="451.5" fill="#c9a84c" font-family="monospace" font-size="8">ø4.09</text>
</g>
<text x="421" y="802" fill="#786432" font-family="monospace" font-size="9">Range: 5.6 x 5.6 mm</text>
<rect x="786" y="70" width="365" height="740" fill="none" stroke="#1e1e23" stroke-width="1"/>
<text x="794" y="86" fill="#dcdcdc" font-family="monospace" font-size="11">Plane ⊥Z t3/25 (2 profiles)</text>
<defs><clipPath id="clip-2-827-9999-905"><rect x="787" y="71" width="363" height="738"/></clipPath></defs>
<g clip-path="url(#clip-2-827-9999-905)">
<line x1="402.0" y1="70" x2="402.0" y2="810" stroke="#1e1e23" stroke-width="0.5"/>
<line x1="968.5" y1="70" x2="968.5" y2="810" stroke="#1e1e23" stroke-width="0.5"/>
<line x1="1535.0" y1="70" x2="1535.0" y2="810" stroke="#1e1e23" stroke-width="0.5"/>
<line x1="786" y1="1014.0" x2="1159" y2="1014.0" stroke="#1e1e23" stroke-width="0.5"/>
<line x1="786" y1="447.5" x2="1159" y2="447.5" stroke="#1e1e23" stroke-width="0.5"/>
<line x1="786" y1="-119.0" x2="1159" y2="-119.0" stroke="#1e1e23" stroke-width="0.5"/>
<circle cx="968.5" cy="447.5" r="157.5" fill="none" stroke="#c9a84c" stroke-width="1.5"/>
<text x="1130.0" y="451.5" fill="#c9a84c" font-family="monospace" font-size="8">ø5.56</text>
<circle cx="968.5" cy="447.5" r="115.8" fill="none" stroke="#c9a84c" stroke-width="1.5"/>
<text x="1088.3" y="451.5" fill="#c9a84c" font-family="monospace" font-size="8">ø4.09</text>
</g>
<text x="794" y="802" fill="#786432" font-family="monospace" font-size="9">Range: 5.6 x 5.6 mm</text>
<text x="40" y="880" fill="#c9a84c" font-family="monospace" font-size="9">Features (5): ◎ Revolution taper ø3.6→ø4.2 | ▭ Fillet Boss 25.3×1.0 R1.5 | ▭ Fillet Boss 25.3×1.0 R0.1 | ▭ Fillet Pocket 25.3×2.0 R2.4 | ▭ Fillet Pocket 25.3×1.2 R1.4</text>
</svg>