<svg xmlns="http://www.w3.org/2000/svg" width="1200" height="900" viewBox="0 0 1200 900">
<rect width="1200" height="900" fill="#08090d"/>
<text x="40" y="30" fill="#c9a84c" font-family="monospace" font-size="16" font-weight="bold">827-9999-904 rev c.stp  </text>
<text x="40" y="50" fill="#786432" font-family="monospace" font-size="11">BBox: 102.5 x 69.5 x 19.5 mm   Diag: 125.4mm</text>
<rect x="40" y="70" width="365" height="740" fill="none" stroke="#1e1e23" stroke-width="1"/>
<text x="48" y="86" fill="#dcdcdc" font-family="monospace" font-size="11">Plane +X (1 profiles)</text>
<defs><clipPath id="clip-0-827-9999-904_rev_c"><rect x="41" y="71" width="363" height="738"/></clipPath></defs>
<g clip-path="url(#clip-0-827-9999-904_rev_c)">
<line x1="169.4" y1="70" x2="169.4" y2="810" stroke="#1e1e23" stroke-width="0.5"/>
<line x1="265.0" y1="70" x2="265.0" y2="810" stroke="#1e1e23" stroke-width="0.5"/>
<line x1="360.6" y1="70" x2="360.6" y2="810" stroke="#1e1e23" stroke-width="0.5"/>
<line x1="40" y1="875.6" x2="413" y2="875.6" stroke="#1e1e23" stroke-width="0.5"/>
<line x1="40" y1="780.0" x2="413" y2="780.0" stroke="#1e1e23" stroke-width="0.5"/>
<line x1="40" y1="684.4" x2="413" y2="684.4" stroke="#1e1e23" stroke-width="0.5"/>
<line x1="40" y1="588.8" x2="413" y2="588.8" stroke="#1e1e23" stroke-width="0.5"/>
<line x1="40" y1="493.1" x2="413" y2="493.1" stroke="#1e1e23" stroke-width="0.5"/>
<line x1="40" y1="397.5" x2="413" y2="397.5" stroke="#1e1e23" stroke-width="0.5"/>
<line x1="40" y1="301.9" x2="413" y2="301.9" stroke="#1e1e23" stroke-width="0.5"/>
<line x1="40" y1="206.3" x2="413" y2="206.3" stroke="#1e1e23" stroke-width="0.5"/>
<line x1="40" y1="110.7" x2="413" y2="110.7" stroke="#1e1e23" stroke-width="0.5"/>
<line x1="180.0" y1="290.4" x2="240.7" y2="290.4" stroke="#508ce0" stroke-width="1.5"/>
<line x1="240.7" y1="290.4" x2="240.7" y2="359.8" stroke="#508ce0" stroke-width="1.5"/>
<line x1="240.7" y1="359.8" x2="180.0" y2="359.8" stroke="#508ce0" stroke-width="1.5"/>
<line x1="180.0" y1="359.8" x2="180.0" y2="372.0" stroke="#508ce0" stroke-width="1.5"/>
<line x1="180.0" y1="372.0" x2="240.7" y2="372.0" stroke="#508ce0" stroke-width="1.5"/>
<line x1="240.7" y1="372.0" x2="240.7" y2="441.4" stroke="#508ce0" stroke-width="1.5"/>
<line x1="240.7" y1="441.4" x2="180.0" y2="441.4" stroke="#508ce0" stroke-width="1.5"/>
<line x1="180.0" y1="441.4" x2="180.0" y2="453.6" stroke="#508ce0" stroke-width="1.5"/>
<line x1="180.0" y1="453.6" x2="240.7" y2="453.6" stroke="#508ce0" stroke-width="1.5"/>
<line x1="240.7" y1="453.6" x2="240.7" y2="523.0" stroke="#508ce0" stroke-width="1.5"/>
<line x1="240.7" y1="523.0" x2="180.0" y2="523.0" stroke="#508ce0" stroke-width="1.5"/>
<line x1="180.0" y1="523.0" x2="180.0" y2="535.2" stroke="#508ce0" stroke-width="1.5"/>
<line x1="180.0" y1="535.2" x2="240.7" y2="535.2" stroke="#508ce0" stroke-width="1.5"/>
<line x1="240.7" y1="535.2" x2="240.7" y2="604.6" stroke="#508ce0" stroke-width="1.5"/>
<line x1="240.7" y1="604.6" x2="180.0" y2="604.6" stroke="#508ce0" stroke-width="1.5"/>
<line x1="180.0" y1="604.6" x2="180.0" y2="616.8" stroke="#508ce0" stroke-width="1.5"/>
<line x1="180.0" y1="616.8" x2="240.7" y2="616.8" stroke="#508ce0" stroke-width="1.5"/>
<line x1="240.7" y1="616.8" x2="240.7" y2="780.0" stroke="#508ce0" stroke-width="1.5"/>
<line x1="240.7" y1="780.0" x2="265.0" y2="780.0" stroke="#508ce0" stroke-width="1.5"/>
<line x1="265.0" y1="780.0" x2="265.0" y2="115.0" stroke="#508ce0" stroke-width="1.5"/>
<line x1="265.0" y1="115.0" x2="240.7" y2="115.0" stroke="#508ce0" stroke-width="1.5"/>
<line x1="240.7" y1="115.0" x2="240.7" y2="278.2" stroke="#508ce0" stroke-width="1.5"/>
<line x1="240.7" y1="278.2" x2="180.0" y2="278.2" stroke="#508ce0" stroke-width="1.5"/>
<line x1="180.0" y1="278.2" x2="180.0" y2="288.4" stroke="#508ce0" stroke-width="1.5"/>
</g>
<text x="48" y="802" fill="#786432" font-family="monospace" font-size="9">Range: 8.9 x 69.5 mm</text>
<rect x="413" y="70" width="365" height="740" fill="none" stroke="#1e1e23" stroke-width="1"/>
<text x="421" y="86" fill="#dcdcdc" font-family="monospace" font-size="11">Plane +Y (1 profiles)</text>
<defs><clipPath id="clip-1-827-9999-904_rev_c"><rect x="414" y="71" width="363" height="738"/></clipPath></defs>
<g clip-path="url(#clip-1-827-9999-904_rev_c)">
<line x1="504.6" y1="70" x2="504.6" y2="810" stroke="#1e1e23" stroke-width="0.5"/>
<line x1="569.5" y1="70" x2="569.5" y2="810" stroke="#1e1e23" stroke-width="0.5"/>
<line x1="634.3" y1="70" x2="634.3" y2="810" stroke="#1e1e23" stroke-width="0.5"/>
<line x1="413" y1="844.9" x2="786" y2="844.9" stroke="#1e1e23" stroke-width="0.5"/>
<line x1="413" y1="780.0" x2="786" y2="780.0" stroke="#1e1e23" stroke-width="0.5"/>
<line x1="413" y1="715.1" x2="786" y2="715.1" stroke="#1e1e23" stroke-width="0.5"/>
<line x1="413" y1="650.3" x2="786" y2="650.3" stroke="#1e1e23" stroke-width="0.5"/>
<line x1="413" y1="585.4" x2="786" y2="585.4" stroke="#1e1e23" stroke-width="0.5"/>
<line x1="413" y1="520.6" x2="786" y2="520.6" stroke="#1e1e23" stroke-width="0.5"/>
<line x1="413" y1="455.7" x2="786" y2="455.7" stroke="#1e1e23" stroke-width="0.5"/>
<line x1="413" y1="390.9" x2="786" y2="390.9" stroke="#1e1e23" stroke-width="0.5"/>
<line x1="413" y1="326.0" x2="786" y2="326.0" stroke="#1e1e23" stroke-width="0.5"/>
<line x1="413" y1="261.2" x2="786" y2="261.2" stroke="#1e1e23" stroke-width="0.5"/>
<line x1="413" y1="196.3" x2="786" y2="196.3" stroke="#1e1e23" stroke-width="0.5"/>
<line x1="413" y1="131.5" x2="786" y2="131.5" stroke="#1e1e23" stroke-width="0.5"/>
<line x1="413" y1="66.6" x2="786" y2="66.6" stroke="#1e1e23" stroke-width="0.5"/>
<line x1="569.5" y1="115.0" x2="569.5" y2="297.8" stroke="#c9a84c" stroke-width="1.5"/>
<line x1="569.5" y1="297.8" x2="564.5" y2="297.8" stroke="#c9a84c" stroke-width="1.5"/>
<line x1="564.5" y1="297.8" x2="564.5" y2="408.3" stroke="#c9a84c" stroke-width="1.5"/>
<line x1="564.5" y1="408.3" x2="569.5" y2="408.3" stroke="#c9a84c" stroke-width="1.5"/>
<line x1="569.5" y1="408.3" x2="569.5" y2="486.0" stroke="#c9a84c" stroke-width="1.5"/>
<line x1="569.5" y1="486.0" x2="563.9" y2="486.0" stroke="#c9a84c" stroke-width="1.5"/>
<line x1="563.9" y1="486.0" x2="563.9" y2="650.7" stroke="#c9a84c" stroke-width="1.5"/>
<line x1="563.9" y1="650.7" x2="569.5" y2="650.7" stroke="#c9a84c" stroke-width="1.5"/>
<line x1="569.5" y1="650.7" x2="569.5" y2="780.0" stroke="#c9a84c" stroke-width="1.5"/>
<line x1="569.5" y1="780.0" x2="585.9" y2="780.0" stroke="#c9a84c" stroke-width="1.5"/>
<line x1="585.9" y1="780.0" x2="585.9" y2="547.4" stroke="#c9a84c" stroke-width="1.5"/>
<line x1="585.9" y1="547.4" x2="627.1" y2="506.2" stroke="#c9a84c" stroke-width="1.5"/>
<line x1="627.1" y1="506.2" x2="627.1" y2="143.8" stroke="#c9a84c" stroke-width="1.5"/>
<line x1="627.1" y1="143.8" x2="618.9" y2="135.6" stroke="#c9a84c" stroke-width="1.5"/>
<line x1="618.9" y1="135.6" x2="585.9" y2="135.6" stroke="#c9a84c" stroke-width="1.5"/>
<line x1="585.9" y1="135.6" x2="585.9" y2="115.0" stroke="#c9a84c" stroke-width="1.5"/>
<line x1="585.9" y1="115.0" x2="577.7" y2="115.0" stroke="#c9a84c" stroke-width="1.5"/>
</g>
<text x="421" y="802" fill="#786432" font-family="monospace" font-size="9">Range: 9.8 x 102.5 mm</text>
<rect x="786" y="70" width="365" height="740" fill="none" stroke="#1e1e23" stroke-width="1"/>
<text x="794" y="86" fill="#dcdcdc" font-family="monospace" font-size="11">Plane +Z (13 profiles)</text>
<defs><clipPath id="clip-2-827-9999-904_rev_c"><rect x="787" y="71" width="363" height="738"/></clipPath></defs>
<g clip-path="url(#clip-2-827-9999-904_rev_c)">
<line x1="797.9" y1="70" x2="797.9" y2="810" stroke="#1e1e23" stroke-width="0.5"/>
<line x1="830.9" y1="70" x2="830.9" y2="810" stroke="#1e1e23" stroke-width="0.5"/>
<line x1="863.9" y1="70" x2="863.9" y2="810" stroke="#1e1e23" stroke-width="0.5"/>
<line x1="896.9" y1="70" x2="896.9" y2="810" stroke="#1e1e23" stroke-width="0.5"/>
<line x1="930.0" y1="70" x2="930.0" y2="810" stroke="#1e1e23" stroke-width="0.5"/>
<line x1="963.0" y1="70" x2="963.0" y2="810" stroke="#1e1e23" stroke-width="0.5"/>
<line x1="996.0" y1="70" x2="996.0" y2="810" stroke="#1e1e23" stroke-width="0.5"/>
<line x1="1029.0" y1="70" x2="1029.0" y2="810" stroke="#1e1e23" stroke-width="0.5"/>
<line x1="1062.1" y1="70" x2="1062.1" y2="810" stroke="#1e1e23" stroke-width="0.5"/>
<line x1="1095.1" y1="70" x2="1095.1" y2="810" stroke="#1e1e23" stroke-width="0.5"/>
<line x1="1128.1" y1="70" x2="1128.1" y2="810" stroke="#1e1e23" stroke-width="0.5"/>
<line x1="786" y1="562.3" x2="1159" y2="562.3" stroke="#1e1e23" stroke-width="0.5"/>
<line x1="786" y1="529.3" x2="1159" y2="529.3" stroke="#1e1e23" stroke-width="0.5"/>
<line x1="786" y1="496.3" x2="1159" y2="496.3" stroke="#1e1e23" stroke-width="0.5"/>
<line x1="786" y1="463.3" x2="1159" y2="463.3" stroke="#1e1e23" stroke-width="0.5"/>
<line x1="786" y1="430.2" x2="1159" y2="430.2" stroke="#1e1e23" stroke-width="0.5"/>
<line x1="786" y1="397.2" x2="1159" y2="397.2" stroke="#1e1e23" stroke-width="0.5"/>
<line x1="786" y1="364.2" x2="1159" y2="364.2" stroke="#1e1e23" stroke-width="0.5"/>
<line x1="786" y1="331.2" x2="1159" y2="331.2" stroke="#1e1e23" stroke-width="0.5"/>
<line x1="1126.0" y1="421.4" x2="1126.0" y2="417.2" stroke="#508ce0" stroke-width="1.5"/>
<line x1="1126.0" y1="417.2" x2="926.0" y2="417.2" stroke="#508ce0" stroke-width="1.5"/>
<line x1="926.0" y1="417.2" x2="926.0" y2="421.4" stroke="#508ce0" stroke-width="1.5"/>
<line x1="926.0" y1="421.4" x2="1124.1" y2="421.4" stroke="#508ce0" stroke-width="1.5"/>
<line x1="1126.0" y1="477.8" x2="1126.0" y2="473.6" stroke="#508ce0" stroke-width="1.5"/>
<line x1="1126.0" y1="473.6" x2="926.0" y2="473.6" stroke="#508ce0" stroke-width="1.5"/>
<line x1="926.0" y1="473.6" x2="926.0" y2="477.8" stroke="#508ce0" stroke-width="1.5"/>
<line x1="926.0" y1="477.8" x2="1124.1" y2="477.8" stroke="#508ce0" stroke-width="1.5"/>
<line x1="1126.0" y1="445.4" x2="926.0" y2="445.4" stroke="#508ce0" stroke-width="1.5"/>
<line x1="926.0" y1="445.4" x2="926.0" y2="449.6" stroke="#508ce0" stroke-width="1.5"/>
<line x1="926.0" y1="449.6" x2="1126.0" y2="449.6" stroke="#508ce0" stroke-width="1.5"/>
<line x1="1126.0" y1="449.6" x2="1126.0" y2="447.2" stroke="#508ce0" stroke-width="1.5"/>
<line x1="1126.0" y1="389.0" x2="926.0" y2="389.0" stroke="#508ce0" stroke-width="1.5"/>
<line x1="926.0" y1="389.0" x2="926.0" y2="393.2" stroke="#508ce0" stroke-width="1.5"/>
<line x1="926.0" y1="393.2" x2="1126.0" y2="393.2" stroke="#508ce0" stroke-width="1.5"/>
<line x1="1126.0" y1="393.2" x2="1126.0" y2="390.8" stroke="#508ce0" stroke-width="1.5"/>
<line x1="1126.0" y1="506.0" x2="1126.0" y2="501.8" stroke="#508ce0" stroke-width="1.5"/>
<line x1="1126.0" y1="501.8" x2="926.0" y2="501.8" stroke="#508ce0" stroke-width="1.5"/>
<line x1="926.0" y1="501.8" x2="926.0" y2="506.0" stroke="#508ce0" stroke-width="1.5"/>
<line x1="926.0" y1="506.0" x2="1124.1" y2="506.0" stroke="#508ce0" stroke-width="1.5"/>
<circle cx="997.1" cy="541.4" r="15.7" fill="none" stroke="#508ce0" stroke-width="1.5"/>
<text x="1016.8" y="545.4" fill="#508ce0" font-family="monospace" font-size="8">ø9.50</text>
<circle cx="1007.6" cy="353.6" r="15.7" fill="none" stroke="#508ce0" stroke-width="1.5"/>
<text x="1027.2" y="357.6" fill="#508ce0" font-family="monospace" font-size="8">ø9.50</text>
<circle cx="867.1" cy="415.5" r="7.8" fill="none" stroke="#508ce0" stroke-width="1.5"/>
<text x="878.9" y="419.5" fill="#508ce0" font-family="monospace" font-size="8">ø4.75</text>
<circle cx="818.8" cy="415.5" r="7.8" fill="none" stroke="#508ce0" stroke-width="1.5"/>
<text x="830.7" y="419.5" fill="#508ce0" font-family="monospace" font-size="8">ø4.75</text>
<circle cx="867.1" cy="478.5" r="7.8" fill="none" stroke="#508ce0" stroke-width="1.5"/>
<text x="878.9" y="482.5" fill="#508ce0" font-family="monospace" font-size="8">ø4.75</text>
<circle cx="818.8" cy="478.5" r="7.8" fill="none" stroke="#508ce0" stroke-width="1.5"/>
<text x="830.7" y="482.5" fill="#508ce0" font-family="monospace" font-size="8">ø4.75</text>
<circle cx="997.1" cy="541.4" r="6.3" fill="none" stroke="#508ce0" stroke-width="1.5"/>
<text x="1007.4" y="545.4" fill="#508ce0" font-family="monospace" font-size="8">ø3.81</text>
<circle cx="1007.6" cy="353.6" r="7.8" fill="none" stroke="#508ce0" stroke-width="1.5"/>
<text x="1019.4" y="357.6" fill="#508ce0" font-family="monospace" font-size="8">ø4.75</text>
</g>
<text x="794" y="802" fill="#786432" font-family="monospace" font-size="9">Range: 95.4 x 66.3 mm</text>
<text x="40" y="880" fill="#c9a84c" font-family="monospace" font-size="9">Features (7): →× Linear Pattern ×5 (▭ Pocket 60.6×1.3) | ⊙× Circular Pattern ×4 (⊙ Hole ø4.75) | ▭ Pocket 8.9×69.5 | ⊙ Hole ø9.50 | ⊙ Hole ø9.50 | ⊙ Hole ø3.81 | ⊙ Hole ø4.75</text>
</svg>