<svg xmlns="http://www.w3.org/2000/svg" width="1200" height="900" viewBox="0 0 1200 900">
<rect width="1200" height="900" fill="#08090d"/>
<text x="40" y="30" fill="#c9a84c" font-family="monospace" font-size="16" font-weight="bold">nist_ftc_06_asme1_ap242-e2.stp  </text>
<text x="40" y="50" fill="#786432" font-family="monospace" font-size="11">BBox: 304.8 x 97.8 x 247.6 mm   Diag: 404.7mm</text>
<rect x="40" y="70" width="365" height="740" fill="none" stroke="#1e1e23" stroke-width="1"/>
<text x="48" y="86" fill="#dcdcdc" font-family="monospace" font-size="11">Plane +X (1 profiles)</text>
<defs><clipPath id="clip-0-nist_ftc_06_asme1_ap242-e2"><rect x="41" y="71" width="363" height="738"/></clipPath></defs>
<g clip-path="url(#clip-0-nist_ftc_06_asme1_ap242-e2)">
<line x1="65.0" y1="70" x2="65.0" y2="810" stroke="#1e1e23" stroke-width="0.5"/>
<line x1="78.4" y1="70" x2="78.4" y2="810" stroke="#1e1e23" stroke-width="0.5"/>
<line x1="91.8" y1="70" x2="91.8" y2="810" stroke="#1e1e23" stroke-width="0.5"/>
<line x1="105.2" y1="70" x2="105.2" y2="810" stroke="#1e1e23" stroke-width="0.5"/>
<line x1="118.6" y1="70" x2="118.6" y2="810" stroke="#1e1e23" stroke-width="0.5"/>
<line x1="132.0" y1="70" x2="132.0" y2="810" stroke="#1e1e23" stroke-width="0.5"/>
<line x1="145.4" y1="70" x2="145.4" y2="810" stroke="#1e1e23" stroke-width="0.5"/>
<line x1="158.8" y1="70" x2="158.8" y2="810" stroke="#1e1e23" stroke-width="0.5"/>
<line x1="172.3" y1="70" x2="172.3" y2="810" stroke="#1e1e23" stroke-width="0.5"/>
<line x1="185.7" y1="70" x2="185.7" y2="810" stroke="#1e1e23" stroke-width="0.5"/>
<line x1="199.1" y1="70" x2="199.1" y2="810" stroke="#1e1e23" stroke-width="0.5"/>
<line x1="212.5" y1="70" x2="212.5" y2="810" stroke="#1e1e23" stroke-width="0.5"/>
<line x1="225.9" y1="70" x2="225.9" y2="810" stroke="#1e1e23" stroke-width="0.5"/>
<line x1="239.3" y1="70" x2="239.3" y2="810" stroke="#1e1e23" stroke-width="0.5"/>
<line x1="252.7" y1="70" x2="252.7" y2="810" stroke="#1e1e23" stroke-width="0.5"/>
<line x1="266.1" y1="70" x2="266.1" y2="810" stroke="#1e1e23" stroke-width="0.5"/>
<line x1="279.5" y1="70" x2="279.5" y2="810" stroke="#1e1e23" stroke-width="0.5"/>
<line x1="292.9" y1="70" x2="292.9" y2="810" stroke="#1e1e23" stroke-width="0.5"/>
<line x1="306.3" y1="70" x2="306.3" y2="810" stroke="#1e1e23" stroke-width="0.5"/>
<line x1="319.7" y1="70" x2="319.7" y2="810" stroke="#1e1e23" stroke-width="0.5"/>
<line x1="333.1" y1="70" x2="333.1" y2="810" stroke="#1e1e23" stroke-width="0.5"/>
<line x1="346.5" y1="70" x2="346.5" y2="810" stroke="#1e1e23" stroke-width="0.5"/>
<line x1="360.0" y1="70" x2="360.0" y2="810" stroke="#1e1e23" stroke-width="0.5"/>
<line x1="373.4" y1="70" x2="373.4" y2="810" stroke="#1e1e23" stroke-width="0.5"/>
<line x1="386.8" y1="70" x2="386.8" y2="810" stroke="#1e1e23" stroke-width="0.5"/>
<line x1="40" y1="525.2" x2="413" y2="525.2" stroke="#1e1e23" stroke-width="0.5"/>
<line x1="40" y1="511.8" x2="413" y2="511.8" stroke="#1e1e23" stroke-width="0.5"/>
<line x1="40" y1="498.4" x2="413" y2="498.4" stroke="#1e1e23" stroke-width="0.5"/>
<line x1="40" y1="485.0" x2="413" y2="485.0" stroke="#1e1e23" stroke-width="0.5"/>
<line x1="40" y1="471.6" x2="413" y2="471.6" stroke="#1e1e23" stroke-width="0.5"/>
<line x1="40" y1="458.1" x2="413" y2="458.1" stroke="#1e1e23" stroke-width="0.5"/>
<line x1="40" y1="444.7" x2="413" y2="444.7" stroke="#1e1e23" stroke-width="0.5"/>
<line x1="40" y1="431.3" x2="413" y2="431.3" stroke="#1e1e23" stroke-width="0.5"/>
<line x1="40" y1="417.9" x2="413" y2="417.9" stroke="#1e1e23" stroke-width="0.5"/>
<line x1="40" y1="404.5" x2="413" y2="404.5" stroke="#1e1e23" stroke-width="0.5"/>
<line x1="40" y1="391.1" x2="413" y2="391.1" stroke="#1e1e23" stroke-width="0.5"/>
<line x1="40" y1="377.7" x2="413" y2="377.7" stroke="#1e1e23" stroke-width="0.5"/>
<line x1="40" y1="364.3" x2="413" y2="364.3" stroke="#1e1e23" stroke-width="0.5"/>
<line x1="380.0" y1="516.7" x2="376.6" y2="516.7" stroke="#c9a84c" stroke-width="1.5"/>
<line x1="376.6" y1="516.7" x2="376.6" y2="512.5" stroke="#c9a84c" stroke-width="1.5"/>
<line x1="376.6" y1="512.5" x2="380.0" y2="512.5" stroke="#c9a84c" stroke-width="1.5"/>
<line x1="380.0" y1="512.5" x2="380.0" y2="506.8" stroke="#c9a84c" stroke-width="1.5"/>
<line x1="380.0" y1="506.8" x2="376.6" y2="506.8" stroke="#c9a84c" stroke-width="1.5"/>
<line x1="376.6" y1="506.8" x2="376.6" y2="498.6" stroke="#c9a84c" stroke-width="1.5"/>
<line x1="376.6" y1="498.6" x2="380.0" y2="498.6" stroke="#c9a84c" stroke-width="1.5"/>
<line x1="380.0" y1="498.6" x2="380.0" y2="457.1" stroke="#c9a84c" stroke-width="1.5"/>
<line x1="380.0" y1="457.1" x2="345.9" y2="457.1" stroke="#c9a84c" stroke-width="1.5"/>
<line x1="345.9" y1="457.1" x2="345.9" y2="478.4" stroke="#c9a84c" stroke-width="1.5"/>
<line x1="345.9" y1="478.4" x2="345.8" y2="479.3" stroke="#c9a84c" stroke-width="1.5"/>
<circle cx="341.7" cy="478.3" r="4.3" fill="none" stroke="#c9a84c" stroke-width="1" stroke-dasharray="3,2"/>
<line x1="342.6" y1="482.5" x2="341.7" y2="482.6" stroke="#c9a84c" stroke-width="1.5"/>
<line x1="341.7" y1="482.6" x2="248.0" y2="482.6" stroke="#c9a84c" stroke-width="1.5"/>
<line x1="248.0" y1="482.6" x2="246.7" y2="482.4" stroke="#c9a84c" stroke-width="1.5"/>
<circle cx="248.5" cy="477.7" r="5.1" fill="none" stroke="#c9a84c" stroke-width="1" stroke-dasharray="3,2"/>
<circle cx="248.2" cy="478.3" r="4.5" fill="none" stroke="#c9a84c" stroke-width="1" stroke-dasharray="3,2"/>
<line x1="243.8" y1="478.8" x2="243.8" y2="462.2" stroke="#c9a84c" stroke-width="1.5"/>
<line x1="243.8" y1="462.2" x2="107.6" y2="394.1" stroke="#c9a84c" stroke-width="1.5"/>
<line x1="107.6" y1="394.1" x2="103.3" y2="394.1" stroke="#c9a84c" stroke-width="1.5"/>
<circle cx="86.3" cy="394.0" r="17.1" fill="none" stroke="#c9a84c" stroke-width="1" stroke-dasharray="3,2"/>
<circle cx="85.5" cy="391.9" r="19.2" fill="none" stroke="#c9a84c" stroke-width="1.5"/>
<text x="108.7" y="395.9" fill="#c9a84c" font-family="monospace" font-size="8">ø28.68</text>
<circle cx="86.7" cy="390.4" r="20.6" fill="none" stroke="#c9a84c" stroke-width="1" stroke-dasharray="3,2"/>
<circle cx="86.3" cy="394.5" r="16.6" fill="none" stroke="#c9a84c" stroke-width="1" stroke-dasharray="3,2"/>
<circle cx="86.1" cy="394.1" r="16.8" fill="none" stroke="#c9a84c" stroke-width="1" stroke-dasharray="3,2"/>
<line x1="69.3" y1="394.1" x2="65.0" y2="394.1" stroke="#c9a84c" stroke-width="1.5"/>
<line x1="65.0" y1="394.1" x2="65.0" y2="525.2" stroke="#c9a84c" stroke-width="1.5"/>
<line x1="65.0" y1="525.2" x2="380.0" y2="525.2" stroke="#c9a84c" stroke-width="1.5"/>
<line x1="380.0" y1="525.2" x2="380.0" y2="516.7" stroke="#c9a84c" stroke-width="1.5"/>
</g>
<text x="48" y="802" fill="#786432" font-family="monospace" font-size="9">Range: 234.9 x 115.9 mm</text>
<rect x="413" y="70" width="365" height="740" fill="none" stroke="#1e1e23" stroke-width="1"/>
<text x="421" y="86" fill="#dcdcdc" font-family="monospace" font-size="11">Plane +Y (10 profiles)</text>
<defs><clipPath id="clip-1-nist_ftc_06_asme1_ap242-e2"><rect x="414" y="71" width="363" height="738"/></clipPath></defs>
<g clip-path="url(#clip-1-nist_ftc_06_asme1_ap242-e2)">
<line x1="435.0" y1="70" x2="435.0" y2="810" stroke="#1e1e23" stroke-width="0.5"/>
<line x1="447.7" y1="70" x2="447.7" y2="810" stroke="#1e1e23" stroke-width="0.5"/>
<line x1="460.5" y1="70" x2="460.5" y2="810" stroke="#1e1e23" stroke-width="0.5"/>
<line x1="473.2" y1="70" x2="473.2" y2="810" stroke="#1e1e23" stroke-width="0.5"/>
<line x1="485.9" y1="70" x2="485.9" y2="810" stroke="#1e1e23" stroke-width="0.5"/>
<line x1="498.6" y1="70" x2="498.6" y2="810" stroke="#1e1e23" stroke-width="0.5"/>
<line x1="511.3" y1="70" x2="511.3" y2="810" stroke="#1e1e23" stroke-width="0.5"/>
<line x1="524.0" y1="70" x2="524.0" y2="810" stroke="#1e1e23" stroke-width="0.5"/>
<line x1="536.8" y1="70" x2="536.8" y2="810" stroke="#1e1e23" stroke-width="0.5"/>
<line x1="549.5" y1="70" x2="549.5" y2="810" stroke="#1e1e23" stroke-width="0.5"/>
<line x1="562.2" y1="70" x2="562.2" y2="810" stroke="#1e1e23" stroke-width="0.5"/>
<line x1="574.9" y1="70" x2="574.9" y2="810" stroke="#1e1e23" stroke-width="0.5"/>
<line x1="587.6" y1="70" x2="587.6" y2="810" stroke="#1e1e23" stroke-width="0.5"/>
<line x1="600.4" y1="70" x2="600.4" y2="810" stroke="#1e1e23" stroke-width="0.5"/>
<line x1="613.1" y1="70" x2="613.1" y2="810" stroke="#1e1e23" stroke-width="0.5"/>
<line x1="625.8" y1="70" x2="625.8" y2="810" stroke="#1e1e23" stroke-width="0.5"/>
<line x1="638.5" y1="70" x2="638.5" y2="810" stroke="#1e1e23" stroke-width="0.5"/>
<line x1="651.2" y1="70" x2="651.2" y2="810" stroke="#1e1e23" stroke-width="0.5"/>
<line x1="664.0" y1="70" x2="664.0" y2="810" stroke="#1e1e23" stroke-width="0.5"/>
<line x1="676.7" y1="70" x2="676.7" y2="810" stroke="#1e1e23" stroke-width="0.5"/>
<line x1="689.4" y1="70" x2="689.4" y2="810" stroke="#1e1e23" stroke-width="0.5"/>
<line x1="702.1" y1="70" x2="702.1" y2="810" stroke="#1e1e23" stroke-width="0.5"/>
<line x1="714.8" y1="70" x2="714.8" y2="810" stroke="#1e1e23" stroke-width="0.5"/>
<line x1="727.6" y1="70" x2="727.6" y2="810" stroke="#1e1e23" stroke-width="0.5"/>
<line x1="740.3" y1="70" x2="740.3" y2="810" stroke="#1e1e23" stroke-width="0.5"/>
<line x1="753.0" y1="70" x2="753.0" y2="810" stroke="#1e1e23" stroke-width="0.5"/>
<line x1="765.7" y1="70" x2="765.7" y2="810" stroke="#1e1e23" stroke-width="0.5"/>
<line x1="413" y1="651.0" x2="786" y2="651.0" stroke="#1e1e23" stroke-width="0.5"/>
<line x1="413" y1="638.3" x2="786" y2="638.3" stroke="#1e1e23" stroke-width="0.5"/>
<line x1="413" y1="625.6" x2="786" y2="625.6" stroke="#1e1e23" stroke-width="0.5"/>
<line x1="413" y1="612.9" x2="786" y2="612.9" stroke="#1e1e23" stroke-width="0.5"/>
<line x1="413" y1="600.1" x2="786" y2="600.1" stroke="#1e1e23" stroke-width="0.5"/>
<line x1="413" y1="587.4" x2="786" y2="587.4" stroke="#1e1e23" stroke-width="0.5"/>
<line x1="413" y1="574.7" x2="786" y2="574.7" stroke="#1e1e23" stroke-width="0.5"/>
<line x1="413" y1="562.0" x2="786" y2="562.0" stroke="#1e1e23" stroke-width="0.5"/>
<line x1="413" y1="549.3" x2="786" y2="549.3" stroke="#1e1e23" stroke-width="0.5"/>
<line x1="413" y1="536.5" x2="786" y2="536.5" stroke="#1e1e23" stroke-width="0.5"/>
<line x1="413" y1="523.8" x2="786" y2="523.8" stroke="#1e1e23" stroke-width="0.5"/>
<line x1="413" y1="511.1" x2="786" y2="511.1" stroke="#1e1e23" stroke-width="0.5"/>
<line x1="413" y1="498.4" x2="786" y2="498.4" stroke="#1e1e23" stroke-width="0.5"/>
<line x1="413" y1="485.7" x2="786" y2="485.7" stroke="#1e1e23" stroke-width="0.5"/>
<line x1="413" y1="472.9" x2="786" y2="472.9" stroke="#1e1e23" stroke-width="0.5"/>
<line x1="413" y1="460.2" x2="786" y2="460.2" stroke="#1e1e23" stroke-width="0.5"/>
<line x1="413" y1="447.5" x2="786" y2="447.5" stroke="#1e1e23" stroke-width="0.5"/>
<line x1="413" y1="434.8" x2="786" y2="434.8" stroke="#1e1e23" stroke-width="0.5"/>
<line x1="413" y1="422.1" x2="786" y2="422.1" stroke="#1e1e23" stroke-width="0.5"/>
<line x1="413" y1="409.3" x2="786" y2="409.3" stroke="#1e1e23" stroke-width="0.5"/>
<line x1="413" y1="396.6" x2="786" y2="396.6" stroke="#1e1e23" stroke-width="0.5"/>
<line x1="413" y1="383.9" x2="786" y2="383.9" stroke="#1e1e23" stroke-width="0.5"/>
<line x1="413" y1="371.2" x2="786" y2="371.2" stroke="#1e1e23" stroke-width="0.5"/>
<line x1="413" y1="358.5" x2="786" y2="358.5" stroke="#1e1e23" stroke-width="0.5"/>
<line x1="413" y1="345.7" x2="786" y2="345.7" stroke="#1e1e23" stroke-width="0.5"/>
<line x1="413" y1="333.0" x2="786" y2="333.0" stroke="#1e1e23" stroke-width="0.5"/>
<line x1="413" y1="320.3" x2="786" y2="320.3" stroke="#1e1e23" stroke-width="0.5"/>
<line x1="413" y1="307.6" x2="786" y2="307.6" stroke="#1e1e23" stroke-width="0.5"/>
<line x1="413" y1="294.9" x2="786" y2="294.9" stroke="#1e1e23" stroke-width="0.5"/>
<line x1="413" y1="282.1" x2="786" y2="282.1" stroke="#1e1e23" stroke-width="0.5"/>
<line x1="413" y1="269.4" x2="786" y2="269.4" stroke="#1e1e23" stroke-width="0.5"/>
<line x1="413" y1="256.7" x2="786" y2="256.7" stroke="#1e1e23" stroke-width="0.5"/>
<line x1="413" y1="244.0" x2="786" y2="244.0" stroke="#1e1e23" stroke-width="0.5"/>
<circle cx="615.7" cy="592.9" r="14.5" fill="none" stroke="#508ce0" stroke-width="1.5"/>
<text x="634.2" y="596.9" fill="#508ce0" font-family="monospace" font-size="8">ø22.82</text>
<line x1="438.0" y1="303.4" x2="438.0" y2="281.4" stroke="#508ce0" stroke-width="1.5"/>
<line x1="438.0" y1="281.4" x2="454.2" y2="281.4" stroke="#508ce0" stroke-width="1.5"/>
<line x1="454.2" y1="281.4" x2="454.2" y2="253.7" stroke="#508ce0" stroke-width="1.5"/>
<line x1="454.2" y1="253.7" x2="486.5" y2="253.7" stroke="#508ce0" stroke-width="1.5"/>
<line x1="486.5" y1="253.7" x2="486.5" y2="305.6" stroke="#508ce0" stroke-width="1.5"/>
<line x1="486.5" y1="305.6" x2="448.0" y2="305.6" stroke="#508ce0" stroke-width="1.5"/>
<line x1="448.0" y1="305.6" x2="448.0" y2="303.4" stroke="#508ce0" stroke-width="1.5"/>
<line x1="448.0" y1="303.4" x2="440.0" y2="303.4" stroke="#508ce0" stroke-width="1.5"/>
<circle cx="708.6" cy="427.3" r="4.0" fill="none" stroke="#c9a84c" stroke-width="1" stroke-dasharray="3,2"/>
<line x1="708.6" y1="431.3" x2="588.2" y2="431.3" stroke="#c9a84c" stroke-width="1.5"/>
<line x1="588.2" y1="431.3" x2="588.2" y2="463.7" stroke="#c9a84c" stroke-width="1.5"/>
<line x1="588.2" y1="463.7" x2="708.6" y2="463.7" stroke="#c9a84c" stroke-width="1.5"/>
<circle cx="708.6" cy="467.7" r="4.1" fill="none" stroke="#c9a84c" stroke-width="1" stroke-dasharray="3,2"/>
<circle cx="708.6" cy="467.7" r="4.0" fill="none" stroke="#c9a84c" stroke-width="1" stroke-dasharray="3,2"/>
<line x1="712.6" y1="467.7" x2="712.6" y2="641.3" stroke="#c9a84c" stroke-width="1.5"/>
<line x1="712.6" y1="641.3" x2="753.0" y2="641.3" stroke="#c9a84c" stroke-width="1.5"/>
<line x1="753.0" y1="641.3" x2="753.0" y2="253.7" stroke="#c9a84c" stroke-width="1.5"/>
<line x1="753.0" y1="253.7" x2="712.6" y2="253.7" stroke="#c9a84c" stroke-width="1.5"/>
<line x1="712.6" y1="253.7" x2="712.6" y2="427.3" stroke="#c9a84c" stroke-width="1.5"/>
<circle cx="708.7" cy="427.3" r="3.9" fill="none" stroke="#c9a84c" stroke-width="1" stroke-dasharray="3,2"/>
<circle cx="615.7" cy="302.1" r="14.5" fill="none" stroke="#508ce0" stroke-width="1.5"/>
<text x="634.2" y="306.1" fill="#508ce0" font-family="monospace" font-size="8">ø22.83</text>
<line x1="447.9" y1="315.4" x2="448.0" y2="313.2" stroke="#508ce0" stroke-width="1.5"/>
<line x1="448.0" y1="313.2" x2="486.5" y2="313.2" stroke="#508ce0" stroke-width="1.5"/>
<line x1="486.5" y1="313.2" x2="486.5" y2="397.6" stroke="#508ce0" stroke-width="1.5"/>
<line x1="486.5" y1="397.6" x2="448.0" y2="397.6" stroke="#508ce0" stroke-width="1.5"/>
<line x1="448.0" y1="397.6" x2="448.0" y2="395.5" stroke="#508ce0" stroke-width="1.5"/>
<line x1="448.0" y1="395.5" x2="438.0" y2="395.5" stroke="#508ce0" stroke-width="1.5"/>
<line x1="438.0" y1="395.5" x2="438.0" y2="373.4" stroke="#508ce0" stroke-width="1.5"/>
<line x1="438.0" y1="373.4" x2="454.2" y2="373.4" stroke="#508ce0" stroke-width="1.5"/>
<line x1="454.2" y1="373.4" x2="454.2" y2="337.4" stroke="#508ce0" stroke-width="1.5"/>
<line x1="454.2" y1="337.4" x2="438.0" y2="337.4" stroke="#508ce0" stroke-width="1.5"/>
<line x1="438.0" y1="337.4" x2="438.0" y2="315.4" stroke="#508ce0" stroke-width="1.5"/>
<line x1="438.0" y1="315.4" x2="447.9" y2="315.4" stroke="#508ce0" stroke-width="1.5"/>
<line x1="447.9" y1="407.4" x2="448.0" y2="405.3" stroke="#508ce0" stroke-width="1.5"/>
<line x1="448.0" y1="405.3" x2="486.5" y2="405.3" stroke="#508ce0" stroke-width="1.5"/>
<line x1="486.5" y1="405.3" x2="486.5" y2="489.7" stroke="#508ce0" stroke-width="1.5"/>
<line x1="486.5" y1="489.7" x2="448.0" y2="489.7" stroke="#508ce0" stroke-width="1.5"/>
<line x1="448.0" y1="489.7" x2="448.0" y2="487.6" stroke="#508ce0" stroke-width="1.5"/>
<line x1="448.0" y1="487.6" x2="438.0" y2="487.6" stroke="#508ce0" stroke-width="1.5"/>
<line x1="438.0" y1="487.6" x2="438.0" y2="465.5" stroke="#508ce0" stroke-width="1.5"/>
<line x1="438.0" y1="465.5" x2="454.2" y2="465.5" stroke="#508ce0" stroke-width="1.5"/>
<line x1="454.2" y1="465.5" x2="454.2" y2="429.5" stroke="#508ce0" stroke-width="1.5"/>
<line x1="454.2" y1="429.5" x2="438.0" y2="429.5" stroke="#508ce0" stroke-width="1.5"/>
<line x1="438.0" y1="429.5" x2="438.0" y2="407.4" stroke="#508ce0" stroke-width="1.5"/>
<line x1="438.0" y1="407.4" x2="447.9" y2="407.4" stroke="#508ce0" stroke-width="1.5"/>
<line x1="447.9" y1="499.5" x2="448.0" y2="497.3" stroke="#508ce0" stroke-width="1.5"/>
<line x1="448.0" y1="497.3" x2="486.5" y2="497.3" stroke="#508ce0" stroke-width="1.5"/>
<line x1="486.5" y1="497.3" x2="486.5" y2="581.8" stroke="#508ce0" stroke-width="1.5"/>
<line x1="486.5" y1="581.8" x2="448.0" y2="581.8" stroke="#508ce0" stroke-width="1.5"/>
<line x1="448.0" y1="581.8" x2="448.0" y2="579.7" stroke="#508ce0" stroke-width="1.5"/>
<line x1="448.0" y1="579.7" x2="438.0" y2="579.7" stroke="#508ce0" stroke-width="1.5"/>
<line x1="438.0" y1="579.7" x2="438.0" y2="557.6" stroke="#508ce0" stroke-width="1.5"/>
<line x1="438.0" y1="557.6" x2="454.2" y2="557.6" stroke="#508ce0" stroke-width="1.5"/>
<line x1="454.2" y1="557.6" x2="454.2" y2="521.6" stroke="#508ce0" stroke-width="1.5"/>
<line x1="454.2" y1="521.6" x2="438.0" y2="521.6" stroke="#508ce0" stroke-width="1.5"/>
<line x1="438.0" y1="521.6" x2="438.0" y2="499.5" stroke="#508ce0" stroke-width="1.5"/>
<line x1="438.0" y1="499.5" x2="447.9" y2="499.5" stroke="#508ce0" stroke-width="1.5"/>
<line x1="447.9" y1="591.6" x2="448.0" y2="589.4" stroke="#508ce0" stroke-width="1.5"/>
<line x1="448.0" y1="589.4" x2="486.5" y2="589.4" stroke="#508ce0" stroke-width="1.5"/>
<line x1="486.5" y1="589.4" x2="486.5" y2="641.3" stroke="#508ce0" stroke-width="1.5"/>
<line x1="486.5" y1="641.3" x2="454.2" y2="641.3" stroke="#508ce0" stroke-width="1.5"/>
<line x1="454.2" y1="641.3" x2="454.2" y2="613.6" stroke="#508ce0" stroke-width="1.5"/>
<line x1="454.2" y1="613.6" x2="438.0" y2="613.6" stroke="#508ce0" stroke-width="1.5"/>
<line x1="438.0" y1="613.6" x2="438.0" y2="591.6" stroke="#508ce0" stroke-width="1.5"/>
<line x1="438.0" y1="591.6" x2="447.9" y2="591.6" stroke="#508ce0" stroke-width="1.5"/>
<circle cx="551.1" cy="544.4" r="19.7" fill="none" stroke="#508ce0" stroke-width="1.5"/>
<text x="574.8" y="548.4" fill="#508ce0" font-family="monospace" font-size="8">ø31.01</text>
<circle cx="551.1" cy="350.6" r="19.7" fill="none" stroke="#508ce0" stroke-width="1.5"/>
<text x="574.8" y="354.6" fill="#508ce0" font-family="monospace" font-size="8">ø31.01</text>
</g>
<text x="421" y="802" fill="#786432" font-family="monospace" font-size="9">Range: 247.6 x 304.8 mm</text>
<rect x="786" y="70" width="365" height="740" fill="none" stroke="#1e1e23" stroke-width="1"/>
<text x="794" y="86" fill="#dcdcdc" font-family="monospace" font-size="11">Plane +Z (1 profiles)</text>
<defs><clipPath id="clip-2-nist_ftc_06_asme1_ap242-e2"><rect x="787" y="71" width="363" height="738"/></clipPath></defs>
<g clip-path="url(#clip-2-nist_ftc_06_asme1_ap242-e2)">
<line x1="803.1" y1="70" x2="803.1" y2="810" stroke="#1e1e23" stroke-width="0.5"/>
<line x1="813.5" y1="70" x2="813.5" y2="810" stroke="#1e1e23" stroke-width="0.5"/>
<line x1="823.8" y1="70" x2="823.8" y2="810" stroke="#1e1e23" stroke-width="0.5"/>
<line x1="834.1" y1="70" x2="834.1" y2="810" stroke="#1e1e23" stroke-width="0.5"/>
<line x1="844.5" y1="70" x2="844.5" y2="810" stroke="#1e1e23" stroke-width="0.5"/>
<line x1="854.8" y1="70" x2="854.8" y2="810" stroke="#1e1e23" stroke-width="0.5"/>
<line x1="865.2" y1="70" x2="865.2" y2="810" stroke="#1e1e23" stroke-width="0.5"/>
<line x1="875.5" y1="70" x2="875.5" y2="810" stroke="#1e1e23" stroke-width="0.5"/>
<line x1="885.8" y1="70" x2="885.8" y2="810" stroke="#1e1e23" stroke-width="0.5"/>
<line x1="896.2" y1="70" x2="896.2" y2="810" stroke="#1e1e23" stroke-width="0.5"/>
<line x1="906.5" y1="70" x2="906.5" y2="810" stroke="#1e1e23" stroke-width="0.5"/>
<line x1="916.8" y1="70" x2="916.8" y2="810" stroke="#1e1e23" stroke-width="0.5"/>
<line x1="927.2" y1="70" x2="927.2" y2="810" stroke="#1e1e23" stroke-width="0.5"/>
<line x1="937.5" y1="70" x2="937.5" y2="810" stroke="#1e1e23" stroke-width="0.5"/>
<line x1="947.8" y1="70" x2="947.8" y2="810" stroke="#1e1e23" stroke-width="0.5"/>
<line x1="958.2" y1="70" x2="958.2" y2="810" stroke="#1e1e23" stroke-width="0.5"/>
<line x1="968.5" y1="70" x2="968.5" y2="810" stroke="#1e1e23" stroke-width="0.5"/>
<line x1="978.8" y1="70" x2="978.8" y2="810" stroke="#1e1e23" stroke-width="0.5"/>
<line x1="989.2" y1="70" x2="989.2" y2="810" stroke="#1e1e23" stroke-width="0.5"/>
<line x1="999.5" y1="70" x2="999.5" y2="810" stroke="#1e1e23" stroke-width="0.5"/>
<line x1="1009.8" y1="70" x2="1009.8" y2="810" stroke="#1e1e23" stroke-width="0.5"/>
<line x1="1020.2" y1="70" x2="1020.2" y2="810" stroke="#1e1e23" stroke-width="0.5"/>
<line x1="1030.5" y1="70" x2="1030.5" y2="810" stroke="#1e1e23" stroke-width="0.5"/>
<line x1="1040.8" y1="70" x2="1040.8" y2="810" stroke="#1e1e23" stroke-width="0.5"/>
<line x1="1051.2" y1="70" x2="1051.2" y2="810" stroke="#1e1e23" stroke-width="0.5"/>
<line x1="1061.5" y1="70" x2="1061.5" y2="810" stroke="#1e1e23" stroke-width="0.5"/>
<line x1="1071.8" y1="70" x2="1071.8" y2="810" stroke="#1e1e23" stroke-width="0.5"/>
<line x1="1082.2" y1="70" x2="1082.2" y2="810" stroke="#1e1e23" stroke-width="0.5"/>
<line x1="1092.5" y1="70" x2="1092.5" y2="810" stroke="#1e1e23" stroke-width="0.5"/>
<line x1="1102.9" y1="70" x2="1102.9" y2="810" stroke="#1e1e23" stroke-width="0.5"/>
<line x1="1113.2" y1="70" x2="1113.2" y2="810" stroke="#1e1e23" stroke-width="0.5"/>
<line x1="1123.5" y1="70" x2="1123.5" y2="810" stroke="#1e1e23" stroke-width="0.5"/>
<line x1="1133.9" y1="70" x2="1133.9" y2="810" stroke="#1e1e23" stroke-width="0.5"/>
<line x1="786" y1="474.2" x2="1159" y2="474.2" stroke="#1e1e23" stroke-width="0.5"/>
<line x1="786" y1="463.9" x2="1159" y2="463.9" stroke="#1e1e23" stroke-width="0.5"/>
<line x1="786" y1="453.6" x2="1159" y2="453.6" stroke="#1e1e23" stroke-width="0.5"/>
<line x1="786" y1="443.2" x2="1159" y2="443.2" stroke="#1e1e23" stroke-width="0.5"/>
<line x1="786" y1="432.9" x2="1159" y2="432.9" stroke="#1e1e23" stroke-width="0.5"/>
<line x1="786" y1="422.6" x2="1159" y2="422.6" stroke="#1e1e23" stroke-width="0.5"/>
<line x1="786" y1="412.2" x2="1159" y2="412.2" stroke="#1e1e23" stroke-width="0.5"/>
<circle cx="985.0" cy="438.1" r="3.4" fill="none" stroke="#c9a84c" stroke-width="1" stroke-dasharray="3,2"/>
<line x1="981.6" y1="438.1" x2="981.6" y2="420.8" stroke="#c9a84c" stroke-width="1.5"/>
<line x1="981.6" y1="420.8" x2="955.4" y2="420.8" stroke="#c9a84c" stroke-width="1.5"/>
<line x1="955.4" y1="420.8" x2="955.3" y2="438.6" stroke="#c9a84c" stroke-width="1.5"/>
<circle cx="952.1" cy="438.2" r="3.3" fill="none" stroke="#c9a84c" stroke-width="1" stroke-dasharray="3,2"/>
<line x1="952.2" y1="441.4" x2="811.0" y2="441.4" stroke="#c9a84c" stroke-width="1.5"/>
<line x1="811.0" y1="441.4" x2="811.0" y2="474.2" stroke="#c9a84c" stroke-width="1.5"/>
<line x1="811.0" y1="474.2" x2="1126.0" y2="474.2" stroke="#c9a84c" stroke-width="1.5"/>
<line x1="1126.0" y1="474.2" x2="1126.0" y2="441.4" stroke="#c9a84c" stroke-width="1.5"/>
<line x1="1126.0" y1="441.4" x2="984.9" y2="441.4" stroke="#c9a84c" stroke-width="1.5"/>
<circle cx="984.9" cy="438.2" r="3.3" fill="none" stroke="#c9a84c" stroke-width="1" stroke-dasharray="3,2"/>
</g>
<text x="794" y="802" fill="#786432" font-family="monospace" font-size="9">Range: 304.8 x 51.8 mm</text>
<text x="40" y="880" fill="#c9a84c" font-family="monospace" font-size="9">Features (8): →× Linear Pattern ×3 (▭ Pocket 38.1×66.4) | ⊙ Hole ø22.82 | ⊙ Hole ø22.83 | ▭ Pocket 38.1×40.8 | ▭ Pocket 38.1×40.8 | ⊙ Hole ø31.01 | ⊙ Hole ø31.01 | ▭ Fillet Boss 304.8×51.8 R3.2</text>
</svg>