<svg xmlns="http://www.w3.org/2000/svg" width="1200" height="900" viewBox="0 0 1200 900">
<rect width="1200" height="900" fill="#08090d"/>
<text x="40" y="30" fill="#c9a84c" font-family="monospace" font-size="16" font-weight="bold">nist_ftc_07_asme1_ap242-e2.stp  </text>
<text x="40" y="50" fill="#786432" font-family="monospace" font-size="11">BBox: 310.2 x 135.9 x 254.8 mm   Diag: 423.8mm</text>
<rect x="40" y="70" width="365" height="740" fill="none" stroke="#1e1e23" stroke-width="1"/>
<text x="48" y="86" fill="#dcdcdc" font-family="monospace" font-size="11">Plane +X (1 profiles)</text>
<defs><clipPath id="clip-0-nist_ftc_07_asme1_ap242-e2"><rect x="41" y="71" width="363" height="738"/></clipPath></defs>
<g clip-path="url(#clip-0-nist_ftc_07_asme1_ap242-e2)">
<line x1="58.7" y1="70" x2="58.7" y2="810" stroke="#1e1e23" stroke-width="0.5"/>
<line x1="65.1" y1="70" x2="65.1" y2="810" stroke="#1e1e23" stroke-width="0.5"/>
<line x1="71.6" y1="70" x2="71.6" y2="810" stroke="#1e1e23" stroke-width="0.5"/>
<line x1="78.0" y1="70" x2="78.0" y2="810" stroke="#1e1e23" stroke-width="0.5"/>
<line x1="84.4" y1="70" x2="84.4" y2="810" stroke="#1e1e23" stroke-width="0.5"/>
<line x1="90.8" y1="70" x2="90.8" y2="810" stroke="#1e1e23" stroke-width="0.5"/>
<line x1="97.3" y1="70" x2="97.3" y2="810" stroke="#1e1e23" stroke-width="0.5"/>
<line x1="103.7" y1="70" x2="103.7" y2="810" stroke="#1e1e23" stroke-width="0.5"/>
<line x1="110.1" y1="70" x2="110.1" y2="810" stroke="#1e1e23" stroke-width="0.5"/>
<line x1="116.6" y1="70" x2="116.6" y2="810" stroke="#1e1e23" stroke-width="0.5"/>
<line x1="123.0" y1="70" x2="123.0" y2="810" stroke="#1e1e23" stroke-width="0.5"/>
<line x1="129.4" y1="70" x2="129.4" y2="810" stroke="#1e1e23" stroke-width="0.5"/>
<line x1="135.8" y1="70" x2="135.8" y2="810" stroke="#1e1e23" stroke-width="0.5"/>
<line x1="142.3" y1="70" x2="142.3" y2="810" stroke="#1e1e23" stroke-width="0.5"/>
<line x1="148.7" y1="70" x2="148.7" y2="810" stroke="#1e1e23" stroke-width="0.5"/>
<line x1="155.1" y1="70" x2="155.1" y2="810" stroke="#1e1e23" stroke-width="0.5"/>
<line x1="161.5" y1="70" x2="161.5" y2="810" stroke="#1e1e23" stroke-width="0.5"/>
<line x1="168.0" y1="70" x2="168.0" y2="810" stroke="#1e1e23" stroke-width="0.5"/>
<line x1="174.4" y1="70" x2="174.4" y2="810" stroke="#1e1e23" stroke-width="0.5"/>
<line x1="180.8" y1="70" x2="180.8" y2="810" stroke="#1e1e23" stroke-width="0.5"/>
<line x1="187.3" y1="70" x2="187.3" y2="810" stroke="#1e1e23" stroke-width="0.5"/>
<line x1="193.7" y1="70" x2="193.7" y2="810" stroke="#1e1e23" stroke-width="0.5"/>
<line x1="200.1" y1="70" x2="200.1" y2="810" stroke="#1e1e23" stroke-width="0.5"/>
<line x1="206.5" y1="70" x2="206.5" y2="810" stroke="#1e1e23" stroke-width="0.5"/>
<line x1="213.0" y1="70" x2="213.0" y2="810" stroke="#1e1e23" stroke-width="0.5"/>
<line x1="219.4" y1="70" x2="219.4" y2="810" stroke="#1e1e23" stroke-width="0.5"/>
<line x1="225.8" y1="70" x2="225.8" y2="810" stroke="#1e1e23" stroke-width="0.5"/>
<line x1="232.2" y1="70" x2="232.2" y2="810" stroke="#1e1e23" stroke-width="0.5"/>
<line x1="238.7" y1="70" x2="238.7" y2="810" stroke="#1e1e23" stroke-width="0.5"/>
<line x1="245.1" y1="70" x2="245.1" y2="810" stroke="#1e1e23" stroke-width="0.5"/>
<line x1="251.5" y1="70" x2="251.5" y2="810" stroke="#1e1e23" stroke-width="0.5"/>
<line x1="258.0" y1="70" x2="258.0" y2="810" stroke="#1e1e23" stroke-width="0.5"/>
<line x1="264.4" y1="70" x2="264.4" y2="810" stroke="#1e1e23" stroke-width="0.5"/>
<line x1="270.8" y1="70" x2="270.8" y2="810" stroke="#1e1e23" stroke-width="0.5"/>
<line x1="277.2" y1="70" x2="277.2" y2="810" stroke="#1e1e23" stroke-width="0.5"/>
<line x1="283.7" y1="70" x2="283.7" y2="810" stroke="#1e1e23" stroke-width="0.5"/>
<line x1="290.1" y1="70" x2="290.1" y2="810" stroke="#1e1e23" stroke-width="0.5"/>
<line x1="296.5" y1="70" x2="296.5" y2="810" stroke="#1e1e23" stroke-width="0.5"/>
<line x1="302.9" y1="70" x2="302.9" y2="810" stroke="#1e1e23" stroke-width="0.5"/>
<line x1="309.4" y1="70" x2="309.4" y2="810" stroke="#1e1e23" stroke-width="0.5"/>
<line x1="315.8" y1="70" x2="315.8" y2="810" stroke="#1e1e23" stroke-width="0.5"/>
<line x1="322.2" y1="70" x2="322.2" y2="810" stroke="#1e1e23" stroke-width="0.5"/>
<line x1="328.6" y1="70" x2="328.6" y2="810" stroke="#1e1e23" stroke-width="0.5"/>
<line x1="335.1" y1="70" x2="335.1" y2="810" stroke="#1e1e23" stroke-width="0.5"/>
<line x1="341.5" y1="70" x2="341.5" y2="810" stroke="#1e1e23" stroke-width="0.5"/>
<line x1="347.9" y1="70" x2="347.9" y2="810" stroke="#1e1e23" stroke-width="0.5"/>
<line x1="354.4" y1="70" x2="354.4" y2="810" stroke="#1e1e23" stroke-width="0.5"/>
<line x1="360.8" y1="70" x2="360.8" y2="810" stroke="#1e1e23" stroke-width="0.5"/>
<line x1="367.2" y1="70" x2="367.2" y2="810" stroke="#1e1e23" stroke-width="0.5"/>
<line x1="373.6" y1="70" x2="373.6" y2="810" stroke="#1e1e23" stroke-width="0.5"/>
<line x1="380.1" y1="70" x2="380.1" y2="810" stroke="#1e1e23" stroke-width="0.5"/>
<line x1="40" y1="653.0" x2="413" y2="653.0" stroke="#1e1e23" stroke-width="0.5"/>
<line x1="40" y1="646.6" x2="413" y2="646.6" stroke="#1e1e23" stroke-width="0.5"/>
<line x1="40" y1="640.1" x2="413" y2="640.1" stroke="#1e1e23" stroke-width="0.5"/>
<line x1="40" y1="633.7" x2="413" y2="633.7" stroke="#1e1e23" stroke-width="0.5"/>
<line x1="40" y1="627.3" x2="413" y2="627.3" stroke="#1e1e23" stroke-width="0.5"/>
<line x1="40" y1="620.8" x2="413" y2="620.8" stroke="#1e1e23" stroke-width="0.5"/>
<line x1="40" y1="614.4" x2="413" y2="614.4" stroke="#1e1e23" stroke-width="0.5"/>
<line x1="40" y1="608.0" x2="413" y2="608.0" stroke="#1e1e23" stroke-width="0.5"/>
<line x1="40" y1="601.6" x2="413" y2="601.6" stroke="#1e1e23" stroke-width="0.5"/>
<line x1="40" y1="595.1" x2="413" y2="595.1" stroke="#1e1e23" stroke-width="0.5"/>
<line x1="40" y1="588.7" x2="413" y2="588.7" stroke="#1e1e23" stroke-width="0.5"/>
<line x1="40" y1="582.3" x2="413" y2="582.3" stroke="#1e1e23" stroke-width="0.5"/>
<line x1="40" y1="575.9" x2="413" y2="575.9" stroke="#1e1e23" stroke-width="0.5"/>
<line x1="40" y1="569.4" x2="413" y2="569.4" stroke="#1e1e23" stroke-width="0.5"/>
<line x1="40" y1="563.0" x2="413" y2="563.0" stroke="#1e1e23" stroke-width="0.5"/>
<line x1="40" y1="556.6" x2="413" y2="556.6" stroke="#1e1e23" stroke-width="0.5"/>
<line x1="40" y1="550.1" x2="413" y2="550.1" stroke="#1e1e23" stroke-width="0.5"/>
<line x1="40" y1="543.7" x2="413" y2="543.7" stroke="#1e1e23" stroke-width="0.5"/>
<line x1="40" y1="537.3" x2="413" y2="537.3" stroke="#1e1e23" stroke-width="0.5"/>
<line x1="40" y1="530.9" x2="413" y2="530.9" stroke="#1e1e23" stroke-width="0.5"/>
<line x1="40" y1="524.4" x2="413" y2="524.4" stroke="#1e1e23" stroke-width="0.5"/>
<line x1="40" y1="518.0" x2="413" y2="518.0" stroke="#1e1e23" stroke-width="0.5"/>
<line x1="40" y1="511.6" x2="413" y2="511.6" stroke="#1e1e23" stroke-width="0.5"/>
<line x1="40" y1="505.2" x2="413" y2="505.2" stroke="#1e1e23" stroke-width="0.5"/>
<line x1="40" y1="498.7" x2="413" y2="498.7" stroke="#1e1e23" stroke-width="0.5"/>
<line x1="40" y1="492.3" x2="413" y2="492.3" stroke="#1e1e23" stroke-width="0.5"/>
<line x1="40" y1="485.9" x2="413" y2="485.9" stroke="#1e1e23" stroke-width="0.5"/>
<line x1="40" y1="479.4" x2="413" y2="479.4" stroke="#1e1e23" stroke-width="0.5"/>
<line x1="40" y1="473.0" x2="413" y2="473.0" stroke="#1e1e23" stroke-width="0.5"/>
<line x1="40" y1="466.6" x2="413" y2="466.6" stroke="#1e1e23" stroke-width="0.5"/>
<line x1="40" y1="460.2" x2="413" y2="460.2" stroke="#1e1e23" stroke-width="0.5"/>
<line x1="40" y1="453.7" x2="413" y2="453.7" stroke="#1e1e23" stroke-width="0.5"/>
<line x1="40" y1="447.3" x2="413" y2="447.3" stroke="#1e1e23" stroke-width="0.5"/>
<line x1="40" y1="440.9" x2="413" y2="440.9" stroke="#1e1e23" stroke-width="0.5"/>
<line x1="40" y1="434.5" x2="413" y2="434.5" stroke="#1e1e23" stroke-width="0.5"/>
<line x1="40" y1="428.0" x2="413" y2="428.0" stroke="#1e1e23" stroke-width="0.5"/>
<line x1="40" y1="421.6" x2="413" y2="421.6" stroke="#1e1e23" stroke-width="0.5"/>
<line x1="40" y1="415.2" x2="413" y2="415.2" stroke="#1e1e23" stroke-width="0.5"/>
<line x1="40" y1="408.8" x2="413" y2="408.8" stroke="#1e1e23" stroke-width="0.5"/>
<line x1="40" y1="402.3" x2="413" y2="402.3" stroke="#1e1e23" stroke-width="0.5"/>
<line x1="40" y1="395.9" x2="413" y2="395.9" stroke="#1e1e23" stroke-width="0.5"/>
<line x1="40" y1="389.5" x2="413" y2="389.5" stroke="#1e1e23" stroke-width="0.5"/>
<line x1="40" y1="383.0" x2="413" y2="383.0" stroke="#1e1e23" stroke-width="0.5"/>
<line x1="40" y1="376.6" x2="413" y2="376.6" stroke="#1e1e23" stroke-width="0.5"/>
<line x1="40" y1="370.2" x2="413" y2="370.2" stroke="#1e1e23" stroke-width="0.5"/>
<line x1="40" y1="363.8" x2="413" y2="363.8" stroke="#1e1e23" stroke-width="0.5"/>
<line x1="40" y1="357.3" x2="413" y2="357.3" stroke="#1e1e23" stroke-width="0.5"/>
<line x1="40" y1="350.9" x2="413" y2="350.9" stroke="#1e1e23" stroke-width="0.5"/>
<line x1="40" y1="344.5" x2="413" y2="344.5" stroke="#1e1e23" stroke-width="0.5"/>
<line x1="40" y1="338.1" x2="413" y2="338.1" stroke="#1e1e23" stroke-width="0.5"/>
<line x1="40" y1="331.6" x2="413" y2="331.6" stroke="#1e1e23" stroke-width="0.5"/>
<line x1="40" y1="325.2" x2="413" y2="325.2" stroke="#1e1e23" stroke-width="0.5"/>
<line x1="40" y1="318.8" x2="413" y2="318.8" stroke="#1e1e23" stroke-width="0.5"/>
<line x1="40" y1="312.3" x2="413" y2="312.3" stroke="#1e1e23" stroke-width="0.5"/>
<line x1="40" y1="305.9" x2="413" y2="305.9" stroke="#1e1e23" stroke-width="0.5"/>
<line x1="40" y1="299.5" x2="413" y2="299.5" stroke="#1e1e23" stroke-width="0.5"/>
<line x1="40" y1="293.1" x2="413" y2="293.1" stroke="#1e1e23" stroke-width="0.5"/>
<line x1="40" y1="286.6" x2="413" y2="286.6" stroke="#1e1e23" stroke-width="0.5"/>
<line x1="40" y1="280.2" x2="413" y2="280.2" stroke="#1e1e23" stroke-width="0.5"/>
<line x1="40" y1="273.8" x2="413" y2="273.8" stroke="#1e1e23" stroke-width="0.5"/>
<line x1="40" y1="267.4" x2="413" y2="267.4" stroke="#1e1e23" stroke-width="0.5"/>
<line x1="40" y1="260.9" x2="413" y2="260.9" stroke="#1e1e23" stroke-width="0.5"/>
<line x1="40" y1="254.5" x2="413" y2="254.5" stroke="#1e1e23" stroke-width="0.5"/>
<line x1="40" y1="248.1" x2="413" y2="248.1" stroke="#1e1e23" stroke-width="0.5"/>
<line x1="40" y1="241.6" x2="413" y2="241.6" stroke="#1e1e23" stroke-width="0.5"/>
<circle cx="89.3" cy="562.7" r="0.3" fill="none" stroke="#508ce0" stroke-width="1" stroke-dasharray="3,2"/>
<line x1="89.3" y1="563.0" x2="86.9" y2="563.0" stroke="#508ce0" stroke-width="1.5"/>
<circle cx="86.9" cy="562.7" r="0.3" fill="none" stroke="#508ce0" stroke-width="1.5"/>
<text x="91.2" y="566.7" fill="#508ce0" font-family="monospace" font-size="8">ø0.89</text>
<circle cx="86.9" cy="562.7" r="0.3" fill="none" stroke="#508ce0" stroke-width="1" stroke-dasharray="3,2"/>
<line x1="86.6" y1="562.7" x2="86.6" y2="561.3" stroke="#508ce0" stroke-width="1.5"/>
<line x1="86.6" y1="561.3" x2="83.5" y2="561.3" stroke="#508ce0" stroke-width="1.5"/>
<line x1="83.5" y1="561.3" x2="85.7" y2="569.2" stroke="#508ce0" stroke-width="1.5"/>
<circle cx="83.5" cy="569.7" r="2.3" fill="none" stroke="#508ce0" stroke-width="1" stroke-dasharray="3,2"/>
<line x1="85.7" y1="569.7" x2="87.1" y2="645.0" stroke="#508ce0" stroke-width="1.5"/>
<circle cx="89.0" cy="645.0" r="2.0" fill="none" stroke="#508ce0" stroke-width="1" stroke-dasharray="3,2"/>
<circle cx="89.0" cy="644.9" r="2.1" fill="none" stroke="#508ce0" stroke-width="1" stroke-dasharray="3,2"/>
<line x1="89.0" y1="647.0" x2="221.2" y2="647.0" stroke="#508ce0" stroke-width="1.5"/>
<circle cx="221.2" cy="645.0" r="2.0" fill="none" stroke="#508ce0" stroke-width="1" stroke-dasharray="3,2"/>
<circle cx="221.1" cy="645.0" r="2.1" fill="none" stroke="#508ce0" stroke-width="1" stroke-dasharray="3,2"/>
<line x1="223.2" y1="645.0" x2="224.5" y2="569.7" stroke="#508ce0" stroke-width="1.5"/>
<circle cx="226.8" cy="569.7" r="2.3" fill="none" stroke="#508ce0" stroke-width="1" stroke-dasharray="3,2"/>
<line x1="224.6" y1="569.2" x2="226.7" y2="561.3" stroke="#508ce0" stroke-width="1.5"/>
<line x1="226.7" y1="561.3" x2="223.7" y2="561.3" stroke="#508ce0" stroke-width="1.5"/>
<line x1="223.7" y1="561.3" x2="223.6" y2="562.8" stroke="#508ce0" stroke-width="1.5"/>
<circle cx="223.3" cy="562.7" r="0.3" fill="none" stroke="#508ce0" stroke-width="1" stroke-dasharray="3,2"/>
<circle cx="222.5" cy="405.5" r="157.5" fill="none" stroke="#508ce0" stroke-width="1.5"/>
<text x="384.0" y="409.5" fill="#508ce0" font-family="monospace" font-size="8">ø490.11</text>
<circle cx="220.9" cy="562.7" r="0.3" fill="none" stroke="#508ce0" stroke-width="1" stroke-dasharray="3,2"/>
<line x1="220.6" y1="562.7" x2="220.6" y2="561.3" stroke="#508ce0" stroke-width="1.5"/>
<line x1="220.6" y1="561.3" x2="218.5" y2="561.3" stroke="#508ce0" stroke-width="1.5"/>
<line x1="218.5" y1="561.3" x2="217.1" y2="642.7" stroke="#508ce0" stroke-width="1.5"/>
<circle cx="216.1" cy="642.7" r="1.0" fill="none" stroke="#508ce0" stroke-width="1" stroke-dasharray="3,2"/>
<line x1="216.1" y1="643.7" x2="94.1" y2="643.7" stroke="#508ce0" stroke-width="1.5"/>
<circle cx="94.1" cy="642.7" r="1.0" fill="none" stroke="#508ce0" stroke-width="1" stroke-dasharray="3,2"/>
<circle cx="94.1" cy="642.7" r="1.0" fill="none" stroke="#508ce0" stroke-width="1" stroke-dasharray="3,2"/>
<line x1="93.1" y1="642.7" x2="91.7" y2="561.3" stroke="#508ce0" stroke-width="1.5"/>
<line x1="91.7" y1="561.3" x2="89.6" y2="561.3" stroke="#508ce0" stroke-width="1.5"/>
<line x1="89.6" y1="561.3" x2="89.6" y2="562.7" stroke="#508ce0" stroke-width="1.5"/>
</g>
<text x="48" y="802" fill="#786432" font-family="monospace" font-size="9">Range: 490.1 x 620.9 mm</text>
<rect x="413" y="70" width="365" height="740" fill="none" stroke="#1e1e23" stroke-width="1"/>
<text x="421" y="86" fill="#dcdcdc" font-family="monospace" font-size="11">Plane +Y (2 profiles)</text>
<defs><clipPath id="clip-1-nist_ftc_07_asme1_ap242-e2"><rect x="414" y="71" width="363" height="738"/></clipPath></defs>
<g clip-path="url(#clip-1-nist_ftc_07_asme1_ap242-e2)">
<line x1="433.7" y1="70" x2="433.7" y2="810" stroke="#1e1e23" stroke-width="0.5"/>
<line x1="448.4" y1="70" x2="448.4" y2="810" stroke="#1e1e23" stroke-width="0.5"/>
<line x1="463.1" y1="70" x2="463.1" y2="810" stroke="#1e1e23" stroke-width="0.5"/>
<line x1="477.8" y1="70" x2="477.8" y2="810" stroke="#1e1e23" stroke-width="0.5"/>
<line x1="492.5" y1="70" x2="492.5" y2="810" stroke="#1e1e23" stroke-width="0.5"/>
<line x1="507.2" y1="70" x2="507.2" y2="810" stroke="#1e1e23" stroke-width="0.5"/>
<line x1="522.0" y1="70" x2="522.0" y2="810" stroke="#1e1e23" stroke-width="0.5"/>
<line x1="536.7" y1="70" x2="536.7" y2="810" stroke="#1e1e23" stroke-width="0.5"/>
<line x1="551.4" y1="70" x2="551.4" y2="810" stroke="#1e1e23" stroke-width="0.5"/>
<line x1="566.1" y1="70" x2="566.1" y2="810" stroke="#1e1e23" stroke-width="0.5"/>
<line x1="580.8" y1="70" x2="580.8" y2="810" stroke="#1e1e23" stroke-width="0.5"/>
<line x1="595.5" y1="70" x2="595.5" y2="810" stroke="#1e1e23" stroke-width="0.5"/>
<line x1="610.3" y1="70" x2="610.3" y2="810" stroke="#1e1e23" stroke-width="0.5"/>
<line x1="625.0" y1="70" x2="625.0" y2="810" stroke="#1e1e23" stroke-width="0.5"/>
<line x1="639.7" y1="70" x2="639.7" y2="810" stroke="#1e1e23" stroke-width="0.5"/>
<line x1="654.4" y1="70" x2="654.4" y2="810" stroke="#1e1e23" stroke-width="0.5"/>
<line x1="669.1" y1="70" x2="669.1" y2="810" stroke="#1e1e23" stroke-width="0.5"/>
<line x1="683.8" y1="70" x2="683.8" y2="810" stroke="#1e1e23" stroke-width="0.5"/>
<line x1="698.5" y1="70" x2="698.5" y2="810" stroke="#1e1e23" stroke-width="0.5"/>
<line x1="713.3" y1="70" x2="713.3" y2="810" stroke="#1e1e23" stroke-width="0.5"/>
<line x1="728.0" y1="70" x2="728.0" y2="810" stroke="#1e1e23" stroke-width="0.5"/>
<line x1="742.7" y1="70" x2="742.7" y2="810" stroke="#1e1e23" stroke-width="0.5"/>
<line x1="757.4" y1="70" x2="757.4" y2="810" stroke="#1e1e23" stroke-width="0.5"/>
<line x1="413" y1="682.9" x2="786" y2="682.9" stroke="#1e1e23" stroke-width="0.5"/>
<line x1="413" y1="668.2" x2="786" y2="668.2" stroke="#1e1e23" stroke-width="0.5"/>
<line x1="413" y1="653.5" x2="786" y2="653.5" stroke="#1e1e23" stroke-width="0.5"/>
<line x1="413" y1="638.8" x2="786" y2="638.8" stroke="#1e1e23" stroke-width="0.5"/>
<line x1="413" y1="624.1" x2="786" y2="624.1" stroke="#1e1e23" stroke-width="0.5"/>
<line x1="413" y1="609.4" x2="786" y2="609.4" stroke="#1e1e23" stroke-width="0.5"/>
<line x1="413" y1="594.6" x2="786" y2="594.6" stroke="#1e1e23" stroke-width="0.5"/>
<line x1="413" y1="579.9" x2="786" y2="579.9" stroke="#1e1e23" stroke-width="0.5"/>
<line x1="413" y1="565.2" x2="786" y2="565.2" stroke="#1e1e23" stroke-width="0.5"/>
<line x1="413" y1="550.5" x2="786" y2="550.5" stroke="#1e1e23" stroke-width="0.5"/>
<line x1="413" y1="535.8" x2="786" y2="535.8" stroke="#1e1e23" stroke-width="0.5"/>
<line x1="413" y1="521.1" x2="786" y2="521.1" stroke="#1e1e23" stroke-width="0.5"/>
<line x1="413" y1="506.4" x2="786" y2="506.4" stroke="#1e1e23" stroke-width="0.5"/>
<line x1="413" y1="491.6" x2="786" y2="491.6" stroke="#1e1e23" stroke-width="0.5"/>
<line x1="413" y1="476.9" x2="786" y2="476.9" stroke="#1e1e23" stroke-width="0.5"/>
<line x1="413" y1="462.2" x2="786" y2="462.2" stroke="#1e1e23" stroke-width="0.5"/>
<line x1="413" y1="447.5" x2="786" y2="447.5" stroke="#1e1e23" stroke-width="0.5"/>
<line x1="413" y1="432.8" x2="786" y2="432.8" stroke="#1e1e23" stroke-width="0.5"/>
<line x1="413" y1="418.1" x2="786" y2="418.1" stroke="#1e1e23" stroke-width="0.5"/>
<line x1="413" y1="403.3" x2="786" y2="403.3" stroke="#1e1e23" stroke-width="0.5"/>
<line x1="413" y1="388.6" x2="786" y2="388.6" stroke="#1e1e23" stroke-width="0.5"/>
<line x1="413" y1="373.9" x2="786" y2="373.9" stroke="#1e1e23" stroke-width="0.5"/>
<line x1="413" y1="359.2" x2="786" y2="359.2" stroke="#1e1e23" stroke-width="0.5"/>
<line x1="413" y1="344.5" x2="786" y2="344.5" stroke="#1e1e23" stroke-width="0.5"/>
<line x1="413" y1="329.8" x2="786" y2="329.8" stroke="#1e1e23" stroke-width="0.5"/>
<line x1="413" y1="315.1" x2="786" y2="315.1" stroke="#1e1e23" stroke-width="0.5"/>
<line x1="413" y1="300.3" x2="786" y2="300.3" stroke="#1e1e23" stroke-width="0.5"/>
<line x1="413" y1="285.6" x2="786" y2="285.6" stroke="#1e1e23" stroke-width="0.5"/>
<line x1="413" y1="270.9" x2="786" y2="270.9" stroke="#1e1e23" stroke-width="0.5"/>
<line x1="413" y1="256.2" x2="786" y2="256.2" stroke="#1e1e23" stroke-width="0.5"/>
<line x1="413" y1="241.5" x2="786" y2="241.5" stroke="#1e1e23" stroke-width="0.5"/>
<line x1="413" y1="226.8" x2="786" y2="226.8" stroke="#1e1e23" stroke-width="0.5"/>
<line x1="413" y1="212.0" x2="786" y2="212.0" stroke="#1e1e23" stroke-width="0.5"/>
<circle cx="701.8" cy="654.2" r="2.0" fill="none" stroke="#c9a84c" stroke-width="1.5"/>
<text x="707.8" y="658.2" fill="#c9a84c" font-family="monospace" font-size="8">ø2.76</text>
<line x1="703.0" y1="655.9" x2="738.3" y2="620.6" stroke="#c9a84c" stroke-width="1.5"/>
<circle cx="736.7" cy="619.0" r="2.3" fill="none" stroke="#c9a84c" stroke-width="1" stroke-dasharray="3,2"/>
<line x1="739.0" y1="619.2" x2="739.0" y2="275.9" stroke="#c9a84c" stroke-width="1.5"/>
<circle cx="736.8" cy="275.9" r="2.2" fill="none" stroke="#c9a84c" stroke-width="1" stroke-dasharray="3,2"/>
<circle cx="736.8" cy="275.9" r="2.1" fill="none" stroke="#c9a84c" stroke-width="1.5"/>
<text x="742.9" y="279.9" fill="#c9a84c" font-family="monospace" font-size="8">ø2.89</text>
<line x1="738.5" y1="274.6" x2="703.3" y2="239.3" stroke="#c9a84c" stroke-width="1.5"/>
<circle cx="701.7" cy="240.9" r="2.3" fill="none" stroke="#c9a84c" stroke-width="1" stroke-dasharray="3,2"/>
<line x1="702.0" y1="238.7" x2="489.4" y2="238.7" stroke="#c9a84c" stroke-width="1.5"/>
<circle cx="489.4" cy="241.0" r="2.3" fill="none" stroke="#c9a84c" stroke-width="1.5"/>
<text x="495.7" y="245.0" fill="#c9a84c" font-family="monospace" font-size="8">ø3.16</text>
<circle cx="489.4" cy="241.0" r="2.3" fill="none" stroke="#c9a84c" stroke-width="1.5"/>
<text x="495.8" y="245.0" fill="#c9a84c" font-family="monospace" font-size="8">ø3.18</text>
<line x1="488.2" y1="239.1" x2="452.8" y2="274.4" stroke="#c9a84c" stroke-width="1.5"/>
<circle cx="454.4" cy="275.9" r="2.2" fill="none" stroke="#c9a84c" stroke-width="1" stroke-dasharray="3,2"/>
<line x1="452.1" y1="275.8" x2="452.1" y2="619.0" stroke="#c9a84c" stroke-width="1.5"/>
<circle cx="454.3" cy="619.1" r="2.2" fill="none" stroke="#c9a84c" stroke-width="1" stroke-dasharray="3,2"/>
<circle cx="454.3" cy="619.1" r="2.1" fill="none" stroke="#c9a84c" stroke-width="1.5"/>
<text x="460.4" y="623.1" fill="#c9a84c" font-family="monospace" font-size="8">ø2.89</text>
<line x1="452.6" y1="620.3" x2="487.8" y2="655.7" stroke="#c9a84c" stroke-width="1.5"/>
<circle cx="489.4" cy="654.1" r="2.3" fill="none" stroke="#c9a84c" stroke-width="1" stroke-dasharray="3,2"/>
<line x1="489.1" y1="656.3" x2="701.7" y2="656.3" stroke="#c9a84c" stroke-width="1.5"/>
<circle cx="701.7" cy="654.0" r="2.4" fill="none" stroke="#c9a84c" stroke-width="1.5"/>
<text x="708.0" y="658.0" fill="#c9a84c" font-family="monospace" font-size="8">ø3.21</text>
<circle cx="748.5" cy="229.2" r="4.5" fill="none" stroke="#c9a84c" stroke-width="1" stroke-dasharray="3,2"/>
<line x1="753.0" y1="229.1" x2="753.0" y2="665.9" stroke="#c9a84c" stroke-width="1.5"/>
<circle cx="748.3" cy="665.8" r="4.6" fill="none" stroke="#c9a84c" stroke-width="1" stroke-dasharray="3,2"/>
<circle cx="748.4" cy="665.8" r="4.6" fill="none" stroke="#c9a84c" stroke-width="1" stroke-dasharray="3,2"/>
<line x1="748.5" y1="670.3" x2="442.6" y2="670.3" stroke="#c9a84c" stroke-width="1.5"/>
<circle cx="442.6" cy="665.7" r="4.6" fill="none" stroke="#c9a84c" stroke-width="1" stroke-dasharray="3,2"/>
<circle cx="442.6" cy="665.8" r="4.5" fill="none" stroke="#c9a84c" stroke-width="1" stroke-dasharray="3,2"/>
<line x1="438.1" y1="665.9" x2="438.1" y2="229.1" stroke="#c9a84c" stroke-width="1.5"/>
<circle cx="442.7" cy="229.2" r="4.6" fill="none" stroke="#c9a84c" stroke-width="1" stroke-dasharray="3,2"/>
<circle cx="442.6" cy="229.2" r="4.5" fill="none" stroke="#c9a84c" stroke-width="1" stroke-dasharray="3,2"/>
<line x1="442.6" y1="224.7" x2="748.5" y2="224.7" stroke="#c9a84c" stroke-width="1.5"/>
</g>
<text x="421" y="802" fill="#786432" font-family="monospace" font-size="9">Range: 214.1 x 303.0 mm</text>
<rect x="786" y="70" width="365" height="740" fill="none" stroke="#1e1e23" stroke-width="1"/>
<text x="794" y="86" fill="#dcdcdc" font-family="monospace" font-size="11">Plane +Z (1 profiles)</text>
<defs><clipPath id="clip-2-nist_ftc_07_asme1_ap242-e2"><rect x="787" y="71" width="363" height="738"/></clipPath></defs>
<g clip-path="url(#clip-2-nist_ftc_07_asme1_ap242-e2)">
<line x1="810.7" y1="70" x2="810.7" y2="810" stroke="#1e1e23" stroke-width="0.5"/>
<line x1="816.2" y1="70" x2="816.2" y2="810" stroke="#1e1e23" stroke-width="0.5"/>
<line x1="821.8" y1="70" x2="821.8" y2="810" stroke="#1e1e23" stroke-width="0.5"/>
<line x1="827.3" y1="70" x2="827.3" y2="810" stroke="#1e1e23" stroke-width="0.5"/>
<line x1="832.8" y1="70" x2="832.8" y2="810" stroke="#1e1e23" stroke-width="0.5"/>
<line x1="838.4" y1="70" x2="838.4" y2="810" stroke="#1e1e23" stroke-width="0.5"/>
<line x1="843.9" y1="70" x2="843.9" y2="810" stroke="#1e1e23" stroke-width="0.5"/>
<line x1="849.4" y1="70" x2="849.4" y2="810" stroke="#1e1e23" stroke-width="0.5"/>
<line x1="854.9" y1="70" x2="854.9" y2="810" stroke="#1e1e23" stroke-width="0.5"/>
<line x1="860.5" y1="70" x2="860.5" y2="810" stroke="#1e1e23" stroke-width="0.5"/>
<line x1="866.0" y1="70" x2="866.0" y2="810" stroke="#1e1e23" stroke-width="0.5"/>
<line x1="871.5" y1="70" x2="871.5" y2="810" stroke="#1e1e23" stroke-width="0.5"/>
<line x1="877.1" y1="70" x2="877.1" y2="810" stroke="#1e1e23" stroke-width="0.5"/>
<line x1="882.6" y1="70" x2="882.6" y2="810" stroke="#1e1e23" stroke-width="0.5"/>
<line x1="888.1" y1="70" x2="888.1" y2="810" stroke="#1e1e23" stroke-width="0.5"/>
<line x1="893.7" y1="70" x2="893.7" y2="810" stroke="#1e1e23" stroke-width="0.5"/>
<line x1="899.2" y1="70" x2="899.2" y2="810" stroke="#1e1e23" stroke-width="0.5"/>
<line x1="904.7" y1="70" x2="904.7" y2="810" stroke="#1e1e23" stroke-width="0.5"/>
<line x1="910.2" y1="70" x2="910.2" y2="810" stroke="#1e1e23" stroke-width="0.5"/>
<line x1="915.8" y1="70" x2="915.8" y2="810" stroke="#1e1e23" stroke-width="0.5"/>
<line x1="921.3" y1="70" x2="921.3" y2="810" stroke="#1e1e23" stroke-width="0.5"/>
<line x1="926.8" y1="70" x2="926.8" y2="810" stroke="#1e1e23" stroke-width="0.5"/>
<line x1="932.4" y1="70" x2="932.4" y2="810" stroke="#1e1e23" stroke-width="0.5"/>
<line x1="937.9" y1="70" x2="937.9" y2="810" stroke="#1e1e23" stroke-width="0.5"/>
<line x1="943.4" y1="70" x2="943.4" y2="810" stroke="#1e1e23" stroke-width="0.5"/>
<line x1="949.0" y1="70" x2="949.0" y2="810" stroke="#1e1e23" stroke-width="0.5"/>
<line x1="954.5" y1="70" x2="954.5" y2="810" stroke="#1e1e23" stroke-width="0.5"/>
<line x1="960.0" y1="70" x2="960.0" y2="810" stroke="#1e1e23" stroke-width="0.5"/>
<line x1="965.6" y1="70" x2="965.6" y2="810" stroke="#1e1e23" stroke-width="0.5"/>
<line x1="971.1" y1="70" x2="971.1" y2="810" stroke="#1e1e23" stroke-width="0.5"/>
<line x1="976.6" y1="70" x2="976.6" y2="810" stroke="#1e1e23" stroke-width="0.5"/>
<line x1="982.1" y1="70" x2="982.1" y2="810" stroke="#1e1e23" stroke-width="0.5"/>
<line x1="987.7" y1="70" x2="987.7" y2="810" stroke="#1e1e23" stroke-width="0.5"/>
<line x1="993.2" y1="70" x2="993.2" y2="810" stroke="#1e1e23" stroke-width="0.5"/>
<line x1="998.7" y1="70" x2="998.7" y2="810" stroke="#1e1e23" stroke-width="0.5"/>
<line x1="1004.3" y1="70" x2="1004.3" y2="810" stroke="#1e1e23" stroke-width="0.5"/>
<line x1="1009.8" y1="70" x2="1009.8" y2="810" stroke="#1e1e23" stroke-width="0.5"/>
<line x1="1015.3" y1="70" x2="1015.3" y2="810" stroke="#1e1e23" stroke-width="0.5"/>
<line x1="1020.9" y1="70" x2="1020.9" y2="810" stroke="#1e1e23" stroke-width="0.5"/>
<line x1="1026.4" y1="70" x2="1026.4" y2="810" stroke="#1e1e23" stroke-width="0.5"/>
<line x1="1031.9" y1="70" x2="1031.9" y2="810" stroke="#1e1e23" stroke-width="0.5"/>
<line x1="1037.5" y1="70" x2="1037.5" y2="810" stroke="#1e1e23" stroke-width="0.5"/>
<line x1="1043.0" y1="70" x2="1043.0" y2="810" stroke="#1e1e23" stroke-width="0.5"/>
<line x1="1048.5" y1="70" x2="1048.5" y2="810" stroke="#1e1e23" stroke-width="0.5"/>
<line x1="1054.0" y1="70" x2="1054.0" y2="810" stroke="#1e1e23" stroke-width="0.5"/>
<line x1="1059.6" y1="70" x2="1059.6" y2="810" stroke="#1e1e23" stroke-width="0.5"/>
<line x1="1065.1" y1="70" x2="1065.1" y2="810" stroke="#1e1e23" stroke-width="0.5"/>
<line x1="1070.6" y1="70" x2="1070.6" y2="810" stroke="#1e1e23" stroke-width="0.5"/>
<line x1="1076.2" y1="70" x2="1076.2" y2="810" stroke="#1e1e23" stroke-width="0.5"/>
<line x1="1081.7" y1="70" x2="1081.7" y2="810" stroke="#1e1e23" stroke-width="0.5"/>
<line x1="1087.2" y1="70" x2="1087.2" y2="810" stroke="#1e1e23" stroke-width="0.5"/>
<line x1="1092.8" y1="70" x2="1092.8" y2="810" stroke="#1e1e23" stroke-width="0.5"/>
<line x1="1098.3" y1="70" x2="1098.3" y2="810" stroke="#1e1e23" stroke-width="0.5"/>
<line x1="1103.8" y1="70" x2="1103.8" y2="810" stroke="#1e1e23" stroke-width="0.5"/>
<line x1="1109.3" y1="70" x2="1109.3" y2="810" stroke="#1e1e23" stroke-width="0.5"/>
<line x1="1114.9" y1="70" x2="1114.9" y2="810" stroke="#1e1e23" stroke-width="0.5"/>
<line x1="1120.4" y1="70" x2="1120.4" y2="810" stroke="#1e1e23" stroke-width="0.5"/>
<line x1="1125.9" y1="70" x2="1125.9" y2="810" stroke="#1e1e23" stroke-width="0.5"/>
<line x1="1131.5" y1="70" x2="1131.5" y2="810" stroke="#1e1e23" stroke-width="0.5"/>
<line x1="786" y1="633.0" x2="1159" y2="633.0" stroke="#1e1e23" stroke-width="0.5"/>
<line x1="786" y1="627.5" x2="1159" y2="627.5" stroke="#1e1e23" stroke-width="0.5"/>
<line x1="786" y1="622.0" x2="1159" y2="622.0" stroke="#1e1e23" stroke-width="0.5"/>
<line x1="786" y1="616.5" x2="1159" y2="616.5" stroke="#1e1e23" stroke-width="0.5"/>
<line x1="786" y1="610.9" x2="1159" y2="610.9" stroke="#1e1e23" stroke-width="0.5"/>
<line x1="786" y1="605.4" x2="1159" y2="605.4" stroke="#1e1e23" stroke-width="0.5"/>
<line x1="786" y1="599.9" x2="1159" y2="599.9" stroke="#1e1e23" stroke-width="0.5"/>
<line x1="786" y1="594.3" x2="1159" y2="594.3" stroke="#1e1e23" stroke-width="0.5"/>
<line x1="786" y1="588.8" x2="1159" y2="588.8" stroke="#1e1e23" stroke-width="0.5"/>
<line x1="786" y1="583.3" x2="1159" y2="583.3" stroke="#1e1e23" stroke-width="0.5"/>
<line x1="786" y1="577.7" x2="1159" y2="577.7" stroke="#1e1e23" stroke-width="0.5"/>
<line x1="786" y1="572.2" x2="1159" y2="572.2" stroke="#1e1e23" stroke-width="0.5"/>
<line x1="786" y1="566.7" x2="1159" y2="566.7" stroke="#1e1e23" stroke-width="0.5"/>
<line x1="786" y1="561.2" x2="1159" y2="561.2" stroke="#1e1e23" stroke-width="0.5"/>
<line x1="786" y1="555.6" x2="1159" y2="555.6" stroke="#1e1e23" stroke-width="0.5"/>
<line x1="786" y1="550.1" x2="1159" y2="550.1" stroke="#1e1e23" stroke-width="0.5"/>
<line x1="786" y1="544.6" x2="1159" y2="544.6" stroke="#1e1e23" stroke-width="0.5"/>
<line x1="786" y1="539.0" x2="1159" y2="539.0" stroke="#1e1e23" stroke-width="0.5"/>
<line x1="786" y1="533.5" x2="1159" y2="533.5" stroke="#1e1e23" stroke-width="0.5"/>
<line x1="786" y1="528.0" x2="1159" y2="528.0" stroke="#1e1e23" stroke-width="0.5"/>
<line x1="786" y1="522.4" x2="1159" y2="522.4" stroke="#1e1e23" stroke-width="0.5"/>
<line x1="786" y1="516.9" x2="1159" y2="516.9" stroke="#1e1e23" stroke-width="0.5"/>
<line x1="786" y1="511.4" x2="1159" y2="511.4" stroke="#1e1e23" stroke-width="0.5"/>
<line x1="786" y1="505.8" x2="1159" y2="505.8" stroke="#1e1e23" stroke-width="0.5"/>
<line x1="786" y1="500.3" x2="1159" y2="500.3" stroke="#1e1e23" stroke-width="0.5"/>
<line x1="786" y1="494.8" x2="1159" y2="494.8" stroke="#1e1e23" stroke-width="0.5"/>
<line x1="786" y1="489.3" x2="1159" y2="489.3" stroke="#1e1e23" stroke-width="0.5"/>
<line x1="786" y1="483.7" x2="1159" y2="483.7" stroke="#1e1e23" stroke-width="0.5"/>
<line x1="786" y1="478.2" x2="1159" y2="478.2" stroke="#1e1e23" stroke-width="0.5"/>
<line x1="786" y1="472.7" x2="1159" y2="472.7" stroke="#1e1e23" stroke-width="0.5"/>
<line x1="786" y1="467.1" x2="1159" y2="467.1" stroke="#1e1e23" stroke-width="0.5"/>
<line x1="786" y1="461.6" x2="1159" y2="461.6" stroke="#1e1e23" stroke-width="0.5"/>
<line x1="786" y1="456.1" x2="1159" y2="456.1" stroke="#1e1e23" stroke-width="0.5"/>
<line x1="786" y1="450.5" x2="1159" y2="450.5" stroke="#1e1e23" stroke-width="0.5"/>
<line x1="786" y1="445.0" x2="1159" y2="445.0" stroke="#1e1e23" stroke-width="0.5"/>
<line x1="786" y1="439.5" x2="1159" y2="439.5" stroke="#1e1e23" stroke-width="0.5"/>
<line x1="786" y1="433.9" x2="1159" y2="433.9" stroke="#1e1e23" stroke-width="0.5"/>
<line x1="786" y1="428.4" x2="1159" y2="428.4" stroke="#1e1e23" stroke-width="0.5"/>
<line x1="786" y1="422.9" x2="1159" y2="422.9" stroke="#1e1e23" stroke-width="0.5"/>
<line x1="786" y1="417.4" x2="1159" y2="417.4" stroke="#1e1e23" stroke-width="0.5"/>
<line x1="786" y1="411.8" x2="1159" y2="411.8" stroke="#1e1e23" stroke-width="0.5"/>
<line x1="786" y1="406.3" x2="1159" y2="406.3" stroke="#1e1e23" stroke-width="0.5"/>
<line x1="786" y1="400.8" x2="1159" y2="400.8" stroke="#1e1e23" stroke-width="0.5"/>
<line x1="786" y1="395.2" x2="1159" y2="395.2" stroke="#1e1e23" stroke-width="0.5"/>
<line x1="786" y1="389.7" x2="1159" y2="389.7" stroke="#1e1e23" stroke-width="0.5"/>
<line x1="786" y1="384.2" x2="1159" y2="384.2" stroke="#1e1e23" stroke-width="0.5"/>
<line x1="786" y1="378.6" x2="1159" y2="378.6" stroke="#1e1e23" stroke-width="0.5"/>
<line x1="786" y1="373.1" x2="1159" y2="373.1" stroke="#1e1e23" stroke-width="0.5"/>
<line x1="786" y1="367.6" x2="1159" y2="367.6" stroke="#1e1e23" stroke-width="0.5"/>
<line x1="786" y1="362.1" x2="1159" y2="362.1" stroke="#1e1e23" stroke-width="0.5"/>
<line x1="786" y1="356.5" x2="1159" y2="356.5" stroke="#1e1e23" stroke-width="0.5"/>
<line x1="786" y1="351.0" x2="1159" y2="351.0" stroke="#1e1e23" stroke-width="0.5"/>
<line x1="786" y1="345.5" x2="1159" y2="345.5" stroke="#1e1e23" stroke-width="0.5"/>
<line x1="786" y1="339.9" x2="1159" y2="339.9" stroke="#1e1e23" stroke-width="0.5"/>
<line x1="786" y1="334.4" x2="1159" y2="334.4" stroke="#1e1e23" stroke-width="0.5"/>
<line x1="786" y1="328.9" x2="1159" y2="328.9" stroke="#1e1e23" stroke-width="0.5"/>
<line x1="786" y1="323.3" x2="1159" y2="323.3" stroke="#1e1e23" stroke-width="0.5"/>
<line x1="786" y1="317.8" x2="1159" y2="317.8" stroke="#1e1e23" stroke-width="0.5"/>
<line x1="786" y1="312.3" x2="1159" y2="312.3" stroke="#1e1e23" stroke-width="0.5"/>
<line x1="786" y1="306.7" x2="1159" y2="306.7" stroke="#1e1e23" stroke-width="0.5"/>
<line x1="786" y1="301.2" x2="1159" y2="301.2" stroke="#1e1e23" stroke-width="0.5"/>
<line x1="786" y1="295.7" x2="1159" y2="295.7" stroke="#1e1e23" stroke-width="0.5"/>
<line x1="786" y1="290.2" x2="1159" y2="290.2" stroke="#1e1e23" stroke-width="0.5"/>
<line x1="786" y1="284.6" x2="1159" y2="284.6" stroke="#1e1e23" stroke-width="0.5"/>
<line x1="786" y1="279.1" x2="1159" y2="279.1" stroke="#1e1e23" stroke-width="0.5"/>
<line x1="786" y1="273.6" x2="1159" y2="273.6" stroke="#1e1e23" stroke-width="0.5"/>
<line x1="786" y1="268.0" x2="1159" y2="268.0" stroke="#1e1e23" stroke-width="0.5"/>
<line x1="786" y1="262.5" x2="1159" y2="262.5" stroke="#1e1e23" stroke-width="0.5"/>
<circle cx="822.1" cy="624.2" r="0.8" fill="none" stroke="#508ce0" stroke-width="1" stroke-dasharray="3,2"/>
<line x1="821.3" y1="624.2" x2="820.0" y2="554.1" stroke="#508ce0" stroke-width="1.5"/>
<line x1="820.0" y1="554.1" x2="818.3" y2="554.1" stroke="#508ce0" stroke-width="1.5"/>
<line x1="818.3" y1="554.1" x2="818.2" y2="555.4" stroke="#508ce0" stroke-width="1.5"/>
<circle cx="818.0" cy="555.3" r="0.2" fill="none" stroke="#508ce0" stroke-width="1" stroke-dasharray="3,2"/>
<line x1="818.0" y1="555.6" x2="815.9" y2="555.6" stroke="#508ce0" stroke-width="1.5"/>
<circle cx="815.9" cy="555.3" r="0.2" fill="none" stroke="#508ce0" stroke-width="1" stroke-dasharray="3,2"/>
<circle cx="815.9" cy="555.3" r="0.2" fill="none" stroke="#508ce0" stroke-width="1" stroke-dasharray="3,2"/>
<line x1="815.7" y1="555.4" x2="815.6" y2="554.1" stroke="#508ce0" stroke-width="1.5"/>
<line x1="815.6" y1="554.1" x2="813.0" y2="554.1" stroke="#508ce0" stroke-width="1.5"/>
<line x1="813.0" y1="554.1" x2="814.8" y2="561.0" stroke="#508ce0" stroke-width="1.5"/>
<circle cx="813.0" cy="561.4" r="2.0" fill="none" stroke="#508ce0" stroke-width="1" stroke-dasharray="3,2"/>
<line x1="814.9" y1="561.4" x2="816.0" y2="626.2" stroke="#508ce0" stroke-width="1.5"/>
<circle cx="817.7" cy="626.2" r="1.7" fill="none" stroke="#508ce0" stroke-width="1" stroke-dasharray="3,2"/>
<line x1="817.7" y1="627.9" x2="980.7" y2="627.9" stroke="#508ce0" stroke-width="1.5"/>
<circle cx="980.6" cy="625.9" r="1.9" fill="none" stroke="#508ce0" stroke-width="1" stroke-dasharray="3,2"/>
<circle cx="980.6" cy="626.2" r="1.7" fill="none" stroke="#508ce0" stroke-width="1" stroke-dasharray="3,2"/>
<line x1="982.3" y1="626.2" x2="983.5" y2="561.4" stroke="#508ce0" stroke-width="1.5"/>
<circle cx="985.4" cy="561.4" r="2.0" fill="none" stroke="#508ce0" stroke-width="1" stroke-dasharray="3,2"/>
<line x1="983.5" y1="561.0" x2="985.4" y2="554.1" stroke="#508ce0" stroke-width="1.5"/>
<line x1="985.4" y1="554.1" x2="982.8" y2="554.1" stroke="#508ce0" stroke-width="1.5"/>
<line x1="982.8" y1="554.1" x2="982.7" y2="555.4" stroke="#508ce0" stroke-width="1.5"/>
<circle cx="982.5" cy="555.3" r="0.2" fill="none" stroke="#508ce0" stroke-width="1" stroke-dasharray="3,2"/>
<circle cx="981.8" cy="411.4" r="144.2" fill="none" stroke="#508ce0" stroke-width="1.5"/>
<text x="1130.0" y="415.4" fill="#508ce0" font-family="monospace" font-size="8">ø521.59</text>
<circle cx="980.4" cy="555.4" r="0.2" fill="none" stroke="#508ce0" stroke-width="1" stroke-dasharray="3,2"/>
<line x1="980.2" y1="555.4" x2="980.1" y2="554.1" stroke="#508ce0" stroke-width="1.5"/>
<line x1="980.1" y1="554.1" x2="978.3" y2="554.1" stroke="#508ce0" stroke-width="1.5"/>
<line x1="978.3" y1="554.1" x2="977.1" y2="624.2" stroke="#508ce0" stroke-width="1.5"/>
<circle cx="976.3" cy="624.2" r="0.8" fill="none" stroke="#508ce0" stroke-width="1" stroke-dasharray="3,2"/>
<circle cx="976.2" cy="624.1" r="1.0" fill="none" stroke="#508ce0" stroke-width="1" stroke-dasharray="3,2"/>
<line x1="976.3" y1="625.1" x2="822.1" y2="625.1" stroke="#508ce0" stroke-width="1.5"/>
<circle cx="822.1" cy="624.3" r="0.8" fill="none" stroke="#508ce0" stroke-width="1" stroke-dasharray="3,2"/>
</g>
<text x="794" y="802" fill="#786432" font-family="monospace" font-size="9">Range: 569.6 x 652.3 mm</text>
<text x="40" y="880" fill="#c9a84c" font-family="monospace" font-size="9">Features (2): ~ Freeform Pocket (32 ents) | ⊙⊂ Keyhole R260.8</text>
</svg>