<svg xmlns="http://www.w3.org/2000/svg" width="1200" height="900" viewBox="0 0 1200 900">
<rect width="1200" height="900" fill="#08090d"/>
<text x="40" y="30" fill="#c9a84c" font-family="monospace" font-size="16" font-weight="bold">nist_ctc_01_asme1_rd.stp  </text>
<text x="40" y="50" fill="#786432" font-family="monospace" font-size="11">BBox: 800.0 x 450.0 x 150.0 mm   Diag: 930.1mm</text>
<rect x="40" y="70" width="365" height="740" fill="none" stroke="#1e1e23" stroke-width="1"/>
<text x="48" y="86" fill="#dcdcdc" font-family="monospace" font-size="11">Plane +X (3 profiles)</text>
<defs><clipPath id="clip-0-nist_ctc_01_asme1_rd"><rect x="41" y="71" width="363" height="738"/></clipPath></defs>
<g clip-path="url(#clip-0-nist_ctc_01_asme1_rd)">
<line x1="71.4" y1="70" x2="71.4" y2="810" stroke="#1e1e23" stroke-width="0.5"/>
<line x1="98.0" y1="70" x2="98.0" y2="810" stroke="#1e1e23" stroke-width="0.5"/>
<line x1="124.6" y1="70" x2="124.6" y2="810" stroke="#1e1e23" stroke-width="0.5"/>
<line x1="151.2" y1="70" x2="151.2" y2="810" stroke="#1e1e23" stroke-width="0.5"/>
<line x1="177.8" y1="70" x2="177.8" y2="810" stroke="#1e1e23" stroke-width="0.5"/>
<line x1="204.4" y1="70" x2="204.4" y2="810" stroke="#1e1e23" stroke-width="0.5"/>
<line x1="231.0" y1="70" x2="231.0" y2="810" stroke="#1e1e23" stroke-width="0.5"/>
<line x1="257.6" y1="70" x2="257.6" y2="810" stroke="#1e1e23" stroke-width="0.5"/>
<line x1="284.2" y1="70" x2="284.2" y2="810" stroke="#1e1e23" stroke-width="0.5"/>
<line x1="310.8" y1="70" x2="310.8" y2="810" stroke="#1e1e23" stroke-width="0.5"/>
<line x1="337.4" y1="70" x2="337.4" y2="810" stroke="#1e1e23" stroke-width="0.5"/>
<line x1="364.0" y1="70" x2="364.0" y2="810" stroke="#1e1e23" stroke-width="0.5"/>
<line x1="390.6" y1="70" x2="390.6" y2="810" stroke="#1e1e23" stroke-width="0.5"/>
<line x1="40" y1="793.3" x2="413" y2="793.3" stroke="#1e1e23" stroke-width="0.5"/>
<line x1="40" y1="766.7" x2="413" y2="766.7" stroke="#1e1e23" stroke-width="0.5"/>
<line x1="40" y1="740.1" x2="413" y2="740.1" stroke="#1e1e23" stroke-width="0.5"/>
<line x1="40" y1="713.5" x2="413" y2="713.5" stroke="#1e1e23" stroke-width="0.5"/>
<line x1="40" y1="686.9" x2="413" y2="686.9" stroke="#1e1e23" stroke-width="0.5"/>
<line x1="40" y1="660.3" x2="413" y2="660.3" stroke="#1e1e23" stroke-width="0.5"/>
<line x1="40" y1="633.7" x2="413" y2="633.7" stroke="#1e1e23" stroke-width="0.5"/>
<line x1="40" y1="607.1" x2="413" y2="607.1" stroke="#1e1e23" stroke-width="0.5"/>
<line x1="40" y1="580.5" x2="413" y2="580.5" stroke="#1e1e23" stroke-width="0.5"/>
<line x1="40" y1="553.9" x2="413" y2="553.9" stroke="#1e1e23" stroke-width="0.5"/>
<line x1="40" y1="527.3" x2="413" y2="527.3" stroke="#1e1e23" stroke-width="0.5"/>
<line x1="40" y1="500.7" x2="413" y2="500.7" stroke="#1e1e23" stroke-width="0.5"/>
<line x1="40" y1="474.1" x2="413" y2="474.1" stroke="#1e1e23" stroke-width="0.5"/>
<line x1="40" y1="447.5" x2="413" y2="447.5" stroke="#1e1e23" stroke-width="0.5"/>
<line x1="40" y1="420.9" x2="413" y2="420.9" stroke="#1e1e23" stroke-width="0.5"/>
<line x1="40" y1="394.3" x2="413" y2="394.3" stroke="#1e1e23" stroke-width="0.5"/>
<line x1="40" y1="367.7" x2="413" y2="367.7" stroke="#1e1e23" stroke-width="0.5"/>
<line x1="40" y1="341.1" x2="413" y2="341.1" stroke="#1e1e23" stroke-width="0.5"/>
<line x1="40" y1="314.5" x2="413" y2="314.5" stroke="#1e1e23" stroke-width="0.5"/>
<line x1="40" y1="287.9" x2="413" y2="287.9" stroke="#1e1e23" stroke-width="0.5"/>
<line x1="40" y1="261.3" x2="413" y2="261.3" stroke="#1e1e23" stroke-width="0.5"/>
<line x1="40" y1="234.7" x2="413" y2="234.7" stroke="#1e1e23" stroke-width="0.5"/>
<line x1="40" y1="208.1" x2="413" y2="208.1" stroke="#1e1e23" stroke-width="0.5"/>
<line x1="40" y1="181.5" x2="413" y2="181.5" stroke="#1e1e23" stroke-width="0.5"/>
<line x1="40" y1="154.9" x2="413" y2="154.9" stroke="#1e1e23" stroke-width="0.5"/>
<line x1="40" y1="128.3" x2="413" y2="128.3" stroke="#1e1e23" stroke-width="0.5"/>
<line x1="40" y1="101.7" x2="413" y2="101.7" stroke="#1e1e23" stroke-width="0.5"/>
<line x1="217.7" y1="601.1" x2="111.3" y2="601.1" stroke="#508ce0" stroke-width="1.5"/>
<line x1="111.3" y1="601.1" x2="217.7" y2="601.1" stroke="#508ce0" stroke-width="1.5"/>
<circle cx="217.5" cy="613.5" r="12.5" fill="none" stroke="#508ce0" stroke-width="1" stroke-dasharray="3,2"/>
<circle cx="214.4" cy="616.3" r="16.6" fill="none" stroke="#508ce0" stroke-width="1" stroke-dasharray="3,2"/>
<line x1="231.0" y1="616.4" x2="231.0" y2="780.0" stroke="#508ce0" stroke-width="1.5"/>
<line x1="231.0" y1="780.0" x2="231.0" y2="616.4" stroke="#508ce0" stroke-width="1.5"/>
<circle cx="214.4" cy="616.3" r="16.6" fill="none" stroke="#508ce0" stroke-width="1" stroke-dasharray="3,2"/>
<circle cx="217.3" cy="613.8" r="12.8" fill="none" stroke="#508ce0" stroke-width="1" stroke-dasharray="3,2"/>
<line x1="364.0" y1="780.0" x2="231.0" y2="780.0" stroke="#508ce0" stroke-width="1.5"/>
<line x1="231.0" y1="780.0" x2="231.0" y2="115.0" stroke="#508ce0" stroke-width="1.5"/>
<line x1="231.0" y1="115.0" x2="364.0" y2="115.0" stroke="#508ce0" stroke-width="1.5"/>
<line x1="364.0" y1="115.0" x2="364.0" y2="738.6" stroke="#508ce0" stroke-width="1.5"/>
<circle cx="165.9" cy="228.8" r="85.0" fill="none" stroke="#508ce0" stroke-width="1.5"/>
<text x="254.9" y="232.8" fill="#508ce0" font-family="monospace" font-size="8">ø63.88</text>
</g>
<text x="48" y="802" fill="#786432" font-family="monospace" font-size="9">Range: 106.4 x 250.0 mm</text>
<rect x="413" y="70" width="365" height="740" fill="none" stroke="#1e1e23" stroke-width="1"/>
<text x="421" y="86" fill="#dcdcdc" font-family="monospace" font-size="11">Plane +Y (3 profiles)</text>
<defs><clipPath id="clip-1-nist_ctc_01_asme1_rd"><rect x="414" y="71" width="363" height="738"/></clipPath></defs>
<g clip-path="url(#clip-1-nist_ctc_01_asme1_rd)">
<line x1="553.9" y1="70" x2="553.9" y2="810" stroke="#1e1e23" stroke-width="0.5"/>
<line x1="562.2" y1="70" x2="562.2" y2="810" stroke="#1e1e23" stroke-width="0.5"/>
<line x1="570.6" y1="70" x2="570.6" y2="810" stroke="#1e1e23" stroke-width="0.5"/>
<line x1="578.9" y1="70" x2="578.9" y2="810" stroke="#1e1e23" stroke-width="0.5"/>
<line x1="587.2" y1="70" x2="587.2" y2="810" stroke="#1e1e23" stroke-width="0.5"/>
<line x1="595.5" y1="70" x2="595.5" y2="810" stroke="#1e1e23" stroke-width="0.5"/>
<line x1="603.8" y1="70" x2="603.8" y2="810" stroke="#1e1e23" stroke-width="0.5"/>
<line x1="612.1" y1="70" x2="612.1" y2="810" stroke="#1e1e23" stroke-width="0.5"/>
<line x1="620.4" y1="70" x2="620.4" y2="810" stroke="#1e1e23" stroke-width="0.5"/>
<line x1="628.8" y1="70" x2="628.8" y2="810" stroke="#1e1e23" stroke-width="0.5"/>
<line x1="637.1" y1="70" x2="637.1" y2="810" stroke="#1e1e23" stroke-width="0.5"/>
<line x1="645.4" y1="70" x2="645.4" y2="810" stroke="#1e1e23" stroke-width="0.5"/>
<line x1="413" y1="780.0" x2="786" y2="780.0" stroke="#1e1e23" stroke-width="0.5"/>
<line x1="413" y1="771.7" x2="786" y2="771.7" stroke="#1e1e23" stroke-width="0.5"/>
<line x1="413" y1="763.4" x2="786" y2="763.4" stroke="#1e1e23" stroke-width="0.5"/>
<line x1="413" y1="755.1" x2="786" y2="755.1" stroke="#1e1e23" stroke-width="0.5"/>
<line x1="413" y1="746.8" x2="786" y2="746.8" stroke="#1e1e23" stroke-width="0.5"/>
<line x1="413" y1="738.4" x2="786" y2="738.4" stroke="#1e1e23" stroke-width="0.5"/>
<line x1="413" y1="730.1" x2="786" y2="730.1" stroke="#1e1e23" stroke-width="0.5"/>
<line x1="413" y1="721.8" x2="786" y2="721.8" stroke="#1e1e23" stroke-width="0.5"/>
<line x1="413" y1="713.5" x2="786" y2="713.5" stroke="#1e1e23" stroke-width="0.5"/>
<line x1="413" y1="705.2" x2="786" y2="705.2" stroke="#1e1e23" stroke-width="0.5"/>
<line x1="413" y1="696.9" x2="786" y2="696.9" stroke="#1e1e23" stroke-width="0.5"/>
<line x1="413" y1="688.6" x2="786" y2="688.6" stroke="#1e1e23" stroke-width="0.5"/>
<line x1="413" y1="680.2" x2="786" y2="680.2" stroke="#1e1e23" stroke-width="0.5"/>
<line x1="413" y1="671.9" x2="786" y2="671.9" stroke="#1e1e23" stroke-width="0.5"/>
<line x1="413" y1="663.6" x2="786" y2="663.6" stroke="#1e1e23" stroke-width="0.5"/>
<line x1="413" y1="655.3" x2="786" y2="655.3" stroke="#1e1e23" stroke-width="0.5"/>
<line x1="413" y1="647.0" x2="786" y2="647.0" stroke="#1e1e23" stroke-width="0.5"/>
<line x1="413" y1="638.7" x2="786" y2="638.7" stroke="#1e1e23" stroke-width="0.5"/>
<line x1="413" y1="630.4" x2="786" y2="630.4" stroke="#1e1e23" stroke-width="0.5"/>
<line x1="413" y1="622.1" x2="786" y2="622.1" stroke="#1e1e23" stroke-width="0.5"/>
<line x1="413" y1="613.8" x2="786" y2="613.8" stroke="#1e1e23" stroke-width="0.5"/>
<line x1="413" y1="605.4" x2="786" y2="605.4" stroke="#1e1e23" stroke-width="0.5"/>
<line x1="413" y1="597.1" x2="786" y2="597.1" stroke="#1e1e23" stroke-width="0.5"/>
<line x1="413" y1="588.8" x2="786" y2="588.8" stroke="#1e1e23" stroke-width="0.5"/>
<line x1="413" y1="580.5" x2="786" y2="580.5" stroke="#1e1e23" stroke-width="0.5"/>
<line x1="413" y1="572.2" x2="786" y2="572.2" stroke="#1e1e23" stroke-width="0.5"/>
<line x1="413" y1="563.9" x2="786" y2="563.9" stroke="#1e1e23" stroke-width="0.5"/>
<line x1="413" y1="555.6" x2="786" y2="555.6" stroke="#1e1e23" stroke-width="0.5"/>
<line x1="413" y1="547.2" x2="786" y2="547.2" stroke="#1e1e23" stroke-width="0.5"/>
<line x1="413" y1="538.9" x2="786" y2="538.9" stroke="#1e1e23" stroke-width="0.5"/>
<line x1="413" y1="530.6" x2="786" y2="530.6" stroke="#1e1e23" stroke-width="0.5"/>
<line x1="413" y1="522.3" x2="786" y2="522.3" stroke="#1e1e23" stroke-width="0.5"/>
<line x1="413" y1="514.0" x2="786" y2="514.0" stroke="#1e1e23" stroke-width="0.5"/>
<line x1="413" y1="505.7" x2="786" y2="505.7" stroke="#1e1e23" stroke-width="0.5"/>
<line x1="413" y1="497.4" x2="786" y2="497.4" stroke="#1e1e23" stroke-width="0.5"/>
<line x1="413" y1="489.1" x2="786" y2="489.1" stroke="#1e1e23" stroke-width="0.5"/>
<line x1="413" y1="480.8" x2="786" y2="480.8" stroke="#1e1e23" stroke-width="0.5"/>
<line x1="413" y1="472.4" x2="786" y2="472.4" stroke="#1e1e23" stroke-width="0.5"/>
<line x1="413" y1="464.1" x2="786" y2="464.1" stroke="#1e1e23" stroke-width="0.5"/>
<line x1="413" y1="455.8" x2="786" y2="455.8" stroke="#1e1e23" stroke-width="0.5"/>
<line x1="413" y1="447.5" x2="786" y2="447.5" stroke="#1e1e23" stroke-width="0.5"/>
<line x1="413" y1="439.2" x2="786" y2="439.2" stroke="#1e1e23" stroke-width="0.5"/>
<line x1="413" y1="430.9" x2="786" y2="430.9" stroke="#1e1e23" stroke-width="0.5"/>
<line x1="413" y1="422.6" x2="786" y2="422.6" stroke="#1e1e23" stroke-width="0.5"/>
<line x1="413" y1="414.2" x2="786" y2="414.2" stroke="#1e1e23" stroke-width="0.5"/>
<line x1="413" y1="405.9" x2="786" y2="405.9" stroke="#1e1e23" stroke-width="0.5"/>
<line x1="413" y1="397.6" x2="786" y2="397.6" stroke="#1e1e23" stroke-width="0.5"/>
<line x1="413" y1="389.3" x2="786" y2="389.3" stroke="#1e1e23" stroke-width="0.5"/>
<line x1="413" y1="381.0" x2="786" y2="381.0" stroke="#1e1e23" stroke-width="0.5"/>
<line x1="413" y1="372.7" x2="786" y2="372.7" stroke="#1e1e23" stroke-width="0.5"/>
<line x1="413" y1="364.4" x2="786" y2="364.4" stroke="#1e1e23" stroke-width="0.5"/>
<line x1="413" y1="356.1" x2="786" y2="356.1" stroke="#1e1e23" stroke-width="0.5"/>
<line x1="413" y1="347.8" x2="786" y2="347.8" stroke="#1e1e23" stroke-width="0.5"/>
<line x1="413" y1="339.4" x2="786" y2="339.4" stroke="#1e1e23" stroke-width="0.5"/>
<line x1="413" y1="331.1" x2="786" y2="331.1" stroke="#1e1e23" stroke-width="0.5"/>
<line x1="413" y1="322.8" x2="786" y2="322.8" stroke="#1e1e23" stroke-width="0.5"/>
<line x1="413" y1="314.5" x2="786" y2="314.5" stroke="#1e1e23" stroke-width="0.5"/>
<line x1="413" y1="306.2" x2="786" y2="306.2" stroke="#1e1e23" stroke-width="0.5"/>
<line x1="413" y1="297.9" x2="786" y2="297.9" stroke="#1e1e23" stroke-width="0.5"/>
<line x1="413" y1="289.6" x2="786" y2="289.6" stroke="#1e1e23" stroke-width="0.5"/>
<line x1="413" y1="281.2" x2="786" y2="281.2" stroke="#1e1e23" stroke-width="0.5"/>
<line x1="413" y1="272.9" x2="786" y2="272.9" stroke="#1e1e23" stroke-width="0.5"/>
<line x1="413" y1="264.6" x2="786" y2="264.6" stroke="#1e1e23" stroke-width="0.5"/>
<line x1="413" y1="256.3" x2="786" y2="256.3" stroke="#1e1e23" stroke-width="0.5"/>
<line x1="413" y1="248.0" x2="786" y2="248.0" stroke="#1e1e23" stroke-width="0.5"/>
<line x1="413" y1="239.7" x2="786" y2="239.7" stroke="#1e1e23" stroke-width="0.5"/>
<line x1="413" y1="231.4" x2="786" y2="231.4" stroke="#1e1e23" stroke-width="0.5"/>
<line x1="413" y1="223.1" x2="786" y2="223.1" stroke="#1e1e23" stroke-width="0.5"/>
<line x1="413" y1="214.8" x2="786" y2="214.8" stroke="#1e1e23" stroke-width="0.5"/>
<line x1="413" y1="206.4" x2="786" y2="206.4" stroke="#1e1e23" stroke-width="0.5"/>
<line x1="413" y1="198.1" x2="786" y2="198.1" stroke="#1e1e23" stroke-width="0.5"/>
<line x1="413" y1="189.8" x2="786" y2="189.8" stroke="#1e1e23" stroke-width="0.5"/>
<line x1="413" y1="181.5" x2="786" y2="181.5" stroke="#1e1e23" stroke-width="0.5"/>
<line x1="413" y1="173.2" x2="786" y2="173.2" stroke="#1e1e23" stroke-width="0.5"/>
<line x1="413" y1="164.9" x2="786" y2="164.9" stroke="#1e1e23" stroke-width="0.5"/>
<line x1="413" y1="156.6" x2="786" y2="156.6" stroke="#1e1e23" stroke-width="0.5"/>
<line x1="413" y1="148.2" x2="786" y2="148.2" stroke="#1e1e23" stroke-width="0.5"/>
<line x1="413" y1="139.9" x2="786" y2="139.9" stroke="#1e1e23" stroke-width="0.5"/>
<line x1="413" y1="131.6" x2="786" y2="131.6" stroke="#1e1e23" stroke-width="0.5"/>
<line x1="413" y1="123.3" x2="786" y2="123.3" stroke="#1e1e23" stroke-width="0.5"/>
<line x1="413" y1="115.0" x2="786" y2="115.0" stroke="#1e1e23" stroke-width="0.5"/>
<line x1="413" y1="106.7" x2="786" y2="106.7" stroke="#1e1e23" stroke-width="0.5"/>
<line x1="595.5" y1="164.8" x2="595.5" y2="115.0" stroke="#508ce0" stroke-width="1.5"/>
<line x1="595.5" y1="115.0" x2="553.9" y2="115.0" stroke="#508ce0" stroke-width="1.5"/>
<line x1="553.9" y1="115.0" x2="553.9" y2="169.0" stroke="#508ce0" stroke-width="1.5"/>
<line x1="553.9" y1="169.0" x2="595.5" y2="169.0" stroke="#508ce0" stroke-width="1.5"/>
<circle cx="599.7" cy="401.8" r="4.2" fill="none" stroke="#508ce0" stroke-width="1" stroke-dasharray="3,2"/>
<line x1="599.7" y1="405.9" x2="632.9" y2="405.9" stroke="#508ce0" stroke-width="1.5"/>
<line x1="632.9" y1="405.9" x2="637.1" y2="410.1" stroke="#508ce0" stroke-width="1.5"/>
<line x1="637.1" y1="410.1" x2="637.1" y2="484.9" stroke="#508ce0" stroke-width="1.5"/>
<line x1="637.1" y1="484.9" x2="632.9" y2="489.1" stroke="#508ce0" stroke-width="1.5"/>
<line x1="632.9" y1="489.1" x2="599.7" y2="489.1" stroke="#508ce0" stroke-width="1.5"/>
<circle cx="599.7" cy="493.2" r="4.2" fill="none" stroke="#508ce0" stroke-width="1" stroke-dasharray="3,2"/>
<circle cx="601.2" cy="493.4" r="5.7" fill="none" stroke="#508ce0" stroke-width="1" stroke-dasharray="3,2"/>
<line x1="595.5" y1="493.2" x2="595.5" y2="634.7" stroke="#508ce0" stroke-width="1.5"/>
<line x1="595.5" y1="634.7" x2="553.9" y2="634.7" stroke="#508ce0" stroke-width="1.5"/>
<line x1="553.9" y1="634.7" x2="553.9" y2="252.2" stroke="#508ce0" stroke-width="1.5"/>
<line x1="553.9" y1="252.2" x2="595.5" y2="252.2" stroke="#508ce0" stroke-width="1.5"/>
<line x1="595.5" y1="252.2" x2="595.5" y2="401.8" stroke="#508ce0" stroke-width="1.5"/>
<circle cx="599.2" cy="401.8" r="3.7" fill="none" stroke="#508ce0" stroke-width="1" stroke-dasharray="3,2"/>
<line x1="595.5" y1="734.2" x2="553.9" y2="734.2" stroke="#508ce0" stroke-width="1.5"/>
<line x1="553.9" y1="734.2" x2="553.9" y2="780.0" stroke="#508ce0" stroke-width="1.5"/>
<line x1="553.9" y1="780.0" x2="595.5" y2="780.0" stroke="#508ce0" stroke-width="1.5"/>
<line x1="595.5" y1="780.0" x2="595.5" y2="734.8" stroke="#508ce0" stroke-width="1.5"/>
</g>
<text x="421" y="802" fill="#786432" font-family="monospace" font-size="9">Range: 100.0 x 800.0 mm</text>
<rect x="786" y="70" width="365" height="740" fill="none" stroke="#1e1e23" stroke-width="1"/>
<text x="794" y="86" fill="#dcdcdc" font-family="monospace" font-size="11">Plane +Z (14 profiles)</text>
<defs><clipPath id="clip-2-nist_ctc_01_asme1_rd"><rect x="787" y="71" width="363" height="738"/></clipPath></defs>
<g clip-path="url(#clip-2-nist_ctc_01_asme1_rd)">
<line x1="811.0" y1="70" x2="811.0" y2="810" stroke="#1e1e23" stroke-width="0.5"/>
<line x1="814.9" y1="70" x2="814.9" y2="810" stroke="#1e1e23" stroke-width="0.5"/>
<line x1="818.9" y1="70" x2="818.9" y2="810" stroke="#1e1e23" stroke-width="0.5"/>
<line x1="822.8" y1="70" x2="822.8" y2="810" stroke="#1e1e23" stroke-width="0.5"/>
<line x1="826.8" y1="70" x2="826.8" y2="810" stroke="#1e1e23" stroke-width="0.5"/>
<line x1="830.7" y1="70" x2="830.7" y2="810" stroke="#1e1e23" stroke-width="0.5"/>
<line x1="834.6" y1="70" x2="834.6" y2="810" stroke="#1e1e23" stroke-width="0.5"/>
<line x1="838.6" y1="70" x2="838.6" y2="810" stroke="#1e1e23" stroke-width="0.5"/>
<line x1="842.5" y1="70" x2="842.5" y2="810" stroke="#1e1e23" stroke-width="0.5"/>
<line x1="846.4" y1="70" x2="846.4" y2="810" stroke="#1e1e23" stroke-width="0.5"/>
<line x1="850.4" y1="70" x2="850.4" y2="810" stroke="#1e1e23" stroke-width="0.5"/>
<line x1="854.3" y1="70" x2="854.3" y2="810" stroke="#1e1e23" stroke-width="0.5"/>
<line x1="858.2" y1="70" x2="858.2" y2="810" stroke="#1e1e23" stroke-width="0.5"/>
<line x1="862.2" y1="70" x2="862.2" y2="810" stroke="#1e1e23" stroke-width="0.5"/>
<line x1="866.1" y1="70" x2="866.1" y2="810" stroke="#1e1e23" stroke-width="0.5"/>
<line x1="870.1" y1="70" x2="870.1" y2="810" stroke="#1e1e23" stroke-width="0.5"/>
<line x1="874.0" y1="70" x2="874.0" y2="810" stroke="#1e1e23" stroke-width="0.5"/>
<line x1="877.9" y1="70" x2="877.9" y2="810" stroke="#1e1e23" stroke-width="0.5"/>
<line x1="881.9" y1="70" x2="881.9" y2="810" stroke="#1e1e23" stroke-width="0.5"/>
<line x1="885.8" y1="70" x2="885.8" y2="810" stroke="#1e1e23" stroke-width="0.5"/>
<line x1="889.8" y1="70" x2="889.8" y2="810" stroke="#1e1e23" stroke-width="0.5"/>
<line x1="893.7" y1="70" x2="893.7" y2="810" stroke="#1e1e23" stroke-width="0.5"/>
<line x1="897.6" y1="70" x2="897.6" y2="810" stroke="#1e1e23" stroke-width="0.5"/>
<line x1="901.6" y1="70" x2="901.6" y2="810" stroke="#1e1e23" stroke-width="0.5"/>
<line x1="905.5" y1="70" x2="905.5" y2="810" stroke="#1e1e23" stroke-width="0.5"/>
<line x1="909.4" y1="70" x2="909.4" y2="810" stroke="#1e1e23" stroke-width="0.5"/>
<line x1="913.4" y1="70" x2="913.4" y2="810" stroke="#1e1e23" stroke-width="0.5"/>
<line x1="917.3" y1="70" x2="917.3" y2="810" stroke="#1e1e23" stroke-width="0.5"/>
<line x1="921.2" y1="70" x2="921.2" y2="810" stroke="#1e1e23" stroke-width="0.5"/>
<line x1="925.2" y1="70" x2="925.2" y2="810" stroke="#1e1e23" stroke-width="0.5"/>
<line x1="929.1" y1="70" x2="929.1" y2="810" stroke="#1e1e23" stroke-width="0.5"/>
<line x1="933.1" y1="70" x2="933.1" y2="810" stroke="#1e1e23" stroke-width="0.5"/>
<line x1="937.0" y1="70" x2="937.0" y2="810" stroke="#1e1e23" stroke-width="0.5"/>
<line x1="940.9" y1="70" x2="940.9" y2="810" stroke="#1e1e23" stroke-width="0.5"/>
<line x1="944.9" y1="70" x2="944.9" y2="810" stroke="#1e1e23" stroke-width="0.5"/>
<line x1="948.8" y1="70" x2="948.8" y2="810" stroke="#1e1e23" stroke-width="0.5"/>
<line x1="952.8" y1="70" x2="952.8" y2="810" stroke="#1e1e23" stroke-width="0.5"/>
<line x1="956.7" y1="70" x2="956.7" y2="810" stroke="#1e1e23" stroke-width="0.5"/>
<line x1="960.6" y1="70" x2="960.6" y2="810" stroke="#1e1e23" stroke-width="0.5"/>
<line x1="964.6" y1="70" x2="964.6" y2="810" stroke="#1e1e23" stroke-width="0.5"/>
<line x1="968.5" y1="70" x2="968.5" y2="810" stroke="#1e1e23" stroke-width="0.5"/>
<line x1="972.4" y1="70" x2="972.4" y2="810" stroke="#1e1e23" stroke-width="0.5"/>
<line x1="976.4" y1="70" x2="976.4" y2="810" stroke="#1e1e23" stroke-width="0.5"/>
<line x1="980.3" y1="70" x2="980.3" y2="810" stroke="#1e1e23" stroke-width="0.5"/>
<line x1="984.2" y1="70" x2="984.2" y2="810" stroke="#1e1e23" stroke-width="0.5"/>
<line x1="988.2" y1="70" x2="988.2" y2="810" stroke="#1e1e23" stroke-width="0.5"/>
<line x1="992.1" y1="70" x2="992.1" y2="810" stroke="#1e1e23" stroke-width="0.5"/>
<line x1="996.1" y1="70" x2="996.1" y2="810" stroke="#1e1e23" stroke-width="0.5"/>
<line x1="1000.0" y1="70" x2="1000.0" y2="810" stroke="#1e1e23" stroke-width="0.5"/>
<line x1="1003.9" y1="70" x2="1003.9" y2="810" stroke="#1e1e23" stroke-width="0.5"/>
<line x1="1007.9" y1="70" x2="1007.9" y2="810" stroke="#1e1e23" stroke-width="0.5"/>
<line x1="1011.8" y1="70" x2="1011.8" y2="810" stroke="#1e1e23" stroke-width="0.5"/>
<line x1="1015.8" y1="70" x2="1015.8" y2="810" stroke="#1e1e23" stroke-width="0.5"/>
<line x1="1019.7" y1="70" x2="1019.7" y2="810" stroke="#1e1e23" stroke-width="0.5"/>
<line x1="1023.6" y1="70" x2="1023.6" y2="810" stroke="#1e1e23" stroke-width="0.5"/>
<line x1="1027.6" y1="70" x2="1027.6" y2="810" stroke="#1e1e23" stroke-width="0.5"/>
<line x1="1031.5" y1="70" x2="1031.5" y2="810" stroke="#1e1e23" stroke-width="0.5"/>
<line x1="1035.4" y1="70" x2="1035.4" y2="810" stroke="#1e1e23" stroke-width="0.5"/>
<line x1="1039.4" y1="70" x2="1039.4" y2="810" stroke="#1e1e23" stroke-width="0.5"/>
<line x1="1043.3" y1="70" x2="1043.3" y2="810" stroke="#1e1e23" stroke-width="0.5"/>
<line x1="1047.2" y1="70" x2="1047.2" y2="810" stroke="#1e1e23" stroke-width="0.5"/>
<line x1="1051.2" y1="70" x2="1051.2" y2="810" stroke="#1e1e23" stroke-width="0.5"/>
<line x1="1055.1" y1="70" x2="1055.1" y2="810" stroke="#1e1e23" stroke-width="0.5"/>
<line x1="1059.1" y1="70" x2="1059.1" y2="810" stroke="#1e1e23" stroke-width="0.5"/>
<line x1="1063.0" y1="70" x2="1063.0" y2="810" stroke="#1e1e23" stroke-width="0.5"/>
<line x1="1066.9" y1="70" x2="1066.9" y2="810" stroke="#1e1e23" stroke-width="0.5"/>
<line x1="1070.9" y1="70" x2="1070.9" y2="810" stroke="#1e1e23" stroke-width="0.5"/>
<line x1="1074.8" y1="70" x2="1074.8" y2="810" stroke="#1e1e23" stroke-width="0.5"/>
<line x1="1078.8" y1="70" x2="1078.8" y2="810" stroke="#1e1e23" stroke-width="0.5"/>
<line x1="1082.7" y1="70" x2="1082.7" y2="810" stroke="#1e1e23" stroke-width="0.5"/>
<line x1="1086.6" y1="70" x2="1086.6" y2="810" stroke="#1e1e23" stroke-width="0.5"/>
<line x1="1090.6" y1="70" x2="1090.6" y2="810" stroke="#1e1e23" stroke-width="0.5"/>
<line x1="1094.5" y1="70" x2="1094.5" y2="810" stroke="#1e1e23" stroke-width="0.5"/>
<line x1="1098.4" y1="70" x2="1098.4" y2="810" stroke="#1e1e23" stroke-width="0.5"/>
<line x1="1102.4" y1="70" x2="1102.4" y2="810" stroke="#1e1e23" stroke-width="0.5"/>
<line x1="1106.3" y1="70" x2="1106.3" y2="810" stroke="#1e1e23" stroke-width="0.5"/>
<line x1="1110.2" y1="70" x2="1110.2" y2="810" stroke="#1e1e23" stroke-width="0.5"/>
<line x1="1114.2" y1="70" x2="1114.2" y2="810" stroke="#1e1e23" stroke-width="0.5"/>
<line x1="1118.1" y1="70" x2="1118.1" y2="810" stroke="#1e1e23" stroke-width="0.5"/>
<line x1="1122.1" y1="70" x2="1122.1" y2="810" stroke="#1e1e23" stroke-width="0.5"/>
<line x1="1126.0" y1="70" x2="1126.0" y2="810" stroke="#1e1e23" stroke-width="0.5"/>
<line x1="1129.9" y1="70" x2="1129.9" y2="810" stroke="#1e1e23" stroke-width="0.5"/>
<line x1="786" y1="538.1" x2="1159" y2="538.1" stroke="#1e1e23" stroke-width="0.5"/>
<line x1="786" y1="534.1" x2="1159" y2="534.1" stroke="#1e1e23" stroke-width="0.5"/>
<line x1="786" y1="530.2" x2="1159" y2="530.2" stroke="#1e1e23" stroke-width="0.5"/>
<line x1="786" y1="526.2" x2="1159" y2="526.2" stroke="#1e1e23" stroke-width="0.5"/>
<line x1="786" y1="522.3" x2="1159" y2="522.3" stroke="#1e1e23" stroke-width="0.5"/>
<line x1="786" y1="518.4" x2="1159" y2="518.4" stroke="#1e1e23" stroke-width="0.5"/>
<line x1="786" y1="514.4" x2="1159" y2="514.4" stroke="#1e1e23" stroke-width="0.5"/>
<line x1="786" y1="510.5" x2="1159" y2="510.5" stroke="#1e1e23" stroke-width="0.5"/>
<line x1="786" y1="506.6" x2="1159" y2="506.6" stroke="#1e1e23" stroke-width="0.5"/>
<line x1="786" y1="502.6" x2="1159" y2="502.6" stroke="#1e1e23" stroke-width="0.5"/>
<line x1="786" y1="498.7" x2="1159" y2="498.7" stroke="#1e1e23" stroke-width="0.5"/>
<line x1="786" y1="494.8" x2="1159" y2="494.8" stroke="#1e1e23" stroke-width="0.5"/>
<line x1="786" y1="490.8" x2="1159" y2="490.8" stroke="#1e1e23" stroke-width="0.5"/>
<line x1="786" y1="486.9" x2="1159" y2="486.9" stroke="#1e1e23" stroke-width="0.5"/>
<line x1="786" y1="482.9" x2="1159" y2="482.9" stroke="#1e1e23" stroke-width="0.5"/>
<line x1="786" y1="479.0" x2="1159" y2="479.0" stroke="#1e1e23" stroke-width="0.5"/>
<line x1="786" y1="475.1" x2="1159" y2="475.1" stroke="#1e1e23" stroke-width="0.5"/>
<line x1="786" y1="471.1" x2="1159" y2="471.1" stroke="#1e1e23" stroke-width="0.5"/>
<line x1="786" y1="467.2" x2="1159" y2="467.2" stroke="#1e1e23" stroke-width="0.5"/>
<line x1="786" y1="463.2" x2="1159" y2="463.2" stroke="#1e1e23" stroke-width="0.5"/>
<line x1="786" y1="459.3" x2="1159" y2="459.3" stroke="#1e1e23" stroke-width="0.5"/>
<line x1="786" y1="455.4" x2="1159" y2="455.4" stroke="#1e1e23" stroke-width="0.5"/>
<line x1="786" y1="451.4" x2="1159" y2="451.4" stroke="#1e1e23" stroke-width="0.5"/>
<line x1="786" y1="447.5" x2="1159" y2="447.5" stroke="#1e1e23" stroke-width="0.5"/>
<line x1="786" y1="443.6" x2="1159" y2="443.6" stroke="#1e1e23" stroke-width="0.5"/>
<line x1="786" y1="439.6" x2="1159" y2="439.6" stroke="#1e1e23" stroke-width="0.5"/>
<line x1="786" y1="435.7" x2="1159" y2="435.7" stroke="#1e1e23" stroke-width="0.5"/>
<line x1="786" y1="431.8" x2="1159" y2="431.8" stroke="#1e1e23" stroke-width="0.5"/>
<line x1="786" y1="427.8" x2="1159" y2="427.8" stroke="#1e1e23" stroke-width="0.5"/>
<line x1="786" y1="423.9" x2="1159" y2="423.9" stroke="#1e1e23" stroke-width="0.5"/>
<line x1="786" y1="419.9" x2="1159" y2="419.9" stroke="#1e1e23" stroke-width="0.5"/>
<line x1="786" y1="416.0" x2="1159" y2="416.0" stroke="#1e1e23" stroke-width="0.5"/>
<line x1="786" y1="412.1" x2="1159" y2="412.1" stroke="#1e1e23" stroke-width="0.5"/>
<line x1="786" y1="408.1" x2="1159" y2="408.1" stroke="#1e1e23" stroke-width="0.5"/>
<line x1="786" y1="404.2" x2="1159" y2="404.2" stroke="#1e1e23" stroke-width="0.5"/>
<line x1="786" y1="400.2" x2="1159" y2="400.2" stroke="#1e1e23" stroke-width="0.5"/>
<line x1="786" y1="396.3" x2="1159" y2="396.3" stroke="#1e1e23" stroke-width="0.5"/>
<line x1="786" y1="392.4" x2="1159" y2="392.4" stroke="#1e1e23" stroke-width="0.5"/>
<line x1="786" y1="388.4" x2="1159" y2="388.4" stroke="#1e1e23" stroke-width="0.5"/>
<line x1="786" y1="384.5" x2="1159" y2="384.5" stroke="#1e1e23" stroke-width="0.5"/>
<line x1="786" y1="380.6" x2="1159" y2="380.6" stroke="#1e1e23" stroke-width="0.5"/>
<line x1="786" y1="376.6" x2="1159" y2="376.6" stroke="#1e1e23" stroke-width="0.5"/>
<line x1="786" y1="372.7" x2="1159" y2="372.7" stroke="#1e1e23" stroke-width="0.5"/>
<line x1="786" y1="368.8" x2="1159" y2="368.8" stroke="#1e1e23" stroke-width="0.5"/>
<line x1="786" y1="364.8" x2="1159" y2="364.8" stroke="#1e1e23" stroke-width="0.5"/>
<line x1="786" y1="360.9" x2="1159" y2="360.9" stroke="#1e1e23" stroke-width="0.5"/>
<line x1="786" y1="356.9" x2="1159" y2="356.9" stroke="#1e1e23" stroke-width="0.5"/>
<line x1="834.1" y1="452.0" x2="835.3" y2="453.4" stroke="#508ce0" stroke-width="1.5"/>
<line x1="835.3" y1="453.4" x2="836.9" y2="454.5" stroke="#508ce0" stroke-width="1.5"/>
<line x1="836.9" y1="454.5" x2="838.6" y2="455.1" stroke="#508ce0" stroke-width="1.5"/>
<line x1="838.6" y1="455.1" x2="840.5" y2="455.4" stroke="#508ce0" stroke-width="1.5"/>
<line x1="840.5" y1="455.4" x2="872.0" y2="455.4" stroke="#508ce0" stroke-width="1.5"/>
<line x1="872.0" y1="455.4" x2="873.9" y2="455.1" stroke="#508ce0" stroke-width="1.5"/>
<line x1="873.9" y1="455.1" x2="875.7" y2="454.5" stroke="#508ce0" stroke-width="1.5"/>
<line x1="875.7" y1="454.5" x2="877.3" y2="453.4" stroke="#508ce0" stroke-width="1.5"/>
<line x1="877.3" y1="453.4" x2="878.5" y2="452.0" stroke="#508ce0" stroke-width="1.5"/>
<line x1="878.5" y1="452.0" x2="879.4" y2="450.3" stroke="#508ce0" stroke-width="1.5"/>
<line x1="879.4" y1="450.3" x2="879.8" y2="448.4" stroke="#508ce0" stroke-width="1.5"/>
<line x1="879.8" y1="448.4" x2="879.8" y2="446.6" stroke="#508ce0" stroke-width="1.5"/>
<line x1="879.8" y1="446.6" x2="879.4" y2="444.7" stroke="#508ce0" stroke-width="1.5"/>
<line x1="879.4" y1="444.7" x2="878.5" y2="443.0" stroke="#508ce0" stroke-width="1.5"/>
<line x1="878.5" y1="443.0" x2="877.3" y2="441.6" stroke="#508ce0" stroke-width="1.5"/>
<line x1="877.3" y1="441.6" x2="875.7" y2="440.5" stroke="#508ce0" stroke-width="1.5"/>
<line x1="875.7" y1="440.5" x2="873.9" y2="439.9" stroke="#508ce0" stroke-width="1.5"/>
<line x1="873.9" y1="439.9" x2="872.0" y2="439.6" stroke="#508ce0" stroke-width="1.5"/>
<line x1="872.0" y1="439.6" x2="840.5" y2="439.6" stroke="#508ce0" stroke-width="1.5"/>
<line x1="840.5" y1="439.6" x2="838.6" y2="439.9" stroke="#508ce0" stroke-width="1.5"/>
<line x1="838.6" y1="439.9" x2="836.9" y2="440.5" stroke="#508ce0" stroke-width="1.5"/>
<line x1="836.9" y1="440.5" x2="835.3" y2="441.6" stroke="#508ce0" stroke-width="1.5"/>
<line x1="835.3" y1="441.6" x2="834.1" y2="443.0" stroke="#508ce0" stroke-width="1.5"/>
<line x1="834.1" y1="443.0" x2="833.2" y2="444.7" stroke="#508ce0" stroke-width="1.5"/>
<line x1="833.2" y1="444.7" x2="832.7" y2="446.6" stroke="#508ce0" stroke-width="1.5"/>
<line x1="832.7" y1="446.6" x2="832.7" y2="448.4" stroke="#508ce0" stroke-width="1.5"/>
<line x1="832.7" y1="448.4" x2="833.2" y2="450.3" stroke="#508ce0" stroke-width="1.5"/>
<line x1="833.2" y1="450.3" x2="833.6" y2="451.1" stroke="#508ce0" stroke-width="1.5"/>
<line x1="1099.5" y1="455.9" x2="1098.9" y2="456.5" stroke="#508ce0" stroke-width="1.5"/>
<line x1="1098.9" y1="456.5" x2="1098.2" y2="457.0" stroke="#508ce0" stroke-width="1.5"/>
<line x1="1098.2" y1="457.0" x2="1097.3" y2="457.2" stroke="#508ce0" stroke-width="1.5"/>
<line x1="1097.3" y1="457.2" x2="1096.5" y2="457.3" stroke="#508ce0" stroke-width="1.5"/>
<line x1="1096.5" y1="457.3" x2="1065.0" y2="457.3" stroke="#508ce0" stroke-width="1.5"/>
<line x1="1065.0" y1="457.3" x2="1064.1" y2="457.2" stroke="#508ce0" stroke-width="1.5"/>
<line x1="1064.1" y1="457.2" x2="1063.3" y2="457.0" stroke="#508ce0" stroke-width="1.5"/>
<line x1="1063.3" y1="457.0" x2="1062.5" y2="456.5" stroke="#508ce0" stroke-width="1.5"/>
<line x1="1062.5" y1="456.5" x2="1061.9" y2="455.9" stroke="#508ce0" stroke-width="1.5"/>
<line x1="1061.9" y1="455.9" x2="1061.4" y2="455.1" stroke="#508ce0" stroke-width="1.5"/>
<line x1="1061.4" y1="455.1" x2="1061.1" y2="454.3" stroke="#508ce0" stroke-width="1.5"/>
<line x1="1061.1" y1="454.3" x2="1061.0" y2="453.4" stroke="#508ce0" stroke-width="1.5"/>
<line x1="1061.0" y1="453.4" x2="1061.0" y2="441.6" stroke="#508ce0" stroke-width="1.5"/>
<line x1="1061.0" y1="441.6" x2="1061.1" y2="440.7" stroke="#508ce0" stroke-width="1.5"/>
<line x1="1061.1" y1="440.7" x2="1061.4" y2="439.9" stroke="#508ce0" stroke-width="1.5"/>
<line x1="1061.4" y1="439.9" x2="1061.9" y2="439.1" stroke="#508ce0" stroke-width="1.5"/>
<line x1="1061.9" y1="439.1" x2="1062.5" y2="438.5" stroke="#508ce0" stroke-width="1.5"/>
<line x1="1062.5" y1="438.5" x2="1063.3" y2="438.0" stroke="#508ce0" stroke-width="1.5"/>
<line x1="1063.3" y1="438.0" x2="1064.1" y2="437.8" stroke="#508ce0" stroke-width="1.5"/>
<line x1="1064.1" y1="437.8" x2="1065.0" y2="437.7" stroke="#508ce0" stroke-width="1.5"/>
<line x1="1065.0" y1="437.7" x2="1096.5" y2="437.7" stroke="#508ce0" stroke-width="1.5"/>
<line x1="1096.5" y1="437.7" x2="1097.3" y2="437.8" stroke="#508ce0" stroke-width="1.5"/>
<line x1="1097.3" y1="437.8" x2="1098.2" y2="438.0" stroke="#508ce0" stroke-width="1.5"/>
<line x1="1098.2" y1="438.0" x2="1098.9" y2="438.5" stroke="#508ce0" stroke-width="1.5"/>
<line x1="1098.9" y1="438.5" x2="1099.5" y2="439.1" stroke="#508ce0" stroke-width="1.5"/>
<line x1="1099.5" y1="439.1" x2="1100.0" y2="439.9" stroke="#508ce0" stroke-width="1.5"/>
<line x1="1100.0" y1="439.9" x2="1100.3" y2="440.7" stroke="#508ce0" stroke-width="1.5"/>
<line x1="1100.3" y1="440.7" x2="1100.4" y2="441.6" stroke="#508ce0" stroke-width="1.5"/>
<line x1="1100.4" y1="441.6" x2="1100.4" y2="453.4" stroke="#508ce0" stroke-width="1.5"/>
<line x1="1100.4" y1="453.4" x2="1100.3" y2="454.3" stroke="#508ce0" stroke-width="1.5"/>
<line x1="1100.3" y1="454.3" x2="1100.0" y2="455.1" stroke="#508ce0" stroke-width="1.5"/>
<line x1="1100.0" y1="455.1" x2="1099.8" y2="455.5" stroke="#508ce0" stroke-width="1.5"/>
<line x1="1126.0" y1="466.8" x2="1125.2" y2="466.8" stroke="#c9a84c" stroke-width="1.5"/>
<line x1="1125.2" y1="466.8" x2="1125.2" y2="476.3" stroke="#c9a84c" stroke-width="1.5"/>
<line x1="1125.2" y1="476.3" x2="1126.0" y2="476.3" stroke="#c9a84c" stroke-width="1.5"/>
<line x1="1126.0" y1="476.3" x2="1126.0" y2="478.1" stroke="#c9a84c" stroke-width="1.5"/>
<line x1="1126.0" y1="478.1" x2="1125.2" y2="478.1" stroke="#c9a84c" stroke-width="1.5"/>
<line x1="1125.2" y1="478.1" x2="1125.2" y2="479.9" stroke="#c9a84c" stroke-width="1.5"/>
<line x1="1125.2" y1="479.9" x2="1126.0" y2="479.9" stroke="#c9a84c" stroke-width="1.5"/>
<line x1="1126.0" y1="479.9" x2="1126.0" y2="481.1" stroke="#c9a84c" stroke-width="1.5"/>
<line x1="1126.0" y1="481.1" x2="1125.2" y2="481.1" stroke="#c9a84c" stroke-width="1.5"/>
<line x1="1125.2" y1="481.1" x2="1125.2" y2="483.0" stroke="#c9a84c" stroke-width="1.5"/>
<line x1="1125.2" y1="483.0" x2="1126.0" y2="483.0" stroke="#c9a84c" stroke-width="1.5"/>
<line x1="1126.0" y1="483.0" x2="1126.0" y2="485.7" stroke="#c9a84c" stroke-width="1.5"/>
<line x1="1126.0" y1="485.7" x2="1125.2" y2="485.7" stroke="#c9a84c" stroke-width="1.5"/>
<line x1="1125.2" y1="485.7" x2="1125.2" y2="488.2" stroke="#c9a84c" stroke-width="1.5"/>
<line x1="1125.2" y1="488.2" x2="1126.0" y2="488.2" stroke="#c9a84c" stroke-width="1.5"/>
<line x1="1126.0" y1="488.2" x2="1126.0" y2="490.9" stroke="#c9a84c" stroke-width="1.5"/>
<line x1="1126.0" y1="490.9" x2="1125.2" y2="490.9" stroke="#c9a84c" stroke-width="1.5"/>
<line x1="1125.2" y1="490.9" x2="1125.2" y2="492.8" stroke="#c9a84c" stroke-width="1.5"/>
<line x1="1125.2" y1="492.8" x2="1126.0" y2="492.8" stroke="#c9a84c" stroke-width="1.5"/>
<line x1="1126.0" y1="492.8" x2="1126.0" y2="516.4" stroke="#c9a84c" stroke-width="1.5"/>
<line x1="1126.0" y1="516.4" x2="1125.5" y2="520.8" stroke="#c9a84c" stroke-width="1.5"/>
<line x1="1125.5" y1="520.8" x2="1124.1" y2="524.9" stroke="#c9a84c" stroke-width="1.5"/>
<line x1="1124.1" y1="524.9" x2="1121.7" y2="528.7" stroke="#c9a84c" stroke-width="1.5"/>
<line x1="1121.7" y1="528.7" x2="1118.6" y2="531.8" stroke="#c9a84c" stroke-width="1.5"/>
<line x1="1118.6" y1="531.8" x2="1114.9" y2="534.1" stroke="#c9a84c" stroke-width="1.5"/>
<line x1="1114.9" y1="534.1" x2="1110.7" y2="535.6" stroke="#c9a84c" stroke-width="1.5"/>
<line x1="1110.7" y1="535.6" x2="1106.3" y2="536.1" stroke="#c9a84c" stroke-width="1.5"/>
<line x1="1106.3" y1="536.1" x2="1086.6" y2="536.1" stroke="#c9a84c" stroke-width="1.5"/>
<line x1="1086.6" y1="536.1" x2="1082.2" y2="535.6" stroke="#c9a84c" stroke-width="1.5"/>
<line x1="1082.2" y1="535.6" x2="1078.1" y2="534.1" stroke="#c9a84c" stroke-width="1.5"/>
<line x1="1078.1" y1="534.1" x2="1074.4" y2="531.8" stroke="#c9a84c" stroke-width="1.5"/>
<line x1="1074.4" y1="531.8" x2="1071.2" y2="528.7" stroke="#c9a84c" stroke-width="1.5"/>
<line x1="1071.2" y1="528.7" x2="1068.9" y2="524.9" stroke="#c9a84c" stroke-width="1.5"/>
<line x1="1068.9" y1="524.9" x2="1067.4" y2="520.8" stroke="#c9a84c" stroke-width="1.5"/>
<line x1="1067.4" y1="520.8" x2="1066.9" y2="516.4" stroke="#c9a84c" stroke-width="1.5"/>
<line x1="1066.9" y1="516.4" x2="1066.9" y2="506.6" stroke="#c9a84c" stroke-width="1.5"/>
<line x1="1066.9" y1="506.6" x2="1066.7" y2="504.6" stroke="#c9a84c" stroke-width="1.5"/>
<circle cx="1057.0" cy="506.6" r="10.0" fill="none" stroke="#c9a84c" stroke-width="1" stroke-dasharray="3,2"/>
<circle cx="1057.0" cy="507.0" r="10.2" fill="none" stroke="#c9a84c" stroke-width="1" stroke-dasharray="3,2"/>
<line x1="1057.1" y1="496.7" x2="1023.2" y2="496.7" stroke="#c9a84c" stroke-width="1.5"/>
<line x1="1023.2" y1="496.7" x2="1015.2" y2="482.9" stroke="#c9a84c" stroke-width="1.5"/>
<circle cx="1011.7" cy="485.1" r="4.1" fill="none" stroke="#c9a84c" stroke-width="1" stroke-dasharray="3,2"/>
<circle cx="1011.8" cy="485.0" r="4.0" fill="none" stroke="#c9a84c" stroke-width="1" stroke-dasharray="3,2"/>
<line x1="1009.0" y1="482.2" x2="1008.4" y2="482.9" stroke="#c9a84c" stroke-width="1.5"/>
<line x1="1008.4" y1="482.9" x2="1000.4" y2="496.7" stroke="#c9a84c" stroke-width="1.5"/>
<line x1="1000.4" y1="496.7" x2="984.2" y2="496.7" stroke="#c9a84c" stroke-width="1.5"/>
<line x1="984.2" y1="496.7" x2="984.2" y2="479.0" stroke="#c9a84c" stroke-width="1.5"/>
<line x1="984.2" y1="479.0" x2="981.6" y2="477.4" stroke="#c9a84c" stroke-width="1.5"/>
<line x1="981.6" y1="477.4" x2="952.0" y2="496.7" stroke="#c9a84c" stroke-width="1.5"/>
<line x1="952.0" y1="496.7" x2="936.6" y2="496.7" stroke="#c9a84c" stroke-width="1.5"/>
<line x1="936.6" y1="496.7" x2="928.6" y2="482.9" stroke="#c9a84c" stroke-width="1.5"/>
<line x1="928.6" y1="482.9" x2="928.0" y2="482.2" stroke="#c9a84c" stroke-width="1.5"/>
<circle cx="925.2" cy="485.0" r="4.0" fill="none" stroke="#c9a84c" stroke-width="1" stroke-dasharray="3,2"/>
<circle cx="925.2" cy="485.0" r="4.0" fill="none" stroke="#c9a84c" stroke-width="1" stroke-dasharray="3,2"/>
<line x1="921.8" y1="482.9" x2="913.8" y2="496.7" stroke="#c9a84c" stroke-width="1.5"/>
<line x1="913.8" y1="496.7" x2="879.9" y2="496.7" stroke="#c9a84c" stroke-width="1.5"/>
<line x1="879.9" y1="496.7" x2="877.8" y2="497.0" stroke="#c9a84c" stroke-width="1.5"/>
<line x1="877.8" y1="497.0" x2="875.7" y2="497.7" stroke="#c9a84c" stroke-width="1.5"/>
<circle cx="880.0" cy="506.6" r="9.9" fill="none" stroke="#c9a84c" stroke-width="1" stroke-dasharray="3,2"/>
<line x1="871.0" y1="502.5" x2="870.3" y2="504.2" stroke="#c9a84c" stroke-width="1.5"/>
<line x1="870.3" y1="504.2" x2="870.1" y2="506.6" stroke="#c9a84c" stroke-width="1.5"/>
<line x1="870.1" y1="506.6" x2="870.1" y2="516.4" stroke="#c9a84c" stroke-width="1.5"/>
<line x1="870.1" y1="516.4" x2="869.6" y2="520.8" stroke="#c9a84c" stroke-width="1.5"/>
<line x1="869.6" y1="520.8" x2="868.1" y2="524.9" stroke="#c9a84c" stroke-width="1.5"/>
<line x1="868.1" y1="524.9" x2="865.8" y2="528.7" stroke="#c9a84c" stroke-width="1.5"/>
<line x1="865.8" y1="528.7" x2="862.6" y2="531.8" stroke="#c9a84c" stroke-width="1.5"/>
<line x1="862.6" y1="531.8" x2="858.9" y2="534.1" stroke="#c9a84c" stroke-width="1.5"/>
<line x1="858.9" y1="534.1" x2="854.8" y2="535.6" stroke="#c9a84c" stroke-width="1.5"/>
<line x1="854.8" y1="535.6" x2="850.4" y2="536.1" stroke="#c9a84c" stroke-width="1.5"/>
<line x1="850.4" y1="536.1" x2="830.7" y2="536.1" stroke="#c9a84c" stroke-width="1.5"/>
<line x1="830.7" y1="536.1" x2="826.3" y2="535.6" stroke="#c9a84c" stroke-width="1.5"/>
<line x1="826.3" y1="535.6" x2="822.1" y2="534.1" stroke="#c9a84c" stroke-width="1.5"/>
<line x1="822.1" y1="534.1" x2="818.4" y2="531.8" stroke="#c9a84c" stroke-width="1.5"/>
<line x1="818.4" y1="531.8" x2="815.3" y2="528.7" stroke="#c9a84c" stroke-width="1.5"/>
<line x1="815.3" y1="528.7" x2="812.9" y2="524.9" stroke="#c9a84c" stroke-width="1.5"/>
<line x1="812.9" y1="524.9" x2="811.5" y2="520.8" stroke="#c9a84c" stroke-width="1.5"/>
<line x1="811.5" y1="520.8" x2="811.0" y2="516.4" stroke="#c9a84c" stroke-width="1.5"/>
<line x1="811.0" y1="516.4" x2="811.0" y2="378.6" stroke="#c9a84c" stroke-width="1.5"/>
<line x1="811.0" y1="378.6" x2="811.5" y2="374.2" stroke="#c9a84c" stroke-width="1.5"/>
<line x1="811.5" y1="374.2" x2="812.9" y2="370.1" stroke="#c9a84c" stroke-width="1.5"/>
<line x1="812.9" y1="370.1" x2="815.3" y2="366.3" stroke="#c9a84c" stroke-width="1.5"/>
<line x1="815.3" y1="366.3" x2="818.4" y2="363.2" stroke="#c9a84c" stroke-width="1.5"/>
<line x1="818.4" y1="363.2" x2="822.1" y2="360.9" stroke="#c9a84c" stroke-width="1.5"/>
<line x1="822.1" y1="360.9" x2="826.3" y2="359.4" stroke="#c9a84c" stroke-width="1.5"/>
<line x1="826.3" y1="359.4" x2="830.7" y2="358.9" stroke="#c9a84c" stroke-width="1.5"/>
<line x1="830.7" y1="358.9" x2="850.4" y2="358.9" stroke="#c9a84c" stroke-width="1.5"/>
<line x1="850.4" y1="358.9" x2="854.8" y2="359.4" stroke="#c9a84c" stroke-width="1.5"/>
<line x1="854.8" y1="359.4" x2="858.9" y2="360.9" stroke="#c9a84c" stroke-width="1.5"/>
<line x1="858.9" y1="360.9" x2="862.6" y2="363.2" stroke="#c9a84c" stroke-width="1.5"/>
<line x1="862.6" y1="363.2" x2="865.8" y2="366.3" stroke="#c9a84c" stroke-width="1.5"/>
<line x1="865.8" y1="366.3" x2="868.1" y2="370.1" stroke="#c9a84c" stroke-width="1.5"/>
<line x1="868.1" y1="370.1" x2="869.6" y2="374.2" stroke="#c9a84c" stroke-width="1.5"/>
<line x1="869.6" y1="374.2" x2="870.1" y2="378.6" stroke="#c9a84c" stroke-width="1.5"/>
<line x1="870.1" y1="378.6" x2="870.1" y2="388.4" stroke="#c9a84c" stroke-width="1.5"/>
<line x1="870.1" y1="388.4" x2="870.3" y2="390.4" stroke="#c9a84c" stroke-width="1.5"/>
<circle cx="880.2" cy="388.3" r="10.2" fill="none" stroke="#c9a84c" stroke-width="1.5"/>
<text x="894.3" y="392.3" fill="#c9a84c" font-family="monospace" font-size="8">ø51.56</text>
<circle cx="880.0" cy="388.2" r="10.1" fill="none" stroke="#c9a84c" stroke-width="1" stroke-dasharray="3,2"/>
<line x1="877.8" y1="398.0" x2="879.9" y2="398.3" stroke="#c9a84c" stroke-width="1.5"/>
<line x1="879.9" y1="398.3" x2="892.7" y2="398.3" stroke="#c9a84c" stroke-width="1.5"/>
<line x1="892.7" y1="398.3" x2="892.7" y2="404.2" stroke="#c9a84c" stroke-width="1.5"/>
<line x1="892.7" y1="404.2" x2="892.8" y2="405.1" stroke="#c9a84c" stroke-width="1.5"/>
<circle cx="896.7" cy="404.2" r="4.0" fill="none" stroke="#c9a84c" stroke-width="1" stroke-dasharray="3,2"/>
<line x1="895.8" y1="408.0" x2="896.6" y2="408.1" stroke="#c9a84c" stroke-width="1.5"/>
<line x1="896.6" y1="408.1" x2="922.2" y2="408.1" stroke="#c9a84c" stroke-width="1.5"/>
<line x1="922.2" y1="408.1" x2="923.1" y2="408.0" stroke="#c9a84c" stroke-width="1.5"/>
<circle cx="922.2" cy="404.2" r="4.0" fill="none" stroke="#c9a84c" stroke-width="1" stroke-dasharray="3,2"/>
<line x1="926.1" y1="405.1" x2="926.2" y2="404.2" stroke="#c9a84c" stroke-width="1.5"/>
<line x1="926.2" y1="404.2" x2="926.2" y2="398.3" stroke="#c9a84c" stroke-width="1.5"/>
<line x1="926.2" y1="398.3" x2="1010.8" y2="398.3" stroke="#c9a84c" stroke-width="1.5"/>
<line x1="1010.8" y1="398.3" x2="1010.8" y2="404.2" stroke="#c9a84c" stroke-width="1.5"/>
<line x1="1010.8" y1="404.2" x2="1010.9" y2="405.1" stroke="#c9a84c" stroke-width="1.5"/>
<circle cx="1014.8" cy="404.2" r="4.0" fill="none" stroke="#c9a84c" stroke-width="1" stroke-dasharray="3,2"/>
<line x1="1013.9" y1="408.0" x2="1014.8" y2="408.1" stroke="#c9a84c" stroke-width="1.5"/>
<line x1="1014.8" y1="408.1" x2="1040.4" y2="408.1" stroke="#c9a84c" stroke-width="1.5"/>
<circle cx="1040.3" cy="404.1" r="4.0" fill="none" stroke="#c9a84c" stroke-width="1" stroke-dasharray="3,2"/>
<circle cx="1039.7" cy="404.0" r="4.6" fill="none" stroke="#c9a84c" stroke-width="1" stroke-dasharray="3,2"/>
<line x1="1044.3" y1="404.2" x2="1044.3" y2="398.3" stroke="#c9a84c" stroke-width="1.5"/>
<line x1="1044.3" y1="398.3" x2="1057.1" y2="398.3" stroke="#c9a84c" stroke-width="1.5"/>
<line x1="1057.1" y1="398.3" x2="1059.2" y2="398.0" stroke="#c9a84c" stroke-width="1.5"/>
<circle cx="1057.0" cy="388.2" r="10.0" fill="none" stroke="#c9a84c" stroke-width="1" stroke-dasharray="3,2"/>
<circle cx="1056.8" cy="388.3" r="10.1" fill="none" stroke="#c9a84c" stroke-width="1.5"/>
<text x="1070.9" y="392.3" fill="#c9a84c" font-family="monospace" font-size="8">ø51.53</text>
<line x1="1066.7" y1="390.8" x2="1066.9" y2="388.4" stroke="#c9a84c" stroke-width="1.5"/>
<line x1="1066.9" y1="388.4" x2="1066.9" y2="378.6" stroke="#c9a84c" stroke-width="1.5"/>
<line x1="1066.9" y1="378.6" x2="1067.4" y2="374.2" stroke="#c9a84c" stroke-width="1.5"/>
<line x1="1067.4" y1="374.2" x2="1068.9" y2="370.1" stroke="#c9a84c" stroke-width="1.5"/>
<line x1="1068.9" y1="370.1" x2="1071.2" y2="366.3" stroke="#c9a84c" stroke-width="1.5"/>
<line x1="1071.2" y1="366.3" x2="1074.4" y2="363.2" stroke="#c9a84c" stroke-width="1.5"/>
<line x1="1074.4" y1="363.2" x2="1078.1" y2="360.9" stroke="#c9a84c" stroke-width="1.5"/>
<line x1="1078.1" y1="360.9" x2="1082.2" y2="359.4" stroke="#c9a84c" stroke-width="1.5"/>
<line x1="1082.2" y1="359.4" x2="1086.6" y2="358.9" stroke="#c9a84c" stroke-width="1.5"/>
<line x1="1086.6" y1="358.9" x2="1106.3" y2="358.9" stroke="#c9a84c" stroke-width="1.5"/>
<line x1="1106.3" y1="358.9" x2="1126.0" y2="378.6" stroke="#c9a84c" stroke-width="1.5"/>
<line x1="1126.0" y1="378.6" x2="1126.0" y2="463.0" stroke="#c9a84c" stroke-width="1.5"/>
<line x1="1126.0" y1="463.0" x2="1125.2" y2="463.0" stroke="#c9a84c" stroke-width="1.5"/>
<line x1="1125.2" y1="463.0" x2="1125.2" y2="464.8" stroke="#c9a84c" stroke-width="1.5"/>
<line x1="1125.2" y1="464.8" x2="1126.0" y2="464.8" stroke="#c9a84c" stroke-width="1.5"/>
<line x1="1126.0" y1="464.8" x2="1126.0" y2="466.8" stroke="#c9a84c" stroke-width="1.5"/>
<line x1="960.6" y1="479.0" x2="959.8" y2="478.5" stroke="#508ce0" stroke-width="1.5"/>
<line x1="959.8" y1="478.5" x2="959.3" y2="478.2" stroke="#508ce0" stroke-width="1.5"/>
<line x1="959.3" y1="478.2" x2="958.0" y2="477.4" stroke="#508ce0" stroke-width="1.5"/>
<line x1="958.0" y1="477.4" x2="976.4" y2="496.7" stroke="#508ce0" stroke-width="1.5"/>
<line x1="976.4" y1="496.7" x2="960.6" y2="496.7" stroke="#508ce0" stroke-width="1.5"/>
<line x1="960.6" y1="496.7" x2="960.6" y2="487.9" stroke="#508ce0" stroke-width="1.5"/>
<line x1="952.8" y1="487.9" x2="952.8" y2="496.7" stroke="#508ce0" stroke-width="1.5"/>
<line x1="952.8" y1="496.7" x2="956.7" y2="476.6" stroke="#508ce0" stroke-width="1.5"/>
<line x1="956.7" y1="476.6" x2="954.1" y2="478.2" stroke="#508ce0" stroke-width="1.5"/>
<line x1="954.1" y1="478.2" x2="953.6" y2="478.5" stroke="#508ce0" stroke-width="1.5"/>
<line x1="953.6" y1="478.5" x2="952.8" y2="479.0" stroke="#508ce0" stroke-width="1.5"/>
<line x1="976.4" y1="487.9" x2="976.4" y2="496.7" stroke="#508ce0" stroke-width="1.5"/>
<line x1="976.4" y1="496.7" x2="980.3" y2="476.6" stroke="#508ce0" stroke-width="1.5"/>
<line x1="980.3" y1="476.6" x2="977.7" y2="478.2" stroke="#508ce0" stroke-width="1.5"/>
<line x1="977.7" y1="478.2" x2="977.2" y2="478.5" stroke="#508ce0" stroke-width="1.5"/>
<line x1="977.2" y1="478.5" x2="976.4" y2="479.0" stroke="#508ce0" stroke-width="1.5"/>
<circle cx="840.5" cy="516.4" r="6.9" fill="none" stroke="#508ce0" stroke-width="1.5"/>
<text x="851.4" y="520.4" fill="#508ce0" font-family="monospace" font-size="8">ø34.90</text>
<circle cx="840.5" cy="378.6" r="6.9" fill="none" stroke="#508ce0" stroke-width="1.5"/>
<text x="851.4" y="382.6" fill="#508ce0" font-family="monospace" font-size="8">ø34.90</text>
<circle cx="1096.5" cy="516.4" r="6.9" fill="none" stroke="#508ce0" stroke-width="1.5"/>
<text x="1107.3" y="520.4" fill="#508ce0" font-family="monospace" font-size="8">ø34.90</text>
<circle cx="1096.5" cy="378.6" r="6.9" fill="none" stroke="#508ce0" stroke-width="1.5"/>
<text x="1107.3" y="382.6" fill="#508ce0" font-family="monospace" font-size="8">ø34.90</text>
<circle cx="905.5" cy="465.2" r="4.9" fill="none" stroke="#508ce0" stroke-width="1.5"/>
<text x="914.4" y="469.2" fill="#508ce0" font-family="monospace" font-size="8">ø24.91</text>
<circle cx="905.5" cy="429.8" r="4.9" fill="none" stroke="#508ce0" stroke-width="1.5"/>
<text x="914.4" y="433.8" fill="#508ce0" font-family="monospace" font-size="8">ø24.91</text>
<circle cx="1031.5" cy="465.2" r="4.9" fill="none" stroke="#508ce0" stroke-width="1.5"/>
<text x="1040.4" y="469.2" fill="#508ce0" font-family="monospace" font-size="8">ø24.91</text>
<circle cx="1031.5" cy="429.8" r="4.9" fill="none" stroke="#508ce0" stroke-width="1.5"/>
<text x="1040.4" y="433.8" fill="#508ce0" font-family="monospace" font-size="8">ø24.91</text>
</g>
<text x="794" y="802" fill="#786432" font-family="monospace" font-size="9">Range: 800.0 x 450.0 mm</text>
<text x="40" y="880" fill="#c9a84c" font-family="monospace" font-size="9">Features (13): ⊙× Circular Pattern ×4 (⊙ Hole ø34.90) | ⊙× Circular Pattern ×4 (⊙ Hole ø24.91) | ▭ Fillet Pocket 45.0×67.3 R5.5 | ▭ Pocket 50.0×250.0 | ⊙ Hole ø63.88 | ▭ Pocket 50.0×65.0 | ▭ Fillet Pocket 100.0×460.1 R5.3 | ▭ Pocket 50.0×55.1</text>
</svg>