<svg xmlns="http://www.w3.org/2000/svg" width="1200" height="900" viewBox="0 0 1200 900">
<rect width="1200" height="900" fill="#08090d"/>
<text x="40" y="30" fill="#c9a84c" font-family="monospace" font-size="16" font-weight="bold">nist_ctc_03_asme1_ap242-e2.stp  </text>
<text x="40" y="50" fill="#786432" font-family="monospace" font-size="11">BBox: 302.6 x 485.4 x 162.2 mm   Diag: 594.6mm</text>
<rect x="40" y="70" width="365" height="740" fill="none" stroke="#1e1e23" stroke-width="1"/>
<text x="48" y="86" fill="#dcdcdc" font-family="monospace" font-size="11">Plane ∠0°/135° d1/5 (13 profiles)</text>
<defs><clipPath id="clip-0-nist_ctc_03_asme1_ap242-e2"><rect x="41" y="71" width="363" height="738"/></clipPath></defs>
<g clip-path="url(#clip-0-nist_ctc_03_asme1_ap242-e2)">
<line x1="53.8" y1="70" x2="53.8" y2="810" stroke="#1e1e23" stroke-width="0.5"/>
<line x1="67.5" y1="70" x2="67.5" y2="810" stroke="#1e1e23" stroke-width="0.5"/>
<line x1="81.3" y1="70" x2="81.3" y2="810" stroke="#1e1e23" stroke-width="0.5"/>
<line x1="95.1" y1="70" x2="95.1" y2="810" stroke="#1e1e23" stroke-width="0.5"/>
<line x1="108.9" y1="70" x2="108.9" y2="810" stroke="#1e1e23" stroke-width="0.5"/>
<line x1="122.6" y1="70" x2="122.6" y2="810" stroke="#1e1e23" stroke-width="0.5"/>
<line x1="136.4" y1="70" x2="136.4" y2="810" stroke="#1e1e23" stroke-width="0.5"/>
<line x1="150.2" y1="70" x2="150.2" y2="810" stroke="#1e1e23" stroke-width="0.5"/>
<line x1="163.9" y1="70" x2="163.9" y2="810" stroke="#1e1e23" stroke-width="0.5"/>
<line x1="177.7" y1="70" x2="177.7" y2="810" stroke="#1e1e23" stroke-width="0.5"/>
<line x1="191.5" y1="70" x2="191.5" y2="810" stroke="#1e1e23" stroke-width="0.5"/>
<line x1="205.3" y1="70" x2="205.3" y2="810" stroke="#1e1e23" stroke-width="0.5"/>
<line x1="219.0" y1="70" x2="219.0" y2="810" stroke="#1e1e23" stroke-width="0.5"/>
<line x1="232.8" y1="70" x2="232.8" y2="810" stroke="#1e1e23" stroke-width="0.5"/>
<line x1="246.6" y1="70" x2="246.6" y2="810" stroke="#1e1e23" stroke-width="0.5"/>
<line x1="260.3" y1="70" x2="260.3" y2="810" stroke="#1e1e23" stroke-width="0.5"/>
<line x1="274.1" y1="70" x2="274.1" y2="810" stroke="#1e1e23" stroke-width="0.5"/>
<line x1="287.9" y1="70" x2="287.9" y2="810" stroke="#1e1e23" stroke-width="0.5"/>
<line x1="301.6" y1="70" x2="301.6" y2="810" stroke="#1e1e23" stroke-width="0.5"/>
<line x1="315.4" y1="70" x2="315.4" y2="810" stroke="#1e1e23" stroke-width="0.5"/>
<line x1="329.2" y1="70" x2="329.2" y2="810" stroke="#1e1e23" stroke-width="0.5"/>
<line x1="343.0" y1="70" x2="343.0" y2="810" stroke="#1e1e23" stroke-width="0.5"/>
<line x1="356.7" y1="70" x2="356.7" y2="810" stroke="#1e1e23" stroke-width="0.5"/>
<line x1="370.5" y1="70" x2="370.5" y2="810" stroke="#1e1e23" stroke-width="0.5"/>
<line x1="384.3" y1="70" x2="384.3" y2="810" stroke="#1e1e23" stroke-width="0.5"/>
<line x1="40" y1="740.4" x2="413" y2="740.4" stroke="#1e1e23" stroke-width="0.5"/>
<line x1="40" y1="726.7" x2="413" y2="726.7" stroke="#1e1e23" stroke-width="0.5"/>
<line x1="40" y1="712.9" x2="413" y2="712.9" stroke="#1e1e23" stroke-width="0.5"/>
<line x1="40" y1="699.1" x2="413" y2="699.1" stroke="#1e1e23" stroke-width="0.5"/>
<line x1="40" y1="685.4" x2="413" y2="685.4" stroke="#1e1e23" stroke-width="0.5"/>
<line x1="40" y1="671.6" x2="413" y2="671.6" stroke="#1e1e23" stroke-width="0.5"/>
<line x1="40" y1="657.8" x2="413" y2="657.8" stroke="#1e1e23" stroke-width="0.5"/>
<line x1="40" y1="644.0" x2="413" y2="644.0" stroke="#1e1e23" stroke-width="0.5"/>
<line x1="40" y1="630.3" x2="413" y2="630.3" stroke="#1e1e23" stroke-width="0.5"/>
<line x1="40" y1="616.5" x2="413" y2="616.5" stroke="#1e1e23" stroke-width="0.5"/>
<line x1="40" y1="602.7" x2="413" y2="602.7" stroke="#1e1e23" stroke-width="0.5"/>
<line x1="40" y1="589.0" x2="413" y2="589.0" stroke="#1e1e23" stroke-width="0.5"/>
<line x1="40" y1="575.2" x2="413" y2="575.2" stroke="#1e1e23" stroke-width="0.5"/>
<line x1="40" y1="561.4" x2="413" y2="561.4" stroke="#1e1e23" stroke-width="0.5"/>
<line x1="40" y1="547.6" x2="413" y2="547.6" stroke="#1e1e23" stroke-width="0.5"/>
<line x1="40" y1="533.9" x2="413" y2="533.9" stroke="#1e1e23" stroke-width="0.5"/>
<line x1="40" y1="520.1" x2="413" y2="520.1" stroke="#1e1e23" stroke-width="0.5"/>
<line x1="40" y1="506.3" x2="413" y2="506.3" stroke="#1e1e23" stroke-width="0.5"/>
<line x1="40" y1="492.6" x2="413" y2="492.6" stroke="#1e1e23" stroke-width="0.5"/>
<line x1="40" y1="478.8" x2="413" y2="478.8" stroke="#1e1e23" stroke-width="0.5"/>
<line x1="40" y1="465.0" x2="413" y2="465.0" stroke="#1e1e23" stroke-width="0.5"/>
<line x1="40" y1="451.2" x2="413" y2="451.2" stroke="#1e1e23" stroke-width="0.5"/>
<line x1="40" y1="437.5" x2="413" y2="437.5" stroke="#1e1e23" stroke-width="0.5"/>
<line x1="40" y1="423.7" x2="413" y2="423.7" stroke="#1e1e23" stroke-width="0.5"/>
<line x1="40" y1="409.9" x2="413" y2="409.9" stroke="#1e1e23" stroke-width="0.5"/>
<line x1="40" y1="396.2" x2="413" y2="396.2" stroke="#1e1e23" stroke-width="0.5"/>
<line x1="40" y1="382.4" x2="413" y2="382.4" stroke="#1e1e23" stroke-width="0.5"/>
<line x1="40" y1="368.6" x2="413" y2="368.6" stroke="#1e1e23" stroke-width="0.5"/>
<line x1="40" y1="354.9" x2="413" y2="354.9" stroke="#1e1e23" stroke-width="0.5"/>
<line x1="40" y1="341.1" x2="413" y2="341.1" stroke="#1e1e23" stroke-width="0.5"/>
<line x1="40" y1="327.3" x2="413" y2="327.3" stroke="#1e1e23" stroke-width="0.5"/>
<line x1="40" y1="313.5" x2="413" y2="313.5" stroke="#1e1e23" stroke-width="0.5"/>
<line x1="40" y1="299.8" x2="413" y2="299.8" stroke="#1e1e23" stroke-width="0.5"/>
<line x1="40" y1="286.0" x2="413" y2="286.0" stroke="#1e1e23" stroke-width="0.5"/>
<line x1="40" y1="272.2" x2="413" y2="272.2" stroke="#1e1e23" stroke-width="0.5"/>
<line x1="40" y1="258.5" x2="413" y2="258.5" stroke="#1e1e23" stroke-width="0.5"/>
<line x1="40" y1="244.7" x2="413" y2="244.7" stroke="#1e1e23" stroke-width="0.5"/>
<line x1="40" y1="230.9" x2="413" y2="230.9" stroke="#1e1e23" stroke-width="0.5"/>
<line x1="40" y1="217.1" x2="413" y2="217.1" stroke="#1e1e23" stroke-width="0.5"/>
<line x1="40" y1="203.4" x2="413" y2="203.4" stroke="#1e1e23" stroke-width="0.5"/>
<line x1="40" y1="189.6" x2="413" y2="189.6" stroke="#1e1e23" stroke-width="0.5"/>
<line x1="40" y1="175.8" x2="413" y2="175.8" stroke="#1e1e23" stroke-width="0.5"/>
<line x1="40" y1="162.1" x2="413" y2="162.1" stroke="#1e1e23" stroke-width="0.5"/>
<line x1="40" y1="148.3" x2="413" y2="148.3" stroke="#1e1e23" stroke-width="0.5"/>
<circle cx="82.5" cy="471.1" r="3.3" fill="none" stroke="#508ce0" stroke-width="1.5"/>
<text x="89.8" y="475.1" fill="#508ce0" font-family="monospace" font-size="8">ø4.75</text>
<line x1="155.8" y1="250.5" x2="153.7" y2="249.0" stroke="#508ce0" stroke-width="1.5"/>
<line x1="153.7" y1="249.0" x2="153.7" y2="213.3" stroke="#508ce0" stroke-width="1.5"/>
<line x1="153.7" y1="213.3" x2="154.3" y2="209.5" stroke="#508ce0" stroke-width="1.5"/>
<line x1="154.3" y1="209.5" x2="155.8" y2="206.3" stroke="#508ce0" stroke-width="1.5"/>
<line x1="155.8" y1="206.3" x2="155.8" y2="247.1" stroke="#508ce0" stroke-width="1.5"/>
<line x1="228.4" y1="191.9" x2="227.9" y2="194.6" stroke="#508ce0" stroke-width="1.5"/>
<line x1="227.9" y1="194.6" x2="227.9" y2="461.4" stroke="#508ce0" stroke-width="1.5"/>
<line x1="227.9" y1="461.4" x2="228.6" y2="459.9" stroke="#508ce0" stroke-width="1.5"/>
<line x1="228.6" y1="459.9" x2="230.7" y2="457.7" stroke="#508ce0" stroke-width="1.5"/>
<line x1="230.7" y1="457.7" x2="231.6" y2="457.1" stroke="#508ce0" stroke-width="1.5"/>
<line x1="231.6" y1="457.1" x2="231.6" y2="194.6" stroke="#508ce0" stroke-width="1.5"/>
<circle cx="238.5" cy="194.7" r="6.9" fill="none" stroke="#508ce0" stroke-width="1" stroke-dasharray="3,2"/>
<circle cx="241.4" cy="196.9" r="10.5" fill="none" stroke="#508ce0" stroke-width="1" stroke-dasharray="3,2"/>
<circle cx="243.9" cy="201.9" r="16.1" fill="none" stroke="#508ce0" stroke-width="1.5"/>
<text x="264.0" y="205.9" fill="#508ce0" font-family="monospace" font-size="8">ø23.39</text>
<line x1="244.0" y1="185.8" x2="363.9" y2="185.8" stroke="#508ce0" stroke-width="1.5"/>
<line x1="363.9" y1="185.8" x2="367.5" y2="185.5" stroke="#508ce0" stroke-width="1.5"/>
<line x1="367.5" y1="185.5" x2="370.9" y2="184.7" stroke="#508ce0" stroke-width="1.5"/>
<line x1="370.9" y1="184.7" x2="373.9" y2="183.4" stroke="#508ce0" stroke-width="1.5"/>
<line x1="373.9" y1="183.4" x2="376.5" y2="181.5" stroke="#508ce0" stroke-width="1.5"/>
<line x1="376.5" y1="181.5" x2="378.4" y2="179.4" stroke="#508ce0" stroke-width="1.5"/>
<line x1="378.4" y1="179.4" x2="379.6" y2="177.0" stroke="#508ce0" stroke-width="1.5"/>
<line x1="379.6" y1="177.0" x2="380.0" y2="174.5" stroke="#508ce0" stroke-width="1.5"/>
<line x1="380.0" y1="174.5" x2="380.0" y2="157.0" stroke="#508ce0" stroke-width="1.5"/>
<line x1="380.0" y1="157.0" x2="376.3" y2="157.0" stroke="#508ce0" stroke-width="1.5"/>
<line x1="376.3" y1="157.0" x2="376.3" y2="174.5" stroke="#508ce0" stroke-width="1.5"/>
<line x1="376.3" y1="174.5" x2="376.0" y2="176.4" stroke="#508ce0" stroke-width="1.5"/>
<line x1="376.0" y1="176.4" x2="375.1" y2="178.3" stroke="#508ce0" stroke-width="1.5"/>
<line x1="375.1" y1="178.3" x2="373.6" y2="179.9" stroke="#508ce0" stroke-width="1.5"/>
<line x1="373.6" y1="179.9" x2="371.6" y2="181.3" stroke="#508ce0" stroke-width="1.5"/>
<line x1="371.6" y1="181.3" x2="369.3" y2="182.3" stroke="#508ce0" stroke-width="1.5"/>
<line x1="369.3" y1="182.3" x2="366.7" y2="183.0" stroke="#508ce0" stroke-width="1.5"/>
<line x1="366.7" y1="183.0" x2="363.9" y2="183.2" stroke="#508ce0" stroke-width="1.5"/>
<line x1="363.9" y1="183.2" x2="244.0" y2="183.2" stroke="#508ce0" stroke-width="1.5"/>
<circle cx="243.8" cy="204.0" r="20.8" fill="none" stroke="#508ce0" stroke-width="1" stroke-dasharray="3,2"/>
<line x1="233.9" y1="185.7" x2="231.4" y2="187.5" stroke="#508ce0" stroke-width="1.5"/>
<circle cx="238.3" cy="195.4" r="10.5" fill="none" stroke="#508ce0" stroke-width="1" stroke-dasharray="3,2"/>
<circle cx="239.7" cy="700.9" r="8.3" fill="none" stroke="#508ce0" stroke-width="1" stroke-dasharray="3,2"/>
<line x1="231.9" y1="703.7" x2="231.6" y2="701.8" stroke="#508ce0" stroke-width="1.5"/>
<line x1="231.6" y1="701.8" x2="231.6" y2="656.2" stroke="#508ce0" stroke-width="1.5"/>
<line x1="231.6" y1="656.2" x2="231.0" y2="655.9" stroke="#508ce0" stroke-width="1.5"/>
<line x1="231.0" y1="655.9" x2="228.8" y2="653.7" stroke="#508ce0" stroke-width="1.5"/>
<line x1="228.8" y1="653.7" x2="227.9" y2="652.0" stroke="#508ce0" stroke-width="1.5"/>
<line x1="227.9" y1="652.0" x2="227.9" y2="701.8" stroke="#508ce0" stroke-width="1.5"/>
<line x1="227.9" y1="701.8" x2="228.3" y2="704.3" stroke="#508ce0" stroke-width="1.5"/>
<line x1="228.3" y1="704.3" x2="229.5" y2="706.7" stroke="#508ce0" stroke-width="1.5"/>
<line x1="229.5" y1="706.7" x2="231.4" y2="708.9" stroke="#508ce0" stroke-width="1.5"/>
<line x1="231.4" y1="708.9" x2="233.9" y2="710.7" stroke="#508ce0" stroke-width="1.5"/>
<line x1="233.9" y1="710.7" x2="237.0" y2="712.0" stroke="#508ce0" stroke-width="1.5"/>
<line x1="237.0" y1="712.0" x2="240.4" y2="712.8" stroke="#508ce0" stroke-width="1.5"/>
<line x1="240.4" y1="712.8" x2="244.0" y2="713.1" stroke="#508ce0" stroke-width="1.5"/>
<line x1="244.0" y1="713.1" x2="363.9" y2="713.1" stroke="#508ce0" stroke-width="1.5"/>
<line x1="363.9" y1="713.1" x2="366.7" y2="713.4" stroke="#508ce0" stroke-width="1.5"/>
<line x1="366.7" y1="713.4" x2="369.3" y2="714.0" stroke="#508ce0" stroke-width="1.5"/>
<line x1="369.3" y1="714.0" x2="371.6" y2="715.0" stroke="#508ce0" stroke-width="1.5"/>
<line x1="371.6" y1="715.0" x2="373.6" y2="716.4" stroke="#508ce0" stroke-width="1.5"/>
<line x1="373.6" y1="716.4" x2="375.1" y2="718.1" stroke="#508ce0" stroke-width="1.5"/>
<line x1="375.1" y1="718.1" x2="376.0" y2="719.9" stroke="#508ce0" stroke-width="1.5"/>
<line x1="376.0" y1="719.9" x2="376.3" y2="721.9" stroke="#508ce0" stroke-width="1.5"/>
<line x1="376.3" y1="721.9" x2="376.3" y2="738.0" stroke="#508ce0" stroke-width="1.5"/>
<line x1="376.3" y1="738.0" x2="380.0" y2="738.0" stroke="#508ce0" stroke-width="1.5"/>
<line x1="380.0" y1="738.0" x2="380.0" y2="721.9" stroke="#508ce0" stroke-width="1.5"/>
<line x1="380.0" y1="721.9" x2="379.6" y2="719.3" stroke="#508ce0" stroke-width="1.5"/>
<line x1="379.6" y1="719.3" x2="378.4" y2="716.9" stroke="#508ce0" stroke-width="1.5"/>
<line x1="378.4" y1="716.9" x2="376.5" y2="714.8" stroke="#508ce0" stroke-width="1.5"/>
<line x1="376.5" y1="714.8" x2="373.9" y2="713.0" stroke="#508ce0" stroke-width="1.5"/>
<line x1="373.9" y1="713.0" x2="370.9" y2="711.6" stroke="#508ce0" stroke-width="1.5"/>
<line x1="370.9" y1="711.6" x2="367.5" y2="710.8" stroke="#508ce0" stroke-width="1.5"/>
<line x1="367.5" y1="710.8" x2="363.9" y2="710.5" stroke="#508ce0" stroke-width="1.5"/>
<line x1="363.9" y1="710.5" x2="244.0" y2="710.5" stroke="#508ce0" stroke-width="1.5"/>
<circle cx="244.1" cy="692.4" r="18.1" fill="none" stroke="#508ce0" stroke-width="1" stroke-dasharray="3,2"/>
<circle cx="242.6" cy="697.6" r="12.7" fill="none" stroke="#508ce0" stroke-width="1" stroke-dasharray="3,2"/>
<line x1="231.0" y1="472.2" x2="228.8" y2="470.1" stroke="#508ce0" stroke-width="1.5"/>
<line x1="228.8" y1="470.1" x2="227.9" y2="468.4" stroke="#508ce0" stroke-width="1.5"/>
<line x1="227.9" y1="468.4" x2="227.9" y2="522.6" stroke="#508ce0" stroke-width="1.5"/>
<line x1="227.9" y1="522.6" x2="228.6" y2="521.1" stroke="#508ce0" stroke-width="1.5"/>
<line x1="228.6" y1="521.1" x2="230.7" y2="519.0" stroke="#508ce0" stroke-width="1.5"/>
<line x1="230.7" y1="519.0" x2="231.6" y2="518.4" stroke="#508ce0" stroke-width="1.5"/>
<line x1="231.6" y1="518.4" x2="231.6" y2="472.6" stroke="#508ce0" stroke-width="1.5"/>
<line x1="231.0" y1="533.4" x2="228.8" y2="531.3" stroke="#508ce0" stroke-width="1.5"/>
<line x1="228.8" y1="531.3" x2="227.9" y2="529.6" stroke="#508ce0" stroke-width="1.5"/>
<line x1="227.9" y1="529.6" x2="227.9" y2="583.8" stroke="#508ce0" stroke-width="1.5"/>
<line x1="227.9" y1="583.8" x2="228.6" y2="582.4" stroke="#508ce0" stroke-width="1.5"/>
<line x1="228.6" y1="582.4" x2="230.7" y2="580.2" stroke="#508ce0" stroke-width="1.5"/>
<line x1="230.7" y1="580.2" x2="231.6" y2="579.6" stroke="#508ce0" stroke-width="1.5"/>
<line x1="231.6" y1="579.6" x2="231.6" y2="533.8" stroke="#508ce0" stroke-width="1.5"/>
<line x1="231.0" y1="594.7" x2="228.8" y2="592.5" stroke="#508ce0" stroke-width="1.5"/>
<line x1="228.8" y1="592.5" x2="227.9" y2="590.8" stroke="#508ce0" stroke-width="1.5"/>
<line x1="227.9" y1="590.8" x2="227.9" y2="645.0" stroke="#508ce0" stroke-width="1.5"/>
<line x1="227.9" y1="645.0" x2="228.6" y2="643.6" stroke="#508ce0" stroke-width="1.5"/>
<line x1="228.6" y1="643.6" x2="230.7" y2="641.4" stroke="#508ce0" stroke-width="1.5"/>
<line x1="230.7" y1="641.4" x2="231.6" y2="640.8" stroke="#508ce0" stroke-width="1.5"/>
<line x1="231.6" y1="640.8" x2="231.6" y2="595.0" stroke="#508ce0" stroke-width="1.5"/>
<line x1="155.8" y1="639.2" x2="153.7" y2="640.8" stroke="#508ce0" stroke-width="1.5"/>
<line x1="153.7" y1="640.8" x2="153.7" y2="681.7" stroke="#508ce0" stroke-width="1.5"/>
<line x1="153.7" y1="681.7" x2="154.3" y2="685.5" stroke="#508ce0" stroke-width="1.5"/>
<line x1="154.3" y1="685.5" x2="155.8" y2="688.7" stroke="#508ce0" stroke-width="1.5"/>
<line x1="155.8" y1="688.7" x2="155.8" y2="642.8" stroke="#508ce0" stroke-width="1.5"/>
<line x1="65.8" y1="369.9" x2="66.7" y2="367.3" stroke="#c9a84c" stroke-width="1.5"/>
<line x1="66.7" y1="367.3" x2="68.8" y2="364.0" stroke="#c9a84c" stroke-width="1.5"/>
<line x1="68.8" y1="364.0" x2="71.6" y2="361.3" stroke="#c9a84c" stroke-width="1.5"/>
<line x1="71.6" y1="361.3" x2="74.9" y2="359.2" stroke="#c9a84c" stroke-width="1.5"/>
<line x1="74.9" y1="359.2" x2="78.6" y2="357.9" stroke="#c9a84c" stroke-width="1.5"/>
<line x1="78.6" y1="357.9" x2="82.5" y2="357.4" stroke="#c9a84c" stroke-width="1.5"/>
<line x1="82.5" y1="357.4" x2="155.5" y2="357.4" stroke="#c9a84c" stroke-width="1.5"/>
<line x1="155.5" y1="357.4" x2="155.5" y2="532.3" stroke="#c9a84c" stroke-width="1.5"/>
<line x1="155.5" y1="532.3" x2="82.5" y2="532.3" stroke="#c9a84c" stroke-width="1.5"/>
<line x1="82.5" y1="532.3" x2="78.6" y2="531.9" stroke="#c9a84c" stroke-width="1.5"/>
<line x1="78.6" y1="531.9" x2="74.9" y2="530.6" stroke="#c9a84c" stroke-width="1.5"/>
<line x1="74.9" y1="530.6" x2="71.6" y2="528.5" stroke="#c9a84c" stroke-width="1.5"/>
<line x1="71.6" y1="528.5" x2="68.8" y2="525.7" stroke="#c9a84c" stroke-width="1.5"/>
<line x1="68.8" y1="525.7" x2="66.7" y2="522.4" stroke="#c9a84c" stroke-width="1.5"/>
<line x1="66.7" y1="522.4" x2="65.4" y2="518.7" stroke="#c9a84c" stroke-width="1.5"/>
<line x1="65.4" y1="518.7" x2="65.0" y2="514.8" stroke="#c9a84c" stroke-width="1.5"/>
<line x1="65.0" y1="514.8" x2="65.0" y2="374.9" stroke="#c9a84c" stroke-width="1.5"/>
<line x1="65.0" y1="374.9" x2="65.4" y2="371.0" stroke="#c9a84c" stroke-width="1.5"/>
<circle cx="107.0" cy="444.9" r="18.6" fill="none" stroke="#508ce0" stroke-width="1.5"/>
<text x="129.5" y="448.9" fill="#508ce0" font-family="monospace" font-size="8">ø26.97</text>
<circle cx="82.5" cy="418.6" r="3.3" fill="none" stroke="#508ce0" stroke-width="1.5"/>
<text x="89.8" y="422.6" fill="#508ce0" font-family="monospace" font-size="8">ø4.75</text>
<circle cx="126.2" cy="471.1" r="3.3" fill="none" stroke="#508ce0" stroke-width="1.5"/>
<text x="133.5" y="475.1" fill="#508ce0" font-family="monospace" font-size="8">ø4.75</text>
<circle cx="126.2" cy="418.6" r="3.3" fill="none" stroke="#508ce0" stroke-width="1.5"/>
<text x="133.5" y="422.6" fill="#508ce0" font-family="monospace" font-size="8">ø4.75</text>
</g>
<text x="48" y="802" fill="#786432" font-family="monospace" font-size="9">Range: 228.7 x 421.9 mm</text>
<rect x="413" y="70" width="365" height="740" fill="none" stroke="#1e1e23" stroke-width="1"/>
<text x="421" y="86" fill="#dcdcdc" font-family="monospace" font-size="11">Plane ∠0°/135° d2/5 (4 profiles)</text>
<defs><clipPath id="clip-1-nist_ctc_03_asme1_ap242-e2"><rect x="414" y="71" width="363" height="738"/></clipPath></defs>
<g clip-path="url(#clip-1-nist_ctc_03_asme1_ap242-e2)">
<line x1="466.6" y1="70" x2="466.6" y2="810" stroke="#1e1e23" stroke-width="0.5"/>
<line x1="481.3" y1="70" x2="481.3" y2="810" stroke="#1e1e23" stroke-width="0.5"/>
<line x1="496.1" y1="70" x2="496.1" y2="810" stroke="#1e1e23" stroke-width="0.5"/>
<line x1="510.8" y1="70" x2="510.8" y2="810" stroke="#1e1e23" stroke-width="0.5"/>
<line x1="525.6" y1="70" x2="525.6" y2="810" stroke="#1e1e23" stroke-width="0.5"/>
<line x1="540.3" y1="70" x2="540.3" y2="810" stroke="#1e1e23" stroke-width="0.5"/>
<line x1="555.1" y1="70" x2="555.1" y2="810" stroke="#1e1e23" stroke-width="0.5"/>
<line x1="569.8" y1="70" x2="569.8" y2="810" stroke="#1e1e23" stroke-width="0.5"/>
<line x1="584.6" y1="70" x2="584.6" y2="810" stroke="#1e1e23" stroke-width="0.5"/>
<line x1="599.3" y1="70" x2="599.3" y2="810" stroke="#1e1e23" stroke-width="0.5"/>
<line x1="614.1" y1="70" x2="614.1" y2="810" stroke="#1e1e23" stroke-width="0.5"/>
<line x1="628.8" y1="70" x2="628.8" y2="810" stroke="#1e1e23" stroke-width="0.5"/>
<line x1="643.6" y1="70" x2="643.6" y2="810" stroke="#1e1e23" stroke-width="0.5"/>
<line x1="658.3" y1="70" x2="658.3" y2="810" stroke="#1e1e23" stroke-width="0.5"/>
<line x1="673.1" y1="70" x2="673.1" y2="810" stroke="#1e1e23" stroke-width="0.5"/>
<line x1="687.9" y1="70" x2="687.9" y2="810" stroke="#1e1e23" stroke-width="0.5"/>
<line x1="702.6" y1="70" x2="702.6" y2="810" stroke="#1e1e23" stroke-width="0.5"/>
<line x1="717.4" y1="70" x2="717.4" y2="810" stroke="#1e1e23" stroke-width="0.5"/>
<line x1="413" y1="786.8" x2="786" y2="786.8" stroke="#1e1e23" stroke-width="0.5"/>
<line x1="413" y1="772.1" x2="786" y2="772.1" stroke="#1e1e23" stroke-width="0.5"/>
<line x1="413" y1="757.3" x2="786" y2="757.3" stroke="#1e1e23" stroke-width="0.5"/>
<line x1="413" y1="742.6" x2="786" y2="742.6" stroke="#1e1e23" stroke-width="0.5"/>
<line x1="413" y1="727.8" x2="786" y2="727.8" stroke="#1e1e23" stroke-width="0.5"/>
<line x1="413" y1="713.1" x2="786" y2="713.1" stroke="#1e1e23" stroke-width="0.5"/>
<line x1="413" y1="698.3" x2="786" y2="698.3" stroke="#1e1e23" stroke-width="0.5"/>
<line x1="413" y1="683.6" x2="786" y2="683.6" stroke="#1e1e23" stroke-width="0.5"/>
<line x1="413" y1="668.8" x2="786" y2="668.8" stroke="#1e1e23" stroke-width="0.5"/>
<line x1="413" y1="654.1" x2="786" y2="654.1" stroke="#1e1e23" stroke-width="0.5"/>
<line x1="413" y1="639.3" x2="786" y2="639.3" stroke="#1e1e23" stroke-width="0.5"/>
<line x1="413" y1="624.5" x2="786" y2="624.5" stroke="#1e1e23" stroke-width="0.5"/>
<line x1="413" y1="609.8" x2="786" y2="609.8" stroke="#1e1e23" stroke-width="0.5"/>
<line x1="413" y1="595.0" x2="786" y2="595.0" stroke="#1e1e23" stroke-width="0.5"/>
<line x1="413" y1="580.3" x2="786" y2="580.3" stroke="#1e1e23" stroke-width="0.5"/>
<line x1="413" y1="565.5" x2="786" y2="565.5" stroke="#1e1e23" stroke-width="0.5"/>
<line x1="413" y1="550.8" x2="786" y2="550.8" stroke="#1e1e23" stroke-width="0.5"/>
<line x1="413" y1="536.0" x2="786" y2="536.0" stroke="#1e1e23" stroke-width="0.5"/>
<line x1="413" y1="521.3" x2="786" y2="521.3" stroke="#1e1e23" stroke-width="0.5"/>
<line x1="413" y1="506.5" x2="786" y2="506.5" stroke="#1e1e23" stroke-width="0.5"/>
<line x1="413" y1="491.8" x2="786" y2="491.8" stroke="#1e1e23" stroke-width="0.5"/>
<line x1="413" y1="477.0" x2="786" y2="477.0" stroke="#1e1e23" stroke-width="0.5"/>
<line x1="413" y1="462.3" x2="786" y2="462.3" stroke="#1e1e23" stroke-width="0.5"/>
<line x1="413" y1="447.5" x2="786" y2="447.5" stroke="#1e1e23" stroke-width="0.5"/>
<line x1="413" y1="432.8" x2="786" y2="432.8" stroke="#1e1e23" stroke-width="0.5"/>
<line x1="413" y1="418.0" x2="786" y2="418.0" stroke="#1e1e23" stroke-width="0.5"/>
<line x1="413" y1="403.2" x2="786" y2="403.2" stroke="#1e1e23" stroke-width="0.5"/>
<line x1="413" y1="388.5" x2="786" y2="388.5" stroke="#1e1e23" stroke-width="0.5"/>
<line x1="413" y1="373.7" x2="786" y2="373.7" stroke="#1e1e23" stroke-width="0.5"/>
<line x1="413" y1="359.0" x2="786" y2="359.0" stroke="#1e1e23" stroke-width="0.5"/>
<line x1="413" y1="344.2" x2="786" y2="344.2" stroke="#1e1e23" stroke-width="0.5"/>
<line x1="413" y1="329.5" x2="786" y2="329.5" stroke="#1e1e23" stroke-width="0.5"/>
<line x1="413" y1="314.7" x2="786" y2="314.7" stroke="#1e1e23" stroke-width="0.5"/>
<line x1="413" y1="300.0" x2="786" y2="300.0" stroke="#1e1e23" stroke-width="0.5"/>
<line x1="413" y1="285.2" x2="786" y2="285.2" stroke="#1e1e23" stroke-width="0.5"/>
<line x1="413" y1="270.5" x2="786" y2="270.5" stroke="#1e1e23" stroke-width="0.5"/>
<line x1="413" y1="255.7" x2="786" y2="255.7" stroke="#1e1e23" stroke-width="0.5"/>
<line x1="413" y1="241.0" x2="786" y2="241.0" stroke="#1e1e23" stroke-width="0.5"/>
<line x1="413" y1="226.2" x2="786" y2="226.2" stroke="#1e1e23" stroke-width="0.5"/>
<line x1="413" y1="211.4" x2="786" y2="211.4" stroke="#1e1e23" stroke-width="0.5"/>
<line x1="413" y1="196.7" x2="786" y2="196.7" stroke="#1e1e23" stroke-width="0.5"/>
<line x1="413" y1="181.9" x2="786" y2="181.9" stroke="#1e1e23" stroke-width="0.5"/>
<line x1="413" y1="167.2" x2="786" y2="167.2" stroke="#1e1e23" stroke-width="0.5"/>
<line x1="413" y1="152.4" x2="786" y2="152.4" stroke="#1e1e23" stroke-width="0.5"/>
<line x1="413" y1="137.7" x2="786" y2="137.7" stroke="#1e1e23" stroke-width="0.5"/>
<line x1="413" y1="122.9" x2="786" y2="122.9" stroke="#1e1e23" stroke-width="0.5"/>
<line x1="413" y1="108.2" x2="786" y2="108.2" stroke="#1e1e23" stroke-width="0.5"/>
<line x1="481.5" y1="174.5" x2="481.5" y2="245.0" stroke="#508ce0" stroke-width="1.5"/>
<line x1="481.5" y1="245.0" x2="477.5" y2="242.2" stroke="#508ce0" stroke-width="1.5"/>
<line x1="477.5" y1="242.2" x2="477.5" y2="175.5" stroke="#508ce0" stroke-width="1.5"/>
<line x1="477.5" y1="175.5" x2="480.2" y2="174.8" stroke="#508ce0" stroke-width="1.5"/>
<line x1="541.4" y1="169.7" x2="540.9" y2="172.5" stroke="#508ce0" stroke-width="1.5"/>
<line x1="540.9" y1="172.5" x2="540.9" y2="715.9" stroke="#508ce0" stroke-width="1.5"/>
<line x1="540.9" y1="715.9" x2="541.4" y2="718.6" stroke="#508ce0" stroke-width="1.5"/>
<circle cx="553.3" cy="714.1" r="12.7" fill="none" stroke="#508ce0" stroke-width="1" stroke-dasharray="3,2"/>
<circle cx="558.0" cy="705.6" r="22.5" fill="none" stroke="#508ce0" stroke-width="1.5"/>
<text x="584.5" y="709.6" fill="#508ce0" font-family="monospace" font-size="8">ø30.50</text>
<line x1="558.2" y1="728.1" x2="686.7" y2="728.1" stroke="#508ce0" stroke-width="1.5"/>
<line x1="686.7" y1="728.1" x2="689.6" y2="728.3" stroke="#508ce0" stroke-width="1.5"/>
<circle cx="686.4" cy="746.5" r="18.4" fill="none" stroke="#508ce0" stroke-width="1" stroke-dasharray="3,2"/>
<circle cx="688.7" cy="740.9" r="12.4" fill="none" stroke="#508ce0" stroke-width="1" stroke-dasharray="3,2"/>
<circle cx="691.7" cy="737.9" r="8.3" fill="none" stroke="#508ce0" stroke-width="1" stroke-dasharray="3,2"/>
<line x1="699.9" y1="737.4" x2="699.9" y2="754.8" stroke="#508ce0" stroke-width="1.5"/>
<line x1="699.9" y1="754.8" x2="703.9" y2="754.8" stroke="#508ce0" stroke-width="1.5"/>
<line x1="703.9" y1="754.8" x2="703.9" y2="737.4" stroke="#508ce0" stroke-width="1.5"/>
<line x1="703.9" y1="737.4" x2="703.5" y2="734.7" stroke="#508ce0" stroke-width="1.5"/>
<circle cx="691.6" cy="739.2" r="12.7" fill="none" stroke="#508ce0" stroke-width="1" stroke-dasharray="3,2"/>
<circle cx="687.4" cy="745.5" r="20.2" fill="none" stroke="#508ce0" stroke-width="1" stroke-dasharray="3,2"/>
<circle cx="686.1" cy="752.6" r="27.4" fill="none" stroke="#508ce0" stroke-width="1" stroke-dasharray="3,2"/>
<line x1="686.7" y1="725.3" x2="558.2" y2="725.3" stroke="#508ce0" stroke-width="1.5"/>
<line x1="558.2" y1="725.3" x2="555.2" y2="725.0" stroke="#508ce0" stroke-width="1.5"/>
<circle cx="556.8" cy="711.6" r="13.4" fill="none" stroke="#508ce0" stroke-width="1" stroke-dasharray="3,2"/>
<circle cx="552.2" cy="715.8" r="7.3" fill="none" stroke="#508ce0" stroke-width="1" stroke-dasharray="3,2"/>
<line x1="544.9" y1="715.9" x2="544.9" y2="172.5" stroke="#508ce0" stroke-width="1.5"/>
<line x1="544.9" y1="172.5" x2="545.2" y2="170.4" stroke="#508ce0" stroke-width="1.5"/>
<circle cx="554.4" cy="173.9" r="9.8" fill="none" stroke="#508ce0" stroke-width="1" stroke-dasharray="3,2"/>
<circle cx="558.0" cy="180.3" r="17.2" fill="none" stroke="#508ce0" stroke-width="1" stroke-dasharray="3,2"/>
<line x1="558.2" y1="163.2" x2="686.7" y2="163.1" stroke="#508ce0" stroke-width="1.5"/>
<line x1="686.7" y1="163.1" x2="690.5" y2="162.8" stroke="#508ce0" stroke-width="1.5"/>
<circle cx="686.3" cy="139.1" r="24.1" fill="none" stroke="#508ce0" stroke-width="1" stroke-dasharray="3,2"/>
<circle cx="689.2" cy="146.4" r="16.3" fill="none" stroke="#508ce0" stroke-width="1" stroke-dasharray="3,2"/>
<line x1="702.2" y1="156.2" x2="703.5" y2="153.7" stroke="#508ce0" stroke-width="1.5"/>
<line x1="703.5" y1="153.7" x2="703.9" y2="151.0" stroke="#508ce0" stroke-width="1.5"/>
<line x1="703.9" y1="151.0" x2="703.9" y2="132.2" stroke="#508ce0" stroke-width="1.5"/>
<line x1="703.9" y1="132.2" x2="699.9" y2="132.2" stroke="#508ce0" stroke-width="1.5"/>
<line x1="699.9" y1="132.2" x2="699.9" y2="151.0" stroke="#508ce0" stroke-width="1.5"/>
<circle cx="691.7" cy="150.5" r="8.2" fill="none" stroke="#508ce0" stroke-width="1" stroke-dasharray="3,2"/>
<circle cx="688.7" cy="147.5" r="12.4" fill="none" stroke="#508ce0" stroke-width="1" stroke-dasharray="3,2"/>
<circle cx="686.4" cy="141.9" r="18.4" fill="none" stroke="#508ce0" stroke-width="1" stroke-dasharray="3,2"/>
<line x1="689.6" y1="160.1" x2="686.7" y2="160.3" stroke="#508ce0" stroke-width="1.5"/>
<line x1="686.7" y1="160.3" x2="558.2" y2="160.3" stroke="#508ce0" stroke-width="1.5"/>
<circle cx="557.9" cy="182.5" r="22.1" fill="none" stroke="#508ce0" stroke-width="1" stroke-dasharray="3,2"/>
<circle cx="553.2" cy="174.3" r="12.7" fill="none" stroke="#508ce0" stroke-width="1" stroke-dasharray="3,2"/>
<line x1="481.5" y1="712.5" x2="481.5" y2="636.4" stroke="#508ce0" stroke-width="1.5"/>
<line x1="481.5" y1="636.4" x2="477.5" y2="639.2" stroke="#508ce0" stroke-width="1.5"/>
<line x1="477.5" y1="639.2" x2="477.5" y2="711.5" stroke="#508ce0" stroke-width="1.5"/>
<line x1="477.5" y1="711.5" x2="480.2" y2="712.1" stroke="#508ce0" stroke-width="1.5"/>
<line x1="479.6" y1="347.0" x2="481.5" y2="347.0" stroke="#508ce0" stroke-width="1.5"/>
<line x1="481.5" y1="347.0" x2="481.5" y2="534.4" stroke="#508ce0" stroke-width="1.5"/>
<line x1="481.5" y1="534.4" x2="477.5" y2="534.4" stroke="#508ce0" stroke-width="1.5"/>
<line x1="477.5" y1="534.4" x2="477.5" y2="347.0" stroke="#508ce0" stroke-width="1.5"/>
</g>
<text x="421" y="802" fill="#786432" font-family="monospace" font-size="9">Range: 159.9 x 450.7 mm</text>
<rect x="786" y="70" width="365" height="740" fill="none" stroke="#1e1e23" stroke-width="1"/>
<text x="794" y="86" fill="#dcdcdc" font-family="monospace" font-size="11">Plane ∠0°/135° d3/5 (2 profiles)</text>
<defs><clipPath id="clip-2-nist_ctc_03_asme1_ap242-e2"><rect x="787" y="71" width="363" height="738"/></clipPath></defs>
<g clip-path="url(#clip-2-nist_ctc_03_asme1_ap242-e2)">
<line x1="854.6" y1="70" x2="854.6" y2="810" stroke="#1e1e23" stroke-width="0.5"/>
<line x1="869.5" y1="70" x2="869.5" y2="810" stroke="#1e1e23" stroke-width="0.5"/>
<line x1="884.5" y1="70" x2="884.5" y2="810" stroke="#1e1e23" stroke-width="0.5"/>
<line x1="899.4" y1="70" x2="899.4" y2="810" stroke="#1e1e23" stroke-width="0.5"/>
<line x1="914.3" y1="70" x2="914.3" y2="810" stroke="#1e1e23" stroke-width="0.5"/>
<line x1="929.2" y1="70" x2="929.2" y2="810" stroke="#1e1e23" stroke-width="0.5"/>
<line x1="944.2" y1="70" x2="944.2" y2="810" stroke="#1e1e23" stroke-width="0.5"/>
<line x1="959.1" y1="70" x2="959.1" y2="810" stroke="#1e1e23" stroke-width="0.5"/>
<line x1="974.0" y1="70" x2="974.0" y2="810" stroke="#1e1e23" stroke-width="0.5"/>
<line x1="988.9" y1="70" x2="988.9" y2="810" stroke="#1e1e23" stroke-width="0.5"/>
<line x1="1003.9" y1="70" x2="1003.9" y2="810" stroke="#1e1e23" stroke-width="0.5"/>
<line x1="1018.8" y1="70" x2="1018.8" y2="810" stroke="#1e1e23" stroke-width="0.5"/>
<line x1="1033.7" y1="70" x2="1033.7" y2="810" stroke="#1e1e23" stroke-width="0.5"/>
<line x1="1048.7" y1="70" x2="1048.7" y2="810" stroke="#1e1e23" stroke-width="0.5"/>
<line x1="1063.6" y1="70" x2="1063.6" y2="810" stroke="#1e1e23" stroke-width="0.5"/>
<line x1="1078.5" y1="70" x2="1078.5" y2="810" stroke="#1e1e23" stroke-width="0.5"/>
<line x1="786" y1="794.3" x2="1159" y2="794.3" stroke="#1e1e23" stroke-width="0.5"/>
<line x1="786" y1="779.3" x2="1159" y2="779.3" stroke="#1e1e23" stroke-width="0.5"/>
<line x1="786" y1="764.4" x2="1159" y2="764.4" stroke="#1e1e23" stroke-width="0.5"/>
<line x1="786" y1="749.5" x2="1159" y2="749.5" stroke="#1e1e23" stroke-width="0.5"/>
<line x1="786" y1="734.6" x2="1159" y2="734.6" stroke="#1e1e23" stroke-width="0.5"/>
<line x1="786" y1="719.6" x2="1159" y2="719.6" stroke="#1e1e23" stroke-width="0.5"/>
<line x1="786" y1="704.7" x2="1159" y2="704.7" stroke="#1e1e23" stroke-width="0.5"/>
<line x1="786" y1="689.8" x2="1159" y2="689.8" stroke="#1e1e23" stroke-width="0.5"/>
<line x1="786" y1="674.9" x2="1159" y2="674.9" stroke="#1e1e23" stroke-width="0.5"/>
<line x1="786" y1="659.9" x2="1159" y2="659.9" stroke="#1e1e23" stroke-width="0.5"/>
<line x1="786" y1="645.0" x2="1159" y2="645.0" stroke="#1e1e23" stroke-width="0.5"/>
<line x1="786" y1="630.1" x2="1159" y2="630.1" stroke="#1e1e23" stroke-width="0.5"/>
<line x1="786" y1="615.2" x2="1159" y2="615.2" stroke="#1e1e23" stroke-width="0.5"/>
<line x1="786" y1="600.2" x2="1159" y2="600.2" stroke="#1e1e23" stroke-width="0.5"/>
<line x1="786" y1="585.3" x2="1159" y2="585.3" stroke="#1e1e23" stroke-width="0.5"/>
<line x1="786" y1="570.4" x2="1159" y2="570.4" stroke="#1e1e23" stroke-width="0.5"/>
<line x1="786" y1="555.5" x2="1159" y2="555.5" stroke="#1e1e23" stroke-width="0.5"/>
<line x1="786" y1="540.5" x2="1159" y2="540.5" stroke="#1e1e23" stroke-width="0.5"/>
<line x1="786" y1="525.6" x2="1159" y2="525.6" stroke="#1e1e23" stroke-width="0.5"/>
<line x1="786" y1="510.7" x2="1159" y2="510.7" stroke="#1e1e23" stroke-width="0.5"/>
<line x1="786" y1="495.7" x2="1159" y2="495.7" stroke="#1e1e23" stroke-width="0.5"/>
<line x1="786" y1="480.8" x2="1159" y2="480.8" stroke="#1e1e23" stroke-width="0.5"/>
<line x1="786" y1="465.9" x2="1159" y2="465.9" stroke="#1e1e23" stroke-width="0.5"/>
<line x1="786" y1="451.0" x2="1159" y2="451.0" stroke="#1e1e23" stroke-width="0.5"/>
<line x1="786" y1="436.0" x2="1159" y2="436.0" stroke="#1e1e23" stroke-width="0.5"/>
<line x1="786" y1="421.1" x2="1159" y2="421.1" stroke="#1e1e23" stroke-width="0.5"/>
<line x1="786" y1="406.2" x2="1159" y2="406.2" stroke="#1e1e23" stroke-width="0.5"/>
<line x1="786" y1="391.3" x2="1159" y2="391.3" stroke="#1e1e23" stroke-width="0.5"/>
<line x1="786" y1="376.3" x2="1159" y2="376.3" stroke="#1e1e23" stroke-width="0.5"/>
<line x1="786" y1="361.4" x2="1159" y2="361.4" stroke="#1e1e23" stroke-width="0.5"/>
<line x1="786" y1="346.5" x2="1159" y2="346.5" stroke="#1e1e23" stroke-width="0.5"/>
<line x1="786" y1="331.6" x2="1159" y2="331.6" stroke="#1e1e23" stroke-width="0.5"/>
<line x1="786" y1="316.6" x2="1159" y2="316.6" stroke="#1e1e23" stroke-width="0.5"/>
<line x1="786" y1="301.7" x2="1159" y2="301.7" stroke="#1e1e23" stroke-width="0.5"/>
<line x1="786" y1="286.8" x2="1159" y2="286.8" stroke="#1e1e23" stroke-width="0.5"/>
<line x1="786" y1="271.9" x2="1159" y2="271.9" stroke="#1e1e23" stroke-width="0.5"/>
<line x1="786" y1="256.9" x2="1159" y2="256.9" stroke="#1e1e23" stroke-width="0.5"/>
<line x1="786" y1="242.0" x2="1159" y2="242.0" stroke="#1e1e23" stroke-width="0.5"/>
<line x1="786" y1="227.1" x2="1159" y2="227.1" stroke="#1e1e23" stroke-width="0.5"/>
<line x1="786" y1="212.2" x2="1159" y2="212.2" stroke="#1e1e23" stroke-width="0.5"/>
<line x1="786" y1="197.2" x2="1159" y2="197.2" stroke="#1e1e23" stroke-width="0.5"/>
<line x1="786" y1="182.3" x2="1159" y2="182.3" stroke="#1e1e23" stroke-width="0.5"/>
<line x1="786" y1="167.4" x2="1159" y2="167.4" stroke="#1e1e23" stroke-width="0.5"/>
<line x1="786" y1="152.5" x2="1159" y2="152.5" stroke="#1e1e23" stroke-width="0.5"/>
<line x1="786" y1="137.5" x2="1159" y2="137.5" stroke="#1e1e23" stroke-width="0.5"/>
<line x1="786" y1="122.6" x2="1159" y2="122.6" stroke="#1e1e23" stroke-width="0.5"/>
<line x1="786" y1="107.7" x2="1159" y2="107.7" stroke="#1e1e23" stroke-width="0.5"/>
<line x1="906.4" y1="170.0" x2="906.0" y2="172.8" stroke="#508ce0" stroke-width="1.5"/>
<line x1="906.0" y1="172.8" x2="906.0" y2="722.5" stroke="#508ce0" stroke-width="1.5"/>
<line x1="906.0" y1="722.5" x2="906.4" y2="725.2" stroke="#508ce0" stroke-width="1.5"/>
<circle cx="918.4" cy="720.7" r="12.8" fill="none" stroke="#508ce0" stroke-width="1" stroke-dasharray="3,2"/>
<circle cx="923.2" cy="712.2" r="22.7" fill="none" stroke="#508ce0" stroke-width="1.5"/>
<text x="949.9" y="716.2" fill="#508ce0" font-family="monospace" font-size="8">ø30.36</text>
<line x1="923.4" y1="734.8" x2="1053.4" y2="734.8" stroke="#508ce0" stroke-width="1.5"/>
<line x1="1053.4" y1="734.8" x2="1056.4" y2="735.1" stroke="#508ce0" stroke-width="1.5"/>
<circle cx="1054.7" cy="748.8" r="13.8" fill="none" stroke="#508ce0" stroke-width="1" stroke-dasharray="3,2"/>
<circle cx="1058.5" cy="744.7" r="8.3" fill="none" stroke="#508ce0" stroke-width="1" stroke-dasharray="3,2"/>
<line x1="1066.8" y1="744.3" x2="1066.8" y2="761.8" stroke="#508ce0" stroke-width="1.5"/>
<line x1="1066.8" y1="761.8" x2="1070.9" y2="761.8" stroke="#508ce0" stroke-width="1.5"/>
<line x1="1070.9" y1="761.8" x2="1070.9" y2="744.3" stroke="#508ce0" stroke-width="1.5"/>
<line x1="1070.9" y1="744.3" x2="1070.4" y2="741.6" stroke="#508ce0" stroke-width="1.5"/>
<circle cx="1058.6" cy="746.0" r="12.6" fill="none" stroke="#508ce0" stroke-width="1" stroke-dasharray="3,2"/>
<line x1="1067.0" y1="736.6" x2="1064.3" y2="734.7" stroke="#508ce0" stroke-width="1.5"/>
<circle cx="1053.2" cy="756.0" r="24.0" fill="none" stroke="#508ce0" stroke-width="1" stroke-dasharray="3,2"/>
<line x1="1057.3" y1="732.3" x2="1053.4" y2="732.0" stroke="#508ce0" stroke-width="1.5"/>
<line x1="1053.4" y1="732.0" x2="923.4" y2="731.9" stroke="#508ce0" stroke-width="1.5"/>
<circle cx="922.9" cy="716.0" r="16.0" fill="none" stroke="#508ce0" stroke-width="1" stroke-dasharray="3,2"/>
<circle cx="918.0" cy="722.2" r="8.0" fill="none" stroke="#508ce0" stroke-width="1" stroke-dasharray="3,2"/>
<line x1="910.0" y1="722.5" x2="910.0" y2="172.8" stroke="#508ce0" stroke-width="1.5"/>
<line x1="910.0" y1="172.8" x2="910.3" y2="170.7" stroke="#508ce0" stroke-width="1.5"/>
<circle cx="919.5" cy="174.2" r="9.9" fill="none" stroke="#508ce0" stroke-width="1" stroke-dasharray="3,2"/>
<circle cx="923.2" cy="180.6" r="17.3" fill="none" stroke="#508ce0" stroke-width="1" stroke-dasharray="3,2"/>
<line x1="923.4" y1="163.3" x2="1053.4" y2="163.3" stroke="#508ce0" stroke-width="1.5"/>
<line x1="1053.4" y1="163.3" x2="1057.3" y2="163.0" stroke="#508ce0" stroke-width="1.5"/>
<circle cx="1053.1" cy="139.2" r="24.2" fill="none" stroke="#508ce0" stroke-width="1" stroke-dasharray="3,2"/>
<circle cx="1056.0" cy="146.5" r="16.4" fill="none" stroke="#508ce0" stroke-width="1" stroke-dasharray="3,2"/>
<line x1="1069.1" y1="156.3" x2="1070.4" y2="153.7" stroke="#508ce0" stroke-width="1.5"/>
<line x1="1070.4" y1="153.7" x2="1070.9" y2="151.0" stroke="#508ce0" stroke-width="1.5"/>
<line x1="1070.9" y1="151.0" x2="1070.9" y2="132.0" stroke="#508ce0" stroke-width="1.5"/>
<line x1="1070.9" y1="132.0" x2="1066.8" y2="132.0" stroke="#508ce0" stroke-width="1.5"/>
<line x1="1066.8" y1="132.0" x2="1066.8" y2="151.0" stroke="#508ce0" stroke-width="1.5"/>
<circle cx="1058.6" cy="150.5" r="8.3" fill="none" stroke="#508ce0" stroke-width="1" stroke-dasharray="3,2"/>
<circle cx="1054.7" cy="146.4" r="13.8" fill="none" stroke="#508ce0" stroke-width="1" stroke-dasharray="3,2"/>
<line x1="1056.4" y1="160.2" x2="1053.4" y2="160.4" stroke="#508ce0" stroke-width="1.5"/>
<line x1="1053.4" y1="160.4" x2="923.4" y2="160.5" stroke="#508ce0" stroke-width="1.5"/>
<circle cx="923.1" cy="182.7" r="22.3" fill="none" stroke="#508ce0" stroke-width="1" stroke-dasharray="3,2"/>
<circle cx="918.4" cy="174.5" r="12.8" fill="none" stroke="#508ce0" stroke-width="1" stroke-dasharray="3,2"/>
<line x1="863.3" y1="174.2" x2="859.8" y2="174.2" stroke="#508ce0" stroke-width="1.5"/>
<line x1="859.8" y1="174.2" x2="859.8" y2="719.7" stroke="#508ce0" stroke-width="1.5"/>
<line x1="859.8" y1="719.7" x2="863.8" y2="719.7" stroke="#508ce0" stroke-width="1.5"/>
<line x1="863.8" y1="719.7" x2="863.3" y2="174.2" stroke="#508ce0" stroke-width="1.5"/>
</g>
<text x="794" y="802" fill="#786432" font-family="monospace" font-size="9">Range: 145.7 x 445.5 mm</text>
<text x="40" y="880" fill="#c9a84c" font-family="monospace" font-size="9">Features (24): ⊙× Circular Pattern ×4 (⊙ Hole ø4.75) | →× Linear Pattern ×3 (△ Polygon Pocket (7 sides)) | △ Polygon Pocket (5 sides) | ⊙⊂ Keyhole R11.7 | ▭ Fillet Pocket 110.5×62.5 R9.4 | △ Polygon Pocket (5 sides) | ⊙ Hole ø26.97 | △ Polygon Pocket (4 sides)</text>
</svg>