<svg xmlns="http://www.w3.org/2000/svg" width="1200" height="900" viewBox="0 0 1200 900">
<rect width="1200" height="900" fill="#08090d"/>
<text x="40" y="30" fill="#c9a84c" font-family="monospace" font-size="16" font-weight="bold">nist_stc_08_asme1_ap242-e3.stp  </text>
<text x="40" y="50" fill="#786432" font-family="monospace" font-size="11">BBox: 311.6 x 222.7 x 48.3 mm   Diag: 386.0mm</text>
<rect x="40" y="70" width="365" height="740" fill="none" stroke="#1e1e23" stroke-width="1"/>
<text x="48" y="86" fill="#dcdcdc" font-family="monospace" font-size="11">Plane +X (2 profiles)</text>
<defs><clipPath id="clip-0-nist_stc_08_asme1_ap242-e3"><rect x="41" y="71" width="363" height="738"/></clipPath></defs>
<g clip-path="url(#clip-0-nist_stc_08_asme1_ap242-e3)">
<line x1="145.2" y1="70" x2="145.2" y2="810" stroke="#1e1e23" stroke-width="0.5"/>
<line x1="175.1" y1="70" x2="175.1" y2="810" stroke="#1e1e23" stroke-width="0.5"/>
<line x1="205.0" y1="70" x2="205.0" y2="810" stroke="#1e1e23" stroke-width="0.5"/>
<line x1="234.8" y1="70" x2="234.8" y2="810" stroke="#1e1e23" stroke-width="0.5"/>
<line x1="264.7" y1="70" x2="264.7" y2="810" stroke="#1e1e23" stroke-width="0.5"/>
<line x1="294.6" y1="70" x2="294.6" y2="810" stroke="#1e1e23" stroke-width="0.5"/>
<line x1="324.4" y1="70" x2="324.4" y2="810" stroke="#1e1e23" stroke-width="0.5"/>
<line x1="40" y1="805.8" x2="413" y2="805.8" stroke="#1e1e23" stroke-width="0.5"/>
<line x1="40" y1="776.0" x2="413" y2="776.0" stroke="#1e1e23" stroke-width="0.5"/>
<line x1="40" y1="746.1" x2="413" y2="746.1" stroke="#1e1e23" stroke-width="0.5"/>
<line x1="40" y1="716.3" x2="413" y2="716.3" stroke="#1e1e23" stroke-width="0.5"/>
<line x1="40" y1="686.4" x2="413" y2="686.4" stroke="#1e1e23" stroke-width="0.5"/>
<line x1="40" y1="656.5" x2="413" y2="656.5" stroke="#1e1e23" stroke-width="0.5"/>
<line x1="40" y1="626.7" x2="413" y2="626.7" stroke="#1e1e23" stroke-width="0.5"/>
<line x1="40" y1="596.8" x2="413" y2="596.8" stroke="#1e1e23" stroke-width="0.5"/>
<line x1="40" y1="566.9" x2="413" y2="566.9" stroke="#1e1e23" stroke-width="0.5"/>
<line x1="40" y1="537.1" x2="413" y2="537.1" stroke="#1e1e23" stroke-width="0.5"/>
<line x1="40" y1="507.2" x2="413" y2="507.2" stroke="#1e1e23" stroke-width="0.5"/>
<line x1="40" y1="477.4" x2="413" y2="477.4" stroke="#1e1e23" stroke-width="0.5"/>
<line x1="40" y1="447.5" x2="413" y2="447.5" stroke="#1e1e23" stroke-width="0.5"/>
<line x1="40" y1="417.6" x2="413" y2="417.6" stroke="#1e1e23" stroke-width="0.5"/>
<line x1="40" y1="387.8" x2="413" y2="387.8" stroke="#1e1e23" stroke-width="0.5"/>
<line x1="40" y1="357.9" x2="413" y2="357.9" stroke="#1e1e23" stroke-width="0.5"/>
<line x1="40" y1="328.1" x2="413" y2="328.1" stroke="#1e1e23" stroke-width="0.5"/>
<line x1="40" y1="298.2" x2="413" y2="298.2" stroke="#1e1e23" stroke-width="0.5"/>
<line x1="40" y1="268.3" x2="413" y2="268.3" stroke="#1e1e23" stroke-width="0.5"/>
<line x1="40" y1="238.5" x2="413" y2="238.5" stroke="#1e1e23" stroke-width="0.5"/>
<line x1="40" y1="208.6" x2="413" y2="208.6" stroke="#1e1e23" stroke-width="0.5"/>
<line x1="40" y1="178.7" x2="413" y2="178.7" stroke="#1e1e23" stroke-width="0.5"/>
<line x1="40" y1="148.9" x2="413" y2="148.9" stroke="#1e1e23" stroke-width="0.5"/>
<line x1="40" y1="119.0" x2="413" y2="119.0" stroke="#1e1e23" stroke-width="0.5"/>
<line x1="40" y1="89.2" x2="413" y2="89.2" stroke="#1e1e23" stroke-width="0.5"/>
<circle cx="259.6" cy="758.0" r="4.6" fill="none" stroke="#508ce0" stroke-width="1" stroke-dasharray="3,2"/>
<line x1="264.1" y1="757.0" x2="264.2" y2="758.0" stroke="#508ce0" stroke-width="1.5"/>
<line x1="264.2" y1="758.0" x2="264.2" y2="770.9" stroke="#508ce0" stroke-width="1.5"/>
<line x1="264.2" y1="770.9" x2="264.4" y2="772.9" stroke="#508ce0" stroke-width="1.5"/>
<line x1="264.4" y1="772.9" x2="265.1" y2="774.8" stroke="#508ce0" stroke-width="1.5"/>
<line x1="265.1" y1="774.8" x2="266.2" y2="776.6" stroke="#508ce0" stroke-width="1.5"/>
<line x1="266.2" y1="776.6" x2="267.6" y2="778.0" stroke="#508ce0" stroke-width="1.5"/>
<line x1="267.6" y1="778.0" x2="269.4" y2="779.1" stroke="#508ce0" stroke-width="1.5"/>
<line x1="269.4" y1="779.1" x2="271.3" y2="779.8" stroke="#508ce0" stroke-width="1.5"/>
<line x1="271.3" y1="779.8" x2="273.3" y2="780.0" stroke="#508ce0" stroke-width="1.5"/>
<line x1="273.3" y1="780.0" x2="294.6" y2="780.0" stroke="#508ce0" stroke-width="1.5"/>
<line x1="294.6" y1="780.0" x2="294.6" y2="734.5" stroke="#508ce0" stroke-width="1.5"/>
<line x1="294.6" y1="734.5" x2="169.8" y2="734.5" stroke="#508ce0" stroke-width="1.5"/>
<line x1="169.8" y1="734.5" x2="167.8" y2="734.3" stroke="#508ce0" stroke-width="1.5"/>
<line x1="167.8" y1="734.3" x2="165.8" y2="733.6" stroke="#508ce0" stroke-width="1.5"/>
<line x1="165.8" y1="733.6" x2="164.1" y2="732.5" stroke="#508ce0" stroke-width="1.5"/>
<line x1="164.1" y1="732.5" x2="162.7" y2="731.1" stroke="#508ce0" stroke-width="1.5"/>
<line x1="162.7" y1="731.1" x2="161.6" y2="729.3" stroke="#508ce0" stroke-width="1.5"/>
<line x1="161.6" y1="729.3" x2="160.9" y2="727.4" stroke="#508ce0" stroke-width="1.5"/>
<line x1="160.9" y1="727.4" x2="160.7" y2="725.4" stroke="#508ce0" stroke-width="1.5"/>
<line x1="160.7" y1="725.4" x2="160.7" y2="601.2" stroke="#508ce0" stroke-width="1.5"/>
<line x1="160.7" y1="601.2" x2="150.4" y2="601.2" stroke="#508ce0" stroke-width="1.5"/>
<line x1="150.4" y1="601.2" x2="150.4" y2="744.4" stroke="#508ce0" stroke-width="1.5"/>
<line x1="150.4" y1="744.4" x2="150.7" y2="746.4" stroke="#508ce0" stroke-width="1.5"/>
<line x1="150.7" y1="746.4" x2="151.3" y2="748.3" stroke="#508ce0" stroke-width="1.5"/>
<line x1="151.3" y1="748.3" x2="152.4" y2="750.0" stroke="#508ce0" stroke-width="1.5"/>
<line x1="152.4" y1="750.0" x2="153.9" y2="751.5" stroke="#508ce0" stroke-width="1.5"/>
<line x1="153.9" y1="751.5" x2="155.6" y2="752.6" stroke="#508ce0" stroke-width="1.5"/>
<line x1="155.6" y1="752.6" x2="157.5" y2="753.2" stroke="#508ce0" stroke-width="1.5"/>
<line x1="157.5" y1="753.2" x2="159.5" y2="753.5" stroke="#508ce0" stroke-width="1.5"/>
<line x1="159.5" y1="753.5" x2="259.7" y2="753.5" stroke="#508ce0" stroke-width="1.5"/>
<line x1="259.7" y1="753.5" x2="260.2" y2="753.5" stroke="#508ce0" stroke-width="1.5"/>
<line x1="260.7" y1="141.4" x2="259.7" y2="141.5" stroke="#508ce0" stroke-width="1.5"/>
<line x1="259.7" y1="141.5" x2="159.5" y2="141.5" stroke="#508ce0" stroke-width="1.5"/>
<line x1="159.5" y1="141.5" x2="157.5" y2="141.8" stroke="#508ce0" stroke-width="1.5"/>
<line x1="157.5" y1="141.8" x2="155.6" y2="142.4" stroke="#508ce0" stroke-width="1.5"/>
<line x1="155.6" y1="142.4" x2="153.9" y2="143.5" stroke="#508ce0" stroke-width="1.5"/>
<line x1="153.9" y1="143.5" x2="152.4" y2="145.0" stroke="#508ce0" stroke-width="1.5"/>
<line x1="152.4" y1="145.0" x2="151.3" y2="146.7" stroke="#508ce0" stroke-width="1.5"/>
<line x1="151.3" y1="146.7" x2="150.7" y2="148.6" stroke="#508ce0" stroke-width="1.5"/>
<line x1="150.7" y1="148.6" x2="150.4" y2="150.6" stroke="#508ce0" stroke-width="1.5"/>
<line x1="150.4" y1="150.6" x2="150.4" y2="293.8" stroke="#508ce0" stroke-width="1.5"/>
<line x1="150.4" y1="293.8" x2="160.7" y2="293.8" stroke="#508ce0" stroke-width="1.5"/>
<line x1="160.7" y1="293.8" x2="160.7" y2="169.6" stroke="#508ce0" stroke-width="1.5"/>
<line x1="160.7" y1="169.6" x2="160.9" y2="167.6" stroke="#508ce0" stroke-width="1.5"/>
<line x1="160.9" y1="167.6" x2="161.6" y2="165.7" stroke="#508ce0" stroke-width="1.5"/>
<line x1="161.6" y1="165.7" x2="162.7" y2="163.9" stroke="#508ce0" stroke-width="1.5"/>
<line x1="162.7" y1="163.9" x2="164.1" y2="162.5" stroke="#508ce0" stroke-width="1.5"/>
<line x1="164.1" y1="162.5" x2="165.8" y2="161.4" stroke="#508ce0" stroke-width="1.5"/>
<line x1="165.8" y1="161.4" x2="167.8" y2="160.7" stroke="#508ce0" stroke-width="1.5"/>
<line x1="167.8" y1="160.7" x2="169.8" y2="160.5" stroke="#508ce0" stroke-width="1.5"/>
<line x1="169.8" y1="160.5" x2="294.6" y2="160.5" stroke="#508ce0" stroke-width="1.5"/>
<line x1="294.6" y1="160.5" x2="294.6" y2="115.0" stroke="#508ce0" stroke-width="1.5"/>
<line x1="294.6" y1="115.0" x2="273.3" y2="115.0" stroke="#508ce0" stroke-width="1.5"/>
<line x1="273.3" y1="115.0" x2="271.3" y2="115.2" stroke="#508ce0" stroke-width="1.5"/>
<line x1="271.3" y1="115.2" x2="269.4" y2="115.9" stroke="#508ce0" stroke-width="1.5"/>
<line x1="269.4" y1="115.9" x2="267.6" y2="117.0" stroke="#508ce0" stroke-width="1.5"/>
<line x1="267.6" y1="117.0" x2="266.2" y2="118.4" stroke="#508ce0" stroke-width="1.5"/>
<line x1="266.2" y1="118.4" x2="265.1" y2="120.2" stroke="#508ce0" stroke-width="1.5"/>
<line x1="265.1" y1="120.2" x2="264.4" y2="122.1" stroke="#508ce0" stroke-width="1.5"/>
<line x1="264.4" y1="122.1" x2="264.2" y2="124.1" stroke="#508ce0" stroke-width="1.5"/>
<line x1="264.2" y1="124.1" x2="264.2" y2="137.0" stroke="#508ce0" stroke-width="1.5"/>
<line x1="264.2" y1="137.0" x2="264.1" y2="138.0" stroke="#508ce0" stroke-width="1.5"/>
<circle cx="259.7" cy="137.0" r="4.5" fill="none" stroke="#508ce0" stroke-width="1" stroke-dasharray="3,2"/>
</g>
<text x="48" y="802" fill="#786432" font-family="monospace" font-size="9">Range: 48.3 x 222.7 mm</text>
<rect x="413" y="70" width="365" height="740" fill="none" stroke="#1e1e23" stroke-width="1"/>
<text x="421" y="86" fill="#dcdcdc" font-family="monospace" font-size="11">Plane +Y (2 profiles)</text>
<defs><clipPath id="clip-1-nist_stc_08_asme1_ap242-e3"><rect x="414" y="71" width="363" height="738"/></clipPath></defs>
<g clip-path="url(#clip-1-nist_stc_08_asme1_ap242-e3)">
<line x1="522.2" y1="70" x2="522.2" y2="810" stroke="#1e1e23" stroke-width="0.5"/>
<line x1="543.6" y1="70" x2="543.6" y2="810" stroke="#1e1e23" stroke-width="0.5"/>
<line x1="564.9" y1="70" x2="564.9" y2="810" stroke="#1e1e23" stroke-width="0.5"/>
<line x1="586.3" y1="70" x2="586.3" y2="810" stroke="#1e1e23" stroke-width="0.5"/>
<line x1="607.6" y1="70" x2="607.6" y2="810" stroke="#1e1e23" stroke-width="0.5"/>
<line x1="628.9" y1="70" x2="628.9" y2="810" stroke="#1e1e23" stroke-width="0.5"/>
<line x1="650.3" y1="70" x2="650.3" y2="810" stroke="#1e1e23" stroke-width="0.5"/>
<line x1="413" y1="789.0" x2="786" y2="789.0" stroke="#1e1e23" stroke-width="0.5"/>
<line x1="413" y1="767.6" x2="786" y2="767.6" stroke="#1e1e23" stroke-width="0.5"/>
<line x1="413" y1="746.3" x2="786" y2="746.3" stroke="#1e1e23" stroke-width="0.5"/>
<line x1="413" y1="725.0" x2="786" y2="725.0" stroke="#1e1e23" stroke-width="0.5"/>
<line x1="413" y1="703.6" x2="786" y2="703.6" stroke="#1e1e23" stroke-width="0.5"/>
<line x1="413" y1="682.3" x2="786" y2="682.3" stroke="#1e1e23" stroke-width="0.5"/>
<line x1="413" y1="660.9" x2="786" y2="660.9" stroke="#1e1e23" stroke-width="0.5"/>
<line x1="413" y1="639.6" x2="786" y2="639.6" stroke="#1e1e23" stroke-width="0.5"/>
<line x1="413" y1="618.3" x2="786" y2="618.3" stroke="#1e1e23" stroke-width="0.5"/>
<line x1="413" y1="596.9" x2="786" y2="596.9" stroke="#1e1e23" stroke-width="0.5"/>
<line x1="413" y1="575.6" x2="786" y2="575.6" stroke="#1e1e23" stroke-width="0.5"/>
<line x1="413" y1="554.3" x2="786" y2="554.3" stroke="#1e1e23" stroke-width="0.5"/>
<line x1="413" y1="532.9" x2="786" y2="532.9" stroke="#1e1e23" stroke-width="0.5"/>
<line x1="413" y1="511.6" x2="786" y2="511.6" stroke="#1e1e23" stroke-width="0.5"/>
<line x1="413" y1="490.2" x2="786" y2="490.2" stroke="#1e1e23" stroke-width="0.5"/>
<line x1="413" y1="468.9" x2="786" y2="468.9" stroke="#1e1e23" stroke-width="0.5"/>
<line x1="413" y1="447.6" x2="786" y2="447.6" stroke="#1e1e23" stroke-width="0.5"/>
<line x1="413" y1="426.2" x2="786" y2="426.2" stroke="#1e1e23" stroke-width="0.5"/>
<line x1="413" y1="404.9" x2="786" y2="404.9" stroke="#1e1e23" stroke-width="0.5"/>
<line x1="413" y1="383.6" x2="786" y2="383.6" stroke="#1e1e23" stroke-width="0.5"/>
<line x1="413" y1="362.2" x2="786" y2="362.2" stroke="#1e1e23" stroke-width="0.5"/>
<line x1="413" y1="340.9" x2="786" y2="340.9" stroke="#1e1e23" stroke-width="0.5"/>
<line x1="413" y1="319.5" x2="786" y2="319.5" stroke="#1e1e23" stroke-width="0.5"/>
<line x1="413" y1="298.2" x2="786" y2="298.2" stroke="#1e1e23" stroke-width="0.5"/>
<line x1="413" y1="276.9" x2="786" y2="276.9" stroke="#1e1e23" stroke-width="0.5"/>
<line x1="413" y1="255.5" x2="786" y2="255.5" stroke="#1e1e23" stroke-width="0.5"/>
<line x1="413" y1="234.2" x2="786" y2="234.2" stroke="#1e1e23" stroke-width="0.5"/>
<line x1="413" y1="212.8" x2="786" y2="212.8" stroke="#1e1e23" stroke-width="0.5"/>
<line x1="413" y1="191.5" x2="786" y2="191.5" stroke="#1e1e23" stroke-width="0.5"/>
<line x1="413" y1="170.2" x2="786" y2="170.2" stroke="#1e1e23" stroke-width="0.5"/>
<line x1="413" y1="148.8" x2="786" y2="148.8" stroke="#1e1e23" stroke-width="0.5"/>
<line x1="413" y1="127.5" x2="786" y2="127.5" stroke="#1e1e23" stroke-width="0.5"/>
<line x1="413" y1="106.2" x2="786" y2="106.2" stroke="#1e1e23" stroke-width="0.5"/>
<line x1="597.8" y1="136.0" x2="568.5" y2="136.0" stroke="#508ce0" stroke-width="1.5"/>
<circle cx="568.6" cy="132.2" r="3.8" fill="none" stroke="#508ce0" stroke-width="1" stroke-dasharray="3,2"/>
<circle cx="568.6" cy="132.7" r="3.3" fill="none" stroke="#508ce0" stroke-width="1" stroke-dasharray="3,2"/>
<line x1="565.3" y1="133.5" x2="565.3" y2="132.7" stroke="#508ce0" stroke-width="1.5"/>
<line x1="565.3" y1="132.7" x2="565.3" y2="121.6" stroke="#508ce0" stroke-width="1.5"/>
<line x1="565.3" y1="121.6" x2="565.1" y2="120.2" stroke="#508ce0" stroke-width="1.5"/>
<circle cx="558.5" cy="121.8" r="6.8" fill="none" stroke="#508ce0" stroke-width="1" stroke-dasharray="3,2"/>
<circle cx="558.6" cy="121.9" r="6.8" fill="none" stroke="#508ce0" stroke-width="1" stroke-dasharray="3,2"/>
<line x1="558.8" y1="115.1" x2="543.6" y2="115.1" stroke="#508ce0" stroke-width="1.5"/>
<line x1="543.6" y1="115.1" x2="543.6" y2="149.5" stroke="#508ce0" stroke-width="1.5"/>
<line x1="543.6" y1="149.5" x2="632.7" y2="149.6" stroke="#508ce0" stroke-width="1.5"/>
<circle cx="632.7" cy="156.1" r="6.6" fill="none" stroke="#508ce0" stroke-width="1" stroke-dasharray="3,2"/>
<circle cx="631.7" cy="156.3" r="7.6" fill="none" stroke="#508ce0" stroke-width="1" stroke-dasharray="3,2"/>
<line x1="639.2" y1="156.0" x2="639.2" y2="379.8" stroke="#508ce0" stroke-width="1.5"/>
<line x1="639.2" y1="379.8" x2="646.6" y2="379.8" stroke="#508ce0" stroke-width="1.5"/>
<line x1="646.6" y1="379.8" x2="646.6" y2="142.5" stroke="#508ce0" stroke-width="1.5"/>
<line x1="646.6" y1="142.5" x2="646.4" y2="141.1" stroke="#508ce0" stroke-width="1.5"/>
<circle cx="640.0" cy="142.6" r="6.6" fill="none" stroke="#508ce0" stroke-width="1" stroke-dasharray="3,2"/>
<line x1="641.5" y1="136.2" x2="640.1" y2="136.0" stroke="#508ce0" stroke-width="1.5"/>
<line x1="640.1" y1="136.0" x2="626.6" y2="136.0" stroke="#508ce0" stroke-width="1.5"/>
<line x1="626.6" y1="136.0" x2="626.6" y2="141.4" stroke="#508ce0" stroke-width="1.5"/>
<line x1="626.6" y1="141.4" x2="613.6" y2="141.4" stroke="#508ce0" stroke-width="1.5"/>
<line x1="613.6" y1="141.4" x2="613.6" y2="136.0" stroke="#508ce0" stroke-width="1.5"/>
<line x1="613.6" y1="136.0" x2="604.4" y2="136.0" stroke="#508ce0" stroke-width="1.5"/>
<line x1="604.4" y1="136.0" x2="604.4" y2="141.4" stroke="#508ce0" stroke-width="1.5"/>
<line x1="604.4" y1="141.4" x2="597.8" y2="141.4" stroke="#508ce0" stroke-width="1.5"/>
<line x1="597.8" y1="141.4" x2="597.8" y2="136.7" stroke="#508ce0" stroke-width="1.5"/>
<circle cx="645.5" cy="725.1" r="1.6" fill="none" stroke="#508ce0" stroke-width="1" stroke-dasharray="3,2"/>
<line x1="643.9" y1="725.1" x2="643.8" y2="701.2" stroke="#508ce0" stroke-width="1.5"/>
<circle cx="645.5" cy="701.2" r="1.6" fill="none" stroke="#508ce0" stroke-width="1" stroke-dasharray="3,2"/>
<circle cx="645.5" cy="701.5" r="1.9" fill="none" stroke="#508ce0" stroke-width="1" stroke-dasharray="3,2"/>
<line x1="645.5" y1="699.6" x2="646.6" y2="699.6" stroke="#508ce0" stroke-width="1.5"/>
<line x1="646.6" y1="699.6" x2="646.6" y2="677.9" stroke="#508ce0" stroke-width="1.5"/>
<line x1="646.6" y1="677.9" x2="639.2" y2="677.9" stroke="#508ce0" stroke-width="1.5"/>
<line x1="639.2" y1="677.9" x2="639.2" y2="739.1" stroke="#508ce0" stroke-width="1.5"/>
<line x1="639.2" y1="739.1" x2="639.1" y2="740.5" stroke="#508ce0" stroke-width="1.5"/>
<line x1="639.1" y1="740.5" x2="638.6" y2="741.9" stroke="#508ce0" stroke-width="1.5"/>
<line x1="638.6" y1="741.9" x2="637.8" y2="743.1" stroke="#508ce0" stroke-width="1.5"/>
<line x1="637.8" y1="743.1" x2="636.8" y2="744.2" stroke="#508ce0" stroke-width="1.5"/>
<line x1="636.8" y1="744.2" x2="635.6" y2="744.9" stroke="#508ce0" stroke-width="1.5"/>
<line x1="635.6" y1="744.9" x2="634.2" y2="745.4" stroke="#508ce0" stroke-width="1.5"/>
<line x1="634.2" y1="745.4" x2="632.7" y2="745.6" stroke="#508ce0" stroke-width="1.5"/>
<line x1="632.7" y1="745.6" x2="543.6" y2="745.6" stroke="#508ce0" stroke-width="1.5"/>
<line x1="543.6" y1="745.6" x2="543.6" y2="780.0" stroke="#508ce0" stroke-width="1.5"/>
<line x1="543.6" y1="780.0" x2="558.8" y2="780.0" stroke="#508ce0" stroke-width="1.5"/>
<line x1="558.8" y1="780.0" x2="560.2" y2="779.8" stroke="#508ce0" stroke-width="1.5"/>
<line x1="560.2" y1="779.8" x2="561.6" y2="779.4" stroke="#508ce0" stroke-width="1.5"/>
<line x1="561.6" y1="779.4" x2="562.8" y2="778.6" stroke="#508ce0" stroke-width="1.5"/>
<line x1="562.8" y1="778.6" x2="563.8" y2="777.6" stroke="#508ce0" stroke-width="1.5"/>
<line x1="563.8" y1="777.6" x2="564.6" y2="776.3" stroke="#508ce0" stroke-width="1.5"/>
<line x1="564.6" y1="776.3" x2="565.1" y2="774.9" stroke="#508ce0" stroke-width="1.5"/>
<line x1="565.1" y1="774.9" x2="565.3" y2="773.5" stroke="#508ce0" stroke-width="1.5"/>
<line x1="565.3" y1="773.5" x2="565.3" y2="762.4" stroke="#508ce0" stroke-width="1.5"/>
<line x1="565.3" y1="762.4" x2="565.3" y2="761.7" stroke="#508ce0" stroke-width="1.5"/>
<circle cx="568.5" cy="762.4" r="3.3" fill="none" stroke="#508ce0" stroke-width="1" stroke-dasharray="3,2"/>
<line x1="567.8" y1="759.2" x2="568.5" y2="759.1" stroke="#508ce0" stroke-width="1.5"/>
<line x1="568.5" y1="759.1" x2="640.1" y2="759.1" stroke="#508ce0" stroke-width="1.5"/>
<line x1="640.1" y1="759.1" x2="641.5" y2="759.0" stroke="#508ce0" stroke-width="1.5"/>
<line x1="641.5" y1="759.0" x2="642.9" y2="758.5" stroke="#508ce0" stroke-width="1.5"/>
<line x1="642.9" y1="758.5" x2="644.1" y2="757.7" stroke="#508ce0" stroke-width="1.5"/>
<line x1="644.1" y1="757.7" x2="645.1" y2="756.7" stroke="#508ce0" stroke-width="1.5"/>
<line x1="645.1" y1="756.7" x2="645.9" y2="755.5" stroke="#508ce0" stroke-width="1.5"/>
<line x1="645.9" y1="755.5" x2="646.4" y2="754.1" stroke="#508ce0" stroke-width="1.5"/>
<line x1="646.4" y1="754.1" x2="646.6" y2="752.6" stroke="#508ce0" stroke-width="1.5"/>
<line x1="646.6" y1="752.6" x2="646.6" y2="726.7" stroke="#508ce0" stroke-width="1.5"/>
<line x1="646.6" y1="726.7" x2="645.5" y2="726.7" stroke="#508ce0" stroke-width="1.5"/>
</g>
<text x="421" y="802" fill="#786432" font-family="monospace" font-size="9">Range: 48.7 x 311.7 mm</text>
<rect x="786" y="70" width="365" height="740" fill="none" stroke="#1e1e23" stroke-width="1"/>
<text x="794" y="86" fill="#dcdcdc" font-family="monospace" font-size="11">Plane +Z (2 profiles)</text>
<defs><clipPath id="clip-2-nist_stc_08_asme1_ap242-e3"><rect x="787" y="71" width="363" height="738"/></clipPath></defs>
<g clip-path="url(#clip-2-nist_stc_08_asme1_ap242-e3)">
<line x1="806.7" y1="70" x2="806.7" y2="810" stroke="#1e1e23" stroke-width="0.5"/>
<line x1="817.5" y1="70" x2="817.5" y2="810" stroke="#1e1e23" stroke-width="0.5"/>
<line x1="828.3" y1="70" x2="828.3" y2="810" stroke="#1e1e23" stroke-width="0.5"/>
<line x1="839.1" y1="70" x2="839.1" y2="810" stroke="#1e1e23" stroke-width="0.5"/>
<line x1="849.9" y1="70" x2="849.9" y2="810" stroke="#1e1e23" stroke-width="0.5"/>
<line x1="860.6" y1="70" x2="860.6" y2="810" stroke="#1e1e23" stroke-width="0.5"/>
<line x1="871.4" y1="70" x2="871.4" y2="810" stroke="#1e1e23" stroke-width="0.5"/>
<line x1="882.2" y1="70" x2="882.2" y2="810" stroke="#1e1e23" stroke-width="0.5"/>
<line x1="893.0" y1="70" x2="893.0" y2="810" stroke="#1e1e23" stroke-width="0.5"/>
<line x1="903.8" y1="70" x2="903.8" y2="810" stroke="#1e1e23" stroke-width="0.5"/>
<line x1="914.6" y1="70" x2="914.6" y2="810" stroke="#1e1e23" stroke-width="0.5"/>
<line x1="925.4" y1="70" x2="925.4" y2="810" stroke="#1e1e23" stroke-width="0.5"/>
<line x1="936.1" y1="70" x2="936.1" y2="810" stroke="#1e1e23" stroke-width="0.5"/>
<line x1="946.9" y1="70" x2="946.9" y2="810" stroke="#1e1e23" stroke-width="0.5"/>
<line x1="957.7" y1="70" x2="957.7" y2="810" stroke="#1e1e23" stroke-width="0.5"/>
<line x1="968.5" y1="70" x2="968.5" y2="810" stroke="#1e1e23" stroke-width="0.5"/>
<line x1="979.3" y1="70" x2="979.3" y2="810" stroke="#1e1e23" stroke-width="0.5"/>
<line x1="990.1" y1="70" x2="990.1" y2="810" stroke="#1e1e23" stroke-width="0.5"/>
<line x1="1000.9" y1="70" x2="1000.9" y2="810" stroke="#1e1e23" stroke-width="0.5"/>
<line x1="1011.6" y1="70" x2="1011.6" y2="810" stroke="#1e1e23" stroke-width="0.5"/>
<line x1="1022.4" y1="70" x2="1022.4" y2="810" stroke="#1e1e23" stroke-width="0.5"/>
<line x1="1033.2" y1="70" x2="1033.2" y2="810" stroke="#1e1e23" stroke-width="0.5"/>
<line x1="1044.0" y1="70" x2="1044.0" y2="810" stroke="#1e1e23" stroke-width="0.5"/>
<line x1="1054.8" y1="70" x2="1054.8" y2="810" stroke="#1e1e23" stroke-width="0.5"/>
<line x1="1065.6" y1="70" x2="1065.6" y2="810" stroke="#1e1e23" stroke-width="0.5"/>
<line x1="1076.4" y1="70" x2="1076.4" y2="810" stroke="#1e1e23" stroke-width="0.5"/>
<line x1="1087.1" y1="70" x2="1087.1" y2="810" stroke="#1e1e23" stroke-width="0.5"/>
<line x1="1097.9" y1="70" x2="1097.9" y2="810" stroke="#1e1e23" stroke-width="0.5"/>
<line x1="1108.7" y1="70" x2="1108.7" y2="810" stroke="#1e1e23" stroke-width="0.5"/>
<line x1="1119.5" y1="70" x2="1119.5" y2="810" stroke="#1e1e23" stroke-width="0.5"/>
<line x1="1130.3" y1="70" x2="1130.3" y2="810" stroke="#1e1e23" stroke-width="0.5"/>
<line x1="786" y1="566.1" x2="1159" y2="566.1" stroke="#1e1e23" stroke-width="0.5"/>
<line x1="786" y1="555.4" x2="1159" y2="555.4" stroke="#1e1e23" stroke-width="0.5"/>
<line x1="786" y1="544.6" x2="1159" y2="544.6" stroke="#1e1e23" stroke-width="0.5"/>
<line x1="786" y1="533.8" x2="1159" y2="533.8" stroke="#1e1e23" stroke-width="0.5"/>
<line x1="786" y1="523.0" x2="1159" y2="523.0" stroke="#1e1e23" stroke-width="0.5"/>
<line x1="786" y1="512.2" x2="1159" y2="512.2" stroke="#1e1e23" stroke-width="0.5"/>
<line x1="786" y1="501.4" x2="1159" y2="501.4" stroke="#1e1e23" stroke-width="0.5"/>
<line x1="786" y1="490.6" x2="1159" y2="490.6" stroke="#1e1e23" stroke-width="0.5"/>
<line x1="786" y1="479.9" x2="1159" y2="479.9" stroke="#1e1e23" stroke-width="0.5"/>
<line x1="786" y1="469.1" x2="1159" y2="469.1" stroke="#1e1e23" stroke-width="0.5"/>
<line x1="786" y1="458.3" x2="1159" y2="458.3" stroke="#1e1e23" stroke-width="0.5"/>
<line x1="786" y1="447.5" x2="1159" y2="447.5" stroke="#1e1e23" stroke-width="0.5"/>
<line x1="786" y1="436.7" x2="1159" y2="436.7" stroke="#1e1e23" stroke-width="0.5"/>
<line x1="786" y1="425.9" x2="1159" y2="425.9" stroke="#1e1e23" stroke-width="0.5"/>
<line x1="786" y1="415.1" x2="1159" y2="415.1" stroke="#1e1e23" stroke-width="0.5"/>
<line x1="786" y1="404.4" x2="1159" y2="404.4" stroke="#1e1e23" stroke-width="0.5"/>
<line x1="786" y1="393.6" x2="1159" y2="393.6" stroke="#1e1e23" stroke-width="0.5"/>
<line x1="786" y1="382.8" x2="1159" y2="382.8" stroke="#1e1e23" stroke-width="0.5"/>
<line x1="786" y1="372.0" x2="1159" y2="372.0" stroke="#1e1e23" stroke-width="0.5"/>
<line x1="786" y1="361.2" x2="1159" y2="361.2" stroke="#1e1e23" stroke-width="0.5"/>
<line x1="786" y1="350.4" x2="1159" y2="350.4" stroke="#1e1e23" stroke-width="0.5"/>
<line x1="786" y1="339.6" x2="1159" y2="339.6" stroke="#1e1e23" stroke-width="0.5"/>
<line x1="786" y1="328.9" x2="1159" y2="328.9" stroke="#1e1e23" stroke-width="0.5"/>
<line x1="836.4" y1="557.9" x2="837.0" y2="558.0" stroke="#c9a84c" stroke-width="1.5"/>
<line x1="837.0" y1="558.0" x2="1100.0" y2="558.0" stroke="#c9a84c" stroke-width="1.5"/>
<circle cx="1099.9" cy="554.6" r="3.4" fill="none" stroke="#c9a84c" stroke-width="1" stroke-dasharray="3,2"/>
<line x1="1101.8" y1="557.5" x2="1102.3" y2="557.0" stroke="#c9a84c" stroke-width="1.5"/>
<line x1="1102.3" y1="557.0" x2="1125.0" y2="534.3" stroke="#c9a84c" stroke-width="1.5"/>
<circle cx="1122.6" cy="531.9" r="3.4" fill="none" stroke="#c9a84c" stroke-width="1" stroke-dasharray="3,2"/>
<line x1="1125.9" y1="532.6" x2="1126.0" y2="532.0" stroke="#c9a84c" stroke-width="1.5"/>
<line x1="1126.0" y1="532.0" x2="1126.0" y2="363.0" stroke="#c9a84c" stroke-width="1.5"/>
<circle cx="1122.6" cy="363.1" r="3.4" fill="none" stroke="#c9a84c" stroke-width="1" stroke-dasharray="3,2"/>
<line x1="1125.4" y1="361.2" x2="1125.0" y2="360.7" stroke="#c9a84c" stroke-width="1.5"/>
<line x1="1125.0" y1="360.7" x2="1102.3" y2="338.0" stroke="#c9a84c" stroke-width="1.5"/>
<circle cx="1100.0" cy="340.3" r="3.3" fill="none" stroke="#c9a84c" stroke-width="1" stroke-dasharray="3,2"/>
<line x1="1100.0" y1="337.0" x2="837.0" y2="337.0" stroke="#c9a84c" stroke-width="1.5"/>
<circle cx="837.1" cy="340.4" r="3.4" fill="none" stroke="#c9a84c" stroke-width="1" stroke-dasharray="3,2"/>
<line x1="835.2" y1="337.5" x2="834.7" y2="338.0" stroke="#c9a84c" stroke-width="1.5"/>
<line x1="834.7" y1="338.0" x2="812.0" y2="360.7" stroke="#c9a84c" stroke-width="1.5"/>
<circle cx="814.4" cy="363.1" r="3.4" fill="none" stroke="#c9a84c" stroke-width="1" stroke-dasharray="3,2"/>
<line x1="811.1" y1="362.4" x2="811.0" y2="363.0" stroke="#c9a84c" stroke-width="1.5"/>
<line x1="811.0" y1="363.0" x2="811.0" y2="532.0" stroke="#c9a84c" stroke-width="1.5"/>
<circle cx="814.4" cy="532.0" r="3.3" fill="none" stroke="#c9a84c" stroke-width="1" stroke-dasharray="3,2"/>
<line x1="812.0" y1="534.3" x2="834.7" y2="557.0" stroke="#c9a84c" stroke-width="1.5"/>
<circle cx="837.0" cy="554.7" r="3.3" fill="none" stroke="#c9a84c" stroke-width="1.5"/>
<text x="844.3" y="558.7" fill="#c9a84c" font-family="monospace" font-size="8">ø6.08</text>
<circle cx="1097.0" cy="547.4" r="3.8" fill="none" stroke="#c9a84c" stroke-width="1" stroke-dasharray="3,2"/>
<line x1="1097.1" y1="551.2" x2="839.9" y2="551.2" stroke="#c9a84c" stroke-width="1.5"/>
<circle cx="839.9" cy="547.7" r="3.5" fill="none" stroke="#c9a84c" stroke-width="1" stroke-dasharray="3,2"/>
<line x1="838.0" y1="550.6" x2="837.5" y2="550.2" stroke="#c9a84c" stroke-width="1.5"/>
<line x1="837.5" y1="550.2" x2="818.8" y2="531.5" stroke="#c9a84c" stroke-width="1.5"/>
<circle cx="821.3" cy="529.1" r="3.4" fill="none" stroke="#c9a84c" stroke-width="1" stroke-dasharray="3,2"/>
<line x1="817.9" y1="529.8" x2="817.9" y2="529.2" stroke="#c9a84c" stroke-width="1.5"/>
<line x1="817.9" y1="529.2" x2="817.9" y2="365.8" stroke="#c9a84c" stroke-width="1.5"/>
<circle cx="821.3" cy="365.9" r="3.4" fill="none" stroke="#c9a84c" stroke-width="1" stroke-dasharray="3,2"/>
<line x1="818.4" y1="364.0" x2="818.8" y2="363.5" stroke="#c9a84c" stroke-width="1.5"/>
<line x1="818.8" y1="363.5" x2="837.5" y2="344.8" stroke="#c9a84c" stroke-width="1.5"/>
<circle cx="839.9" cy="347.2" r="3.3" fill="none" stroke="#c9a84c" stroke-width="1" stroke-dasharray="3,2"/>
<line x1="839.9" y1="343.8" x2="1097.1" y2="343.8" stroke="#c9a84c" stroke-width="1.5"/>
<circle cx="1097.1" cy="347.3" r="3.4" fill="none" stroke="#c9a84c" stroke-width="1" stroke-dasharray="3,2"/>
<line x1="1099.0" y1="344.4" x2="1099.5" y2="344.8" stroke="#c9a84c" stroke-width="1.5"/>
<line x1="1099.5" y1="344.8" x2="1118.2" y2="363.5" stroke="#c9a84c" stroke-width="1.5"/>
<circle cx="1115.7" cy="365.9" r="3.4" fill="none" stroke="#c9a84c" stroke-width="1" stroke-dasharray="3,2"/>
<line x1="1119.1" y1="365.2" x2="1119.1" y2="365.8" stroke="#c9a84c" stroke-width="1.5"/>
<line x1="1119.1" y1="365.8" x2="1119.1" y2="529.2" stroke="#c9a84c" stroke-width="1.5"/>
<circle cx="1115.8" cy="529.1" r="3.3" fill="none" stroke="#c9a84c" stroke-width="1" stroke-dasharray="3,2"/>
<line x1="1118.2" y1="531.5" x2="1099.5" y2="550.2" stroke="#c9a84c" stroke-width="1.5"/>
<circle cx="1097.2" cy="547.9" r="3.2" fill="none" stroke="#c9a84c" stroke-width="1" stroke-dasharray="3,2"/>
</g>
<text x="794" y="802" fill="#786432" font-family="monospace" font-size="9">Range: 292.0 x 204.9 mm</text>
<text x="40" y="880" fill="#c9a84c" font-family="monospace" font-size="9">Features (4): ▭ Fillet Pocket 48.3×59.9 R1.5 | ▭ Fillet Pocket 48.3×59.9 R1.5 | ▭ Fillet Pocket 48.3×124.0 R2.8 | ▭ Fillet Pocket 48.3×47.8 R1.0</text>
</svg>