<svg xmlns="http://www.w3.org/2000/svg" width="1200" height="900" viewBox="0 0 1200 900">
<rect width="1200" height="900" fill="#08090d"/>
<text x="40" y="30" fill="#c9a84c" font-family="monospace" font-size="16" font-weight="bold">nist_ftc_10_asme1_rb.stp  </text>
<text x="40" y="50" fill="#786432" font-family="monospace" font-size="11">BBox: 157.9 x 31.0 x 75.0 mm   Diag: 177.6mm</text>
<rect x="40" y="70" width="365" height="740" fill="none" stroke="#1e1e23" stroke-width="1"/>
<text x="48" y="86" fill="#dcdcdc" font-family="monospace" font-size="11">Plane ∠-12°/90° d1/3 (1 profiles)</text>
<defs><clipPath id="clip-0-nist_ftc_10_asme1_rb"><rect x="41" y="71" width="363" height="738"/></clipPath></defs>
<g clip-path="url(#clip-0-nist_ftc_10_asme1_rb)">
<line x1="54.6" y1="70" x2="54.6" y2="810" stroke="#1e1e23" stroke-width="0.5"/>
<line x1="96.6" y1="70" x2="96.6" y2="810" stroke="#1e1e23" stroke-width="0.5"/>
<line x1="138.6" y1="70" x2="138.6" y2="810" stroke="#1e1e23" stroke-width="0.5"/>
<line x1="180.6" y1="70" x2="180.6" y2="810" stroke="#1e1e23" stroke-width="0.5"/>
<line x1="222.6" y1="70" x2="222.6" y2="810" stroke="#1e1e23" stroke-width="0.5"/>
<line x1="264.6" y1="70" x2="264.6" y2="810" stroke="#1e1e23" stroke-width="0.5"/>
<line x1="306.6" y1="70" x2="306.6" y2="810" stroke="#1e1e23" stroke-width="0.5"/>
<line x1="348.6" y1="70" x2="348.6" y2="810" stroke="#1e1e23" stroke-width="0.5"/>
<line x1="390.6" y1="70" x2="390.6" y2="810" stroke="#1e1e23" stroke-width="0.5"/>
<line x1="40" y1="481.7" x2="413" y2="481.7" stroke="#1e1e23" stroke-width="0.5"/>
<line x1="40" y1="439.7" x2="413" y2="439.7" stroke="#1e1e23" stroke-width="0.5"/>
<line x1="40" y1="397.7" x2="413" y2="397.7" stroke="#1e1e23" stroke-width="0.5"/>
<line x1="359.5" y1="430.6" x2="357.8" y2="439.2" stroke="#508ce0" stroke-width="1.5"/>
<line x1="357.8" y1="439.2" x2="326.6" y2="439.2" stroke="#508ce0" stroke-width="1.5"/>
<line x1="326.6" y1="439.2" x2="325.0" y2="430.6" stroke="#508ce0" stroke-width="1.5"/>
<line x1="325.0" y1="430.6" x2="120.1" y2="430.6" stroke="#508ce0" stroke-width="1.5"/>
<line x1="120.1" y1="430.6" x2="118.4" y2="439.2" stroke="#508ce0" stroke-width="1.5"/>
<line x1="118.4" y1="439.2" x2="87.1" y2="439.2" stroke="#508ce0" stroke-width="1.5"/>
<line x1="87.1" y1="439.2" x2="85.5" y2="430.6" stroke="#508ce0" stroke-width="1.5"/>
<line x1="85.5" y1="430.6" x2="69.2" y2="430.6" stroke="#508ce0" stroke-width="1.5"/>
<line x1="69.2" y1="430.6" x2="68.3" y2="430.7" stroke="#508ce0" stroke-width="1.5"/>
<circle cx="69.3" cy="434.9" r="4.3" fill="none" stroke="#508ce0" stroke-width="1" stroke-dasharray="3,2"/>
<line x1="65.0" y1="434.9" x2="65.0" y2="465.0" stroke="#508ce0" stroke-width="1.5"/>
<line x1="65.0" y1="465.0" x2="380.0" y2="465.0" stroke="#508ce0" stroke-width="1.5"/>
<line x1="380.0" y1="465.0" x2="380.0" y2="434.9" stroke="#508ce0" stroke-width="1.5"/>
<circle cx="374.9" cy="435.1" r="5.1" fill="none" stroke="#508ce0" stroke-width="1" stroke-dasharray="3,2"/>
<circle cx="375.7" cy="434.9" r="4.3" fill="none" stroke="#508ce0" stroke-width="1" stroke-dasharray="3,2"/>
<line x1="376.7" y1="430.7" x2="375.8" y2="430.6" stroke="#508ce0" stroke-width="1.5"/>
<line x1="375.8" y1="430.6" x2="359.5" y2="430.6" stroke="#508ce0" stroke-width="1.5"/>
</g>
<text x="48" y="802" fill="#786432" font-family="monospace" font-size="9">Range: 75.0 x 8.3 mm</text>
<rect x="413" y="70" width="365" height="740" fill="none" stroke="#1e1e23" stroke-width="1"/>
<text x="421" y="86" fill="#dcdcdc" font-family="monospace" font-size="11">Plane ∠-12°/90° d2/3 (3 profiles)</text>
<defs><clipPath id="clip-1-nist_ftc_10_asme1_rb"><rect x="414" y="71" width="363" height="738"/></clipPath></defs>
<g clip-path="url(#clip-1-nist_ftc_10_asme1_rb)">
<line x1="427.6" y1="70" x2="427.6" y2="810" stroke="#1e1e23" stroke-width="0.5"/>
<line x1="469.6" y1="70" x2="469.6" y2="810" stroke="#1e1e23" stroke-width="0.5"/>
<line x1="511.6" y1="70" x2="511.6" y2="810" stroke="#1e1e23" stroke-width="0.5"/>
<line x1="553.6" y1="70" x2="553.6" y2="810" stroke="#1e1e23" stroke-width="0.5"/>
<line x1="595.6" y1="70" x2="595.6" y2="810" stroke="#1e1e23" stroke-width="0.5"/>
<line x1="637.6" y1="70" x2="637.6" y2="810" stroke="#1e1e23" stroke-width="0.5"/>
<line x1="679.6" y1="70" x2="679.6" y2="810" stroke="#1e1e23" stroke-width="0.5"/>
<line x1="721.6" y1="70" x2="721.6" y2="810" stroke="#1e1e23" stroke-width="0.5"/>
<line x1="763.6" y1="70" x2="763.6" y2="810" stroke="#1e1e23" stroke-width="0.5"/>
<line x1="413" y1="483.0" x2="786" y2="483.0" stroke="#1e1e23" stroke-width="0.5"/>
<line x1="413" y1="441.0" x2="786" y2="441.0" stroke="#1e1e23" stroke-width="0.5"/>
<line x1="413" y1="399.0" x2="786" y2="399.0" stroke="#1e1e23" stroke-width="0.5"/>
<line x1="469.9" y1="461.4" x2="467.4" y2="453.3" stroke="#508ce0" stroke-width="1.5"/>
<line x1="467.4" y1="453.3" x2="465.4" y2="442.6" stroke="#508ce0" stroke-width="1.5"/>
<line x1="465.4" y1="442.6" x2="465.0" y2="438.9" stroke="#508ce0" stroke-width="1.5"/>
<line x1="465.0" y1="438.9" x2="455.9" y2="438.9" stroke="#508ce0" stroke-width="1.5"/>
<line x1="455.9" y1="438.9" x2="455.4" y2="430.3" stroke="#508ce0" stroke-width="1.5"/>
<line x1="455.4" y1="430.3" x2="442.2" y2="430.3" stroke="#508ce0" stroke-width="1.5"/>
<line x1="442.2" y1="430.3" x2="441.3" y2="430.4" stroke="#508ce0" stroke-width="1.5"/>
<line x1="441.3" y1="430.4" x2="440.4" y2="430.7" stroke="#508ce0" stroke-width="1.5"/>
<line x1="440.4" y1="430.7" x2="439.6" y2="431.2" stroke="#508ce0" stroke-width="1.5"/>
<line x1="439.6" y1="431.2" x2="438.9" y2="431.9" stroke="#508ce0" stroke-width="1.5"/>
<line x1="438.9" y1="431.9" x2="438.4" y2="432.7" stroke="#508ce0" stroke-width="1.5"/>
<line x1="438.4" y1="432.7" x2="438.1" y2="433.6" stroke="#508ce0" stroke-width="1.5"/>
<line x1="438.1" y1="433.6" x2="438.0" y2="434.6" stroke="#508ce0" stroke-width="1.5"/>
<line x1="438.0" y1="434.6" x2="438.0" y2="464.7" stroke="#508ce0" stroke-width="1.5"/>
<line x1="438.0" y1="464.7" x2="471.8" y2="464.7" stroke="#508ce0" stroke-width="1.5"/>
<line x1="752.1" y1="431.9" x2="752.6" y2="432.7" stroke="#508ce0" stroke-width="1.5"/>
<line x1="752.6" y1="432.7" x2="752.9" y2="433.6" stroke="#508ce0" stroke-width="1.5"/>
<line x1="752.9" y1="433.6" x2="753.0" y2="434.6" stroke="#508ce0" stroke-width="1.5"/>
<line x1="753.0" y1="434.6" x2="753.0" y2="464.7" stroke="#508ce0" stroke-width="1.5"/>
<line x1="753.0" y1="464.7" x2="718.9" y2="464.7" stroke="#508ce0" stroke-width="1.5"/>
<line x1="718.9" y1="464.7" x2="721.1" y2="460.9" stroke="#508ce0" stroke-width="1.5"/>
<line x1="721.1" y1="460.9" x2="723.6" y2="452.9" stroke="#508ce0" stroke-width="1.5"/>
<line x1="723.6" y1="452.9" x2="725.6" y2="442.2" stroke="#508ce0" stroke-width="1.5"/>
<line x1="725.6" y1="442.2" x2="725.9" y2="438.9" stroke="#508ce0" stroke-width="1.5"/>
<line x1="725.9" y1="438.9" x2="735.1" y2="438.9" stroke="#508ce0" stroke-width="1.5"/>
<line x1="735.1" y1="438.9" x2="735.5" y2="430.3" stroke="#508ce0" stroke-width="1.5"/>
<line x1="735.5" y1="430.3" x2="748.8" y2="430.3" stroke="#508ce0" stroke-width="1.5"/>
<line x1="748.8" y1="430.3" x2="749.7" y2="430.4" stroke="#508ce0" stroke-width="1.5"/>
<line x1="749.7" y1="430.4" x2="750.6" y2="430.7" stroke="#508ce0" stroke-width="1.5"/>
<line x1="750.6" y1="430.7" x2="751.4" y2="431.2" stroke="#508ce0" stroke-width="1.5"/>
<line x1="751.4" y1="431.2" x2="752.0" y2="431.8" stroke="#508ce0" stroke-width="1.5"/>
<line x1="479.8" y1="464.7" x2="711.5" y2="464.7" stroke="#508ce0" stroke-width="1.5"/>
<line x1="711.5" y1="464.7" x2="709.3" y2="461.0" stroke="#508ce0" stroke-width="1.5"/>
<line x1="709.3" y1="461.0" x2="706.8" y2="452.9" stroke="#508ce0" stroke-width="1.5"/>
<line x1="706.8" y1="452.9" x2="704.8" y2="442.2" stroke="#508ce0" stroke-width="1.5"/>
<line x1="704.8" y1="442.2" x2="704.5" y2="438.9" stroke="#508ce0" stroke-width="1.5"/>
<line x1="704.5" y1="438.9" x2="695.3" y2="438.9" stroke="#508ce0" stroke-width="1.5"/>
<line x1="695.3" y1="438.9" x2="694.9" y2="430.3" stroke="#508ce0" stroke-width="1.5"/>
<line x1="694.9" y1="430.3" x2="496.2" y2="430.3" stroke="#508ce0" stroke-width="1.5"/>
<line x1="496.2" y1="430.3" x2="495.7" y2="438.9" stroke="#508ce0" stroke-width="1.5"/>
<line x1="495.7" y1="438.9" x2="486.6" y2="438.9" stroke="#508ce0" stroke-width="1.5"/>
<line x1="486.6" y1="438.9" x2="486.2" y2="442.6" stroke="#508ce0" stroke-width="1.5"/>
<line x1="486.2" y1="442.6" x2="484.2" y2="453.2" stroke="#508ce0" stroke-width="1.5"/>
<line x1="484.2" y1="453.2" x2="481.7" y2="461.3" stroke="#508ce0" stroke-width="1.5"/>
<line x1="481.7" y1="461.3" x2="481.3" y2="461.9" stroke="#508ce0" stroke-width="1.5"/>
</g>
<text x="421" y="802" fill="#786432" font-family="monospace" font-size="9">Range: 75.0 x 8.2 mm</text>
<rect x="786" y="70" width="365" height="740" fill="none" stroke="#1e1e23" stroke-width="1"/>
<text x="794" y="86" fill="#dcdcdc" font-family="monospace" font-size="11">Plane ∠-12°/90° d3/3 (3 profiles)</text>
<defs><clipPath id="clip-2-nist_ftc_10_asme1_rb"><rect x="787" y="71" width="363" height="738"/></clipPath></defs>
<g clip-path="url(#clip-2-nist_ftc_10_asme1_rb)">
<line x1="791.3" y1="70" x2="791.3" y2="810" stroke="#1e1e23" stroke-width="0.5"/>
<line x1="817.5" y1="70" x2="817.5" y2="810" stroke="#1e1e23" stroke-width="0.5"/>
<line x1="843.6" y1="70" x2="843.6" y2="810" stroke="#1e1e23" stroke-width="0.5"/>
<line x1="869.8" y1="70" x2="869.8" y2="810" stroke="#1e1e23" stroke-width="0.5"/>
<line x1="895.9" y1="70" x2="895.9" y2="810" stroke="#1e1e23" stroke-width="0.5"/>
<line x1="922.0" y1="70" x2="922.0" y2="810" stroke="#1e1e23" stroke-width="0.5"/>
<line x1="948.2" y1="70" x2="948.2" y2="810" stroke="#1e1e23" stroke-width="0.5"/>
<line x1="974.3" y1="70" x2="974.3" y2="810" stroke="#1e1e23" stroke-width="0.5"/>
<line x1="1000.4" y1="70" x2="1000.4" y2="810" stroke="#1e1e23" stroke-width="0.5"/>
<line x1="1026.6" y1="70" x2="1026.6" y2="810" stroke="#1e1e23" stroke-width="0.5"/>
<line x1="1052.7" y1="70" x2="1052.7" y2="810" stroke="#1e1e23" stroke-width="0.5"/>
<line x1="1078.9" y1="70" x2="1078.9" y2="810" stroke="#1e1e23" stroke-width="0.5"/>
<line x1="1105.0" y1="70" x2="1105.0" y2="810" stroke="#1e1e23" stroke-width="0.5"/>
<line x1="1131.1" y1="70" x2="1131.1" y2="810" stroke="#1e1e23" stroke-width="0.5"/>
<line x1="786" y1="525.3" x2="1159" y2="525.3" stroke="#1e1e23" stroke-width="0.5"/>
<line x1="786" y1="499.1" x2="1159" y2="499.1" stroke="#1e1e23" stroke-width="0.5"/>
<line x1="786" y1="473.0" x2="1159" y2="473.0" stroke="#1e1e23" stroke-width="0.5"/>
<line x1="786" y1="446.9" x2="1159" y2="446.9" stroke="#1e1e23" stroke-width="0.5"/>
<line x1="786" y1="420.7" x2="1159" y2="420.7" stroke="#1e1e23" stroke-width="0.5"/>
<line x1="786" y1="394.6" x2="1159" y2="394.6" stroke="#1e1e23" stroke-width="0.5"/>
<line x1="786" y1="368.5" x2="1159" y2="368.5" stroke="#1e1e23" stroke-width="0.5"/>
<line x1="1035.8" y1="439.3" x2="1035.8" y2="440.1" stroke="#508ce0" stroke-width="1.5"/>
<line x1="1035.8" y1="440.1" x2="1035.8" y2="444.6" stroke="#508ce0" stroke-width="1.5"/>
<line x1="1035.8" y1="444.6" x2="1041.0" y2="444.6" stroke="#508ce0" stroke-width="1.5"/>
<line x1="1041.0" y1="444.6" x2="1041.0" y2="451.9" stroke="#508ce0" stroke-width="1.5"/>
<line x1="1041.0" y1="451.9" x2="1041.4" y2="460.7" stroke="#508ce0" stroke-width="1.5"/>
<line x1="1041.4" y1="460.7" x2="907.1" y2="460.7" stroke="#508ce0" stroke-width="1.5"/>
<line x1="907.1" y1="460.7" x2="907.5" y2="452.1" stroke="#508ce0" stroke-width="1.5"/>
<line x1="907.5" y1="452.1" x2="907.5" y2="444.6" stroke="#508ce0" stroke-width="1.5"/>
<line x1="907.5" y1="444.6" x2="912.7" y2="444.6" stroke="#508ce0" stroke-width="1.5"/>
<circle cx="861.9" cy="442.4" r="50.9" fill="none" stroke="#508ce0" stroke-width="1" stroke-dasharray="3,2"/>
<line x1="912.7" y1="439.3" x2="920.6" y2="439.3" stroke="#508ce0" stroke-width="1.5"/>
<circle cx="920.6" cy="442.1" r="2.9" fill="none" stroke="#508ce0" stroke-width="1" stroke-dasharray="3,2"/>
<circle cx="920.0" cy="442.8" r="3.7" fill="none" stroke="#508ce0" stroke-width="1" stroke-dasharray="3,2"/>
<line x1="923.4" y1="441.3" x2="923.6" y2="441.9" stroke="#508ce0" stroke-width="1.5"/>
<circle cx="942.0" cy="440.0" r="18.5" fill="none" stroke="#508ce0" stroke-width="1" stroke-dasharray="3,2"/>
<line x1="924.0" y1="444.5" x2="924.5" y2="446.2" stroke="#508ce0" stroke-width="1.5"/>
<line x1="924.5" y1="446.2" x2="925.1" y2="447.3" stroke="#508ce0" stroke-width="1.5"/>
<line x1="925.1" y1="447.3" x2="925.8" y2="447.6" stroke="#508ce0" stroke-width="1.5"/>
<line x1="925.8" y1="447.6" x2="1022.7" y2="447.5" stroke="#508ce0" stroke-width="1.5"/>
<line x1="1022.7" y1="447.5" x2="1023.4" y2="447.1" stroke="#508ce0" stroke-width="1.5"/>
<line x1="1023.4" y1="447.1" x2="1024.0" y2="446.0" stroke="#508ce0" stroke-width="1.5"/>
<line x1="1024.0" y1="446.0" x2="1024.5" y2="444.3" stroke="#508ce0" stroke-width="1.5"/>
<circle cx="1074.9" cy="452.4" r="51.1" fill="none" stroke="#508ce0" stroke-width="1.5"/>
<text x="1130.0" y="456.4" fill="#508ce0" font-family="monospace" font-size="8">ø39.08</text>
<circle cx="1028.5" cy="442.7" r="3.7" fill="none" stroke="#508ce0" stroke-width="1" stroke-dasharray="3,2"/>
<circle cx="1027.9" cy="442.2" r="2.9" fill="none" stroke="#508ce0" stroke-width="1" stroke-dasharray="3,2"/>
<line x1="1027.9" y1="439.3" x2="1035.5" y2="439.3" stroke="#508ce0" stroke-width="1.5"/>
<line x1="886.8" y1="439.3" x2="879.0" y2="439.3" stroke="#508ce0" stroke-width="1.5"/>
<line x1="879.0" y1="439.3" x2="878.4" y2="439.3" stroke="#508ce0" stroke-width="1.5"/>
<line x1="878.4" y1="439.3" x2="877.9" y2="439.5" stroke="#508ce0" stroke-width="1.5"/>
<line x1="877.9" y1="439.5" x2="877.4" y2="439.8" stroke="#508ce0" stroke-width="1.5"/>
<line x1="877.4" y1="439.8" x2="876.9" y2="440.3" stroke="#508ce0" stroke-width="1.5"/>
<line x1="876.9" y1="440.3" x2="876.6" y2="440.8" stroke="#508ce0" stroke-width="1.5"/>
<line x1="876.6" y1="440.8" x2="876.4" y2="441.3" stroke="#508ce0" stroke-width="1.5"/>
<line x1="876.4" y1="441.3" x2="876.3" y2="441.9" stroke="#508ce0" stroke-width="1.5"/>
<line x1="876.3" y1="441.9" x2="876.2" y2="447.7" stroke="#508ce0" stroke-width="1.5"/>
<line x1="876.2" y1="447.7" x2="876.2" y2="460.7" stroke="#508ce0" stroke-width="1.5"/>
<line x1="876.2" y1="460.7" x2="892.4" y2="460.7" stroke="#508ce0" stroke-width="1.5"/>
<line x1="892.4" y1="460.7" x2="892.0" y2="452.1" stroke="#508ce0" stroke-width="1.5"/>
<line x1="892.0" y1="452.1" x2="892.0" y2="444.6" stroke="#508ce0" stroke-width="1.5"/>
<line x1="892.0" y1="444.6" x2="886.8" y2="444.6" stroke="#508ce0" stroke-width="1.5"/>
<line x1="886.8" y1="444.6" x2="886.8" y2="440.3" stroke="#508ce0" stroke-width="1.5"/>
<line x1="886.8" y1="440.3" x2="886.8" y2="439.5" stroke="#508ce0" stroke-width="1.5"/>
<line x1="1061.7" y1="439.3" x2="1069.5" y2="439.3" stroke="#508ce0" stroke-width="1.5"/>
<line x1="1069.5" y1="439.3" x2="1070.1" y2="439.3" stroke="#508ce0" stroke-width="1.5"/>
<line x1="1070.1" y1="439.3" x2="1070.6" y2="439.5" stroke="#508ce0" stroke-width="1.5"/>
<line x1="1070.6" y1="439.5" x2="1071.1" y2="439.8" stroke="#508ce0" stroke-width="1.5"/>
<line x1="1071.1" y1="439.8" x2="1071.5" y2="440.3" stroke="#508ce0" stroke-width="1.5"/>
<line x1="1071.5" y1="440.3" x2="1071.9" y2="440.8" stroke="#508ce0" stroke-width="1.5"/>
<circle cx="1076.0" cy="439.8" r="4.3" fill="none" stroke="#508ce0" stroke-width="1" stroke-dasharray="3,2"/>
<line x1="1072.1" y1="441.5" x2="1072.2" y2="441.9" stroke="#508ce0" stroke-width="1.5"/>
<line x1="1072.2" y1="441.9" x2="1072.3" y2="447.4" stroke="#508ce0" stroke-width="1.5"/>
<line x1="1072.3" y1="447.4" x2="1072.3" y2="460.7" stroke="#508ce0" stroke-width="1.5"/>
<line x1="1072.3" y1="460.7" x2="1056.0" y2="460.7" stroke="#508ce0" stroke-width="1.5"/>
<line x1="1056.0" y1="460.7" x2="1056.1" y2="460.4" stroke="#508ce0" stroke-width="1.5"/>
<line x1="1056.1" y1="460.4" x2="1056.5" y2="451.8" stroke="#508ce0" stroke-width="1.5"/>
<line x1="1056.5" y1="451.8" x2="1056.5" y2="444.6" stroke="#508ce0" stroke-width="1.5"/>
<line x1="1056.5" y1="444.6" x2="1061.7" y2="444.6" stroke="#508ce0" stroke-width="1.5"/>
<line x1="1061.7" y1="444.6" x2="1061.7" y2="440.0" stroke="#508ce0" stroke-width="1.5"/>
</g>
<text x="794" y="802" fill="#786432" font-family="monospace" font-size="9">Range: 120.5 x 42.8 mm</text>
<text x="40" y="880" fill="#c9a84c" font-family="monospace" font-size="9">Features (19): →× Linear Pattern ×4 (⊙ Hole ø6.98) | ▭ Fillet Pocket 75.0×8.2 R1.1 | ▭ Pocket 8.1×8.2 | ▭ Pocket 8.1×8.2 | ▭ Pocket 55.2×8.2 | ⊙⊂ Keyhole R19.5 | ▭ Pocket 6.2×8.2 | ▭ Fillet Pocket 6.2×8.2 R1.6</text>
</svg>