<svg xmlns="http://www.w3.org/2000/svg" width="1200" height="900" viewBox="0 0 1200 900">
<rect width="1200" height="900" fill="#08090d"/>
<text x="40" y="30" fill="#c9a84c" font-family="monospace" font-size="16" font-weight="bold">nist_ftc_10_asme1_ap242-e2.stp  </text>
<text x="40" y="50" fill="#786432" font-family="monospace" font-size="11">BBox: 157.9 x 31.0 x 75.0 mm   Diag: 177.6mm</text>
<rect x="40" y="70" width="365" height="740" fill="none" stroke="#1e1e23" stroke-width="1"/>
<text x="48" y="86" fill="#dcdcdc" font-family="monospace" font-size="11">Plane +X (1 profiles)</text>
<defs><clipPath id="clip-0-nist_ftc_10_asme1_ap242-e2"><rect x="41" y="71" width="363" height="738"/></clipPath></defs>
<g clip-path="url(#clip-0-nist_ftc_10_asme1_ap242-e2)">
<line x1="54.6" y1="70" x2="54.6" y2="810" stroke="#1e1e23" stroke-width="0.5"/>
<line x1="96.6" y1="70" x2="96.6" y2="810" stroke="#1e1e23" stroke-width="0.5"/>
<line x1="138.6" y1="70" x2="138.6" y2="810" stroke="#1e1e23" stroke-width="0.5"/>
<line x1="180.6" y1="70" x2="180.6" y2="810" stroke="#1e1e23" stroke-width="0.5"/>
<line x1="222.6" y1="70" x2="222.6" y2="810" stroke="#1e1e23" stroke-width="0.5"/>
<line x1="264.5" y1="70" x2="264.5" y2="810" stroke="#1e1e23" stroke-width="0.5"/>
<line x1="306.5" y1="70" x2="306.5" y2="810" stroke="#1e1e23" stroke-width="0.5"/>
<line x1="348.5" y1="70" x2="348.5" y2="810" stroke="#1e1e23" stroke-width="0.5"/>
<line x1="390.5" y1="70" x2="390.5" y2="810" stroke="#1e1e23" stroke-width="0.5"/>
<line x1="40" y1="506.7" x2="413" y2="506.7" stroke="#1e1e23" stroke-width="0.5"/>
<line x1="40" y1="464.7" x2="413" y2="464.7" stroke="#1e1e23" stroke-width="0.5"/>
<line x1="40" y1="422.7" x2="413" y2="422.7" stroke="#1e1e23" stroke-width="0.5"/>
<line x1="40" y1="380.7" x2="413" y2="380.7" stroke="#1e1e23" stroke-width="0.5"/>
<circle cx="375.7" cy="392.7" r="4.3" fill="none" stroke="#508ce0" stroke-width="1" stroke-dasharray="3,2"/>
<line x1="380.0" y1="392.7" x2="380.0" y2="506.7" stroke="#508ce0" stroke-width="1.5"/>
<line x1="380.0" y1="506.7" x2="327.5" y2="506.7" stroke="#508ce0" stroke-width="1.5"/>
<line x1="327.5" y1="506.7" x2="327.5" y2="443.7" stroke="#508ce0" stroke-width="1.5"/>
<line x1="327.5" y1="443.7" x2="327.5" y2="442.7" stroke="#508ce0" stroke-width="1.5"/>
<circle cx="319.1" cy="443.7" r="8.4" fill="none" stroke="#508ce0" stroke-width="1" stroke-dasharray="3,2"/>
<line x1="319.1" y1="435.3" x2="126.0" y2="435.3" stroke="#508ce0" stroke-width="1.5"/>
<circle cx="126.2" cy="445.0" r="9.7" fill="none" stroke="#508ce0" stroke-width="1" stroke-dasharray="3,2"/>
<circle cx="126.0" cy="443.7" r="8.4" fill="none" stroke="#508ce0" stroke-width="1" stroke-dasharray="3,2"/>
<line x1="117.6" y1="443.4" x2="117.6" y2="506.7" stroke="#508ce0" stroke-width="1.5"/>
<line x1="117.6" y1="506.7" x2="65.1" y2="506.7" stroke="#508ce0" stroke-width="1.5"/>
<line x1="65.1" y1="506.7" x2="65.1" y2="392.7" stroke="#508ce0" stroke-width="1.5"/>
<line x1="65.1" y1="392.7" x2="65.6" y2="390.8" stroke="#508ce0" stroke-width="1.5"/>
<line x1="65.6" y1="390.8" x2="66.1" y2="389.9" stroke="#508ce0" stroke-width="1.5"/>
<circle cx="69.6" cy="392.9" r="4.6" fill="none" stroke="#508ce0" stroke-width="1" stroke-dasharray="3,2"/>
<circle cx="69.3" cy="392.6" r="4.2" fill="none" stroke="#508ce0" stroke-width="1" stroke-dasharray="3,2"/>
<line x1="69.3" y1="388.4" x2="249.4" y2="388.4" stroke="#508ce0" stroke-width="1.5"/>
<line x1="249.4" y1="388.4" x2="375.8" y2="388.4" stroke="#508ce0" stroke-width="1.5"/>
<circle cx="375.8" cy="391.5" r="3.1" fill="none" stroke="#508ce0" stroke-width="1" stroke-dasharray="3,2"/>
</g>
<text x="48" y="802" fill="#786432" font-family="monospace" font-size="9">Range: 75.0 x 28.2 mm</text>
<rect x="413" y="70" width="365" height="740" fill="none" stroke="#1e1e23" stroke-width="1"/>
<text x="421" y="86" fill="#dcdcdc" font-family="monospace" font-size="11">Plane +Y (8 profiles)</text>
<defs><clipPath id="clip-1-nist_ftc_10_asme1_ap242-e2"><rect x="414" y="71" width="363" height="738"/></clipPath></defs>
<g clip-path="url(#clip-1-nist_ftc_10_asme1_ap242-e2)">
<line x1="427.6" y1="70" x2="427.6" y2="810" stroke="#1e1e23" stroke-width="0.5"/>
<line x1="469.6" y1="70" x2="469.6" y2="810" stroke="#1e1e23" stroke-width="0.5"/>
<line x1="511.6" y1="70" x2="511.6" y2="810" stroke="#1e1e23" stroke-width="0.5"/>
<line x1="553.6" y1="70" x2="553.6" y2="810" stroke="#1e1e23" stroke-width="0.5"/>
<line x1="595.5" y1="70" x2="595.5" y2="810" stroke="#1e1e23" stroke-width="0.5"/>
<line x1="637.5" y1="70" x2="637.5" y2="810" stroke="#1e1e23" stroke-width="0.5"/>
<line x1="679.5" y1="70" x2="679.5" y2="810" stroke="#1e1e23" stroke-width="0.5"/>
<line x1="721.5" y1="70" x2="721.5" y2="810" stroke="#1e1e23" stroke-width="0.5"/>
<line x1="763.5" y1="70" x2="763.5" y2="810" stroke="#1e1e23" stroke-width="0.5"/>
<line x1="413" y1="741.4" x2="786" y2="741.4" stroke="#1e1e23" stroke-width="0.5"/>
<line x1="413" y1="699.4" x2="786" y2="699.4" stroke="#1e1e23" stroke-width="0.5"/>
<line x1="413" y1="657.4" x2="786" y2="657.4" stroke="#1e1e23" stroke-width="0.5"/>
<line x1="413" y1="615.4" x2="786" y2="615.4" stroke="#1e1e23" stroke-width="0.5"/>
<line x1="413" y1="573.5" x2="786" y2="573.5" stroke="#1e1e23" stroke-width="0.5"/>
<line x1="413" y1="531.5" x2="786" y2="531.5" stroke="#1e1e23" stroke-width="0.5"/>
<line x1="413" y1="489.5" x2="786" y2="489.5" stroke="#1e1e23" stroke-width="0.5"/>
<line x1="413" y1="447.5" x2="786" y2="447.5" stroke="#1e1e23" stroke-width="0.5"/>
<line x1="413" y1="405.5" x2="786" y2="405.5" stroke="#1e1e23" stroke-width="0.5"/>
<line x1="413" y1="363.5" x2="786" y2="363.5" stroke="#1e1e23" stroke-width="0.5"/>
<line x1="413" y1="321.5" x2="786" y2="321.5" stroke="#1e1e23" stroke-width="0.5"/>
<line x1="413" y1="279.6" x2="786" y2="279.6" stroke="#1e1e23" stroke-width="0.5"/>
<line x1="413" y1="237.6" x2="786" y2="237.6" stroke="#1e1e23" stroke-width="0.5"/>
<line x1="413" y1="195.6" x2="786" y2="195.6" stroke="#1e1e23" stroke-width="0.5"/>
<line x1="413" y1="153.6" x2="786" y2="153.6" stroke="#1e1e23" stroke-width="0.5"/>
<circle cx="748.7" cy="189.3" r="4.3" fill="none" stroke="#c9a84c" stroke-width="1" stroke-dasharray="3,2"/>
<line x1="748.8" y1="185.1" x2="698.9" y2="185.1" stroke="#c9a84c" stroke-width="1.5"/>
<line x1="698.9" y1="185.1" x2="698.9" y2="300.5" stroke="#c9a84c" stroke-width="1.5"/>
<circle cx="694.3" cy="282.8" r="18.4" fill="none" stroke="#c9a84c" stroke-width="1.5"/>
<text x="716.7" y="286.8" fill="#c9a84c" font-family="monospace" font-size="8">ø8.76</text>
<circle cx="693.7" cy="286.5" r="14.7" fill="none" stroke="#c9a84c" stroke-width="1" stroke-dasharray="3,2"/>
<line x1="689.6" y1="300.5" x2="689.5" y2="185.1" stroke="#c9a84c" stroke-width="1.5"/>
<line x1="689.5" y1="185.1" x2="501.9" y2="185.1" stroke="#c9a84c" stroke-width="1.5"/>
<line x1="501.9" y1="185.1" x2="501.9" y2="332.0" stroke="#c9a84c" stroke-width="1.5"/>
<line x1="501.9" y1="332.0" x2="499.2" y2="333.5" stroke="#c9a84c" stroke-width="1.5"/>
<line x1="499.2" y1="333.5" x2="494.9" y2="336.1" stroke="#c9a84c" stroke-width="1.5"/>
<circle cx="486.7" cy="322.1" r="16.2" fill="none" stroke="#c9a84c" stroke-width="1" stroke-dasharray="3,2"/>
<circle cx="490.6" cy="333.5" r="4.2" fill="none" stroke="#c9a84c" stroke-width="1" stroke-dasharray="3,2"/>
<line x1="488.9" y1="337.4" x2="486.2" y2="336.1" stroke="#c9a84c" stroke-width="1.5"/>
<line x1="486.2" y1="336.1" x2="481.9" y2="333.5" stroke="#c9a84c" stroke-width="1.5"/>
<line x1="481.9" y1="333.5" x2="479.3" y2="332.0" stroke="#c9a84c" stroke-width="1.5"/>
<line x1="479.3" y1="332.0" x2="479.2" y2="185.1" stroke="#c9a84c" stroke-width="1.5"/>
<line x1="479.2" y1="185.1" x2="442.3" y2="185.1" stroke="#c9a84c" stroke-width="1.5"/>
<circle cx="442.3" cy="189.3" r="4.2" fill="none" stroke="#c9a84c" stroke-width="1" stroke-dasharray="3,2"/>
<circle cx="442.4" cy="189.3" r="4.3" fill="none" stroke="#c9a84c" stroke-width="1.5"/>
<text x="450.7" y="193.3" fill="#c9a84c" font-family="monospace" font-size="8">ø2.05</text>
<line x1="438.1" y1="189.3" x2="438.1" y2="705.7" stroke="#c9a84c" stroke-width="1.5"/>
<circle cx="442.3" cy="705.7" r="4.2" fill="none" stroke="#c9a84c" stroke-width="1" stroke-dasharray="3,2"/>
<circle cx="442.3" cy="705.6" r="4.3" fill="none" stroke="#c9a84c" stroke-width="1.5"/>
<text x="450.7" y="709.6" fill="#c9a84c" font-family="monospace" font-size="8">ø2.06</text>
<line x1="442.3" y1="709.9" x2="748.8" y2="709.9" stroke="#c9a84c" stroke-width="1.5"/>
<circle cx="748.8" cy="705.7" r="4.2" fill="none" stroke="#c9a84c" stroke-width="1" stroke-dasharray="3,2"/>
<circle cx="748.7" cy="705.7" r="4.3" fill="none" stroke="#c9a84c" stroke-width="1.5"/>
<text x="757.0" y="709.7" fill="#c9a84c" font-family="monospace" font-size="8">ø2.06</text>
<line x1="753.0" y1="705.7" x2="753.0" y2="279.6" stroke="#c9a84c" stroke-width="1.5"/>
<line x1="753.0" y1="279.6" x2="740.4" y2="279.6" stroke="#c9a84c" stroke-width="1.5"/>
<line x1="740.4" y1="279.6" x2="740.4" y2="258.6" stroke="#c9a84c" stroke-width="1.5"/>
<line x1="740.4" y1="258.6" x2="748.8" y2="258.6" stroke="#c9a84c" stroke-width="1.5"/>
<line x1="748.8" y1="258.6" x2="748.8" y2="237.6" stroke="#c9a84c" stroke-width="1.5"/>
<line x1="748.8" y1="237.6" x2="740.4" y2="237.6" stroke="#c9a84c" stroke-width="1.5"/>
<line x1="740.4" y1="237.6" x2="740.4" y2="216.6" stroke="#c9a84c" stroke-width="1.5"/>
<line x1="740.4" y1="216.6" x2="753.0" y2="216.6" stroke="#c9a84c" stroke-width="1.5"/>
<line x1="753.0" y1="216.6" x2="753.0" y2="189.3" stroke="#c9a84c" stroke-width="1.5"/>
<circle cx="499.0" cy="682.6" r="8.1" fill="none" stroke="#508ce0" stroke-width="1" stroke-dasharray="3,2"/>
<line x1="499.0" y1="690.7" x2="692.1" y2="690.7" stroke="#508ce0" stroke-width="1.5"/>
<circle cx="692.0" cy="682.4" r="8.3" fill="none" stroke="#508ce0" stroke-width="1" stroke-dasharray="3,2"/>
<circle cx="690.9" cy="682.3" r="9.3" fill="none" stroke="#508ce0" stroke-width="1.5"/>
<text x="704.2" y="686.3" fill="#508ce0" font-family="monospace" font-size="8">ø4.43</text>
<line x1="700.2" y1="682.6" x2="700.2" y2="371.9" stroke="#508ce0" stroke-width="1.5"/>
<circle cx="691.9" cy="372.1" r="8.3" fill="none" stroke="#508ce0" stroke-width="1" stroke-dasharray="3,2"/>
<circle cx="691.7" cy="373.1" r="9.3" fill="none" stroke="#508ce0" stroke-width="1.5"/>
<text x="705.1" y="377.1" fill="#508ce0" font-family="monospace" font-size="8">ø4.43</text>
<line x1="692.1" y1="363.8" x2="499.0" y2="363.8" stroke="#508ce0" stroke-width="1.5"/>
<circle cx="499.1" cy="372.1" r="8.3" fill="none" stroke="#508ce0" stroke-width="1" stroke-dasharray="3,2"/>
<circle cx="500.2" cy="372.3" r="9.3" fill="none" stroke="#508ce0" stroke-width="1.5"/>
<text x="513.5" y="376.3" fill="#508ce0" font-family="monospace" font-size="8">ø4.43</text>
<line x1="490.9" y1="371.9" x2="490.9" y2="682.6" stroke="#508ce0" stroke-width="1.5"/>
<circle cx="499.1" cy="682.5" r="8.2" fill="none" stroke="#508ce0" stroke-width="1" stroke-dasharray="3,2"/>
<circle cx="469.6" cy="313.6" r="5.2" fill="none" stroke="#508ce0" stroke-width="1.5"/>
<text x="478.7" y="317.6" fill="#508ce0" font-family="monospace" font-size="8">ø2.46</text>
<circle cx="511.6" cy="300.1" r="5.2" fill="none" stroke="#508ce0" stroke-width="1.5"/>
<text x="520.7" y="304.1" fill="#508ce0" font-family="monospace" font-size="8">ø2.46</text>
<circle cx="511.6" cy="253.9" r="5.2" fill="none" stroke="#508ce0" stroke-width="1.5"/>
<text x="520.7" y="257.9" fill="#508ce0" font-family="monospace" font-size="8">ø2.46</text>
<circle cx="469.6" cy="267.4" r="5.2" fill="none" stroke="#508ce0" stroke-width="1.5"/>
<text x="478.7" y="271.4" fill="#508ce0" font-family="monospace" font-size="8">ø2.46</text>
<circle cx="469.6" cy="221.2" r="5.2" fill="none" stroke="#508ce0" stroke-width="1.5"/>
<text x="478.7" y="225.2" fill="#508ce0" font-family="monospace" font-size="8">ø2.46</text>
<circle cx="511.6" cy="207.8" r="5.2" fill="none" stroke="#508ce0" stroke-width="1.5"/>
<text x="520.7" y="211.8" fill="#508ce0" font-family="monospace" font-size="8">ø2.46</text>
</g>
<text x="421" y="802" fill="#786432" font-family="monospace" font-size="9">Range: 75.0 x 125.0 mm</text>
<rect x="786" y="70" width="365" height="740" fill="none" stroke="#1e1e23" stroke-width="1"/>
<text x="794" y="86" fill="#dcdcdc" font-family="monospace" font-size="11">Plane +Z (5 profiles)</text>
<defs><clipPath id="clip-2-nist_ftc_10_asme1_ap242-e2"><rect x="787" y="71" width="363" height="738"/></clipPath></defs>
<g clip-path="url(#clip-2-nist_ftc_10_asme1_ap242-e2)">
<line x1="788.5" y1="70" x2="788.5" y2="810" stroke="#1e1e23" stroke-width="0.5"/>
<line x1="811.0" y1="70" x2="811.0" y2="810" stroke="#1e1e23" stroke-width="0.5"/>
<line x1="833.5" y1="70" x2="833.5" y2="810" stroke="#1e1e23" stroke-width="0.5"/>
<line x1="856.0" y1="70" x2="856.0" y2="810" stroke="#1e1e23" stroke-width="0.5"/>
<line x1="878.5" y1="70" x2="878.5" y2="810" stroke="#1e1e23" stroke-width="0.5"/>
<line x1="901.0" y1="70" x2="901.0" y2="810" stroke="#1e1e23" stroke-width="0.5"/>
<line x1="923.5" y1="70" x2="923.5" y2="810" stroke="#1e1e23" stroke-width="0.5"/>
<line x1="946.0" y1="70" x2="946.0" y2="810" stroke="#1e1e23" stroke-width="0.5"/>
<line x1="968.5" y1="70" x2="968.5" y2="810" stroke="#1e1e23" stroke-width="0.5"/>
<line x1="991.0" y1="70" x2="991.0" y2="810" stroke="#1e1e23" stroke-width="0.5"/>
<line x1="1013.5" y1="70" x2="1013.5" y2="810" stroke="#1e1e23" stroke-width="0.5"/>
<line x1="1036.0" y1="70" x2="1036.0" y2="810" stroke="#1e1e23" stroke-width="0.5"/>
<line x1="1058.5" y1="70" x2="1058.5" y2="810" stroke="#1e1e23" stroke-width="0.5"/>
<line x1="1081.0" y1="70" x2="1081.0" y2="810" stroke="#1e1e23" stroke-width="0.5"/>
<line x1="1103.5" y1="70" x2="1103.5" y2="810" stroke="#1e1e23" stroke-width="0.5"/>
<line x1="1126.0" y1="70" x2="1126.0" y2="810" stroke="#1e1e23" stroke-width="0.5"/>
<line x1="1148.5" y1="70" x2="1148.5" y2="810" stroke="#1e1e23" stroke-width="0.5"/>
<line x1="786" y1="520.9" x2="1159" y2="520.9" stroke="#1e1e23" stroke-width="0.5"/>
<line x1="786" y1="498.4" x2="1159" y2="498.4" stroke="#1e1e23" stroke-width="0.5"/>
<line x1="786" y1="475.9" x2="1159" y2="475.9" stroke="#1e1e23" stroke-width="0.5"/>
<line x1="786" y1="453.4" x2="1159" y2="453.4" stroke="#1e1e23" stroke-width="0.5"/>
<line x1="786" y1="430.9" x2="1159" y2="430.9" stroke="#1e1e23" stroke-width="0.5"/>
<line x1="786" y1="408.4" x2="1159" y2="408.4" stroke="#1e1e23" stroke-width="0.5"/>
<line x1="786" y1="385.9" x2="1159" y2="385.9" stroke="#1e1e23" stroke-width="0.5"/>
<line x1="786" y1="363.4" x2="1159" y2="363.4" stroke="#1e1e23" stroke-width="0.5"/>
<line x1="1011.3" y1="455.2" x2="1007.8" y2="452.9" stroke="#508ce0" stroke-width="1.5"/>
<line x1="1007.8" y1="452.9" x2="1004.2" y2="451.7" stroke="#508ce0" stroke-width="1.5"/>
<line x1="1004.2" y1="451.7" x2="1000.6" y2="451.2" stroke="#508ce0" stroke-width="1.5"/>
<line x1="1000.6" y1="451.2" x2="997.2" y2="451.4" stroke="#508ce0" stroke-width="1.5"/>
<line x1="997.2" y1="451.4" x2="993.6" y2="452.3" stroke="#508ce0" stroke-width="1.5"/>
<line x1="993.6" y1="452.3" x2="990.3" y2="454.0" stroke="#508ce0" stroke-width="1.5"/>
<line x1="990.3" y1="454.0" x2="986.4" y2="456.1" stroke="#508ce0" stroke-width="1.5"/>
<line x1="986.4" y1="456.1" x2="982.1" y2="457.5" stroke="#508ce0" stroke-width="1.5"/>
<circle cx="975.1" cy="427.9" r="30.4" fill="none" stroke="#508ce0" stroke-width="1.5"/>
<text x="1009.5" y="431.9" fill="#508ce0" font-family="monospace" font-size="8">ø27.03</text>
<circle cx="977.4" cy="416.3" r="42.2" fill="none" stroke="#508ce0" stroke-width="1" stroke-dasharray="3,2"/>
<line x1="968.4" y1="457.5" x2="964.2" y2="456.1" stroke="#508ce0" stroke-width="1.5"/>
<line x1="964.2" y1="456.1" x2="958.9" y2="453.3" stroke="#508ce0" stroke-width="1.5"/>
<line x1="958.9" y1="453.3" x2="957.2" y2="452.5" stroke="#508ce0" stroke-width="1.5"/>
<line x1="957.2" y1="452.5" x2="955.9" y2="452.0" stroke="#508ce0" stroke-width="1.5"/>
<circle cx="950.4" cy="469.7" r="18.5" fill="none" stroke="#508ce0" stroke-width="1" stroke-dasharray="3,2"/>
<circle cx="950.6" cy="470.0" r="18.8" fill="none" stroke="#508ce0" stroke-width="1" stroke-dasharray="3,2"/>
<line x1="943.8" y1="452.5" x2="942.1" y2="453.3" stroke="#508ce0" stroke-width="1.5"/>
<line x1="942.1" y1="453.3" x2="936.9" y2="456.1" stroke="#508ce0" stroke-width="1.5"/>
<line x1="936.9" y1="456.1" x2="932.6" y2="457.5" stroke="#508ce0" stroke-width="1.5"/>
<circle cx="925.6" cy="427.9" r="30.4" fill="none" stroke="#508ce0" stroke-width="1.5"/>
<text x="960.0" y="431.9" fill="#508ce0" font-family="monospace" font-size="8">ø27.03</text>
<circle cx="927.9" cy="416.3" r="42.2" fill="none" stroke="#508ce0" stroke-width="1" stroke-dasharray="3,2"/>
<line x1="918.9" y1="457.5" x2="914.7" y2="456.1" stroke="#508ce0" stroke-width="1.5"/>
<line x1="914.7" y1="456.1" x2="909.4" y2="453.3" stroke="#508ce0" stroke-width="1.5"/>
<line x1="909.4" y1="453.3" x2="907.7" y2="452.5" stroke="#508ce0" stroke-width="1.5"/>
<line x1="907.7" y1="452.5" x2="906.4" y2="452.0" stroke="#508ce0" stroke-width="1.5"/>
<circle cx="900.9" cy="469.7" r="18.5" fill="none" stroke="#508ce0" stroke-width="1" stroke-dasharray="3,2"/>
<circle cx="901.1" cy="470.0" r="18.8" fill="none" stroke="#508ce0" stroke-width="1" stroke-dasharray="3,2"/>
<line x1="894.3" y1="452.5" x2="892.6" y2="453.3" stroke="#508ce0" stroke-width="1.5"/>
<line x1="892.6" y1="453.3" x2="887.4" y2="456.1" stroke="#508ce0" stroke-width="1.5"/>
<line x1="887.4" y1="456.1" x2="883.1" y2="457.5" stroke="#508ce0" stroke-width="1.5"/>
<circle cx="876.1" cy="427.9" r="30.4" fill="none" stroke="#508ce0" stroke-width="1.5"/>
<text x="910.5" y="431.9" fill="#508ce0" font-family="monospace" font-size="8">ø27.03</text>
<line x1="874.1" y1="458.3" x2="870.6" y2="457.8" stroke="#508ce0" stroke-width="1.5"/>
<circle cx="874.0" cy="439.5" r="18.6" fill="none" stroke="#508ce0" stroke-width="1" stroke-dasharray="3,2"/>
<line x1="867.2" y1="456.8" x2="865.2" y2="456.1" stroke="#508ce0" stroke-width="1.5"/>
<line x1="865.2" y1="456.1" x2="861.2" y2="454.0" stroke="#508ce0" stroke-width="1.5"/>
<line x1="861.2" y1="454.0" x2="857.9" y2="452.3" stroke="#508ce0" stroke-width="1.5"/>
<line x1="857.9" y1="452.3" x2="854.3" y2="451.4" stroke="#508ce0" stroke-width="1.5"/>
<line x1="854.3" y1="451.4" x2="850.9" y2="451.2" stroke="#508ce0" stroke-width="1.5"/>
<line x1="850.9" y1="451.2" x2="847.3" y2="451.7" stroke="#508ce0" stroke-width="1.5"/>
<line x1="847.3" y1="451.7" x2="843.7" y2="452.9" stroke="#508ce0" stroke-width="1.5"/>
<line x1="843.7" y1="452.9" x2="840.5" y2="454.9" stroke="#508ce0" stroke-width="1.5"/>
<line x1="840.5" y1="454.9" x2="837.9" y2="457.4" stroke="#508ce0" stroke-width="1.5"/>
<line x1="837.9" y1="457.4" x2="835.9" y2="460.2" stroke="#508ce0" stroke-width="1.5"/>
<line x1="835.9" y1="460.2" x2="834.4" y2="463.6" stroke="#508ce0" stroke-width="1.5"/>
<line x1="834.4" y1="463.6" x2="833.5" y2="467.7" stroke="#508ce0" stroke-width="1.5"/>
<line x1="833.5" y1="467.7" x2="833.3" y2="468.2" stroke="#508ce0" stroke-width="1.5"/>
<circle cx="831.3" cy="466.8" r="2.3" fill="none" stroke="#508ce0" stroke-width="1" stroke-dasharray="3,2"/>
<circle cx="830.5" cy="454.5" r="14.7" fill="none" stroke="#508ce0" stroke-width="1.5"/>
<text x="849.1" y="458.5" fill="#508ce0" font-family="monospace" font-size="8">ø13.04</text>
<circle cx="830.1" cy="471.1" r="1.9" fill="none" stroke="#508ce0" stroke-width="1" stroke-dasharray="3,2"/>
<circle cx="830.1" cy="471.4" r="2.3" fill="none" stroke="#508ce0" stroke-width="1" stroke-dasharray="3,2"/>
<circle cx="830.2" cy="471.4" r="2.3" fill="none" stroke="#508ce0" stroke-width="1.5"/>
<text x="836.6" y="475.4" fill="#508ce0" font-family="monospace" font-size="8">ø2.07</text>
<line x1="827.9" y1="471.4" x2="827.9" y2="500.7" stroke="#508ce0" stroke-width="1.5"/>
<circle cx="825.1" cy="500.6" r="2.8" fill="none" stroke="#508ce0" stroke-width="1" stroke-dasharray="3,2"/>
<circle cx="825.6" cy="500.7" r="2.2" fill="none" stroke="#508ce0" stroke-width="1" stroke-dasharray="3,2"/>
<line x1="826.1" y1="502.9" x2="825.6" y2="502.9" stroke="#508ce0" stroke-width="1.5"/>
<line x1="825.6" y1="502.9" x2="813.3" y2="502.9" stroke="#508ce0" stroke-width="1.5"/>
<circle cx="813.3" cy="505.2" r="2.3" fill="none" stroke="#508ce0" stroke-width="1" stroke-dasharray="3,2"/>
<circle cx="813.3" cy="505.2" r="2.3" fill="none" stroke="#508ce0" stroke-width="1" stroke-dasharray="3,2"/>
<line x1="811.0" y1="505.2" x2="811.0" y2="520.9" stroke="#508ce0" stroke-width="1.5"/>
<line x1="811.0" y1="520.9" x2="838.0" y2="520.9" stroke="#508ce0" stroke-width="1.5"/>
<line x1="838.0" y1="520.9" x2="838.0" y2="486.8" stroke="#508ce0" stroke-width="1.5"/>
<circle cx="842.5" cy="487.2" r="4.5" fill="none" stroke="#508ce0" stroke-width="1" stroke-dasharray="3,2"/>
<line x1="842.5" y1="482.7" x2="1009.0" y2="482.7" stroke="#508ce0" stroke-width="1.5"/>
<line x1="1009.0" y1="482.7" x2="1009.8" y2="482.7" stroke="#508ce0" stroke-width="1.5"/>
<circle cx="1009.0" cy="487.2" r="4.5" fill="none" stroke="#508ce0" stroke-width="1" stroke-dasharray="3,2"/>
<line x1="1013.5" y1="486.8" x2="1013.5" y2="520.9" stroke="#508ce0" stroke-width="1.5"/>
<line x1="1013.5" y1="520.9" x2="1126.0" y2="520.9" stroke="#508ce0" stroke-width="1.5"/>
<line x1="1126.0" y1="520.9" x2="1126.0" y2="505.2" stroke="#508ce0" stroke-width="1.5"/>
<circle cx="1123.7" cy="505.2" r="2.3" fill="none" stroke="#508ce0" stroke-width="1" stroke-dasharray="3,2"/>
<circle cx="1123.7" cy="505.2" r="2.3" fill="none" stroke="#508ce0" stroke-width="1" stroke-dasharray="3,2"/>
<line x1="1123.7" y1="502.9" x2="1111.4" y2="502.9" stroke="#508ce0" stroke-width="1.5"/>
<line x1="1111.4" y1="502.9" x2="1110.9" y2="502.9" stroke="#508ce0" stroke-width="1.5"/>
<circle cx="1111.4" cy="500.6" r="2.3" fill="none" stroke="#508ce0" stroke-width="1" stroke-dasharray="3,2"/>
<line x1="1109.2" y1="501.1" x2="1109.1" y2="500.7" stroke="#508ce0" stroke-width="1.5"/>
<line x1="1109.1" y1="500.7" x2="1109.1" y2="457.9" stroke="#508ce0" stroke-width="1.5"/>
<circle cx="1106.8" cy="458.0" r="2.3" fill="none" stroke="#508ce0" stroke-width="1" stroke-dasharray="3,2"/>
<circle cx="1106.9" cy="457.9" r="2.1" fill="none" stroke="#508ce0" stroke-width="1" stroke-dasharray="3,2"/>
<line x1="1106.9" y1="455.7" x2="1012.8" y2="455.7" stroke="#508ce0" stroke-width="1.5"/>
<circle cx="1012.8" cy="453.2" r="2.5" fill="none" stroke="#508ce0" stroke-width="1" stroke-dasharray="3,2"/>
<circle cx="901.0" cy="469.2" r="7.9" fill="none" stroke="#508ce0" stroke-width="1.5"/>
<text x="912.9" y="473.2" fill="#508ce0" font-family="monospace" font-size="8">ø6.98</text>
<circle cx="1000.0" cy="469.2" r="7.9" fill="none" stroke="#508ce0" stroke-width="1.5"/>
<text x="1011.9" y="473.2" fill="#508ce0" font-family="monospace" font-size="8">ø6.98</text>
<circle cx="950.5" cy="469.2" r="7.9" fill="none" stroke="#508ce0" stroke-width="1.5"/>
<text x="962.4" y="473.2" fill="#508ce0" font-family="monospace" font-size="8">ø6.98</text>
<circle cx="851.5" cy="469.2" r="7.9" fill="none" stroke="#508ce0" stroke-width="1.5"/>
<text x="863.4" y="473.2" fill="#508ce0" font-family="monospace" font-size="8">ø6.98</text>
</g>
<text x="794" y="802" fill="#786432" font-family="monospace" font-size="9">Range: 140.0 x 65.3 mm</text>
<text x="40" y="880" fill="#c9a84c" font-family="monospace" font-size="9">Features (10): →× Linear Pattern ×4 (⊙ Hole ø6.98) | ▭ Fillet Pocket 75.0×28.2 R1.4 | ~ Freeform Pocket (12 ents) | ⊙ Hole ø2.46 | ⊙ Hole ø2.46 | ⊙ Hole ø2.46 | ⊙ Hole ø2.46 | ⊙ Hole ø2.46</text>
</svg>