<svg xmlns="http://www.w3.org/2000/svg" width="1200" height="900" viewBox="0 0 1200 900">
<rect width="1200" height="900" fill="#08090d"/>
<text x="40" y="30" fill="#c9a84c" font-family="monospace" font-size="16" font-weight="bold">nist_ctc_03_asme1_rc.stp  </text>
<text x="40" y="50" fill="#786432" font-family="monospace" font-size="11">BBox: 302.5 x 485.4 x 162.2 mm   Diag: 594.5mm</text>
<rect x="40" y="70" width="365" height="740" fill="none" stroke="#1e1e23" stroke-width="1"/>
<text x="48" y="86" fill="#dcdcdc" font-family="monospace" font-size="11">Plane +X (1 profiles)</text>
<defs><clipPath id="clip-0-nist_ctc_03_asme1_rc"><rect x="41" y="71" width="363" height="738"/></clipPath></defs>
<g clip-path="url(#clip-0-nist_ctc_03_asme1_rc)">
<line x1="158.0" y1="70" x2="158.0" y2="810" stroke="#1e1e23" stroke-width="0.5"/>
<line x1="173.7" y1="70" x2="173.7" y2="810" stroke="#1e1e23" stroke-width="0.5"/>
<line x1="189.5" y1="70" x2="189.5" y2="810" stroke="#1e1e23" stroke-width="0.5"/>
<line x1="205.2" y1="70" x2="205.2" y2="810" stroke="#1e1e23" stroke-width="0.5"/>
<line x1="221.0" y1="70" x2="221.0" y2="810" stroke="#1e1e23" stroke-width="0.5"/>
<line x1="236.8" y1="70" x2="236.8" y2="810" stroke="#1e1e23" stroke-width="0.5"/>
<line x1="252.5" y1="70" x2="252.5" y2="810" stroke="#1e1e23" stroke-width="0.5"/>
<line x1="268.3" y1="70" x2="268.3" y2="810" stroke="#1e1e23" stroke-width="0.5"/>
<line x1="284.0" y1="70" x2="284.0" y2="810" stroke="#1e1e23" stroke-width="0.5"/>
<line x1="299.8" y1="70" x2="299.8" y2="810" stroke="#1e1e23" stroke-width="0.5"/>
<line x1="40" y1="782.8" x2="413" y2="782.8" stroke="#1e1e23" stroke-width="0.5"/>
<line x1="40" y1="767.0" x2="413" y2="767.0" stroke="#1e1e23" stroke-width="0.5"/>
<line x1="40" y1="751.2" x2="413" y2="751.2" stroke="#1e1e23" stroke-width="0.5"/>
<line x1="40" y1="735.5" x2="413" y2="735.5" stroke="#1e1e23" stroke-width="0.5"/>
<line x1="40" y1="719.7" x2="413" y2="719.7" stroke="#1e1e23" stroke-width="0.5"/>
<line x1="40" y1="704.0" x2="413" y2="704.0" stroke="#1e1e23" stroke-width="0.5"/>
<line x1="40" y1="688.2" x2="413" y2="688.2" stroke="#1e1e23" stroke-width="0.5"/>
<line x1="40" y1="672.4" x2="413" y2="672.4" stroke="#1e1e23" stroke-width="0.5"/>
<line x1="40" y1="656.7" x2="413" y2="656.7" stroke="#1e1e23" stroke-width="0.5"/>
<line x1="40" y1="640.9" x2="413" y2="640.9" stroke="#1e1e23" stroke-width="0.5"/>
<line x1="40" y1="625.2" x2="413" y2="625.2" stroke="#1e1e23" stroke-width="0.5"/>
<line x1="40" y1="609.4" x2="413" y2="609.4" stroke="#1e1e23" stroke-width="0.5"/>
<line x1="40" y1="593.6" x2="413" y2="593.6" stroke="#1e1e23" stroke-width="0.5"/>
<line x1="40" y1="577.9" x2="413" y2="577.9" stroke="#1e1e23" stroke-width="0.5"/>
<line x1="40" y1="562.1" x2="413" y2="562.1" stroke="#1e1e23" stroke-width="0.5"/>
<line x1="40" y1="546.4" x2="413" y2="546.4" stroke="#1e1e23" stroke-width="0.5"/>
<line x1="40" y1="530.6" x2="413" y2="530.6" stroke="#1e1e23" stroke-width="0.5"/>
<line x1="40" y1="514.8" x2="413" y2="514.8" stroke="#1e1e23" stroke-width="0.5"/>
<line x1="40" y1="499.1" x2="413" y2="499.1" stroke="#1e1e23" stroke-width="0.5"/>
<line x1="40" y1="483.3" x2="413" y2="483.3" stroke="#1e1e23" stroke-width="0.5"/>
<line x1="40" y1="467.6" x2="413" y2="467.6" stroke="#1e1e23" stroke-width="0.5"/>
<line x1="40" y1="451.8" x2="413" y2="451.8" stroke="#1e1e23" stroke-width="0.5"/>
<line x1="40" y1="436.0" x2="413" y2="436.0" stroke="#1e1e23" stroke-width="0.5"/>
<line x1="40" y1="420.3" x2="413" y2="420.3" stroke="#1e1e23" stroke-width="0.5"/>
<line x1="40" y1="404.5" x2="413" y2="404.5" stroke="#1e1e23" stroke-width="0.5"/>
<line x1="40" y1="388.7" x2="413" y2="388.7" stroke="#1e1e23" stroke-width="0.5"/>
<line x1="40" y1="373.0" x2="413" y2="373.0" stroke="#1e1e23" stroke-width="0.5"/>
<line x1="40" y1="357.2" x2="413" y2="357.2" stroke="#1e1e23" stroke-width="0.5"/>
<line x1="40" y1="341.5" x2="413" y2="341.5" stroke="#1e1e23" stroke-width="0.5"/>
<line x1="40" y1="325.7" x2="413" y2="325.7" stroke="#1e1e23" stroke-width="0.5"/>
<line x1="40" y1="309.9" x2="413" y2="309.9" stroke="#1e1e23" stroke-width="0.5"/>
<line x1="40" y1="294.2" x2="413" y2="294.2" stroke="#1e1e23" stroke-width="0.5"/>
<line x1="40" y1="278.4" x2="413" y2="278.4" stroke="#1e1e23" stroke-width="0.5"/>
<line x1="40" y1="262.7" x2="413" y2="262.7" stroke="#1e1e23" stroke-width="0.5"/>
<line x1="40" y1="246.9" x2="413" y2="246.9" stroke="#1e1e23" stroke-width="0.5"/>
<line x1="40" y1="231.1" x2="413" y2="231.1" stroke="#1e1e23" stroke-width="0.5"/>
<line x1="40" y1="215.4" x2="413" y2="215.4" stroke="#1e1e23" stroke-width="0.5"/>
<line x1="40" y1="199.6" x2="413" y2="199.6" stroke="#1e1e23" stroke-width="0.5"/>
<line x1="40" y1="183.9" x2="413" y2="183.9" stroke="#1e1e23" stroke-width="0.5"/>
<line x1="40" y1="168.1" x2="413" y2="168.1" stroke="#1e1e23" stroke-width="0.5"/>
<line x1="40" y1="152.3" x2="413" y2="152.3" stroke="#1e1e23" stroke-width="0.5"/>
<line x1="40" y1="136.6" x2="413" y2="136.6" stroke="#1e1e23" stroke-width="0.5"/>
<line x1="40" y1="120.8" x2="413" y2="120.8" stroke="#1e1e23" stroke-width="0.5"/>
<line x1="40" y1="105.1" x2="413" y2="105.1" stroke="#1e1e23" stroke-width="0.5"/>
<line x1="281.5" y1="115.0" x2="281.0" y2="135.0" stroke="#c9a84c" stroke-width="1.5"/>
<line x1="281.0" y1="135.0" x2="280.8" y2="137.2" stroke="#c9a84c" stroke-width="1.5"/>
<circle cx="270.9" cy="134.9" r="10.1" fill="none" stroke="#c9a84c" stroke-width="1" stroke-dasharray="3,2"/>
<line x1="273.3" y1="144.8" x2="271.0" y2="145.0" stroke="#c9a84c" stroke-width="1.5"/>
<line x1="271.0" y1="145.0" x2="174.0" y2="145.0" stroke="#c9a84c" stroke-width="1.5"/>
<circle cx="174.0" cy="158.1" r="13.0" fill="none" stroke="#c9a84c" stroke-width="1" stroke-dasharray="3,2"/>
<line x1="161.3" y1="155.1" x2="160.9" y2="158.0" stroke="#c9a84c" stroke-width="1.5"/>
<line x1="160.9" y1="158.0" x2="161.0" y2="738.5" stroke="#c9a84c" stroke-width="1.5"/>
<circle cx="174.0" cy="738.4" r="13.0" fill="none" stroke="#c9a84c" stroke-width="1" stroke-dasharray="3,2"/>
<line x1="171.1" y1="751.2" x2="174.0" y2="751.5" stroke="#c9a84c" stroke-width="1.5"/>
<line x1="174.0" y1="751.5" x2="271.0" y2="751.5" stroke="#c9a84c" stroke-width="1.5"/>
<line x1="271.0" y1="751.5" x2="273.3" y2="751.8" stroke="#c9a84c" stroke-width="1.5"/>
<circle cx="270.9" cy="761.7" r="10.2" fill="none" stroke="#c9a84c" stroke-width="1" stroke-dasharray="3,2"/>
<circle cx="269.5" cy="761.9" r="11.5" fill="none" stroke="#c9a84c" stroke-width="1" stroke-dasharray="3,2"/>
<line x1="281.0" y1="761.5" x2="281.0" y2="780.0" stroke="#c9a84c" stroke-width="1.5"/>
<line x1="281.0" y1="780.0" x2="284.0" y2="780.0" stroke="#c9a84c" stroke-width="1.5"/>
<line x1="284.0" y1="780.0" x2="284.0" y2="761.5" stroke="#c9a84c" stroke-width="1.5"/>
<line x1="284.0" y1="761.5" x2="283.7" y2="758.6" stroke="#c9a84c" stroke-width="1.5"/>
<circle cx="270.9" cy="761.6" r="13.1" fill="none" stroke="#c9a84c" stroke-width="1" stroke-dasharray="3,2"/>
<line x1="273.9" y1="748.8" x2="271.0" y2="748.5" stroke="#c9a84c" stroke-width="1.5"/>
<line x1="271.0" y1="748.5" x2="174.0" y2="748.5" stroke="#c9a84c" stroke-width="1.5"/>
<circle cx="174.0" cy="738.5" r="10.0" fill="none" stroke="#c9a84c" stroke-width="1" stroke-dasharray="3,2"/>
<line x1="164.0" y1="738.5" x2="164.0" y2="158.0" stroke="#c9a84c" stroke-width="1.5"/>
<line x1="164.0" y1="158.0" x2="164.2" y2="155.8" stroke="#c9a84c" stroke-width="1.5"/>
<circle cx="174.0" cy="158.1" r="10.0" fill="none" stroke="#c9a84c" stroke-width="1" stroke-dasharray="3,2"/>
<line x1="174.0" y1="148.0" x2="271.0" y2="148.0" stroke="#c9a84c" stroke-width="1.5"/>
<line x1="271.0" y1="148.0" x2="273.9" y2="147.7" stroke="#c9a84c" stroke-width="1.5"/>
<circle cx="270.9" cy="134.9" r="13.1" fill="none" stroke="#c9a84c" stroke-width="1" stroke-dasharray="3,2"/>
<line x1="283.7" y1="137.9" x2="284.0" y2="135.0" stroke="#c9a84c" stroke-width="1.5"/>
<line x1="284.0" y1="135.0" x2="284.0" y2="115.0" stroke="#c9a84c" stroke-width="1.5"/>
<line x1="284.0" y1="115.0" x2="281.5" y2="115.0" stroke="#c9a84c" stroke-width="1.5"/>
</g>
<text x="48" y="802" fill="#786432" font-family="monospace" font-size="9">Range: 78.1 x 421.9 mm</text>
<rect x="413" y="70" width="365" height="740" fill="none" stroke="#1e1e23" stroke-width="1"/>
<text x="421" y="86" fill="#dcdcdc" font-family="monospace" font-size="11">Plane +Y (2 profiles)</text>
<defs><clipPath id="clip-1-nist_ctc_03_asme1_rc"><rect x="414" y="71" width="363" height="738"/></clipPath></defs>
<g clip-path="url(#clip-1-nist_ctc_03_asme1_rc)">
<line x1="487.0" y1="70" x2="487.0" y2="810" stroke="#1e1e23" stroke-width="0.5"/>
<line x1="508.9" y1="70" x2="508.9" y2="810" stroke="#1e1e23" stroke-width="0.5"/>
<line x1="530.9" y1="70" x2="530.9" y2="810" stroke="#1e1e23" stroke-width="0.5"/>
<line x1="552.8" y1="70" x2="552.8" y2="810" stroke="#1e1e23" stroke-width="0.5"/>
<line x1="574.8" y1="70" x2="574.8" y2="810" stroke="#1e1e23" stroke-width="0.5"/>
<line x1="596.7" y1="70" x2="596.7" y2="810" stroke="#1e1e23" stroke-width="0.5"/>
<line x1="618.7" y1="70" x2="618.7" y2="810" stroke="#1e1e23" stroke-width="0.5"/>
<line x1="640.6" y1="70" x2="640.6" y2="810" stroke="#1e1e23" stroke-width="0.5"/>
<line x1="662.6" y1="70" x2="662.6" y2="810" stroke="#1e1e23" stroke-width="0.5"/>
<line x1="684.5" y1="70" x2="684.5" y2="810" stroke="#1e1e23" stroke-width="0.5"/>
<line x1="706.5" y1="70" x2="706.5" y2="810" stroke="#1e1e23" stroke-width="0.5"/>
<line x1="413" y1="781.0" x2="786" y2="781.0" stroke="#1e1e23" stroke-width="0.5"/>
<line x1="413" y1="759.0" x2="786" y2="759.0" stroke="#1e1e23" stroke-width="0.5"/>
<line x1="413" y1="737.1" x2="786" y2="737.1" stroke="#1e1e23" stroke-width="0.5"/>
<line x1="413" y1="715.1" x2="786" y2="715.1" stroke="#1e1e23" stroke-width="0.5"/>
<line x1="413" y1="693.2" x2="786" y2="693.2" stroke="#1e1e23" stroke-width="0.5"/>
<line x1="413" y1="671.2" x2="786" y2="671.2" stroke="#1e1e23" stroke-width="0.5"/>
<line x1="413" y1="649.3" x2="786" y2="649.3" stroke="#1e1e23" stroke-width="0.5"/>
<line x1="413" y1="627.3" x2="786" y2="627.3" stroke="#1e1e23" stroke-width="0.5"/>
<line x1="413" y1="605.4" x2="786" y2="605.4" stroke="#1e1e23" stroke-width="0.5"/>
<line x1="413" y1="583.4" x2="786" y2="583.4" stroke="#1e1e23" stroke-width="0.5"/>
<line x1="413" y1="561.5" x2="786" y2="561.5" stroke="#1e1e23" stroke-width="0.5"/>
<line x1="413" y1="539.5" x2="786" y2="539.5" stroke="#1e1e23" stroke-width="0.5"/>
<line x1="413" y1="517.6" x2="786" y2="517.6" stroke="#1e1e23" stroke-width="0.5"/>
<line x1="413" y1="495.6" x2="786" y2="495.6" stroke="#1e1e23" stroke-width="0.5"/>
<line x1="413" y1="473.7" x2="786" y2="473.7" stroke="#1e1e23" stroke-width="0.5"/>
<line x1="413" y1="451.7" x2="786" y2="451.7" stroke="#1e1e23" stroke-width="0.5"/>
<line x1="413" y1="429.8" x2="786" y2="429.8" stroke="#1e1e23" stroke-width="0.5"/>
<line x1="413" y1="407.8" x2="786" y2="407.8" stroke="#1e1e23" stroke-width="0.5"/>
<line x1="413" y1="385.9" x2="786" y2="385.9" stroke="#1e1e23" stroke-width="0.5"/>
<line x1="413" y1="363.9" x2="786" y2="363.9" stroke="#1e1e23" stroke-width="0.5"/>
<line x1="413" y1="342.0" x2="786" y2="342.0" stroke="#1e1e23" stroke-width="0.5"/>
<line x1="413" y1="320.0" x2="786" y2="320.0" stroke="#1e1e23" stroke-width="0.5"/>
<line x1="413" y1="298.1" x2="786" y2="298.1" stroke="#1e1e23" stroke-width="0.5"/>
<line x1="413" y1="276.1" x2="786" y2="276.1" stroke="#1e1e23" stroke-width="0.5"/>
<line x1="413" y1="254.2" x2="786" y2="254.2" stroke="#1e1e23" stroke-width="0.5"/>
<line x1="413" y1="232.2" x2="786" y2="232.2" stroke="#1e1e23" stroke-width="0.5"/>
<line x1="413" y1="210.3" x2="786" y2="210.3" stroke="#1e1e23" stroke-width="0.5"/>
<line x1="413" y1="188.3" x2="786" y2="188.3" stroke="#1e1e23" stroke-width="0.5"/>
<line x1="413" y1="166.4" x2="786" y2="166.4" stroke="#1e1e23" stroke-width="0.5"/>
<line x1="413" y1="144.4" x2="786" y2="144.4" stroke="#1e1e23" stroke-width="0.5"/>
<line x1="413" y1="122.5" x2="786" y2="122.5" stroke="#1e1e23" stroke-width="0.5"/>
<line x1="413" y1="100.5" x2="786" y2="100.5" stroke="#1e1e23" stroke-width="0.5"/>
<line x1="622.1" y1="185.8" x2="619.5" y2="182.9" stroke="#c9a84c" stroke-width="1.5"/>
<line x1="619.5" y1="182.9" x2="592.4" y2="210.0" stroke="#c9a84c" stroke-width="1.5"/>
<circle cx="581.3" cy="198.2" r="16.2" fill="none" stroke="#c9a84c" stroke-width="1" stroke-dasharray="3,2"/>
<circle cx="582.1" cy="197.9" r="16.2" fill="none" stroke="#c9a84c" stroke-width="1" stroke-dasharray="3,2"/>
<line x1="582.6" y1="214.1" x2="518.7" y2="214.1" stroke="#c9a84c" stroke-width="1.5"/>
<line x1="518.7" y1="214.1" x2="514.7" y2="214.5" stroke="#c9a84c" stroke-width="1.5"/>
<line x1="514.7" y1="214.5" x2="510.8" y2="215.9" stroke="#c9a84c" stroke-width="1.5"/>
<line x1="510.8" y1="215.9" x2="507.4" y2="218.0" stroke="#c9a84c" stroke-width="1.5"/>
<line x1="507.4" y1="218.0" x2="504.5" y2="220.9" stroke="#c9a84c" stroke-width="1.5"/>
<line x1="504.5" y1="220.9" x2="502.4" y2="224.4" stroke="#c9a84c" stroke-width="1.5"/>
<line x1="502.4" y1="224.4" x2="501.0" y2="228.2" stroke="#c9a84c" stroke-width="1.5"/>
<line x1="501.0" y1="228.2" x2="500.6" y2="232.2" stroke="#c9a84c" stroke-width="1.5"/>
<line x1="500.6" y1="232.2" x2="500.6" y2="761.9" stroke="#c9a84c" stroke-width="1.5"/>
<line x1="500.6" y1="761.9" x2="501.0" y2="765.9" stroke="#c9a84c" stroke-width="1.5"/>
<line x1="501.0" y1="765.9" x2="502.4" y2="769.7" stroke="#c9a84c" stroke-width="1.5"/>
<line x1="502.4" y1="769.7" x2="504.5" y2="773.2" stroke="#c9a84c" stroke-width="1.5"/>
<line x1="504.5" y1="773.2" x2="507.4" y2="776.0" stroke="#c9a84c" stroke-width="1.5"/>
<line x1="507.4" y1="776.0" x2="510.8" y2="778.2" stroke="#c9a84c" stroke-width="1.5"/>
<line x1="510.8" y1="778.2" x2="514.7" y2="779.5" stroke="#c9a84c" stroke-width="1.5"/>
<line x1="514.7" y1="779.5" x2="518.7" y2="780.0" stroke="#c9a84c" stroke-width="1.5"/>
<line x1="518.7" y1="780.0" x2="616.3" y2="780.0" stroke="#c9a84c" stroke-width="1.5"/>
<line x1="616.3" y1="780.0" x2="616.3" y2="775.8" stroke="#c9a84c" stroke-width="1.5"/>
<line x1="616.3" y1="775.8" x2="518.7" y2="775.8" stroke="#c9a84c" stroke-width="1.5"/>
<circle cx="518.8" cy="761.8" r="14.0" fill="none" stroke="#c9a84c" stroke-width="1" stroke-dasharray="3,2"/>
<line x1="505.2" y1="765.0" x2="504.8" y2="761.9" stroke="#c9a84c" stroke-width="1.5"/>
<line x1="504.8" y1="761.9" x2="504.8" y2="232.2" stroke="#c9a84c" stroke-width="1.5"/>
<line x1="504.8" y1="232.2" x2="505.1" y2="229.1" stroke="#c9a84c" stroke-width="1.5"/>
<circle cx="518.8" cy="232.3" r="14.1" fill="none" stroke="#c9a84c" stroke-width="1" stroke-dasharray="3,2"/>
<line x1="515.6" y1="218.7" x2="518.7" y2="218.3" stroke="#c9a84c" stroke-width="1.5"/>
<line x1="518.7" y1="218.3" x2="582.6" y2="218.3" stroke="#c9a84c" stroke-width="1.5"/>
<circle cx="582.0" cy="197.2" r="21.1" fill="none" stroke="#c9a84c" stroke-width="1" stroke-dasharray="3,2"/>
<circle cx="580.9" cy="197.6" r="21.1" fill="none" stroke="#c9a84c" stroke-width="1" stroke-dasharray="3,2"/>
<line x1="595.4" y1="213.0" x2="622.1" y2="185.8" stroke="#c9a84c" stroke-width="1.5"/>
<line x1="663.8" y1="144.6" x2="690.4" y2="118.0" stroke="#508ce0" stroke-width="1.5"/>
<line x1="690.4" y1="118.0" x2="687.4" y2="115.0" stroke="#508ce0" stroke-width="1.5"/>
<line x1="687.4" y1="115.0" x2="660.8" y2="141.6" stroke="#508ce0" stroke-width="1.5"/>
<line x1="660.8" y1="141.6" x2="662.5" y2="143.1" stroke="#508ce0" stroke-width="1.5"/>
</g>
<text x="421" y="802" fill="#786432" font-family="monospace" font-size="9">Range: 86.5 x 303.0 mm</text>
<rect x="786" y="70" width="365" height="740" fill="none" stroke="#1e1e23" stroke-width="1"/>
<text x="794" y="86" fill="#dcdcdc" font-family="monospace" font-size="11">Plane +Z (2 profiles)</text>
<defs><clipPath id="clip-2-nist_ctc_03_asme1_rc"><rect x="787" y="71" width="363" height="738"/></clipPath></defs>
<g clip-path="url(#clip-2-nist_ctc_03_asme1_rc)">
<line x1="810.1" y1="70" x2="810.1" y2="810" stroke="#1e1e23" stroke-width="0.5"/>
<line x1="817.7" y1="70" x2="817.7" y2="810" stroke="#1e1e23" stroke-width="0.5"/>
<line x1="825.4" y1="70" x2="825.4" y2="810" stroke="#1e1e23" stroke-width="0.5"/>
<line x1="833.0" y1="70" x2="833.0" y2="810" stroke="#1e1e23" stroke-width="0.5"/>
<line x1="840.6" y1="70" x2="840.6" y2="810" stroke="#1e1e23" stroke-width="0.5"/>
<line x1="848.2" y1="70" x2="848.2" y2="810" stroke="#1e1e23" stroke-width="0.5"/>
<line x1="855.9" y1="70" x2="855.9" y2="810" stroke="#1e1e23" stroke-width="0.5"/>
<line x1="863.5" y1="70" x2="863.5" y2="810" stroke="#1e1e23" stroke-width="0.5"/>
<line x1="871.1" y1="70" x2="871.1" y2="810" stroke="#1e1e23" stroke-width="0.5"/>
<line x1="878.8" y1="70" x2="878.8" y2="810" stroke="#1e1e23" stroke-width="0.5"/>
<line x1="886.4" y1="70" x2="886.4" y2="810" stroke="#1e1e23" stroke-width="0.5"/>
<line x1="894.0" y1="70" x2="894.0" y2="810" stroke="#1e1e23" stroke-width="0.5"/>
<line x1="901.6" y1="70" x2="901.6" y2="810" stroke="#1e1e23" stroke-width="0.5"/>
<line x1="909.3" y1="70" x2="909.3" y2="810" stroke="#1e1e23" stroke-width="0.5"/>
<line x1="916.9" y1="70" x2="916.9" y2="810" stroke="#1e1e23" stroke-width="0.5"/>
<line x1="924.5" y1="70" x2="924.5" y2="810" stroke="#1e1e23" stroke-width="0.5"/>
<line x1="932.2" y1="70" x2="932.2" y2="810" stroke="#1e1e23" stroke-width="0.5"/>
<line x1="939.8" y1="70" x2="939.8" y2="810" stroke="#1e1e23" stroke-width="0.5"/>
<line x1="947.4" y1="70" x2="947.4" y2="810" stroke="#1e1e23" stroke-width="0.5"/>
<line x1="955.0" y1="70" x2="955.0" y2="810" stroke="#1e1e23" stroke-width="0.5"/>
<line x1="962.7" y1="70" x2="962.7" y2="810" stroke="#1e1e23" stroke-width="0.5"/>
<line x1="970.3" y1="70" x2="970.3" y2="810" stroke="#1e1e23" stroke-width="0.5"/>
<line x1="977.9" y1="70" x2="977.9" y2="810" stroke="#1e1e23" stroke-width="0.5"/>
<line x1="985.6" y1="70" x2="985.6" y2="810" stroke="#1e1e23" stroke-width="0.5"/>
<line x1="993.2" y1="70" x2="993.2" y2="810" stroke="#1e1e23" stroke-width="0.5"/>
<line x1="1000.8" y1="70" x2="1000.8" y2="810" stroke="#1e1e23" stroke-width="0.5"/>
<line x1="1008.4" y1="70" x2="1008.4" y2="810" stroke="#1e1e23" stroke-width="0.5"/>
<line x1="1016.1" y1="70" x2="1016.1" y2="810" stroke="#1e1e23" stroke-width="0.5"/>
<line x1="1023.7" y1="70" x2="1023.7" y2="810" stroke="#1e1e23" stroke-width="0.5"/>
<line x1="1031.3" y1="70" x2="1031.3" y2="810" stroke="#1e1e23" stroke-width="0.5"/>
<line x1="1039.0" y1="70" x2="1039.0" y2="810" stroke="#1e1e23" stroke-width="0.5"/>
<line x1="1046.6" y1="70" x2="1046.6" y2="810" stroke="#1e1e23" stroke-width="0.5"/>
<line x1="1054.2" y1="70" x2="1054.2" y2="810" stroke="#1e1e23" stroke-width="0.5"/>
<line x1="1061.8" y1="70" x2="1061.8" y2="810" stroke="#1e1e23" stroke-width="0.5"/>
<line x1="1069.5" y1="70" x2="1069.5" y2="810" stroke="#1e1e23" stroke-width="0.5"/>
<line x1="1077.1" y1="70" x2="1077.1" y2="810" stroke="#1e1e23" stroke-width="0.5"/>
<line x1="1084.7" y1="70" x2="1084.7" y2="810" stroke="#1e1e23" stroke-width="0.5"/>
<line x1="1092.4" y1="70" x2="1092.4" y2="810" stroke="#1e1e23" stroke-width="0.5"/>
<line x1="1100.0" y1="70" x2="1100.0" y2="810" stroke="#1e1e23" stroke-width="0.5"/>
<line x1="1107.6" y1="70" x2="1107.6" y2="810" stroke="#1e1e23" stroke-width="0.5"/>
<line x1="1115.3" y1="70" x2="1115.3" y2="810" stroke="#1e1e23" stroke-width="0.5"/>
<line x1="1122.9" y1="70" x2="1122.9" y2="810" stroke="#1e1e23" stroke-width="0.5"/>
<line x1="1130.5" y1="70" x2="1130.5" y2="810" stroke="#1e1e23" stroke-width="0.5"/>
<line x1="786" y1="594.5" x2="1159" y2="594.5" stroke="#1e1e23" stroke-width="0.5"/>
<line x1="786" y1="586.9" x2="1159" y2="586.9" stroke="#1e1e23" stroke-width="0.5"/>
<line x1="786" y1="579.3" x2="1159" y2="579.3" stroke="#1e1e23" stroke-width="0.5"/>
<line x1="786" y1="571.6" x2="1159" y2="571.6" stroke="#1e1e23" stroke-width="0.5"/>
<line x1="786" y1="564.0" x2="1159" y2="564.0" stroke="#1e1e23" stroke-width="0.5"/>
<line x1="786" y1="556.4" x2="1159" y2="556.4" stroke="#1e1e23" stroke-width="0.5"/>
<line x1="786" y1="548.8" x2="1159" y2="548.8" stroke="#1e1e23" stroke-width="0.5"/>
<line x1="786" y1="541.1" x2="1159" y2="541.1" stroke="#1e1e23" stroke-width="0.5"/>
<line x1="786" y1="533.5" x2="1159" y2="533.5" stroke="#1e1e23" stroke-width="0.5"/>
<line x1="786" y1="525.9" x2="1159" y2="525.9" stroke="#1e1e23" stroke-width="0.5"/>
<line x1="786" y1="518.2" x2="1159" y2="518.2" stroke="#1e1e23" stroke-width="0.5"/>
<line x1="786" y1="510.6" x2="1159" y2="510.6" stroke="#1e1e23" stroke-width="0.5"/>
<line x1="786" y1="503.0" x2="1159" y2="503.0" stroke="#1e1e23" stroke-width="0.5"/>
<line x1="786" y1="495.3" x2="1159" y2="495.3" stroke="#1e1e23" stroke-width="0.5"/>
<line x1="786" y1="487.7" x2="1159" y2="487.7" stroke="#1e1e23" stroke-width="0.5"/>
<line x1="786" y1="480.1" x2="1159" y2="480.1" stroke="#1e1e23" stroke-width="0.5"/>
<line x1="786" y1="472.5" x2="1159" y2="472.5" stroke="#1e1e23" stroke-width="0.5"/>
<line x1="786" y1="464.8" x2="1159" y2="464.8" stroke="#1e1e23" stroke-width="0.5"/>
<line x1="786" y1="457.2" x2="1159" y2="457.2" stroke="#1e1e23" stroke-width="0.5"/>
<line x1="786" y1="449.6" x2="1159" y2="449.6" stroke="#1e1e23" stroke-width="0.5"/>
<line x1="786" y1="441.9" x2="1159" y2="441.9" stroke="#1e1e23" stroke-width="0.5"/>
<line x1="786" y1="434.3" x2="1159" y2="434.3" stroke="#1e1e23" stroke-width="0.5"/>
<line x1="786" y1="426.7" x2="1159" y2="426.7" stroke="#1e1e23" stroke-width="0.5"/>
<line x1="786" y1="419.1" x2="1159" y2="419.1" stroke="#1e1e23" stroke-width="0.5"/>
<line x1="786" y1="411.4" x2="1159" y2="411.4" stroke="#1e1e23" stroke-width="0.5"/>
<line x1="786" y1="403.8" x2="1159" y2="403.8" stroke="#1e1e23" stroke-width="0.5"/>
<line x1="786" y1="396.2" x2="1159" y2="396.2" stroke="#1e1e23" stroke-width="0.5"/>
<line x1="786" y1="388.5" x2="1159" y2="388.5" stroke="#1e1e23" stroke-width="0.5"/>
<line x1="786" y1="380.9" x2="1159" y2="380.9" stroke="#1e1e23" stroke-width="0.5"/>
<line x1="786" y1="373.3" x2="1159" y2="373.3" stroke="#1e1e23" stroke-width="0.5"/>
<line x1="786" y1="365.7" x2="1159" y2="365.7" stroke="#1e1e23" stroke-width="0.5"/>
<line x1="786" y1="358.0" x2="1159" y2="358.0" stroke="#1e1e23" stroke-width="0.5"/>
<line x1="786" y1="350.4" x2="1159" y2="350.4" stroke="#1e1e23" stroke-width="0.5"/>
<line x1="786" y1="342.8" x2="1159" y2="342.8" stroke="#1e1e23" stroke-width="0.5"/>
<line x1="786" y1="335.1" x2="1159" y2="335.1" stroke="#1e1e23" stroke-width="0.5"/>
<line x1="786" y1="327.5" x2="1159" y2="327.5" stroke="#1e1e23" stroke-width="0.5"/>
<line x1="786" y1="319.9" x2="1159" y2="319.9" stroke="#1e1e23" stroke-width="0.5"/>
<line x1="786" y1="312.3" x2="1159" y2="312.3" stroke="#1e1e23" stroke-width="0.5"/>
<line x1="786" y1="304.6" x2="1159" y2="304.6" stroke="#1e1e23" stroke-width="0.5"/>
<line x1="811.1" y1="308.1" x2="811.0" y2="586.9" stroke="#c9a84c" stroke-width="1.5"/>
<line x1="811.0" y1="586.9" x2="812.7" y2="586.9" stroke="#c9a84c" stroke-width="1.5"/>
<line x1="812.7" y1="586.9" x2="812.7" y2="308.1" stroke="#c9a84c" stroke-width="1.5"/>
<line x1="812.7" y1="308.1" x2="811.1" y2="308.1" stroke="#c9a84c" stroke-width="1.5"/>
<line x1="1006.6" y1="586.9" x2="1004.9" y2="586.9" stroke="#c9a84c" stroke-width="1.5"/>
<line x1="1004.9" y1="586.9" x2="1004.9" y2="308.1" stroke="#c9a84c" stroke-width="1.5"/>
<circle cx="1005.7" cy="428.4" r="120.3" fill="none" stroke="#c9a84c" stroke-width="1" stroke-dasharray="3,2"/>
</g>
<text x="794" y="802" fill="#786432" font-family="monospace" font-size="9">Range: 412.9 x 365.5 mm</text>
<text x="40" y="880" fill="#c9a84c" font-family="monospace" font-size="9">Features (4): ▭ Fillet Boss 55.4×272.0 R7.8 | △ Polygon Pocket (4 sides) | ▭ Boss 2.2×365.5 | ~ Freeform Boss</text>
</svg>