<svg xmlns="http://www.w3.org/2000/svg" width="1200" height="900" viewBox="0 0 1200 900">
<rect width="1200" height="900" fill="#08090d"/>
<text x="40" y="30" fill="#c9a84c" font-family="monospace" font-size="16" font-weight="bold">nist_stc_06_asme1_ap242-e3.stp  </text>
<text x="40" y="50" fill="#786432" font-family="monospace" font-size="11">BBox: 247.6 x 304.8 x 97.8 mm   Diag: 404.7mm</text>
<rect x="40" y="70" width="365" height="740" fill="none" stroke="#1e1e23" stroke-width="1"/>
<text x="48" y="86" fill="#dcdcdc" font-family="monospace" font-size="11">Plane +X (1 profiles)</text>
<defs><clipPath id="clip-0-nist_stc_06_asme1_ap242-e3"><rect x="41" y="71" width="363" height="738"/></clipPath></defs>
<g clip-path="url(#clip-0-nist_stc_06_asme1_ap242-e3)">
<line x1="148.1" y1="70" x2="148.1" y2="810" stroke="#1e1e23" stroke-width="0.5"/>
<line x1="169.9" y1="70" x2="169.9" y2="810" stroke="#1e1e23" stroke-width="0.5"/>
<line x1="191.7" y1="70" x2="191.7" y2="810" stroke="#1e1e23" stroke-width="0.5"/>
<line x1="213.5" y1="70" x2="213.5" y2="810" stroke="#1e1e23" stroke-width="0.5"/>
<line x1="235.3" y1="70" x2="235.3" y2="810" stroke="#1e1e23" stroke-width="0.5"/>
<line x1="257.1" y1="70" x2="257.1" y2="810" stroke="#1e1e23" stroke-width="0.5"/>
<line x1="279.0" y1="70" x2="279.0" y2="810" stroke="#1e1e23" stroke-width="0.5"/>
<line x1="300.8" y1="70" x2="300.8" y2="810" stroke="#1e1e23" stroke-width="0.5"/>
<line x1="40" y1="796.6" x2="413" y2="796.6" stroke="#1e1e23" stroke-width="0.5"/>
<line x1="40" y1="774.8" x2="413" y2="774.8" stroke="#1e1e23" stroke-width="0.5"/>
<line x1="40" y1="752.9" x2="413" y2="752.9" stroke="#1e1e23" stroke-width="0.5"/>
<line x1="40" y1="731.1" x2="413" y2="731.1" stroke="#1e1e23" stroke-width="0.5"/>
<line x1="40" y1="709.3" x2="413" y2="709.3" stroke="#1e1e23" stroke-width="0.5"/>
<line x1="40" y1="687.5" x2="413" y2="687.5" stroke="#1e1e23" stroke-width="0.5"/>
<line x1="40" y1="665.7" x2="413" y2="665.7" stroke="#1e1e23" stroke-width="0.5"/>
<line x1="40" y1="643.9" x2="413" y2="643.9" stroke="#1e1e23" stroke-width="0.5"/>
<line x1="40" y1="622.0" x2="413" y2="622.0" stroke="#1e1e23" stroke-width="0.5"/>
<line x1="40" y1="600.2" x2="413" y2="600.2" stroke="#1e1e23" stroke-width="0.5"/>
<line x1="40" y1="578.4" x2="413" y2="578.4" stroke="#1e1e23" stroke-width="0.5"/>
<line x1="40" y1="556.6" x2="413" y2="556.6" stroke="#1e1e23" stroke-width="0.5"/>
<line x1="40" y1="534.8" x2="413" y2="534.8" stroke="#1e1e23" stroke-width="0.5"/>
<line x1="40" y1="513.0" x2="413" y2="513.0" stroke="#1e1e23" stroke-width="0.5"/>
<line x1="40" y1="491.1" x2="413" y2="491.1" stroke="#1e1e23" stroke-width="0.5"/>
<line x1="40" y1="469.3" x2="413" y2="469.3" stroke="#1e1e23" stroke-width="0.5"/>
<line x1="40" y1="447.5" x2="413" y2="447.5" stroke="#1e1e23" stroke-width="0.5"/>
<line x1="40" y1="425.7" x2="413" y2="425.7" stroke="#1e1e23" stroke-width="0.5"/>
<line x1="40" y1="403.9" x2="413" y2="403.9" stroke="#1e1e23" stroke-width="0.5"/>
<line x1="40" y1="382.0" x2="413" y2="382.0" stroke="#1e1e23" stroke-width="0.5"/>
<line x1="40" y1="360.2" x2="413" y2="360.2" stroke="#1e1e23" stroke-width="0.5"/>
<line x1="40" y1="338.4" x2="413" y2="338.4" stroke="#1e1e23" stroke-width="0.5"/>
<line x1="40" y1="316.6" x2="413" y2="316.6" stroke="#1e1e23" stroke-width="0.5"/>
<line x1="40" y1="294.8" x2="413" y2="294.8" stroke="#1e1e23" stroke-width="0.5"/>
<line x1="40" y1="273.0" x2="413" y2="273.0" stroke="#1e1e23" stroke-width="0.5"/>
<line x1="40" y1="251.1" x2="413" y2="251.1" stroke="#1e1e23" stroke-width="0.5"/>
<line x1="40" y1="229.3" x2="413" y2="229.3" stroke="#1e1e23" stroke-width="0.5"/>
<line x1="40" y1="207.5" x2="413" y2="207.5" stroke="#1e1e23" stroke-width="0.5"/>
<line x1="40" y1="185.7" x2="413" y2="185.7" stroke="#1e1e23" stroke-width="0.5"/>
<line x1="40" y1="163.9" x2="413" y2="163.9" stroke="#1e1e23" stroke-width="0.5"/>
<line x1="40" y1="142.1" x2="413" y2="142.1" stroke="#1e1e23" stroke-width="0.5"/>
<line x1="40" y1="120.2" x2="413" y2="120.2" stroke="#1e1e23" stroke-width="0.5"/>
<line x1="40" y1="98.4" x2="413" y2="98.4" stroke="#1e1e23" stroke-width="0.5"/>
<circle cx="202.8" cy="482.1" r="6.9" fill="none" stroke="#c9a84c" stroke-width="1" stroke-dasharray="3,2"/>
<line x1="209.7" y1="482.1" x2="209.7" y2="780.0" stroke="#c9a84c" stroke-width="1.5"/>
<line x1="209.7" y1="780.0" x2="279.0" y2="780.0" stroke="#c9a84c" stroke-width="1.5"/>
<line x1="279.0" y1="780.0" x2="279.0" y2="115.0" stroke="#c9a84c" stroke-width="1.5"/>
<line x1="279.0" y1="115.0" x2="209.7" y2="115.0" stroke="#c9a84c" stroke-width="1.5"/>
<line x1="209.7" y1="115.0" x2="209.7" y2="412.9" stroke="#c9a84c" stroke-width="1.5"/>
<line x1="209.7" y1="412.9" x2="209.6" y2="414.2" stroke="#c9a84c" stroke-width="1.5"/>
<circle cx="202.7" cy="412.9" r="6.9" fill="none" stroke="#c9a84c" stroke-width="1" stroke-dasharray="3,2"/>
<line x1="203.9" y1="419.7" x2="202.8" y2="419.8" stroke="#c9a84c" stroke-width="1.5"/>
<line x1="202.8" y1="419.8" x2="166.0" y2="419.8" stroke="#c9a84c" stroke-width="1.5"/>
<line x1="166.0" y1="419.8" x2="166.0" y2="475.2" stroke="#c9a84c" stroke-width="1.5"/>
<line x1="166.0" y1="475.2" x2="202.8" y2="475.2" stroke="#c9a84c" stroke-width="1.5"/>
<circle cx="202.7" cy="482.3" r="7.1" fill="none" stroke="#c9a84c" stroke-width="1.5"/>
<text x="213.8" y="486.3" fill="#c9a84c" font-family="monospace" font-size="8">ø6.48</text>
</g>
<text x="48" y="802" fill="#786432" font-family="monospace" font-size="9">Range: 51.8 x 304.8 mm</text>
<rect x="413" y="70" width="365" height="740" fill="none" stroke="#1e1e23" stroke-width="1"/>
<text x="421" y="86" fill="#dcdcdc" font-family="monospace" font-size="11">Plane +Y (3 profiles)</text>
<defs><clipPath id="clip-1-nist_stc_06_asme1_ap242-e3"><rect x="414" y="71" width="363" height="738"/></clipPath></defs>
<g clip-path="url(#clip-1-nist_stc_06_asme1_ap242-e3)">
<line x1="438.0" y1="70" x2="438.0" y2="810" stroke="#1e1e23" stroke-width="0.5"/>
<line x1="465.3" y1="70" x2="465.3" y2="810" stroke="#1e1e23" stroke-width="0.5"/>
<line x1="492.7" y1="70" x2="492.7" y2="810" stroke="#1e1e23" stroke-width="0.5"/>
<line x1="520.0" y1="70" x2="520.0" y2="810" stroke="#1e1e23" stroke-width="0.5"/>
<line x1="547.3" y1="70" x2="547.3" y2="810" stroke="#1e1e23" stroke-width="0.5"/>
<line x1="574.6" y1="70" x2="574.6" y2="810" stroke="#1e1e23" stroke-width="0.5"/>
<line x1="602.0" y1="70" x2="602.0" y2="810" stroke="#1e1e23" stroke-width="0.5"/>
<line x1="629.3" y1="70" x2="629.3" y2="810" stroke="#1e1e23" stroke-width="0.5"/>
<line x1="656.6" y1="70" x2="656.6" y2="810" stroke="#1e1e23" stroke-width="0.5"/>
<line x1="684.0" y1="70" x2="684.0" y2="810" stroke="#1e1e23" stroke-width="0.5"/>
<line x1="711.3" y1="70" x2="711.3" y2="810" stroke="#1e1e23" stroke-width="0.5"/>
<line x1="738.6" y1="70" x2="738.6" y2="810" stroke="#1e1e23" stroke-width="0.5"/>
<line x1="766.0" y1="70" x2="766.0" y2="810" stroke="#1e1e23" stroke-width="0.5"/>
<line x1="413" y1="768.6" x2="786" y2="768.6" stroke="#1e1e23" stroke-width="0.5"/>
<line x1="413" y1="741.2" x2="786" y2="741.2" stroke="#1e1e23" stroke-width="0.5"/>
<line x1="413" y1="713.9" x2="786" y2="713.9" stroke="#1e1e23" stroke-width="0.5"/>
<line x1="413" y1="686.6" x2="786" y2="686.6" stroke="#1e1e23" stroke-width="0.5"/>
<line x1="413" y1="659.2" x2="786" y2="659.2" stroke="#1e1e23" stroke-width="0.5"/>
<line x1="413" y1="631.9" x2="786" y2="631.9" stroke="#1e1e23" stroke-width="0.5"/>
<line x1="413" y1="604.6" x2="786" y2="604.6" stroke="#1e1e23" stroke-width="0.5"/>
<line x1="413" y1="577.2" x2="786" y2="577.2" stroke="#1e1e23" stroke-width="0.5"/>
<line x1="413" y1="549.9" x2="786" y2="549.9" stroke="#1e1e23" stroke-width="0.5"/>
<line x1="413" y1="522.6" x2="786" y2="522.6" stroke="#1e1e23" stroke-width="0.5"/>
<line x1="413" y1="495.3" x2="786" y2="495.3" stroke="#1e1e23" stroke-width="0.5"/>
<line x1="413" y1="467.9" x2="786" y2="467.9" stroke="#1e1e23" stroke-width="0.5"/>
<line x1="413" y1="440.6" x2="786" y2="440.6" stroke="#1e1e23" stroke-width="0.5"/>
<line x1="413" y1="413.3" x2="786" y2="413.3" stroke="#1e1e23" stroke-width="0.5"/>
<line x1="413" y1="385.9" x2="786" y2="385.9" stroke="#1e1e23" stroke-width="0.5"/>
<line x1="413" y1="358.6" x2="786" y2="358.6" stroke="#1e1e23" stroke-width="0.5"/>
<line x1="413" y1="331.3" x2="786" y2="331.3" stroke="#1e1e23" stroke-width="0.5"/>
<line x1="413" y1="303.9" x2="786" y2="303.9" stroke="#1e1e23" stroke-width="0.5"/>
<line x1="413" y1="276.6" x2="786" y2="276.6" stroke="#1e1e23" stroke-width="0.5"/>
<line x1="413" y1="249.3" x2="786" y2="249.3" stroke="#1e1e23" stroke-width="0.5"/>
<line x1="413" y1="222.0" x2="786" y2="222.0" stroke="#1e1e23" stroke-width="0.5"/>
<line x1="413" y1="194.6" x2="786" y2="194.6" stroke="#1e1e23" stroke-width="0.5"/>
<line x1="413" y1="167.3" x2="786" y2="167.3" stroke="#1e1e23" stroke-width="0.5"/>
<line x1="413" y1="140.0" x2="786" y2="140.0" stroke="#1e1e23" stroke-width="0.5"/>
<line x1="413" y1="112.6" x2="786" y2="112.6" stroke="#1e1e23" stroke-width="0.5"/>
<line x1="455.4" y1="126.9" x2="438.0" y2="126.4" stroke="#c9a84c" stroke-width="1.5"/>
<line x1="438.0" y1="126.4" x2="438.0" y2="768.6" stroke="#c9a84c" stroke-width="1.5"/>
<line x1="438.0" y1="768.6" x2="705.3" y2="768.6" stroke="#c9a84c" stroke-width="1.5"/>
<line x1="705.3" y1="768.6" x2="705.3" y2="759.9" stroke="#c9a84c" stroke-width="1.5"/>
<circle cx="708.0" cy="715.0" r="45.0" fill="none" stroke="#c9a84c" stroke-width="1" stroke-dasharray="3,2"/>
<circle cx="708.8" cy="721.7" r="39.5" fill="none" stroke="#c9a84c" stroke-width="1" stroke-dasharray="3,2"/>
<line x1="675.2" y1="742.5" x2="671.7" y2="734.1" stroke="#c9a84c" stroke-width="1.5"/>
<circle cx="705.2" cy="725.2" r="34.7" fill="none" stroke="#c9a84c" stroke-width="1" stroke-dasharray="3,2"/>
<line x1="705.3" y1="690.5" x2="576.8" y2="195.9" stroke="#c9a84c" stroke-width="1.5"/>
<line x1="576.8" y1="195.9" x2="576.8" y2="126.4" stroke="#c9a84c" stroke-width="1.5"/>
<line x1="576.8" y1="126.4" x2="492.3" y2="126.4" stroke="#c9a84c" stroke-width="1.5"/>
<line x1="492.3" y1="126.4" x2="492.3" y2="133.4" stroke="#c9a84c" stroke-width="1.5"/>
<line x1="492.3" y1="133.4" x2="475.6" y2="133.4" stroke="#c9a84c" stroke-width="1.5"/>
<line x1="475.6" y1="133.4" x2="475.6" y2="126.4" stroke="#c9a84c" stroke-width="1.5"/>
<line x1="475.6" y1="126.4" x2="463.8" y2="126.4" stroke="#c9a84c" stroke-width="1.5"/>
<line x1="463.8" y1="126.4" x2="463.8" y2="133.4" stroke="#c9a84c" stroke-width="1.5"/>
<line x1="463.8" y1="133.4" x2="455.4" y2="133.4" stroke="#c9a84c" stroke-width="1.5"/>
<line x1="455.4" y1="133.4" x2="455.4" y2="126.9" stroke="#c9a84c" stroke-width="1.5"/>
<line x1="526.7" y1="199.1" x2="528.0" y2="197.8" stroke="#508ce0" stroke-width="1.5"/>
<line x1="528.0" y1="197.8" x2="529.7" y2="196.7" stroke="#508ce0" stroke-width="1.5"/>
<line x1="529.7" y1="196.7" x2="531.5" y2="196.1" stroke="#508ce0" stroke-width="1.5"/>
<line x1="531.5" y1="196.1" x2="533.4" y2="195.9" stroke="#508ce0" stroke-width="1.5"/>
<line x1="533.4" y1="195.9" x2="576.8" y2="195.9" stroke="#508ce0" stroke-width="1.5"/>
<line x1="576.8" y1="195.9" x2="524.8" y2="395.4" stroke="#508ce0" stroke-width="1.5"/>
<line x1="524.8" y1="395.4" x2="524.8" y2="204.5" stroke="#508ce0" stroke-width="1.5"/>
<line x1="524.8" y1="204.5" x2="525.0" y2="202.6" stroke="#508ce0" stroke-width="1.5"/>
<line x1="525.0" y1="202.6" x2="525.6" y2="200.8" stroke="#508ce0" stroke-width="1.5"/>
<line x1="525.6" y1="200.8" x2="526.1" y2="199.9" stroke="#508ce0" stroke-width="1.5"/>
<circle cx="533.8" cy="395.3" r="9.0" fill="none" stroke="#508ce0" stroke-width="1" stroke-dasharray="3,2"/>
<line x1="524.8" y1="395.4" x2="704.2" y2="679.6" stroke="#508ce0" stroke-width="1.5"/>
<line x1="704.2" y1="679.6" x2="566.4" y2="404.1" stroke="#508ce0" stroke-width="1.5"/>
<line x1="566.4" y1="404.1" x2="533.4" y2="404.1" stroke="#508ce0" stroke-width="1.5"/>
<line x1="533.4" y1="404.1" x2="532.0" y2="404.0" stroke="#508ce0" stroke-width="1.5"/>
<circle cx="533.5" cy="395.4" r="8.7" fill="none" stroke="#508ce0" stroke-width="1" stroke-dasharray="3,2"/>
</g>
<text x="421" y="802" fill="#786432" font-family="monospace" font-size="9">Range: 115.3 x 234.9 mm</text>
<rect x="786" y="70" width="365" height="740" fill="none" stroke="#1e1e23" stroke-width="1"/>
<text x="794" y="86" fill="#dcdcdc" font-family="monospace" font-size="11">Plane +Z (10 profiles)</text>
<defs><clipPath id="clip-2-nist_stc_06_asme1_ap242-e3"><rect x="787" y="71" width="363" height="738"/></clipPath></defs>
<g clip-path="url(#clip-2-nist_stc_06_asme1_ap242-e3)">
<line x1="811.0" y1="70" x2="811.0" y2="810" stroke="#1e1e23" stroke-width="0.5"/>
<line x1="823.7" y1="70" x2="823.7" y2="810" stroke="#1e1e23" stroke-width="0.5"/>
<line x1="836.4" y1="70" x2="836.4" y2="810" stroke="#1e1e23" stroke-width="0.5"/>
<line x1="849.2" y1="70" x2="849.2" y2="810" stroke="#1e1e23" stroke-width="0.5"/>
<line x1="861.9" y1="70" x2="861.9" y2="810" stroke="#1e1e23" stroke-width="0.5"/>
<line x1="874.6" y1="70" x2="874.6" y2="810" stroke="#1e1e23" stroke-width="0.5"/>
<line x1="887.3" y1="70" x2="887.3" y2="810" stroke="#1e1e23" stroke-width="0.5"/>
<line x1="900.0" y1="70" x2="900.0" y2="810" stroke="#1e1e23" stroke-width="0.5"/>
<line x1="912.8" y1="70" x2="912.8" y2="810" stroke="#1e1e23" stroke-width="0.5"/>
<line x1="925.5" y1="70" x2="925.5" y2="810" stroke="#1e1e23" stroke-width="0.5"/>
<line x1="938.2" y1="70" x2="938.2" y2="810" stroke="#1e1e23" stroke-width="0.5"/>
<line x1="950.9" y1="70" x2="950.9" y2="810" stroke="#1e1e23" stroke-width="0.5"/>
<line x1="963.6" y1="70" x2="963.6" y2="810" stroke="#1e1e23" stroke-width="0.5"/>
<line x1="976.4" y1="70" x2="976.4" y2="810" stroke="#1e1e23" stroke-width="0.5"/>
<line x1="989.1" y1="70" x2="989.1" y2="810" stroke="#1e1e23" stroke-width="0.5"/>
<line x1="1001.8" y1="70" x2="1001.8" y2="810" stroke="#1e1e23" stroke-width="0.5"/>
<line x1="1014.5" y1="70" x2="1014.5" y2="810" stroke="#1e1e23" stroke-width="0.5"/>
<line x1="1027.2" y1="70" x2="1027.2" y2="810" stroke="#1e1e23" stroke-width="0.5"/>
<line x1="1040.0" y1="70" x2="1040.0" y2="810" stroke="#1e1e23" stroke-width="0.5"/>
<line x1="1052.7" y1="70" x2="1052.7" y2="810" stroke="#1e1e23" stroke-width="0.5"/>
<line x1="1065.4" y1="70" x2="1065.4" y2="810" stroke="#1e1e23" stroke-width="0.5"/>
<line x1="1078.1" y1="70" x2="1078.1" y2="810" stroke="#1e1e23" stroke-width="0.5"/>
<line x1="1090.8" y1="70" x2="1090.8" y2="810" stroke="#1e1e23" stroke-width="0.5"/>
<line x1="1103.5" y1="70" x2="1103.5" y2="810" stroke="#1e1e23" stroke-width="0.5"/>
<line x1="1116.3" y1="70" x2="1116.3" y2="810" stroke="#1e1e23" stroke-width="0.5"/>
<line x1="1129.0" y1="70" x2="1129.0" y2="810" stroke="#1e1e23" stroke-width="0.5"/>
<line x1="786" y1="651.0" x2="1159" y2="651.0" stroke="#1e1e23" stroke-width="0.5"/>
<line x1="786" y1="638.3" x2="1159" y2="638.3" stroke="#1e1e23" stroke-width="0.5"/>
<line x1="786" y1="625.6" x2="1159" y2="625.6" stroke="#1e1e23" stroke-width="0.5"/>
<line x1="786" y1="612.9" x2="1159" y2="612.9" stroke="#1e1e23" stroke-width="0.5"/>
<line x1="786" y1="600.1" x2="1159" y2="600.1" stroke="#1e1e23" stroke-width="0.5"/>
<line x1="786" y1="587.4" x2="1159" y2="587.4" stroke="#1e1e23" stroke-width="0.5"/>
<line x1="786" y1="574.7" x2="1159" y2="574.7" stroke="#1e1e23" stroke-width="0.5"/>
<line x1="786" y1="562.0" x2="1159" y2="562.0" stroke="#1e1e23" stroke-width="0.5"/>
<line x1="786" y1="549.3" x2="1159" y2="549.3" stroke="#1e1e23" stroke-width="0.5"/>
<line x1="786" y1="536.5" x2="1159" y2="536.5" stroke="#1e1e23" stroke-width="0.5"/>
<line x1="786" y1="523.8" x2="1159" y2="523.8" stroke="#1e1e23" stroke-width="0.5"/>
<line x1="786" y1="511.1" x2="1159" y2="511.1" stroke="#1e1e23" stroke-width="0.5"/>
<line x1="786" y1="498.4" x2="1159" y2="498.4" stroke="#1e1e23" stroke-width="0.5"/>
<line x1="786" y1="485.7" x2="1159" y2="485.7" stroke="#1e1e23" stroke-width="0.5"/>
<line x1="786" y1="472.9" x2="1159" y2="472.9" stroke="#1e1e23" stroke-width="0.5"/>
<line x1="786" y1="460.2" x2="1159" y2="460.2" stroke="#1e1e23" stroke-width="0.5"/>
<line x1="786" y1="447.5" x2="1159" y2="447.5" stroke="#1e1e23" stroke-width="0.5"/>
<line x1="786" y1="434.8" x2="1159" y2="434.8" stroke="#1e1e23" stroke-width="0.5"/>
<line x1="786" y1="422.1" x2="1159" y2="422.1" stroke="#1e1e23" stroke-width="0.5"/>
<line x1="786" y1="409.3" x2="1159" y2="409.3" stroke="#1e1e23" stroke-width="0.5"/>
<line x1="786" y1="396.6" x2="1159" y2="396.6" stroke="#1e1e23" stroke-width="0.5"/>
<line x1="786" y1="383.9" x2="1159" y2="383.9" stroke="#1e1e23" stroke-width="0.5"/>
<line x1="786" y1="371.2" x2="1159" y2="371.2" stroke="#1e1e23" stroke-width="0.5"/>
<line x1="786" y1="358.5" x2="1159" y2="358.5" stroke="#1e1e23" stroke-width="0.5"/>
<line x1="786" y1="345.7" x2="1159" y2="345.7" stroke="#1e1e23" stroke-width="0.5"/>
<line x1="786" y1="333.0" x2="1159" y2="333.0" stroke="#1e1e23" stroke-width="0.5"/>
<line x1="786" y1="320.3" x2="1159" y2="320.3" stroke="#1e1e23" stroke-width="0.5"/>
<line x1="786" y1="307.6" x2="1159" y2="307.6" stroke="#1e1e23" stroke-width="0.5"/>
<line x1="786" y1="294.9" x2="1159" y2="294.9" stroke="#1e1e23" stroke-width="0.5"/>
<line x1="786" y1="282.1" x2="1159" y2="282.1" stroke="#1e1e23" stroke-width="0.5"/>
<line x1="786" y1="269.4" x2="1159" y2="269.4" stroke="#1e1e23" stroke-width="0.5"/>
<line x1="786" y1="256.7" x2="1159" y2="256.7" stroke="#1e1e23" stroke-width="0.5"/>
<line x1="786" y1="244.0" x2="1159" y2="244.0" stroke="#1e1e23" stroke-width="0.5"/>
<circle cx="855.4" cy="467.7" r="4.0" fill="none" stroke="#c9a84c" stroke-width="1" stroke-dasharray="3,2"/>
<line x1="855.4" y1="463.7" x2="975.8" y2="463.7" stroke="#c9a84c" stroke-width="1.5"/>
<line x1="975.8" y1="463.7" x2="975.8" y2="431.3" stroke="#c9a84c" stroke-width="1.5"/>
<line x1="975.8" y1="431.3" x2="855.4" y2="431.3" stroke="#c9a84c" stroke-width="1.5"/>
<circle cx="855.4" cy="427.3" r="4.1" fill="none" stroke="#c9a84c" stroke-width="1" stroke-dasharray="3,2"/>
<circle cx="855.4" cy="427.3" r="4.0" fill="none" stroke="#c9a84c" stroke-width="1" stroke-dasharray="3,2"/>
<line x1="851.4" y1="427.3" x2="851.4" y2="253.7" stroke="#c9a84c" stroke-width="1.5"/>
<line x1="851.4" y1="253.7" x2="811.0" y2="253.7" stroke="#c9a84c" stroke-width="1.5"/>
<line x1="811.0" y1="253.7" x2="811.0" y2="641.3" stroke="#c9a84c" stroke-width="1.5"/>
<line x1="811.0" y1="641.3" x2="851.4" y2="641.3" stroke="#c9a84c" stroke-width="1.5"/>
<line x1="851.4" y1="641.3" x2="851.4" y2="467.2" stroke="#c9a84c" stroke-width="1.5"/>
<line x1="1126.0" y1="591.6" x2="1115.9" y2="591.6" stroke="#508ce0" stroke-width="1.5"/>
<line x1="1115.9" y1="591.6" x2="1115.9" y2="589.4" stroke="#508ce0" stroke-width="1.5"/>
<line x1="1115.9" y1="589.4" x2="1077.5" y2="589.4" stroke="#508ce0" stroke-width="1.5"/>
<line x1="1077.5" y1="589.4" x2="1077.5" y2="641.3" stroke="#508ce0" stroke-width="1.5"/>
<line x1="1077.5" y1="641.3" x2="1109.8" y2="641.3" stroke="#508ce0" stroke-width="1.5"/>
<line x1="1109.8" y1="641.3" x2="1109.8" y2="613.7" stroke="#508ce0" stroke-width="1.5"/>
<line x1="1109.8" y1="613.7" x2="1112.0" y2="613.8" stroke="#508ce0" stroke-width="1.5"/>
<line x1="1112.0" y1="613.8" x2="1126.0" y2="613.6" stroke="#508ce0" stroke-width="1.5"/>
<line x1="1126.0" y1="613.6" x2="1126.0" y2="591.8" stroke="#508ce0" stroke-width="1.5"/>
<line x1="1126.0" y1="499.5" x2="1115.9" y2="499.5" stroke="#508ce0" stroke-width="1.5"/>
<line x1="1115.9" y1="499.5" x2="1115.9" y2="497.4" stroke="#508ce0" stroke-width="1.5"/>
<line x1="1115.9" y1="497.4" x2="1077.5" y2="497.4" stroke="#508ce0" stroke-width="1.5"/>
<line x1="1077.5" y1="497.4" x2="1077.5" y2="581.8" stroke="#508ce0" stroke-width="1.5"/>
<line x1="1077.5" y1="581.8" x2="1115.9" y2="581.8" stroke="#508ce0" stroke-width="1.5"/>
<line x1="1115.9" y1="581.8" x2="1115.9" y2="579.6" stroke="#508ce0" stroke-width="1.5"/>
<line x1="1115.9" y1="579.6" x2="1126.0" y2="579.6" stroke="#508ce0" stroke-width="1.5"/>
<line x1="1126.0" y1="579.6" x2="1126.0" y2="557.6" stroke="#508ce0" stroke-width="1.5"/>
<line x1="1126.0" y1="557.6" x2="1111.4" y2="557.5" stroke="#508ce0" stroke-width="1.5"/>
<line x1="1111.4" y1="557.5" x2="1109.8" y2="557.5" stroke="#508ce0" stroke-width="1.5"/>
<line x1="1109.8" y1="557.5" x2="1109.8" y2="521.7" stroke="#508ce0" stroke-width="1.5"/>
<line x1="1109.8" y1="521.7" x2="1112.0" y2="521.7" stroke="#508ce0" stroke-width="1.5"/>
<line x1="1112.0" y1="521.7" x2="1126.0" y2="521.6" stroke="#508ce0" stroke-width="1.5"/>
<line x1="1126.0" y1="521.6" x2="1126.0" y2="499.8" stroke="#508ce0" stroke-width="1.5"/>
<line x1="1126.0" y1="407.4" x2="1115.9" y2="407.4" stroke="#508ce0" stroke-width="1.5"/>
<line x1="1115.9" y1="407.4" x2="1115.9" y2="405.3" stroke="#508ce0" stroke-width="1.5"/>
<line x1="1115.9" y1="405.3" x2="1077.5" y2="405.3" stroke="#508ce0" stroke-width="1.5"/>
<line x1="1077.5" y1="405.3" x2="1077.5" y2="489.7" stroke="#508ce0" stroke-width="1.5"/>
<line x1="1077.5" y1="489.7" x2="1115.9" y2="489.7" stroke="#508ce0" stroke-width="1.5"/>
<line x1="1115.9" y1="489.7" x2="1115.9" y2="487.6" stroke="#508ce0" stroke-width="1.5"/>
<line x1="1115.9" y1="487.6" x2="1126.0" y2="487.6" stroke="#508ce0" stroke-width="1.5"/>
<line x1="1126.0" y1="487.6" x2="1126.0" y2="465.5" stroke="#508ce0" stroke-width="1.5"/>
<line x1="1126.0" y1="465.5" x2="1111.4" y2="465.4" stroke="#508ce0" stroke-width="1.5"/>
<line x1="1111.4" y1="465.4" x2="1109.8" y2="465.4" stroke="#508ce0" stroke-width="1.5"/>
<line x1="1109.8" y1="465.4" x2="1109.8" y2="429.6" stroke="#508ce0" stroke-width="1.5"/>
<line x1="1109.8" y1="429.6" x2="1112.0" y2="429.6" stroke="#508ce0" stroke-width="1.5"/>
<line x1="1112.0" y1="429.6" x2="1126.0" y2="429.5" stroke="#508ce0" stroke-width="1.5"/>
<line x1="1126.0" y1="429.5" x2="1126.0" y2="407.7" stroke="#508ce0" stroke-width="1.5"/>
<line x1="1126.0" y1="315.4" x2="1115.9" y2="315.4" stroke="#508ce0" stroke-width="1.5"/>
<line x1="1115.9" y1="315.4" x2="1115.9" y2="313.2" stroke="#508ce0" stroke-width="1.5"/>
<line x1="1115.9" y1="313.2" x2="1077.5" y2="313.2" stroke="#508ce0" stroke-width="1.5"/>
<line x1="1077.5" y1="313.2" x2="1077.5" y2="397.6" stroke="#508ce0" stroke-width="1.5"/>
<line x1="1077.5" y1="397.6" x2="1115.9" y2="397.6" stroke="#508ce0" stroke-width="1.5"/>
<line x1="1115.9" y1="397.6" x2="1115.9" y2="395.5" stroke="#508ce0" stroke-width="1.5"/>
<line x1="1115.9" y1="395.5" x2="1126.0" y2="395.5" stroke="#508ce0" stroke-width="1.5"/>
<line x1="1126.0" y1="395.5" x2="1126.0" y2="373.4" stroke="#508ce0" stroke-width="1.5"/>
<line x1="1126.0" y1="373.4" x2="1111.4" y2="373.3" stroke="#508ce0" stroke-width="1.5"/>
<line x1="1111.4" y1="373.3" x2="1109.8" y2="373.3" stroke="#508ce0" stroke-width="1.5"/>
<line x1="1109.8" y1="373.3" x2="1109.8" y2="337.5" stroke="#508ce0" stroke-width="1.5"/>
<line x1="1109.8" y1="337.5" x2="1112.0" y2="337.5" stroke="#508ce0" stroke-width="1.5"/>
<line x1="1112.0" y1="337.5" x2="1126.0" y2="337.4" stroke="#508ce0" stroke-width="1.5"/>
<line x1="1126.0" y1="337.4" x2="1126.0" y2="315.6" stroke="#508ce0" stroke-width="1.5"/>
<line x1="1115.9" y1="303.4" x2="1126.0" y2="303.4" stroke="#508ce0" stroke-width="1.5"/>
<line x1="1126.0" y1="303.4" x2="1126.0" y2="281.4" stroke="#508ce0" stroke-width="1.5"/>
<line x1="1126.0" y1="281.4" x2="1111.4" y2="281.2" stroke="#508ce0" stroke-width="1.5"/>
<line x1="1111.4" y1="281.2" x2="1109.8" y2="281.3" stroke="#508ce0" stroke-width="1.5"/>
<line x1="1109.8" y1="281.3" x2="1109.8" y2="253.7" stroke="#508ce0" stroke-width="1.5"/>
<line x1="1109.8" y1="253.7" x2="1077.5" y2="253.7" stroke="#508ce0" stroke-width="1.5"/>
<line x1="1077.5" y1="253.7" x2="1077.5" y2="305.6" stroke="#508ce0" stroke-width="1.5"/>
<line x1="1077.5" y1="305.6" x2="1115.9" y2="305.6" stroke="#508ce0" stroke-width="1.5"/>
<line x1="1115.9" y1="305.6" x2="1115.9" y2="304.4" stroke="#508ce0" stroke-width="1.5"/>
<circle cx="1012.9" cy="544.4" r="19.7" fill="none" stroke="#508ce0" stroke-width="1.5"/>
<text x="1036.7" y="548.4" fill="#508ce0" font-family="monospace" font-size="8">ø31.02</text>
<circle cx="948.3" cy="302.1" r="14.5" fill="none" stroke="#508ce0" stroke-width="1.5"/>
<text x="966.8" y="306.1" fill="#508ce0" font-family="monospace" font-size="8">ø22.82</text>
<circle cx="1012.9" cy="350.6" r="19.7" fill="none" stroke="#508ce0" stroke-width="1.5"/>
<text x="1036.7" y="354.6" fill="#508ce0" font-family="monospace" font-size="8">ø31.02</text>
<circle cx="948.3" cy="592.9" r="14.5" fill="none" stroke="#508ce0" stroke-width="1.5"/>
<text x="966.8" y="596.9" fill="#508ce0" font-family="monospace" font-size="8">ø22.82</text>
</g>
<text x="794" y="802" fill="#786432" font-family="monospace" font-size="9">Range: 247.6 x 304.8 mm</text>
<text x="40" y="880" fill="#c9a84c" font-family="monospace" font-size="9">Features (11): →× Linear Pattern ×3 (▭ Pocket 38.1×66.4) | ⊙⊂ Keyhole R3.2 | △ Polygon Pocket (10 sides) | ▭ Fillet Pocket 65.6×104.0 R3.2 | ▭ Fillet Boss 129.5×304.8 R3.2 | ▭ Pocket 38.1×40.8 | ▭ Pocket 38.1×40.8 | ⊙ Hole ø31.02</text>
</svg>