<svg xmlns="http://www.w3.org/2000/svg" width="1200" height="900" viewBox="0 0 1200 900">
<rect width="1200" height="900" fill="#08090d"/>
<text x="40" y="30" fill="#c9a84c" font-family="monospace" font-size="16" font-weight="bold">nist_ctc_05_asme1_ap242-e1.stp  [REVOLUTION]</text>
<text x="40" y="50" fill="#786432" font-family="monospace" font-size="11">BBox: 527.0 x 558.3 x 482.6 mm   Diag: 906.9mm</text>
<rect x="40" y="70" width="365" height="740" fill="none" stroke="#1e1e23" stroke-width="1"/>
<text x="48" y="86" fill="#dcdcdc" font-family="monospace" font-size="11">Plane ⊥Z t1/25 (12 profiles)</text>
<defs><clipPath id="clip-0-nist_ctc_05_asme1_ap242-e1"><rect x="41" y="71" width="363" height="738"/></clipPath></defs>
<g clip-path="url(#clip-0-nist_ctc_05_asme1_ap242-e1)">
<line x1="64.3" y1="70" x2="64.3" y2="810" stroke="#1e1e23" stroke-width="0.5"/>
<line x1="70.0" y1="70" x2="70.0" y2="810" stroke="#1e1e23" stroke-width="0.5"/>
<line x1="75.6" y1="70" x2="75.6" y2="810" stroke="#1e1e23" stroke-width="0.5"/>
<line x1="81.3" y1="70" x2="81.3" y2="810" stroke="#1e1e23" stroke-width="0.5"/>
<line x1="86.9" y1="70" x2="86.9" y2="810" stroke="#1e1e23" stroke-width="0.5"/>
<line x1="92.6" y1="70" x2="92.6" y2="810" stroke="#1e1e23" stroke-width="0.5"/>
<line x1="98.2" y1="70" x2="98.2" y2="810" stroke="#1e1e23" stroke-width="0.5"/>
<line x1="103.9" y1="70" x2="103.9" y2="810" stroke="#1e1e23" stroke-width="0.5"/>
<line x1="109.5" y1="70" x2="109.5" y2="810" stroke="#1e1e23" stroke-width="0.5"/>
<line x1="115.2" y1="70" x2="115.2" y2="810" stroke="#1e1e23" stroke-width="0.5"/>
<line x1="120.8" y1="70" x2="120.8" y2="810" stroke="#1e1e23" stroke-width="0.5"/>
<line x1="126.5" y1="70" x2="126.5" y2="810" stroke="#1e1e23" stroke-width="0.5"/>
<line x1="132.1" y1="70" x2="132.1" y2="810" stroke="#1e1e23" stroke-width="0.5"/>
<line x1="137.8" y1="70" x2="137.8" y2="810" stroke="#1e1e23" stroke-width="0.5"/>
<line x1="143.4" y1="70" x2="143.4" y2="810" stroke="#1e1e23" stroke-width="0.5"/>
<line x1="149.1" y1="70" x2="149.1" y2="810" stroke="#1e1e23" stroke-width="0.5"/>
<line x1="154.7" y1="70" x2="154.7" y2="810" stroke="#1e1e23" stroke-width="0.5"/>
<line x1="160.4" y1="70" x2="160.4" y2="810" stroke="#1e1e23" stroke-width="0.5"/>
<line x1="166.0" y1="70" x2="166.0" y2="810" stroke="#1e1e23" stroke-width="0.5"/>
<line x1="171.7" y1="70" x2="171.7" y2="810" stroke="#1e1e23" stroke-width="0.5"/>
<line x1="177.3" y1="70" x2="177.3" y2="810" stroke="#1e1e23" stroke-width="0.5"/>
<line x1="183.0" y1="70" x2="183.0" y2="810" stroke="#1e1e23" stroke-width="0.5"/>
<line x1="188.6" y1="70" x2="188.6" y2="810" stroke="#1e1e23" stroke-width="0.5"/>
<line x1="194.3" y1="70" x2="194.3" y2="810" stroke="#1e1e23" stroke-width="0.5"/>
<line x1="199.9" y1="70" x2="199.9" y2="810" stroke="#1e1e23" stroke-width="0.5"/>
<line x1="205.6" y1="70" x2="205.6" y2="810" stroke="#1e1e23" stroke-width="0.5"/>
<line x1="211.2" y1="70" x2="211.2" y2="810" stroke="#1e1e23" stroke-width="0.5"/>
<line x1="216.9" y1="70" x2="216.9" y2="810" stroke="#1e1e23" stroke-width="0.5"/>
<line x1="222.5" y1="70" x2="222.5" y2="810" stroke="#1e1e23" stroke-width="0.5"/>
<line x1="228.1" y1="70" x2="228.1" y2="810" stroke="#1e1e23" stroke-width="0.5"/>
<line x1="233.8" y1="70" x2="233.8" y2="810" stroke="#1e1e23" stroke-width="0.5"/>
<line x1="239.4" y1="70" x2="239.4" y2="810" stroke="#1e1e23" stroke-width="0.5"/>
<line x1="245.1" y1="70" x2="245.1" y2="810" stroke="#1e1e23" stroke-width="0.5"/>
<line x1="250.7" y1="70" x2="250.7" y2="810" stroke="#1e1e23" stroke-width="0.5"/>
<line x1="256.4" y1="70" x2="256.4" y2="810" stroke="#1e1e23" stroke-width="0.5"/>
<line x1="262.0" y1="70" x2="262.0" y2="810" stroke="#1e1e23" stroke-width="0.5"/>
<line x1="267.7" y1="70" x2="267.7" y2="810" stroke="#1e1e23" stroke-width="0.5"/>
<line x1="273.3" y1="70" x2="273.3" y2="810" stroke="#1e1e23" stroke-width="0.5"/>
<line x1="279.0" y1="70" x2="279.0" y2="810" stroke="#1e1e23" stroke-width="0.5"/>
<line x1="284.6" y1="70" x2="284.6" y2="810" stroke="#1e1e23" stroke-width="0.5"/>
<line x1="290.3" y1="70" x2="290.3" y2="810" stroke="#1e1e23" stroke-width="0.5"/>
<line x1="295.9" y1="70" x2="295.9" y2="810" stroke="#1e1e23" stroke-width="0.5"/>
<line x1="301.6" y1="70" x2="301.6" y2="810" stroke="#1e1e23" stroke-width="0.5"/>
<line x1="307.2" y1="70" x2="307.2" y2="810" stroke="#1e1e23" stroke-width="0.5"/>
<line x1="312.9" y1="70" x2="312.9" y2="810" stroke="#1e1e23" stroke-width="0.5"/>
<line x1="318.5" y1="70" x2="318.5" y2="810" stroke="#1e1e23" stroke-width="0.5"/>
<line x1="324.2" y1="70" x2="324.2" y2="810" stroke="#1e1e23" stroke-width="0.5"/>
<line x1="329.8" y1="70" x2="329.8" y2="810" stroke="#1e1e23" stroke-width="0.5"/>
<line x1="335.5" y1="70" x2="335.5" y2="810" stroke="#1e1e23" stroke-width="0.5"/>
<line x1="341.1" y1="70" x2="341.1" y2="810" stroke="#1e1e23" stroke-width="0.5"/>
<line x1="346.8" y1="70" x2="346.8" y2="810" stroke="#1e1e23" stroke-width="0.5"/>
<line x1="352.4" y1="70" x2="352.4" y2="810" stroke="#1e1e23" stroke-width="0.5"/>
<line x1="358.1" y1="70" x2="358.1" y2="810" stroke="#1e1e23" stroke-width="0.5"/>
<line x1="363.7" y1="70" x2="363.7" y2="810" stroke="#1e1e23" stroke-width="0.5"/>
<line x1="369.4" y1="70" x2="369.4" y2="810" stroke="#1e1e23" stroke-width="0.5"/>
<line x1="375.0" y1="70" x2="375.0" y2="810" stroke="#1e1e23" stroke-width="0.5"/>
<line x1="380.7" y1="70" x2="380.7" y2="810" stroke="#1e1e23" stroke-width="0.5"/>
<line x1="40" y1="605.7" x2="413" y2="605.7" stroke="#1e1e23" stroke-width="0.5"/>
<line x1="40" y1="600.0" x2="413" y2="600.0" stroke="#1e1e23" stroke-width="0.5"/>
<line x1="40" y1="594.4" x2="413" y2="594.4" stroke="#1e1e23" stroke-width="0.5"/>
<line x1="40" y1="588.7" x2="413" y2="588.7" stroke="#1e1e23" stroke-width="0.5"/>
<line x1="40" y1="583.1" x2="413" y2="583.1" stroke="#1e1e23" stroke-width="0.5"/>
<line x1="40" y1="577.4" x2="413" y2="577.4" stroke="#1e1e23" stroke-width="0.5"/>
<line x1="40" y1="571.8" x2="413" y2="571.8" stroke="#1e1e23" stroke-width="0.5"/>
<line x1="40" y1="566.1" x2="413" y2="566.1" stroke="#1e1e23" stroke-width="0.5"/>
<line x1="40" y1="560.5" x2="413" y2="560.5" stroke="#1e1e23" stroke-width="0.5"/>
<line x1="40" y1="554.8" x2="413" y2="554.8" stroke="#1e1e23" stroke-width="0.5"/>
<line x1="40" y1="549.2" x2="413" y2="549.2" stroke="#1e1e23" stroke-width="0.5"/>
<line x1="40" y1="543.5" x2="413" y2="543.5" stroke="#1e1e23" stroke-width="0.5"/>
<line x1="40" y1="537.9" x2="413" y2="537.9" stroke="#1e1e23" stroke-width="0.5"/>
<line x1="40" y1="532.2" x2="413" y2="532.2" stroke="#1e1e23" stroke-width="0.5"/>
<line x1="40" y1="526.6" x2="413" y2="526.6" stroke="#1e1e23" stroke-width="0.5"/>
<line x1="40" y1="520.9" x2="413" y2="520.9" stroke="#1e1e23" stroke-width="0.5"/>
<line x1="40" y1="515.3" x2="413" y2="515.3" stroke="#1e1e23" stroke-width="0.5"/>
<line x1="40" y1="509.6" x2="413" y2="509.6" stroke="#1e1e23" stroke-width="0.5"/>
<line x1="40" y1="504.0" x2="413" y2="504.0" stroke="#1e1e23" stroke-width="0.5"/>
<line x1="40" y1="498.3" x2="413" y2="498.3" stroke="#1e1e23" stroke-width="0.5"/>
<line x1="40" y1="492.7" x2="413" y2="492.7" stroke="#1e1e23" stroke-width="0.5"/>
<line x1="40" y1="487.0" x2="413" y2="487.0" stroke="#1e1e23" stroke-width="0.5"/>
<line x1="40" y1="481.4" x2="413" y2="481.4" stroke="#1e1e23" stroke-width="0.5"/>
<line x1="40" y1="475.7" x2="413" y2="475.7" stroke="#1e1e23" stroke-width="0.5"/>
<line x1="40" y1="470.1" x2="413" y2="470.1" stroke="#1e1e23" stroke-width="0.5"/>
<line x1="40" y1="464.4" x2="413" y2="464.4" stroke="#1e1e23" stroke-width="0.5"/>
<line x1="40" y1="458.8" x2="413" y2="458.8" stroke="#1e1e23" stroke-width="0.5"/>
<line x1="40" y1="453.1" x2="413" y2="453.1" stroke="#1e1e23" stroke-width="0.5"/>
<line x1="40" y1="447.5" x2="413" y2="447.5" stroke="#1e1e23" stroke-width="0.5"/>
<line x1="40" y1="441.9" x2="413" y2="441.9" stroke="#1e1e23" stroke-width="0.5"/>
<line x1="40" y1="436.2" x2="413" y2="436.2" stroke="#1e1e23" stroke-width="0.5"/>
<line x1="40" y1="430.6" x2="413" y2="430.6" stroke="#1e1e23" stroke-width="0.5"/>
<line x1="40" y1="424.9" x2="413" y2="424.9" stroke="#1e1e23" stroke-width="0.5"/>
<line x1="40" y1="419.3" x2="413" y2="419.3" stroke="#1e1e23" stroke-width="0.5"/>
<line x1="40" y1="413.6" x2="413" y2="413.6" stroke="#1e1e23" stroke-width="0.5"/>
<line x1="40" y1="408.0" x2="413" y2="408.0" stroke="#1e1e23" stroke-width="0.5"/>
<line x1="40" y1="402.3" x2="413" y2="402.3" stroke="#1e1e23" stroke-width="0.5"/>
<line x1="40" y1="396.7" x2="413" y2="396.7" stroke="#1e1e23" stroke-width="0.5"/>
<line x1="40" y1="391.0" x2="413" y2="391.0" stroke="#1e1e23" stroke-width="0.5"/>
<line x1="40" y1="385.4" x2="413" y2="385.4" stroke="#1e1e23" stroke-width="0.5"/>
<line x1="40" y1="379.7" x2="413" y2="379.7" stroke="#1e1e23" stroke-width="0.5"/>
<line x1="40" y1="374.1" x2="413" y2="374.1" stroke="#1e1e23" stroke-width="0.5"/>
<line x1="40" y1="368.4" x2="413" y2="368.4" stroke="#1e1e23" stroke-width="0.5"/>
<line x1="40" y1="362.8" x2="413" y2="362.8" stroke="#1e1e23" stroke-width="0.5"/>
<line x1="40" y1="357.1" x2="413" y2="357.1" stroke="#1e1e23" stroke-width="0.5"/>
<line x1="40" y1="351.5" x2="413" y2="351.5" stroke="#1e1e23" stroke-width="0.5"/>
<line x1="40" y1="345.8" x2="413" y2="345.8" stroke="#1e1e23" stroke-width="0.5"/>
<line x1="40" y1="340.2" x2="413" y2="340.2" stroke="#1e1e23" stroke-width="0.5"/>
<line x1="40" y1="334.5" x2="413" y2="334.5" stroke="#1e1e23" stroke-width="0.5"/>
<line x1="40" y1="328.9" x2="413" y2="328.9" stroke="#1e1e23" stroke-width="0.5"/>
<line x1="40" y1="323.2" x2="413" y2="323.2" stroke="#1e1e23" stroke-width="0.5"/>
<line x1="40" y1="317.6" x2="413" y2="317.6" stroke="#1e1e23" stroke-width="0.5"/>
<line x1="40" y1="311.9" x2="413" y2="311.9" stroke="#1e1e23" stroke-width="0.5"/>
<line x1="40" y1="306.3" x2="413" y2="306.3" stroke="#1e1e23" stroke-width="0.5"/>
<line x1="40" y1="300.6" x2="413" y2="300.6" stroke="#1e1e23" stroke-width="0.5"/>
<line x1="40" y1="295.0" x2="413" y2="295.0" stroke="#1e1e23" stroke-width="0.5"/>
<line x1="40" y1="289.3" x2="413" y2="289.3" stroke="#1e1e23" stroke-width="0.5"/>
<circle cx="222.5" cy="447.5" r="157.5" fill="none" stroke="#c9a84c" stroke-width="1.5"/>
<text x="384.0" y="451.5" fill="#c9a84c" font-family="monospace" font-size="8">ø557.62</text>
<circle cx="222.5" cy="447.5" r="71.7" fill="none" stroke="#508ce0" stroke-width="1.5"/>
<text x="298.2" y="451.5" fill="#508ce0" font-family="monospace" font-size="8">ø254.00</text>
<circle cx="113.8" cy="510.3" r="5.4" fill="none" stroke="#508ce0" stroke-width="1.5"/>
<text x="123.1" y="514.3" fill="#508ce0" font-family="monospace" font-size="8">ø19.00</text>
<circle cx="113.8" cy="384.7" r="5.4" fill="none" stroke="#508ce0" stroke-width="1.5"/>
<text x="123.1" y="388.7" fill="#508ce0" font-family="monospace" font-size="8">ø19.00</text>
<circle cx="159.7" cy="556.2" r="5.4" fill="none" stroke="#508ce0" stroke-width="1.5"/>
<text x="169.1" y="560.2" fill="#508ce0" font-family="monospace" font-size="8">ø19.00</text>
<circle cx="159.7" cy="338.8" r="5.4" fill="none" stroke="#508ce0" stroke-width="1.5"/>
<text x="169.1" y="342.8" fill="#508ce0" font-family="monospace" font-size="8">ø19.00</text>
<circle cx="222.5" cy="573.0" r="5.4" fill="none" stroke="#508ce0" stroke-width="1.5"/>
<text x="231.9" y="577.0" fill="#508ce0" font-family="monospace" font-size="8">ø19.00</text>
<circle cx="222.5" cy="322.0" r="5.4" fill="none" stroke="#508ce0" stroke-width="1.5"/>
<text x="231.9" y="326.0" fill="#508ce0" font-family="monospace" font-size="8">ø19.00</text>
<circle cx="285.3" cy="338.8" r="5.4" fill="none" stroke="#508ce0" stroke-width="1.5"/>
<text x="294.6" y="342.8" fill="#508ce0" font-family="monospace" font-size="8">ø19.00</text>
<circle cx="285.3" cy="556.2" r="5.4" fill="none" stroke="#508ce0" stroke-width="1.5"/>
<text x="294.6" y="560.2" fill="#508ce0" font-family="monospace" font-size="8">ø19.00</text>
<circle cx="331.2" cy="510.3" r="5.4" fill="none" stroke="#508ce0" stroke-width="1.5"/>
<text x="340.6" y="514.3" fill="#508ce0" font-family="monospace" font-size="8">ø19.00</text>
<circle cx="331.2" cy="384.7" r="5.4" fill="none" stroke="#508ce0" stroke-width="1.5"/>
<text x="340.6" y="388.7" fill="#508ce0" font-family="monospace" font-size="8">ø19.00</text>
</g>
<text x="48" y="802" fill="#786432" font-family="monospace" font-size="9">Range: 557.6 x 557.6 mm</text>
<rect x="413" y="70" width="365" height="740" fill="none" stroke="#1e1e23" stroke-width="1"/>
<text x="421" y="86" fill="#dcdcdc" font-family="monospace" font-size="11">Plane ⊥Z t2/25 (6 profiles)</text>
<defs><clipPath id="clip-1-nist_ctc_05_asme1_ap242-e1"><rect x="414" y="71" width="363" height="738"/></clipPath></defs>
<g clip-path="url(#clip-1-nist_ctc_05_asme1_ap242-e1)">
<line x1="434.1" y1="70" x2="434.1" y2="810" stroke="#1e1e23" stroke-width="0.5"/>
<line x1="440.1" y1="70" x2="440.1" y2="810" stroke="#1e1e23" stroke-width="0.5"/>
<line x1="446.1" y1="70" x2="446.1" y2="810" stroke="#1e1e23" stroke-width="0.5"/>
<line x1="452.1" y1="70" x2="452.1" y2="810" stroke="#1e1e23" stroke-width="0.5"/>
<line x1="458.0" y1="70" x2="458.0" y2="810" stroke="#1e1e23" stroke-width="0.5"/>
<line x1="464.0" y1="70" x2="464.0" y2="810" stroke="#1e1e23" stroke-width="0.5"/>
<line x1="470.0" y1="70" x2="470.0" y2="810" stroke="#1e1e23" stroke-width="0.5"/>
<line x1="476.0" y1="70" x2="476.0" y2="810" stroke="#1e1e23" stroke-width="0.5"/>
<line x1="481.9" y1="70" x2="481.9" y2="810" stroke="#1e1e23" stroke-width="0.5"/>
<line x1="487.9" y1="70" x2="487.9" y2="810" stroke="#1e1e23" stroke-width="0.5"/>
<line x1="493.9" y1="70" x2="493.9" y2="810" stroke="#1e1e23" stroke-width="0.5"/>
<line x1="499.9" y1="70" x2="499.9" y2="810" stroke="#1e1e23" stroke-width="0.5"/>
<line x1="505.9" y1="70" x2="505.9" y2="810" stroke="#1e1e23" stroke-width="0.5"/>
<line x1="511.8" y1="70" x2="511.8" y2="810" stroke="#1e1e23" stroke-width="0.5"/>
<line x1="517.8" y1="70" x2="517.8" y2="810" stroke="#1e1e23" stroke-width="0.5"/>
<line x1="523.8" y1="70" x2="523.8" y2="810" stroke="#1e1e23" stroke-width="0.5"/>
<line x1="529.8" y1="70" x2="529.8" y2="810" stroke="#1e1e23" stroke-width="0.5"/>
<line x1="535.7" y1="70" x2="535.7" y2="810" stroke="#1e1e23" stroke-width="0.5"/>
<line x1="541.7" y1="70" x2="541.7" y2="810" stroke="#1e1e23" stroke-width="0.5"/>
<line x1="547.7" y1="70" x2="547.7" y2="810" stroke="#1e1e23" stroke-width="0.5"/>
<line x1="553.7" y1="70" x2="553.7" y2="810" stroke="#1e1e23" stroke-width="0.5"/>
<line x1="559.6" y1="70" x2="559.6" y2="810" stroke="#1e1e23" stroke-width="0.5"/>
<line x1="565.6" y1="70" x2="565.6" y2="810" stroke="#1e1e23" stroke-width="0.5"/>
<line x1="571.6" y1="70" x2="571.6" y2="810" stroke="#1e1e23" stroke-width="0.5"/>
<line x1="577.6" y1="70" x2="577.6" y2="810" stroke="#1e1e23" stroke-width="0.5"/>
<line x1="583.5" y1="70" x2="583.5" y2="810" stroke="#1e1e23" stroke-width="0.5"/>
<line x1="589.5" y1="70" x2="589.5" y2="810" stroke="#1e1e23" stroke-width="0.5"/>
<line x1="595.5" y1="70" x2="595.5" y2="810" stroke="#1e1e23" stroke-width="0.5"/>
<line x1="601.5" y1="70" x2="601.5" y2="810" stroke="#1e1e23" stroke-width="0.5"/>
<line x1="607.5" y1="70" x2="607.5" y2="810" stroke="#1e1e23" stroke-width="0.5"/>
<line x1="613.4" y1="70" x2="613.4" y2="810" stroke="#1e1e23" stroke-width="0.5"/>
<line x1="619.4" y1="70" x2="619.4" y2="810" stroke="#1e1e23" stroke-width="0.5"/>
<line x1="625.4" y1="70" x2="625.4" y2="810" stroke="#1e1e23" stroke-width="0.5"/>
<line x1="631.4" y1="70" x2="631.4" y2="810" stroke="#1e1e23" stroke-width="0.5"/>
<line x1="637.3" y1="70" x2="637.3" y2="810" stroke="#1e1e23" stroke-width="0.5"/>
<line x1="643.3" y1="70" x2="643.3" y2="810" stroke="#1e1e23" stroke-width="0.5"/>
<line x1="649.3" y1="70" x2="649.3" y2="810" stroke="#1e1e23" stroke-width="0.5"/>
<line x1="655.3" y1="70" x2="655.3" y2="810" stroke="#1e1e23" stroke-width="0.5"/>
<line x1="661.2" y1="70" x2="661.2" y2="810" stroke="#1e1e23" stroke-width="0.5"/>
<line x1="667.2" y1="70" x2="667.2" y2="810" stroke="#1e1e23" stroke-width="0.5"/>
<line x1="673.2" y1="70" x2="673.2" y2="810" stroke="#1e1e23" stroke-width="0.5"/>
<line x1="679.2" y1="70" x2="679.2" y2="810" stroke="#1e1e23" stroke-width="0.5"/>
<line x1="685.1" y1="70" x2="685.1" y2="810" stroke="#1e1e23" stroke-width="0.5"/>
<line x1="691.1" y1="70" x2="691.1" y2="810" stroke="#1e1e23" stroke-width="0.5"/>
<line x1="697.1" y1="70" x2="697.1" y2="810" stroke="#1e1e23" stroke-width="0.5"/>
<line x1="703.1" y1="70" x2="703.1" y2="810" stroke="#1e1e23" stroke-width="0.5"/>
<line x1="709.1" y1="70" x2="709.1" y2="810" stroke="#1e1e23" stroke-width="0.5"/>
<line x1="715.0" y1="70" x2="715.0" y2="810" stroke="#1e1e23" stroke-width="0.5"/>
<line x1="721.0" y1="70" x2="721.0" y2="810" stroke="#1e1e23" stroke-width="0.5"/>
<line x1="727.0" y1="70" x2="727.0" y2="810" stroke="#1e1e23" stroke-width="0.5"/>
<line x1="733.0" y1="70" x2="733.0" y2="810" stroke="#1e1e23" stroke-width="0.5"/>
<line x1="738.9" y1="70" x2="738.9" y2="810" stroke="#1e1e23" stroke-width="0.5"/>
<line x1="744.9" y1="70" x2="744.9" y2="810" stroke="#1e1e23" stroke-width="0.5"/>
<line x1="750.9" y1="70" x2="750.9" y2="810" stroke="#1e1e23" stroke-width="0.5"/>
<line x1="756.9" y1="70" x2="756.9" y2="810" stroke="#1e1e23" stroke-width="0.5"/>
<line x1="413" y1="544.1" x2="786" y2="544.1" stroke="#1e1e23" stroke-width="0.5"/>
<line x1="413" y1="538.1" x2="786" y2="538.1" stroke="#1e1e23" stroke-width="0.5"/>
<line x1="413" y1="532.1" x2="786" y2="532.1" stroke="#1e1e23" stroke-width="0.5"/>
<line x1="413" y1="526.2" x2="786" y2="526.2" stroke="#1e1e23" stroke-width="0.5"/>
<line x1="413" y1="520.2" x2="786" y2="520.2" stroke="#1e1e23" stroke-width="0.5"/>
<line x1="413" y1="514.2" x2="786" y2="514.2" stroke="#1e1e23" stroke-width="0.5"/>
<line x1="413" y1="508.2" x2="786" y2="508.2" stroke="#1e1e23" stroke-width="0.5"/>
<line x1="413" y1="502.3" x2="786" y2="502.3" stroke="#1e1e23" stroke-width="0.5"/>
<line x1="413" y1="496.3" x2="786" y2="496.3" stroke="#1e1e23" stroke-width="0.5"/>
<line x1="413" y1="490.3" x2="786" y2="490.3" stroke="#1e1e23" stroke-width="0.5"/>
<line x1="413" y1="484.3" x2="786" y2="484.3" stroke="#1e1e23" stroke-width="0.5"/>
<line x1="413" y1="478.4" x2="786" y2="478.4" stroke="#1e1e23" stroke-width="0.5"/>
<line x1="413" y1="472.4" x2="786" y2="472.4" stroke="#1e1e23" stroke-width="0.5"/>
<line x1="413" y1="466.4" x2="786" y2="466.4" stroke="#1e1e23" stroke-width="0.5"/>
<line x1="413" y1="460.4" x2="786" y2="460.4" stroke="#1e1e23" stroke-width="0.5"/>
<line x1="413" y1="454.5" x2="786" y2="454.5" stroke="#1e1e23" stroke-width="0.5"/>
<line x1="413" y1="448.5" x2="786" y2="448.5" stroke="#1e1e23" stroke-width="0.5"/>
<line x1="413" y1="442.5" x2="786" y2="442.5" stroke="#1e1e23" stroke-width="0.5"/>
<line x1="413" y1="436.5" x2="786" y2="436.5" stroke="#1e1e23" stroke-width="0.5"/>
<line x1="413" y1="430.5" x2="786" y2="430.5" stroke="#1e1e23" stroke-width="0.5"/>
<line x1="413" y1="424.6" x2="786" y2="424.6" stroke="#1e1e23" stroke-width="0.5"/>
<line x1="413" y1="418.6" x2="786" y2="418.6" stroke="#1e1e23" stroke-width="0.5"/>
<line x1="413" y1="412.6" x2="786" y2="412.6" stroke="#1e1e23" stroke-width="0.5"/>
<line x1="413" y1="406.6" x2="786" y2="406.6" stroke="#1e1e23" stroke-width="0.5"/>
<line x1="413" y1="400.7" x2="786" y2="400.7" stroke="#1e1e23" stroke-width="0.5"/>
<line x1="413" y1="394.7" x2="786" y2="394.7" stroke="#1e1e23" stroke-width="0.5"/>
<line x1="413" y1="388.7" x2="786" y2="388.7" stroke="#1e1e23" stroke-width="0.5"/>
<line x1="413" y1="382.7" x2="786" y2="382.7" stroke="#1e1e23" stroke-width="0.5"/>
<line x1="413" y1="376.8" x2="786" y2="376.8" stroke="#1e1e23" stroke-width="0.5"/>
<line x1="413" y1="370.8" x2="786" y2="370.8" stroke="#1e1e23" stroke-width="0.5"/>
<line x1="413" y1="364.8" x2="786" y2="364.8" stroke="#1e1e23" stroke-width="0.5"/>
<line x1="413" y1="358.8" x2="786" y2="358.8" stroke="#1e1e23" stroke-width="0.5"/>
<line x1="413" y1="352.8" x2="786" y2="352.8" stroke="#1e1e23" stroke-width="0.5"/>
<circle cx="679.0" cy="402.5" r="3.8" fill="none" stroke="#508ce0" stroke-width="1" stroke-dasharray="3,2"/>
<circle cx="594.8" cy="449.0" r="92.3" fill="none" stroke="#508ce0" stroke-width="1" stroke-dasharray="3,2"/>
<circle cx="595.0" cy="449.1" r="92.3" fill="none" stroke="#508ce0" stroke-width="1" stroke-dasharray="3,2"/>
<circle cx="595.5" cy="448.6" r="91.6" fill="none" stroke="#508ce0" stroke-width="1" stroke-dasharray="3,2"/>
<circle cx="595.5" cy="448.6" r="91.6" fill="none" stroke="#508ce0" stroke-width="1" stroke-dasharray="3,2"/>
<circle cx="596.0" cy="449.1" r="92.3" fill="none" stroke="#508ce0" stroke-width="1" stroke-dasharray="3,2"/>
<circle cx="596.1" cy="449.0" r="92.3" fill="none" stroke="#508ce0" stroke-width="1" stroke-dasharray="3,2"/>
<circle cx="512.0" cy="402.5" r="3.8" fill="none" stroke="#508ce0" stroke-width="1.5"/>
<text x="519.8" y="406.5" fill="#508ce0" font-family="monospace" font-size="8">ø12.67</text>
<line x1="513.3" y1="406.1" x2="512.3" y2="406.3" stroke="#508ce0" stroke-width="1.5"/>
<line x1="512.3" y1="406.3" x2="438.0" y2="406.3" stroke="#508ce0" stroke-width="1.5"/>
<line x1="438.0" y1="406.3" x2="438.0" y2="490.6" stroke="#508ce0" stroke-width="1.5"/>
<line x1="438.0" y1="490.6" x2="512.3" y2="490.6" stroke="#508ce0" stroke-width="1.5"/>
<line x1="512.3" y1="490.6" x2="513.3" y2="490.8" stroke="#508ce0" stroke-width="1.5"/>
<circle cx="512.0" cy="494.4" r="3.8" fill="none" stroke="#508ce0" stroke-width="1.5"/>
<text x="519.8" y="498.4" fill="#508ce0" font-family="monospace" font-size="8">ø12.67</text>
<circle cx="596.1" cy="448.0" r="92.3" fill="none" stroke="#508ce0" stroke-width="1" stroke-dasharray="3,2"/>
<circle cx="596.8" cy="447.0" r="93.4" fill="none" stroke="#508ce0" stroke-width="1" stroke-dasharray="3,2"/>
<circle cx="595.5" cy="448.4" r="91.6" fill="none" stroke="#508ce0" stroke-width="1" stroke-dasharray="3,2"/>
<circle cx="595.5" cy="448.3" r="91.6" fill="none" stroke="#508ce0" stroke-width="1" stroke-dasharray="3,2"/>
<circle cx="596.2" cy="449.5" r="90.3" fill="none" stroke="#508ce0" stroke-width="1" stroke-dasharray="3,2"/>
<line x1="656.6" y1="516.5" x2="663.9" y2="509.2" stroke="#508ce0" stroke-width="1.5"/>
<circle cx="594.9" cy="448.0" r="92.3" fill="none" stroke="#508ce0" stroke-width="1" stroke-dasharray="3,2"/>
<circle cx="679.0" cy="494.4" r="3.8" fill="none" stroke="#508ce0" stroke-width="1.5"/>
<text x="686.7" y="498.4" fill="#508ce0" font-family="monospace" font-size="8">ø12.67</text>
<line x1="677.7" y1="490.8" x2="678.7" y2="490.6" stroke="#508ce0" stroke-width="1.5"/>
<line x1="678.7" y1="490.6" x2="753.0" y2="490.6" stroke="#508ce0" stroke-width="1.5"/>
<line x1="753.0" y1="490.6" x2="753.0" y2="406.3" stroke="#508ce0" stroke-width="1.5"/>
<line x1="753.0" y1="406.3" x2="678.7" y2="406.3" stroke="#508ce0" stroke-width="1.5"/>
<circle cx="455.1" cy="448.5" r="2.4" fill="none" stroke="#508ce0" stroke-width="1.5"/>
<text x="461.4" y="452.5" fill="#508ce0" font-family="monospace" font-size="8">ø7.92</text>
<circle cx="474.1" cy="448.5" r="2.4" fill="none" stroke="#508ce0" stroke-width="1.5"/>
<text x="480.4" y="452.5" fill="#508ce0" font-family="monospace" font-size="8">ø7.92</text>
<circle cx="716.9" cy="448.5" r="2.4" fill="none" stroke="#508ce0" stroke-width="1.5"/>
<text x="723.3" y="452.5" fill="#508ce0" font-family="monospace" font-size="8">ø7.92</text>
<circle cx="735.9" cy="448.5" r="2.4" fill="none" stroke="#508ce0" stroke-width="1.5"/>
<text x="742.3" y="452.5" fill="#508ce0" font-family="monospace" font-size="8">ø7.92</text>
<circle cx="595.5" cy="448.5" r="75.9" fill="none" stroke="#508ce0" stroke-width="1.5"/>
<text x="675.4" y="452.5" fill="#508ce0" font-family="monospace" font-size="8">ø253.89</text>
</g>
<text x="421" y="802" fill="#786432" font-family="monospace" font-size="9">Range: 527.0 x 314.2 mm</text>
<rect x="786" y="70" width="365" height="740" fill="none" stroke="#1e1e23" stroke-width="1"/>
<text x="794" y="86" fill="#dcdcdc" font-family="monospace" font-size="11">Plane ⊥Z t3/25 (2 profiles)</text>
<defs><clipPath id="clip-2-nist_ctc_05_asme1_ap242-e1"><rect x="787" y="71" width="363" height="738"/></clipPath></defs>
<g clip-path="url(#clip-2-nist_ctc_05_asme1_ap242-e1)">
<line x1="808.3" y1="70" x2="808.3" y2="810" stroke="#1e1e23" stroke-width="0.5"/>
<line x1="813.6" y1="70" x2="813.6" y2="810" stroke="#1e1e23" stroke-width="0.5"/>
<line x1="818.9" y1="70" x2="818.9" y2="810" stroke="#1e1e23" stroke-width="0.5"/>
<line x1="824.1" y1="70" x2="824.1" y2="810" stroke="#1e1e23" stroke-width="0.5"/>
<line x1="829.4" y1="70" x2="829.4" y2="810" stroke="#1e1e23" stroke-width="0.5"/>
<line x1="834.6" y1="70" x2="834.6" y2="810" stroke="#1e1e23" stroke-width="0.5"/>
<line x1="839.9" y1="70" x2="839.9" y2="810" stroke="#1e1e23" stroke-width="0.5"/>
<line x1="845.2" y1="70" x2="845.2" y2="810" stroke="#1e1e23" stroke-width="0.5"/>
<line x1="850.4" y1="70" x2="850.4" y2="810" stroke="#1e1e23" stroke-width="0.5"/>
<line x1="855.7" y1="70" x2="855.7" y2="810" stroke="#1e1e23" stroke-width="0.5"/>
<line x1="861.0" y1="70" x2="861.0" y2="810" stroke="#1e1e23" stroke-width="0.5"/>
<line x1="866.2" y1="70" x2="866.2" y2="810" stroke="#1e1e23" stroke-width="0.5"/>
<line x1="871.5" y1="70" x2="871.5" y2="810" stroke="#1e1e23" stroke-width="0.5"/>
<line x1="876.8" y1="70" x2="876.8" y2="810" stroke="#1e1e23" stroke-width="0.5"/>
<line x1="882.0" y1="70" x2="882.0" y2="810" stroke="#1e1e23" stroke-width="0.5"/>
<line x1="887.3" y1="70" x2="887.3" y2="810" stroke="#1e1e23" stroke-width="0.5"/>
<line x1="892.5" y1="70" x2="892.5" y2="810" stroke="#1e1e23" stroke-width="0.5"/>
<line x1="897.8" y1="70" x2="897.8" y2="810" stroke="#1e1e23" stroke-width="0.5"/>
<line x1="903.1" y1="70" x2="903.1" y2="810" stroke="#1e1e23" stroke-width="0.5"/>
<line x1="908.3" y1="70" x2="908.3" y2="810" stroke="#1e1e23" stroke-width="0.5"/>
<line x1="913.6" y1="70" x2="913.6" y2="810" stroke="#1e1e23" stroke-width="0.5"/>
<line x1="918.9" y1="70" x2="918.9" y2="810" stroke="#1e1e23" stroke-width="0.5"/>
<line x1="924.1" y1="70" x2="924.1" y2="810" stroke="#1e1e23" stroke-width="0.5"/>
<line x1="929.4" y1="70" x2="929.4" y2="810" stroke="#1e1e23" stroke-width="0.5"/>
<line x1="934.7" y1="70" x2="934.7" y2="810" stroke="#1e1e23" stroke-width="0.5"/>
<line x1="939.9" y1="70" x2="939.9" y2="810" stroke="#1e1e23" stroke-width="0.5"/>
<line x1="945.2" y1="70" x2="945.2" y2="810" stroke="#1e1e23" stroke-width="0.5"/>
<line x1="950.4" y1="70" x2="950.4" y2="810" stroke="#1e1e23" stroke-width="0.5"/>
<line x1="955.7" y1="70" x2="955.7" y2="810" stroke="#1e1e23" stroke-width="0.5"/>
<line x1="961.0" y1="70" x2="961.0" y2="810" stroke="#1e1e23" stroke-width="0.5"/>
<line x1="966.2" y1="70" x2="966.2" y2="810" stroke="#1e1e23" stroke-width="0.5"/>
<line x1="971.5" y1="70" x2="971.5" y2="810" stroke="#1e1e23" stroke-width="0.5"/>
<line x1="976.8" y1="70" x2="976.8" y2="810" stroke="#1e1e23" stroke-width="0.5"/>
<line x1="982.0" y1="70" x2="982.0" y2="810" stroke="#1e1e23" stroke-width="0.5"/>
<line x1="987.3" y1="70" x2="987.3" y2="810" stroke="#1e1e23" stroke-width="0.5"/>
<line x1="992.6" y1="70" x2="992.6" y2="810" stroke="#1e1e23" stroke-width="0.5"/>
<line x1="997.8" y1="70" x2="997.8" y2="810" stroke="#1e1e23" stroke-width="0.5"/>
<line x1="1003.1" y1="70" x2="1003.1" y2="810" stroke="#1e1e23" stroke-width="0.5"/>
<line x1="1008.3" y1="70" x2="1008.3" y2="810" stroke="#1e1e23" stroke-width="0.5"/>
<line x1="1013.6" y1="70" x2="1013.6" y2="810" stroke="#1e1e23" stroke-width="0.5"/>
<line x1="1018.9" y1="70" x2="1018.9" y2="810" stroke="#1e1e23" stroke-width="0.5"/>
<line x1="1024.1" y1="70" x2="1024.1" y2="810" stroke="#1e1e23" stroke-width="0.5"/>
<line x1="1029.4" y1="70" x2="1029.4" y2="810" stroke="#1e1e23" stroke-width="0.5"/>
<line x1="1034.7" y1="70" x2="1034.7" y2="810" stroke="#1e1e23" stroke-width="0.5"/>
<line x1="1039.9" y1="70" x2="1039.9" y2="810" stroke="#1e1e23" stroke-width="0.5"/>
<line x1="1045.2" y1="70" x2="1045.2" y2="810" stroke="#1e1e23" stroke-width="0.5"/>
<line x1="1050.5" y1="70" x2="1050.5" y2="810" stroke="#1e1e23" stroke-width="0.5"/>
<line x1="1055.7" y1="70" x2="1055.7" y2="810" stroke="#1e1e23" stroke-width="0.5"/>
<line x1="1061.0" y1="70" x2="1061.0" y2="810" stroke="#1e1e23" stroke-width="0.5"/>
<line x1="1066.2" y1="70" x2="1066.2" y2="810" stroke="#1e1e23" stroke-width="0.5"/>
<line x1="1071.5" y1="70" x2="1071.5" y2="810" stroke="#1e1e23" stroke-width="0.5"/>
<line x1="1076.8" y1="70" x2="1076.8" y2="810" stroke="#1e1e23" stroke-width="0.5"/>
<line x1="1082.0" y1="70" x2="1082.0" y2="810" stroke="#1e1e23" stroke-width="0.5"/>
<line x1="1087.3" y1="70" x2="1087.3" y2="810" stroke="#1e1e23" stroke-width="0.5"/>
<line x1="1092.6" y1="70" x2="1092.6" y2="810" stroke="#1e1e23" stroke-width="0.5"/>
<line x1="1097.8" y1="70" x2="1097.8" y2="810" stroke="#1e1e23" stroke-width="0.5"/>
<line x1="1103.1" y1="70" x2="1103.1" y2="810" stroke="#1e1e23" stroke-width="0.5"/>
<line x1="1108.4" y1="70" x2="1108.4" y2="810" stroke="#1e1e23" stroke-width="0.5"/>
<line x1="1113.6" y1="70" x2="1113.6" y2="810" stroke="#1e1e23" stroke-width="0.5"/>
<line x1="1118.9" y1="70" x2="1118.9" y2="810" stroke="#1e1e23" stroke-width="0.5"/>
<line x1="1124.1" y1="70" x2="1124.1" y2="810" stroke="#1e1e23" stroke-width="0.5"/>
<line x1="1129.4" y1="70" x2="1129.4" y2="810" stroke="#1e1e23" stroke-width="0.5"/>
<line x1="786" y1="556.8" x2="1159" y2="556.8" stroke="#1e1e23" stroke-width="0.5"/>
<line x1="786" y1="551.6" x2="1159" y2="551.6" stroke="#1e1e23" stroke-width="0.5"/>
<line x1="786" y1="546.3" x2="1159" y2="546.3" stroke="#1e1e23" stroke-width="0.5"/>
<line x1="786" y1="541.0" x2="1159" y2="541.0" stroke="#1e1e23" stroke-width="0.5"/>
<line x1="786" y1="535.8" x2="1159" y2="535.8" stroke="#1e1e23" stroke-width="0.5"/>
<line x1="786" y1="530.5" x2="1159" y2="530.5" stroke="#1e1e23" stroke-width="0.5"/>
<line x1="786" y1="525.2" x2="1159" y2="525.2" stroke="#1e1e23" stroke-width="0.5"/>
<line x1="786" y1="520.0" x2="1159" y2="520.0" stroke="#1e1e23" stroke-width="0.5"/>
<line x1="786" y1="514.7" x2="1159" y2="514.7" stroke="#1e1e23" stroke-width="0.5"/>
<line x1="786" y1="509.5" x2="1159" y2="509.5" stroke="#1e1e23" stroke-width="0.5"/>
<line x1="786" y1="504.2" x2="1159" y2="504.2" stroke="#1e1e23" stroke-width="0.5"/>
<line x1="786" y1="498.9" x2="1159" y2="498.9" stroke="#1e1e23" stroke-width="0.5"/>
<line x1="786" y1="493.7" x2="1159" y2="493.7" stroke="#1e1e23" stroke-width="0.5"/>
<line x1="786" y1="488.4" x2="1159" y2="488.4" stroke="#1e1e23" stroke-width="0.5"/>
<line x1="786" y1="483.1" x2="1159" y2="483.1" stroke="#1e1e23" stroke-width="0.5"/>
<line x1="786" y1="477.9" x2="1159" y2="477.9" stroke="#1e1e23" stroke-width="0.5"/>
<line x1="786" y1="472.6" x2="1159" y2="472.6" stroke="#1e1e23" stroke-width="0.5"/>
<line x1="786" y1="467.3" x2="1159" y2="467.3" stroke="#1e1e23" stroke-width="0.5"/>
<line x1="786" y1="462.1" x2="1159" y2="462.1" stroke="#1e1e23" stroke-width="0.5"/>
<line x1="786" y1="456.8" x2="1159" y2="456.8" stroke="#1e1e23" stroke-width="0.5"/>
<line x1="786" y1="451.6" x2="1159" y2="451.6" stroke="#1e1e23" stroke-width="0.5"/>
<line x1="786" y1="446.3" x2="1159" y2="446.3" stroke="#1e1e23" stroke-width="0.5"/>
<line x1="786" y1="441.0" x2="1159" y2="441.0" stroke="#1e1e23" stroke-width="0.5"/>
<line x1="786" y1="435.8" x2="1159" y2="435.8" stroke="#1e1e23" stroke-width="0.5"/>
<line x1="786" y1="430.5" x2="1159" y2="430.5" stroke="#1e1e23" stroke-width="0.5"/>
<line x1="786" y1="425.2" x2="1159" y2="425.2" stroke="#1e1e23" stroke-width="0.5"/>
<line x1="786" y1="420.0" x2="1159" y2="420.0" stroke="#1e1e23" stroke-width="0.5"/>
<line x1="786" y1="414.7" x2="1159" y2="414.7" stroke="#1e1e23" stroke-width="0.5"/>
<line x1="786" y1="409.4" x2="1159" y2="409.4" stroke="#1e1e23" stroke-width="0.5"/>
<line x1="786" y1="404.2" x2="1159" y2="404.2" stroke="#1e1e23" stroke-width="0.5"/>
<line x1="786" y1="398.9" x2="1159" y2="398.9" stroke="#1e1e23" stroke-width="0.5"/>
<line x1="786" y1="393.7" x2="1159" y2="393.7" stroke="#1e1e23" stroke-width="0.5"/>
<line x1="786" y1="388.4" x2="1159" y2="388.4" stroke="#1e1e23" stroke-width="0.5"/>
<line x1="786" y1="383.1" x2="1159" y2="383.1" stroke="#1e1e23" stroke-width="0.5"/>
<line x1="786" y1="377.9" x2="1159" y2="377.9" stroke="#1e1e23" stroke-width="0.5"/>
<line x1="786" y1="372.6" x2="1159" y2="372.6" stroke="#1e1e23" stroke-width="0.5"/>
<line x1="786" y1="367.3" x2="1159" y2="367.3" stroke="#1e1e23" stroke-width="0.5"/>
<line x1="786" y1="362.1" x2="1159" y2="362.1" stroke="#1e1e23" stroke-width="0.5"/>
<line x1="786" y1="356.8" x2="1159" y2="356.8" stroke="#1e1e23" stroke-width="0.5"/>
<line x1="786" y1="351.5" x2="1159" y2="351.5" stroke="#1e1e23" stroke-width="0.5"/>
<line x1="786" y1="346.3" x2="1159" y2="346.3" stroke="#1e1e23" stroke-width="0.5"/>
<line x1="786" y1="341.0" x2="1159" y2="341.0" stroke="#1e1e23" stroke-width="0.5"/>
<circle cx="1082.3" cy="477.5" r="28.1" fill="none" stroke="#508ce0" stroke-width="1.5"/>
<text x="1114.4" y="481.5" fill="#508ce0" font-family="monospace" font-size="8">ø106.79</text>
<circle cx="1049.9" cy="457.4" r="10.0" fill="none" stroke="#508ce0" stroke-width="1" stroke-dasharray="3,2"/>
<line x1="1057.7" y1="463.7" x2="1053.2" y2="470.9" stroke="#508ce0" stroke-width="1.5"/>
<line x1="1053.2" y1="470.9" x2="1052.2" y2="472.3" stroke="#508ce0" stroke-width="1.5"/>
<circle cx="987.0" cy="425.1" r="80.5" fill="none" stroke="#508ce0" stroke-width="1" stroke-dasharray="3,2"/>
<circle cx="986.8" cy="424.5" r="81.1" fill="none" stroke="#508ce0" stroke-width="1" stroke-dasharray="3,2"/>
<circle cx="987.0" cy="424.1" r="81.4" fill="none" stroke="#508ce0" stroke-width="1" stroke-dasharray="3,2"/>
<circle cx="987.4" cy="423.8" r="81.6" fill="none" stroke="#508ce0" stroke-width="1" stroke-dasharray="3,2"/>
<line x1="965.2" y1="502.3" x2="956.7" y2="499.4" stroke="#508ce0" stroke-width="1.5"/>
<line x1="956.7" y1="499.4" x2="948.5" y2="495.4" stroke="#508ce0" stroke-width="1.5"/>
<line x1="948.5" y1="495.4" x2="940.8" y2="490.6" stroke="#508ce0" stroke-width="1.5"/>
<line x1="940.8" y1="490.6" x2="933.7" y2="485.0" stroke="#508ce0" stroke-width="1.5"/>
<line x1="933.7" y1="485.0" x2="927.3" y2="478.5" stroke="#508ce0" stroke-width="1.5"/>
<line x1="927.3" y1="478.5" x2="921.7" y2="471.4" stroke="#508ce0" stroke-width="1.5"/>
<line x1="921.7" y1="471.4" x2="916.9" y2="463.7" stroke="#508ce0" stroke-width="1.5"/>
<circle cx="924.7" cy="457.4" r="10.0" fill="none" stroke="#508ce0" stroke-width="1" stroke-dasharray="3,2"/>
<circle cx="868.6" cy="495.1" r="57.6" fill="none" stroke="#508ce0" stroke-width="1.5"/>
<text x="930.3" y="499.1" fill="#508ce0" font-family="monospace" font-size="8">ø219.01</text>
<circle cx="906.8" cy="464.3" r="8.5" fill="none" stroke="#508ce0" stroke-width="1" stroke-dasharray="3,2"/>
<line x1="910.2" y1="456.4" x2="848.6" y2="456.4" stroke="#508ce0" stroke-width="1.5"/>
<line x1="848.6" y1="456.4" x2="848.6" y2="435.3" stroke="#508ce0" stroke-width="1.5"/>
<line x1="848.6" y1="435.3" x2="880.3" y2="435.3" stroke="#508ce0" stroke-width="1.5"/>
<line x1="880.3" y1="435.3" x2="882.7" y2="435.0" stroke="#508ce0" stroke-width="1.5"/>
<line x1="882.7" y1="435.0" x2="885.0" y2="434.1" stroke="#508ce0" stroke-width="1.5"/>
<line x1="885.0" y1="434.1" x2="887.0" y2="432.7" stroke="#508ce0" stroke-width="1.5"/>
<line x1="887.0" y1="432.7" x2="888.6" y2="430.9" stroke="#508ce0" stroke-width="1.5"/>
<line x1="888.6" y1="430.9" x2="889.7" y2="428.8" stroke="#508ce0" stroke-width="1.5"/>
<line x1="889.7" y1="428.8" x2="890.3" y2="426.4" stroke="#508ce0" stroke-width="1.5"/>
<line x1="890.3" y1="426.4" x2="890.3" y2="424.0" stroke="#508ce0" stroke-width="1.5"/>
<line x1="890.3" y1="424.0" x2="889.7" y2="421.7" stroke="#508ce0" stroke-width="1.5"/>
<line x1="889.7" y1="421.7" x2="888.6" y2="419.5" stroke="#508ce0" stroke-width="1.5"/>
<line x1="888.6" y1="419.5" x2="887.0" y2="417.7" stroke="#508ce0" stroke-width="1.5"/>
<line x1="887.0" y1="417.7" x2="885.0" y2="416.4" stroke="#508ce0" stroke-width="1.5"/>
<line x1="885.0" y1="416.4" x2="882.7" y2="415.5" stroke="#508ce0" stroke-width="1.5"/>
<line x1="882.7" y1="415.5" x2="880.3" y2="415.2" stroke="#508ce0" stroke-width="1.5"/>
<line x1="880.3" y1="415.2" x2="848.6" y2="415.2" stroke="#508ce0" stroke-width="1.5"/>
<line x1="848.6" y1="415.2" x2="848.6" y2="394.0" stroke="#508ce0" stroke-width="1.5"/>
<line x1="848.6" y1="394.0" x2="910.2" y2="394.0" stroke="#508ce0" stroke-width="1.5"/>
<line x1="910.2" y1="394.0" x2="912.4" y2="392.7" stroke="#508ce0" stroke-width="1.5"/>
<circle cx="895.0" cy="375.4" r="24.5" fill="none" stroke="#508ce0" stroke-width="1.5"/>
<text x="923.5" y="379.4" fill="#508ce0" font-family="monospace" font-size="8">ø93.12</text>
<circle cx="932.4" cy="402.7" r="21.9" fill="none" stroke="#508ce0" stroke-width="1" stroke-dasharray="3,2"/>
<line x1="915.6" y1="388.8" x2="921.9" y2="378.8" stroke="#508ce0" stroke-width="1.5"/>
<line x1="921.9" y1="378.8" x2="926.5" y2="373.0" stroke="#508ce0" stroke-width="1.5"/>
<line x1="926.5" y1="373.0" x2="927.6" y2="371.7" stroke="#508ce0" stroke-width="1.5"/>
<circle cx="989.2" cy="427.4" r="83.1" fill="none" stroke="#508ce0" stroke-width="1" stroke-dasharray="3,2"/>
<circle cx="987.4" cy="425.5" r="80.5" fill="none" stroke="#508ce0" stroke-width="1" stroke-dasharray="3,2"/>
<circle cx="987.2" cy="425.4" r="80.4" fill="none" stroke="#508ce0" stroke-width="1" stroke-dasharray="3,2"/>
<circle cx="987.2" cy="425.3" r="80.3" fill="none" stroke="#508ce0" stroke-width="1" stroke-dasharray="3,2"/>
<circle cx="987.8" cy="424.8" r="79.5" fill="none" stroke="#508ce0" stroke-width="1" stroke-dasharray="3,2"/>
<line x1="1053.3" y1="379.6" x2="1057.7" y2="386.7" stroke="#508ce0" stroke-width="1.5"/>
<circle cx="1049.9" cy="393.1" r="10.0" fill="none" stroke="#508ce0" stroke-width="1" stroke-dasharray="3,2"/>
<line x1="1058.9" y1="388.6" x2="1060.5" y2="390.8" stroke="#508ce0" stroke-width="1.5"/>
<circle cx="1068.0" cy="385.8" r="9.0" fill="none" stroke="#508ce0" stroke-width="1" stroke-dasharray="3,2"/>
<line x1="1064.4" y1="394.0" x2="1126.0" y2="394.0" stroke="#508ce0" stroke-width="1.5"/>
<line x1="1126.0" y1="394.0" x2="1126.0" y2="415.2" stroke="#508ce0" stroke-width="1.5"/>
<line x1="1126.0" y1="415.2" x2="1094.2" y2="415.2" stroke="#508ce0" stroke-width="1.5"/>
<line x1="1094.2" y1="415.2" x2="1091.8" y2="415.5" stroke="#508ce0" stroke-width="1.5"/>
<line x1="1091.8" y1="415.5" x2="1089.6" y2="416.4" stroke="#508ce0" stroke-width="1.5"/>
<line x1="1089.6" y1="416.4" x2="1087.6" y2="417.7" stroke="#508ce0" stroke-width="1.5"/>
<line x1="1087.6" y1="417.7" x2="1086.0" y2="419.5" stroke="#508ce0" stroke-width="1.5"/>
<line x1="1086.0" y1="419.5" x2="1084.9" y2="421.7" stroke="#508ce0" stroke-width="1.5"/>
<line x1="1084.9" y1="421.7" x2="1084.3" y2="424.0" stroke="#508ce0" stroke-width="1.5"/>
<line x1="1084.3" y1="424.0" x2="1084.3" y2="426.4" stroke="#508ce0" stroke-width="1.5"/>
<line x1="1084.3" y1="426.4" x2="1084.9" y2="428.8" stroke="#508ce0" stroke-width="1.5"/>
<line x1="1084.9" y1="428.8" x2="1086.0" y2="430.9" stroke="#508ce0" stroke-width="1.5"/>
<line x1="1086.0" y1="430.9" x2="1087.6" y2="432.7" stroke="#508ce0" stroke-width="1.5"/>
<line x1="1087.6" y1="432.7" x2="1089.6" y2="434.1" stroke="#508ce0" stroke-width="1.5"/>
<line x1="1089.6" y1="434.1" x2="1091.8" y2="435.0" stroke="#508ce0" stroke-width="1.5"/>
<line x1="1091.8" y1="435.0" x2="1094.2" y2="435.3" stroke="#508ce0" stroke-width="1.5"/>
<line x1="1094.2" y1="435.3" x2="1126.0" y2="435.3" stroke="#508ce0" stroke-width="1.5"/>
<line x1="1126.0" y1="435.3" x2="1126.0" y2="456.4" stroke="#508ce0" stroke-width="1.5"/>
<line x1="1126.0" y1="456.4" x2="1064.4" y2="456.4" stroke="#508ce0" stroke-width="1.5"/>
<circle cx="1074.2" cy="474.9" r="20.9" fill="none" stroke="#508ce0" stroke-width="1" stroke-dasharray="3,2"/>
<circle cx="987.3" cy="425.2" r="66.8" fill="none" stroke="#508ce0" stroke-width="1.5"/>
<text x="1058.1" y="429.2" fill="#508ce0" font-family="monospace" font-size="8">ø253.83</text>
</g>
<text x="794" y="802" fill="#786432" font-family="monospace" font-size="9">Range: 598.5 x 400.0 mm</text>
<text x="40" y="880" fill="#c9a84c" font-family="monospace" font-size="9">Features (34): ⊙× Circular Pattern ×10 (⊙ Hole ø19.00) | ⊙× Circular Pattern ×4 (⊙ Hole ø7.92) | ◎ Revolution taper ø63.3→ø304.7 | ~ Freeform Pocket (26 ents) | ~ Freeform Pocket (72 ents) | ▭ Pocket 177.8×156.6 | ▭ Pocket 177.8×152.3 | ▭ Pocket 177.8×148.1</text>
</svg>