<svg xmlns="http://www.w3.org/2000/svg" width="1200" height="900" viewBox="0 0 1200 900">
<rect width="1200" height="900" fill="#08090d"/>
<text x="40" y="30" fill="#c9a84c" font-family="monospace" font-size="16" font-weight="bold">nist_ctc_01_asme1_ap242-e1.stp  </text>
<text x="40" y="50" fill="#786432" font-family="monospace" font-size="11">BBox: 800.0 x 450.0 x 150.0 mm   Diag: 930.1mm</text>
<rect x="40" y="70" width="365" height="740" fill="none" stroke="#1e1e23" stroke-width="1"/>
<text x="48" y="86" fill="#dcdcdc" font-family="monospace" font-size="11">Plane +Y d1/3 (10 profiles)</text>
<defs><clipPath id="clip-0-nist_ctc_01_asme1_ap242-e1"><rect x="41" y="71" width="363" height="738"/></clipPath></defs>
<g clip-path="url(#clip-0-nist_ctc_01_asme1_ap242-e1)">
<line x1="58.6" y1="70" x2="58.6" y2="810" stroke="#1e1e23" stroke-width="0.5"/>
<line x1="66.4" y1="70" x2="66.4" y2="810" stroke="#1e1e23" stroke-width="0.5"/>
<line x1="74.2" y1="70" x2="74.2" y2="810" stroke="#1e1e23" stroke-width="0.5"/>
<line x1="82.0" y1="70" x2="82.0" y2="810" stroke="#1e1e23" stroke-width="0.5"/>
<line x1="89.8" y1="70" x2="89.8" y2="810" stroke="#1e1e23" stroke-width="0.5"/>
<line x1="97.5" y1="70" x2="97.5" y2="810" stroke="#1e1e23" stroke-width="0.5"/>
<line x1="105.3" y1="70" x2="105.3" y2="810" stroke="#1e1e23" stroke-width="0.5"/>
<line x1="113.1" y1="70" x2="113.1" y2="810" stroke="#1e1e23" stroke-width="0.5"/>
<line x1="120.9" y1="70" x2="120.9" y2="810" stroke="#1e1e23" stroke-width="0.5"/>
<line x1="128.7" y1="70" x2="128.7" y2="810" stroke="#1e1e23" stroke-width="0.5"/>
<line x1="136.5" y1="70" x2="136.5" y2="810" stroke="#1e1e23" stroke-width="0.5"/>
<line x1="144.3" y1="70" x2="144.3" y2="810" stroke="#1e1e23" stroke-width="0.5"/>
<line x1="152.1" y1="70" x2="152.1" y2="810" stroke="#1e1e23" stroke-width="0.5"/>
<line x1="159.9" y1="70" x2="159.9" y2="810" stroke="#1e1e23" stroke-width="0.5"/>
<line x1="167.7" y1="70" x2="167.7" y2="810" stroke="#1e1e23" stroke-width="0.5"/>
<line x1="175.4" y1="70" x2="175.4" y2="810" stroke="#1e1e23" stroke-width="0.5"/>
<line x1="183.2" y1="70" x2="183.2" y2="810" stroke="#1e1e23" stroke-width="0.5"/>
<line x1="191.0" y1="70" x2="191.0" y2="810" stroke="#1e1e23" stroke-width="0.5"/>
<line x1="198.8" y1="70" x2="198.8" y2="810" stroke="#1e1e23" stroke-width="0.5"/>
<line x1="206.6" y1="70" x2="206.6" y2="810" stroke="#1e1e23" stroke-width="0.5"/>
<line x1="214.4" y1="70" x2="214.4" y2="810" stroke="#1e1e23" stroke-width="0.5"/>
<line x1="222.2" y1="70" x2="222.2" y2="810" stroke="#1e1e23" stroke-width="0.5"/>
<line x1="230.0" y1="70" x2="230.0" y2="810" stroke="#1e1e23" stroke-width="0.5"/>
<line x1="237.8" y1="70" x2="237.8" y2="810" stroke="#1e1e23" stroke-width="0.5"/>
<line x1="245.5" y1="70" x2="245.5" y2="810" stroke="#1e1e23" stroke-width="0.5"/>
<line x1="253.3" y1="70" x2="253.3" y2="810" stroke="#1e1e23" stroke-width="0.5"/>
<line x1="261.1" y1="70" x2="261.1" y2="810" stroke="#1e1e23" stroke-width="0.5"/>
<line x1="268.9" y1="70" x2="268.9" y2="810" stroke="#1e1e23" stroke-width="0.5"/>
<line x1="276.7" y1="70" x2="276.7" y2="810" stroke="#1e1e23" stroke-width="0.5"/>
<line x1="284.5" y1="70" x2="284.5" y2="810" stroke="#1e1e23" stroke-width="0.5"/>
<line x1="292.3" y1="70" x2="292.3" y2="810" stroke="#1e1e23" stroke-width="0.5"/>
<line x1="300.1" y1="70" x2="300.1" y2="810" stroke="#1e1e23" stroke-width="0.5"/>
<line x1="307.9" y1="70" x2="307.9" y2="810" stroke="#1e1e23" stroke-width="0.5"/>
<line x1="315.7" y1="70" x2="315.7" y2="810" stroke="#1e1e23" stroke-width="0.5"/>
<line x1="323.4" y1="70" x2="323.4" y2="810" stroke="#1e1e23" stroke-width="0.5"/>
<line x1="331.2" y1="70" x2="331.2" y2="810" stroke="#1e1e23" stroke-width="0.5"/>
<line x1="339.0" y1="70" x2="339.0" y2="810" stroke="#1e1e23" stroke-width="0.5"/>
<line x1="346.8" y1="70" x2="346.8" y2="810" stroke="#1e1e23" stroke-width="0.5"/>
<line x1="354.6" y1="70" x2="354.6" y2="810" stroke="#1e1e23" stroke-width="0.5"/>
<line x1="362.4" y1="70" x2="362.4" y2="810" stroke="#1e1e23" stroke-width="0.5"/>
<line x1="370.2" y1="70" x2="370.2" y2="810" stroke="#1e1e23" stroke-width="0.5"/>
<line x1="378.0" y1="70" x2="378.0" y2="810" stroke="#1e1e23" stroke-width="0.5"/>
<line x1="385.8" y1="70" x2="385.8" y2="810" stroke="#1e1e23" stroke-width="0.5"/>
<line x1="40" y1="766.9" x2="413" y2="766.9" stroke="#1e1e23" stroke-width="0.5"/>
<line x1="40" y1="759.1" x2="413" y2="759.1" stroke="#1e1e23" stroke-width="0.5"/>
<line x1="40" y1="751.3" x2="413" y2="751.3" stroke="#1e1e23" stroke-width="0.5"/>
<line x1="40" y1="743.5" x2="413" y2="743.5" stroke="#1e1e23" stroke-width="0.5"/>
<line x1="40" y1="735.7" x2="413" y2="735.7" stroke="#1e1e23" stroke-width="0.5"/>
<line x1="40" y1="727.9" x2="413" y2="727.9" stroke="#1e1e23" stroke-width="0.5"/>
<line x1="40" y1="720.1" x2="413" y2="720.1" stroke="#1e1e23" stroke-width="0.5"/>
<line x1="40" y1="712.4" x2="413" y2="712.4" stroke="#1e1e23" stroke-width="0.5"/>
<line x1="40" y1="704.6" x2="413" y2="704.6" stroke="#1e1e23" stroke-width="0.5"/>
<line x1="40" y1="696.8" x2="413" y2="696.8" stroke="#1e1e23" stroke-width="0.5"/>
<line x1="40" y1="689.0" x2="413" y2="689.0" stroke="#1e1e23" stroke-width="0.5"/>
<line x1="40" y1="681.2" x2="413" y2="681.2" stroke="#1e1e23" stroke-width="0.5"/>
<line x1="40" y1="673.4" x2="413" y2="673.4" stroke="#1e1e23" stroke-width="0.5"/>
<line x1="40" y1="665.6" x2="413" y2="665.6" stroke="#1e1e23" stroke-width="0.5"/>
<line x1="40" y1="657.8" x2="413" y2="657.8" stroke="#1e1e23" stroke-width="0.5"/>
<line x1="40" y1="650.0" x2="413" y2="650.0" stroke="#1e1e23" stroke-width="0.5"/>
<line x1="40" y1="642.2" x2="413" y2="642.2" stroke="#1e1e23" stroke-width="0.5"/>
<line x1="40" y1="634.5" x2="413" y2="634.5" stroke="#1e1e23" stroke-width="0.5"/>
<line x1="40" y1="626.7" x2="413" y2="626.7" stroke="#1e1e23" stroke-width="0.5"/>
<line x1="40" y1="618.9" x2="413" y2="618.9" stroke="#1e1e23" stroke-width="0.5"/>
<line x1="40" y1="611.1" x2="413" y2="611.1" stroke="#1e1e23" stroke-width="0.5"/>
<line x1="40" y1="603.3" x2="413" y2="603.3" stroke="#1e1e23" stroke-width="0.5"/>
<line x1="40" y1="595.5" x2="413" y2="595.5" stroke="#1e1e23" stroke-width="0.5"/>
<line x1="40" y1="587.7" x2="413" y2="587.7" stroke="#1e1e23" stroke-width="0.5"/>
<line x1="40" y1="579.9" x2="413" y2="579.9" stroke="#1e1e23" stroke-width="0.5"/>
<line x1="40" y1="572.1" x2="413" y2="572.1" stroke="#1e1e23" stroke-width="0.5"/>
<line x1="40" y1="564.3" x2="413" y2="564.3" stroke="#1e1e23" stroke-width="0.5"/>
<line x1="40" y1="556.6" x2="413" y2="556.6" stroke="#1e1e23" stroke-width="0.5"/>
<line x1="40" y1="548.8" x2="413" y2="548.8" stroke="#1e1e23" stroke-width="0.5"/>
<line x1="40" y1="541.0" x2="413" y2="541.0" stroke="#1e1e23" stroke-width="0.5"/>
<line x1="40" y1="533.2" x2="413" y2="533.2" stroke="#1e1e23" stroke-width="0.5"/>
<line x1="40" y1="525.4" x2="413" y2="525.4" stroke="#1e1e23" stroke-width="0.5"/>
<line x1="40" y1="517.6" x2="413" y2="517.6" stroke="#1e1e23" stroke-width="0.5"/>
<line x1="40" y1="509.8" x2="413" y2="509.8" stroke="#1e1e23" stroke-width="0.5"/>
<line x1="40" y1="502.0" x2="413" y2="502.0" stroke="#1e1e23" stroke-width="0.5"/>
<line x1="40" y1="494.2" x2="413" y2="494.2" stroke="#1e1e23" stroke-width="0.5"/>
<line x1="40" y1="486.4" x2="413" y2="486.4" stroke="#1e1e23" stroke-width="0.5"/>
<line x1="40" y1="478.7" x2="413" y2="478.7" stroke="#1e1e23" stroke-width="0.5"/>
<line x1="40" y1="470.9" x2="413" y2="470.9" stroke="#1e1e23" stroke-width="0.5"/>
<line x1="40" y1="463.1" x2="413" y2="463.1" stroke="#1e1e23" stroke-width="0.5"/>
<line x1="40" y1="455.3" x2="413" y2="455.3" stroke="#1e1e23" stroke-width="0.5"/>
<line x1="40" y1="447.5" x2="413" y2="447.5" stroke="#1e1e23" stroke-width="0.5"/>
<line x1="40" y1="439.7" x2="413" y2="439.7" stroke="#1e1e23" stroke-width="0.5"/>
<line x1="40" y1="431.9" x2="413" y2="431.9" stroke="#1e1e23" stroke-width="0.5"/>
<line x1="40" y1="424.1" x2="413" y2="424.1" stroke="#1e1e23" stroke-width="0.5"/>
<line x1="40" y1="416.3" x2="413" y2="416.3" stroke="#1e1e23" stroke-width="0.5"/>
<line x1="40" y1="408.6" x2="413" y2="408.6" stroke="#1e1e23" stroke-width="0.5"/>
<line x1="40" y1="400.8" x2="413" y2="400.8" stroke="#1e1e23" stroke-width="0.5"/>
<line x1="40" y1="393.0" x2="413" y2="393.0" stroke="#1e1e23" stroke-width="0.5"/>
<line x1="40" y1="385.2" x2="413" y2="385.2" stroke="#1e1e23" stroke-width="0.5"/>
<line x1="40" y1="377.4" x2="413" y2="377.4" stroke="#1e1e23" stroke-width="0.5"/>
<line x1="40" y1="369.6" x2="413" y2="369.6" stroke="#1e1e23" stroke-width="0.5"/>
<line x1="40" y1="361.8" x2="413" y2="361.8" stroke="#1e1e23" stroke-width="0.5"/>
<line x1="40" y1="354.0" x2="413" y2="354.0" stroke="#1e1e23" stroke-width="0.5"/>
<line x1="40" y1="346.2" x2="413" y2="346.2" stroke="#1e1e23" stroke-width="0.5"/>
<line x1="40" y1="338.4" x2="413" y2="338.4" stroke="#1e1e23" stroke-width="0.5"/>
<line x1="40" y1="330.7" x2="413" y2="330.7" stroke="#1e1e23" stroke-width="0.5"/>
<line x1="40" y1="322.9" x2="413" y2="322.9" stroke="#1e1e23" stroke-width="0.5"/>
<line x1="40" y1="315.1" x2="413" y2="315.1" stroke="#1e1e23" stroke-width="0.5"/>
<line x1="40" y1="307.3" x2="413" y2="307.3" stroke="#1e1e23" stroke-width="0.5"/>
<line x1="40" y1="299.5" x2="413" y2="299.5" stroke="#1e1e23" stroke-width="0.5"/>
<line x1="40" y1="291.7" x2="413" y2="291.7" stroke="#1e1e23" stroke-width="0.5"/>
<line x1="40" y1="283.9" x2="413" y2="283.9" stroke="#1e1e23" stroke-width="0.5"/>
<line x1="40" y1="276.1" x2="413" y2="276.1" stroke="#1e1e23" stroke-width="0.5"/>
<line x1="40" y1="268.3" x2="413" y2="268.3" stroke="#1e1e23" stroke-width="0.5"/>
<line x1="40" y1="260.5" x2="413" y2="260.5" stroke="#1e1e23" stroke-width="0.5"/>
<line x1="40" y1="252.8" x2="413" y2="252.8" stroke="#1e1e23" stroke-width="0.5"/>
<line x1="40" y1="245.0" x2="413" y2="245.0" stroke="#1e1e23" stroke-width="0.5"/>
<line x1="40" y1="237.2" x2="413" y2="237.2" stroke="#1e1e23" stroke-width="0.5"/>
<line x1="40" y1="229.4" x2="413" y2="229.4" stroke="#1e1e23" stroke-width="0.5"/>
<line x1="40" y1="221.6" x2="413" y2="221.6" stroke="#1e1e23" stroke-width="0.5"/>
<line x1="40" y1="213.8" x2="413" y2="213.8" stroke="#1e1e23" stroke-width="0.5"/>
<line x1="40" y1="206.0" x2="413" y2="206.0" stroke="#1e1e23" stroke-width="0.5"/>
<line x1="40" y1="198.2" x2="413" y2="198.2" stroke="#1e1e23" stroke-width="0.5"/>
<line x1="40" y1="190.4" x2="413" y2="190.4" stroke="#1e1e23" stroke-width="0.5"/>
<line x1="40" y1="182.6" x2="413" y2="182.6" stroke="#1e1e23" stroke-width="0.5"/>
<line x1="40" y1="174.9" x2="413" y2="174.9" stroke="#1e1e23" stroke-width="0.5"/>
<line x1="40" y1="167.1" x2="413" y2="167.1" stroke="#1e1e23" stroke-width="0.5"/>
<line x1="40" y1="159.3" x2="413" y2="159.3" stroke="#1e1e23" stroke-width="0.5"/>
<line x1="40" y1="151.5" x2="413" y2="151.5" stroke="#1e1e23" stroke-width="0.5"/>
<line x1="40" y1="143.7" x2="413" y2="143.7" stroke="#1e1e23" stroke-width="0.5"/>
<line x1="40" y1="135.9" x2="413" y2="135.9" stroke="#1e1e23" stroke-width="0.5"/>
<line x1="40" y1="128.1" x2="413" y2="128.1" stroke="#1e1e23" stroke-width="0.5"/>
<line x1="301.8" y1="553.3" x2="301.8" y2="759.1" stroke="#508ce0" stroke-width="1.5"/>
<line x1="301.8" y1="759.1" x2="262.6" y2="759.1" stroke="#508ce0" stroke-width="1.5"/>
<line x1="262.6" y1="759.1" x2="262.6" y2="551.0" stroke="#508ce0" stroke-width="1.5"/>
<line x1="262.6" y1="551.0" x2="294.9" y2="552.9" stroke="#508ce0" stroke-width="1.5"/>
<line x1="301.8" y1="381.9" x2="301.8" y2="513.1" stroke="#508ce0" stroke-width="1.5"/>
<line x1="301.8" y1="513.1" x2="262.6" y2="515.4" stroke="#508ce0" stroke-width="1.5"/>
<line x1="262.6" y1="515.4" x2="262.6" y2="379.6" stroke="#508ce0" stroke-width="1.5"/>
<line x1="262.6" y1="379.6" x2="294.9" y2="381.5" stroke="#508ce0" stroke-width="1.5"/>
<line x1="262.6" y1="136.0" x2="301.8" y2="135.9" stroke="#508ce0" stroke-width="1.5"/>
<line x1="301.8" y1="135.9" x2="301.8" y2="341.7" stroke="#508ce0" stroke-width="1.5"/>
<line x1="301.8" y1="341.7" x2="262.6" y2="344.0" stroke="#508ce0" stroke-width="1.5"/>
<line x1="262.6" y1="344.0" x2="262.6" y2="136.0" stroke="#508ce0" stroke-width="1.5"/>
<circle cx="282.2" cy="424.1" r="7.8" fill="none" stroke="#508ce0" stroke-width="1.5"/>
<text x="294.0" y="428.1" fill="#508ce0" font-family="monospace" font-size="8">ø20.01</text>
<circle cx="282.2" cy="470.9" r="7.8" fill="none" stroke="#508ce0" stroke-width="1.5"/>
<text x="294.0" y="474.9" fill="#508ce0" font-family="monospace" font-size="8">ø20.01</text>
<line x1="204.5" y1="642.2" x2="235.8" y2="642.2" stroke="#508ce0" stroke-width="1.5"/>
<line x1="235.8" y1="642.2" x2="237.2" y2="642.1" stroke="#508ce0" stroke-width="1.5"/>
<circle cx="235.8" cy="634.4" r="7.9" fill="none" stroke="#508ce0" stroke-width="1" stroke-dasharray="3,2"/>
<circle cx="235.2" cy="634.3" r="8.5" fill="none" stroke="#508ce0" stroke-width="1" stroke-dasharray="3,2"/>
<line x1="243.7" y1="634.5" x2="243.7" y2="555.3" stroke="#508ce0" stroke-width="1.5"/>
<line x1="243.7" y1="555.3" x2="282.8" y2="553.0" stroke="#508ce0" stroke-width="1.5"/>
<line x1="282.8" y1="553.0" x2="282.8" y2="759.1" stroke="#508ce0" stroke-width="1.5"/>
<line x1="282.8" y1="759.1" x2="204.5" y2="759.1" stroke="#508ce0" stroke-width="1.5"/>
<line x1="204.5" y1="759.1" x2="204.5" y2="647.0" stroke="#508ce0" stroke-width="1.5"/>
<line x1="282.8" y1="381.6" x2="282.8" y2="513.4" stroke="#508ce0" stroke-width="1.5"/>
<line x1="282.8" y1="513.4" x2="243.7" y2="511.1" stroke="#508ce0" stroke-width="1.5"/>
<line x1="243.7" y1="511.1" x2="243.7" y2="383.9" stroke="#508ce0" stroke-width="1.5"/>
<line x1="243.7" y1="383.9" x2="277.0" y2="382.0" stroke="#508ce0" stroke-width="1.5"/>
<line x1="204.5" y1="252.8" x2="204.5" y2="135.9" stroke="#508ce0" stroke-width="1.5"/>
<line x1="204.5" y1="135.9" x2="282.8" y2="135.9" stroke="#508ce0" stroke-width="1.5"/>
<line x1="282.8" y1="135.9" x2="282.8" y2="342.0" stroke="#508ce0" stroke-width="1.5"/>
<line x1="282.8" y1="342.0" x2="243.7" y2="339.7" stroke="#508ce0" stroke-width="1.5"/>
<line x1="243.7" y1="339.7" x2="243.7" y2="260.5" stroke="#508ce0" stroke-width="1.5"/>
<circle cx="234.3" cy="260.8" r="9.4" fill="none" stroke="#508ce0" stroke-width="1" stroke-dasharray="3,2"/>
<circle cx="235.8" cy="260.6" r="7.8" fill="none" stroke="#508ce0" stroke-width="1" stroke-dasharray="3,2"/>
<circle cx="222.5" cy="409.7" r="157.5" fill="none" stroke="#508ce0" stroke-width="1" stroke-dasharray="3,2"/>
<circle cx="263.3" cy="424.1" r="7.8" fill="none" stroke="#508ce0" stroke-width="1.5"/>
<text x="275.1" y="428.1" fill="#508ce0" font-family="monospace" font-size="8">ø20.03</text>
<circle cx="263.3" cy="470.9" r="7.8" fill="none" stroke="#508ce0" stroke-width="1.5"/>
<text x="275.1" y="474.9" fill="#508ce0" font-family="monospace" font-size="8">ø20.03</text>
</g>
<text x="48" y="802" fill="#786432" font-family="monospace" font-size="9">Range: 404.4 x 800.0 mm</text>
<rect x="413" y="70" width="365" height="740" fill="none" stroke="#1e1e23" stroke-width="1"/>
<text x="421" y="86" fill="#dcdcdc" font-family="monospace" font-size="11">Plane +Y d2/3 (12 profiles)</text>
<defs><clipPath id="clip-1-nist_ctc_01_asme1_ap242-e1"><rect x="414" y="71" width="363" height="738"/></clipPath></defs>
<g clip-path="url(#clip-1-nist_ctc_01_asme1_ap242-e1)">
<line x1="537.5" y1="70" x2="537.5" y2="810" stroke="#1e1e23" stroke-width="0.5"/>
<line x1="545.8" y1="70" x2="545.8" y2="810" stroke="#1e1e23" stroke-width="0.5"/>
<line x1="554.1" y1="70" x2="554.1" y2="810" stroke="#1e1e23" stroke-width="0.5"/>
<line x1="562.4" y1="70" x2="562.4" y2="810" stroke="#1e1e23" stroke-width="0.5"/>
<line x1="570.8" y1="70" x2="570.8" y2="810" stroke="#1e1e23" stroke-width="0.5"/>
<line x1="579.1" y1="70" x2="579.1" y2="810" stroke="#1e1e23" stroke-width="0.5"/>
<line x1="587.4" y1="70" x2="587.4" y2="810" stroke="#1e1e23" stroke-width="0.5"/>
<line x1="595.7" y1="70" x2="595.7" y2="810" stroke="#1e1e23" stroke-width="0.5"/>
<line x1="604.0" y1="70" x2="604.0" y2="810" stroke="#1e1e23" stroke-width="0.5"/>
<line x1="612.3" y1="70" x2="612.3" y2="810" stroke="#1e1e23" stroke-width="0.5"/>
<line x1="620.6" y1="70" x2="620.6" y2="810" stroke="#1e1e23" stroke-width="0.5"/>
<line x1="628.9" y1="70" x2="628.9" y2="810" stroke="#1e1e23" stroke-width="0.5"/>
<line x1="637.3" y1="70" x2="637.3" y2="810" stroke="#1e1e23" stroke-width="0.5"/>
<line x1="645.6" y1="70" x2="645.6" y2="810" stroke="#1e1e23" stroke-width="0.5"/>
<line x1="653.9" y1="70" x2="653.9" y2="810" stroke="#1e1e23" stroke-width="0.5"/>
<line x1="413" y1="788.3" x2="786" y2="788.3" stroke="#1e1e23" stroke-width="0.5"/>
<line x1="413" y1="780.0" x2="786" y2="780.0" stroke="#1e1e23" stroke-width="0.5"/>
<line x1="413" y1="771.7" x2="786" y2="771.7" stroke="#1e1e23" stroke-width="0.5"/>
<line x1="413" y1="763.4" x2="786" y2="763.4" stroke="#1e1e23" stroke-width="0.5"/>
<line x1="413" y1="755.1" x2="786" y2="755.1" stroke="#1e1e23" stroke-width="0.5"/>
<line x1="413" y1="746.7" x2="786" y2="746.7" stroke="#1e1e23" stroke-width="0.5"/>
<line x1="413" y1="738.4" x2="786" y2="738.4" stroke="#1e1e23" stroke-width="0.5"/>
<line x1="413" y1="730.1" x2="786" y2="730.1" stroke="#1e1e23" stroke-width="0.5"/>
<line x1="413" y1="721.8" x2="786" y2="721.8" stroke="#1e1e23" stroke-width="0.5"/>
<line x1="413" y1="713.5" x2="786" y2="713.5" stroke="#1e1e23" stroke-width="0.5"/>
<line x1="413" y1="705.2" x2="786" y2="705.2" stroke="#1e1e23" stroke-width="0.5"/>
<line x1="413" y1="696.9" x2="786" y2="696.9" stroke="#1e1e23" stroke-width="0.5"/>
<line x1="413" y1="688.6" x2="786" y2="688.6" stroke="#1e1e23" stroke-width="0.5"/>
<line x1="413" y1="680.2" x2="786" y2="680.2" stroke="#1e1e23" stroke-width="0.5"/>
<line x1="413" y1="671.9" x2="786" y2="671.9" stroke="#1e1e23" stroke-width="0.5"/>
<line x1="413" y1="663.6" x2="786" y2="663.6" stroke="#1e1e23" stroke-width="0.5"/>
<line x1="413" y1="655.3" x2="786" y2="655.3" stroke="#1e1e23" stroke-width="0.5"/>
<line x1="413" y1="647.0" x2="786" y2="647.0" stroke="#1e1e23" stroke-width="0.5"/>
<line x1="413" y1="638.7" x2="786" y2="638.7" stroke="#1e1e23" stroke-width="0.5"/>
<line x1="413" y1="630.4" x2="786" y2="630.4" stroke="#1e1e23" stroke-width="0.5"/>
<line x1="413" y1="622.1" x2="786" y2="622.1" stroke="#1e1e23" stroke-width="0.5"/>
<line x1="413" y1="613.7" x2="786" y2="613.7" stroke="#1e1e23" stroke-width="0.5"/>
<line x1="413" y1="605.4" x2="786" y2="605.4" stroke="#1e1e23" stroke-width="0.5"/>
<line x1="413" y1="597.1" x2="786" y2="597.1" stroke="#1e1e23" stroke-width="0.5"/>
<line x1="413" y1="588.8" x2="786" y2="588.8" stroke="#1e1e23" stroke-width="0.5"/>
<line x1="413" y1="580.5" x2="786" y2="580.5" stroke="#1e1e23" stroke-width="0.5"/>
<line x1="413" y1="572.2" x2="786" y2="572.2" stroke="#1e1e23" stroke-width="0.5"/>
<line x1="413" y1="563.9" x2="786" y2="563.9" stroke="#1e1e23" stroke-width="0.5"/>
<line x1="413" y1="555.6" x2="786" y2="555.6" stroke="#1e1e23" stroke-width="0.5"/>
<line x1="413" y1="547.2" x2="786" y2="547.2" stroke="#1e1e23" stroke-width="0.5"/>
<line x1="413" y1="538.9" x2="786" y2="538.9" stroke="#1e1e23" stroke-width="0.5"/>
<line x1="413" y1="530.6" x2="786" y2="530.6" stroke="#1e1e23" stroke-width="0.5"/>
<line x1="413" y1="522.3" x2="786" y2="522.3" stroke="#1e1e23" stroke-width="0.5"/>
<line x1="413" y1="514.0" x2="786" y2="514.0" stroke="#1e1e23" stroke-width="0.5"/>
<line x1="413" y1="505.7" x2="786" y2="505.7" stroke="#1e1e23" stroke-width="0.5"/>
<line x1="413" y1="497.4" x2="786" y2="497.4" stroke="#1e1e23" stroke-width="0.5"/>
<line x1="413" y1="489.1" x2="786" y2="489.1" stroke="#1e1e23" stroke-width="0.5"/>
<line x1="413" y1="480.8" x2="786" y2="480.8" stroke="#1e1e23" stroke-width="0.5"/>
<line x1="413" y1="472.4" x2="786" y2="472.4" stroke="#1e1e23" stroke-width="0.5"/>
<line x1="413" y1="464.1" x2="786" y2="464.1" stroke="#1e1e23" stroke-width="0.5"/>
<line x1="413" y1="455.8" x2="786" y2="455.8" stroke="#1e1e23" stroke-width="0.5"/>
<line x1="413" y1="447.5" x2="786" y2="447.5" stroke="#1e1e23" stroke-width="0.5"/>
<line x1="413" y1="439.2" x2="786" y2="439.2" stroke="#1e1e23" stroke-width="0.5"/>
<line x1="413" y1="430.9" x2="786" y2="430.9" stroke="#1e1e23" stroke-width="0.5"/>
<line x1="413" y1="422.6" x2="786" y2="422.6" stroke="#1e1e23" stroke-width="0.5"/>
<line x1="413" y1="414.3" x2="786" y2="414.3" stroke="#1e1e23" stroke-width="0.5"/>
<line x1="413" y1="405.9" x2="786" y2="405.9" stroke="#1e1e23" stroke-width="0.5"/>
<line x1="413" y1="397.6" x2="786" y2="397.6" stroke="#1e1e23" stroke-width="0.5"/>
<line x1="413" y1="389.3" x2="786" y2="389.3" stroke="#1e1e23" stroke-width="0.5"/>
<line x1="413" y1="381.0" x2="786" y2="381.0" stroke="#1e1e23" stroke-width="0.5"/>
<line x1="413" y1="372.7" x2="786" y2="372.7" stroke="#1e1e23" stroke-width="0.5"/>
<line x1="413" y1="364.4" x2="786" y2="364.4" stroke="#1e1e23" stroke-width="0.5"/>
<line x1="413" y1="356.1" x2="786" y2="356.1" stroke="#1e1e23" stroke-width="0.5"/>
<line x1="413" y1="347.8" x2="786" y2="347.8" stroke="#1e1e23" stroke-width="0.5"/>
<line x1="413" y1="339.4" x2="786" y2="339.4" stroke="#1e1e23" stroke-width="0.5"/>
<line x1="413" y1="331.1" x2="786" y2="331.1" stroke="#1e1e23" stroke-width="0.5"/>
<line x1="413" y1="322.8" x2="786" y2="322.8" stroke="#1e1e23" stroke-width="0.5"/>
<line x1="413" y1="314.5" x2="786" y2="314.5" stroke="#1e1e23" stroke-width="0.5"/>
<line x1="413" y1="306.2" x2="786" y2="306.2" stroke="#1e1e23" stroke-width="0.5"/>
<line x1="413" y1="297.9" x2="786" y2="297.9" stroke="#1e1e23" stroke-width="0.5"/>
<line x1="413" y1="289.6" x2="786" y2="289.6" stroke="#1e1e23" stroke-width="0.5"/>
<line x1="413" y1="281.3" x2="786" y2="281.3" stroke="#1e1e23" stroke-width="0.5"/>
<line x1="413" y1="272.9" x2="786" y2="272.9" stroke="#1e1e23" stroke-width="0.5"/>
<line x1="413" y1="264.6" x2="786" y2="264.6" stroke="#1e1e23" stroke-width="0.5"/>
<line x1="413" y1="256.3" x2="786" y2="256.3" stroke="#1e1e23" stroke-width="0.5"/>
<line x1="413" y1="248.0" x2="786" y2="248.0" stroke="#1e1e23" stroke-width="0.5"/>
<line x1="413" y1="239.7" x2="786" y2="239.7" stroke="#1e1e23" stroke-width="0.5"/>
<line x1="413" y1="231.4" x2="786" y2="231.4" stroke="#1e1e23" stroke-width="0.5"/>
<line x1="413" y1="223.1" x2="786" y2="223.1" stroke="#1e1e23" stroke-width="0.5"/>
<line x1="413" y1="214.8" x2="786" y2="214.8" stroke="#1e1e23" stroke-width="0.5"/>
<line x1="413" y1="206.4" x2="786" y2="206.4" stroke="#1e1e23" stroke-width="0.5"/>
<line x1="413" y1="198.1" x2="786" y2="198.1" stroke="#1e1e23" stroke-width="0.5"/>
<line x1="413" y1="189.8" x2="786" y2="189.8" stroke="#1e1e23" stroke-width="0.5"/>
<line x1="413" y1="181.5" x2="786" y2="181.5" stroke="#1e1e23" stroke-width="0.5"/>
<line x1="413" y1="173.2" x2="786" y2="173.2" stroke="#1e1e23" stroke-width="0.5"/>
<line x1="413" y1="164.9" x2="786" y2="164.9" stroke="#1e1e23" stroke-width="0.5"/>
<line x1="413" y1="156.6" x2="786" y2="156.6" stroke="#1e1e23" stroke-width="0.5"/>
<line x1="413" y1="148.3" x2="786" y2="148.3" stroke="#1e1e23" stroke-width="0.5"/>
<line x1="413" y1="139.9" x2="786" y2="139.9" stroke="#1e1e23" stroke-width="0.5"/>
<line x1="413" y1="131.6" x2="786" y2="131.6" stroke="#1e1e23" stroke-width="0.5"/>
<line x1="413" y1="123.3" x2="786" y2="123.3" stroke="#1e1e23" stroke-width="0.5"/>
<line x1="413" y1="115.0" x2="786" y2="115.0" stroke="#1e1e23" stroke-width="0.5"/>
<line x1="413" y1="106.7" x2="786" y2="106.7" stroke="#1e1e23" stroke-width="0.5"/>
<line x1="647.4" y1="560.1" x2="647.4" y2="780.0" stroke="#508ce0" stroke-width="1.5"/>
<line x1="647.4" y1="780.0" x2="605.6" y2="780.0" stroke="#508ce0" stroke-width="1.5"/>
<line x1="605.6" y1="780.0" x2="605.6" y2="557.7" stroke="#508ce0" stroke-width="1.5"/>
<line x1="605.6" y1="557.7" x2="639.2" y2="559.7" stroke="#508ce0" stroke-width="1.5"/>
<line x1="647.4" y1="377.3" x2="647.4" y2="517.7" stroke="#508ce0" stroke-width="1.5"/>
<line x1="647.4" y1="517.7" x2="605.6" y2="520.2" stroke="#508ce0" stroke-width="1.5"/>
<line x1="605.6" y1="520.2" x2="605.6" y2="374.8" stroke="#508ce0" stroke-width="1.5"/>
<line x1="605.6" y1="374.8" x2="639.2" y2="376.8" stroke="#508ce0" stroke-width="1.5"/>
<line x1="605.6" y1="115.2" x2="647.4" y2="115.0" stroke="#508ce0" stroke-width="1.5"/>
<line x1="647.4" y1="115.0" x2="647.4" y2="334.9" stroke="#508ce0" stroke-width="1.5"/>
<line x1="647.4" y1="334.9" x2="605.6" y2="337.3" stroke="#508ce0" stroke-width="1.5"/>
<line x1="605.6" y1="337.3" x2="605.6" y2="115.2" stroke="#508ce0" stroke-width="1.5"/>
<circle cx="626.5" cy="422.6" r="8.3" fill="none" stroke="#508ce0" stroke-width="1.5"/>
<text x="638.8" y="426.6" fill="#508ce0" font-family="monospace" font-size="8">ø20.01</text>
<circle cx="626.5" cy="472.4" r="8.3" fill="none" stroke="#508ce0" stroke-width="1.5"/>
<text x="638.8" y="476.4" fill="#508ce0" font-family="monospace" font-size="8">ø20.01</text>
<circle cx="577.1" cy="647.0" r="8.3" fill="none" stroke="#508ce0" stroke-width="1" stroke-dasharray="3,2"/>
<line x1="585.4" y1="647.0" x2="585.4" y2="562.3" stroke="#508ce0" stroke-width="1.5"/>
<line x1="585.4" y1="562.3" x2="627.2" y2="559.9" stroke="#508ce0" stroke-width="1.5"/>
<line x1="627.2" y1="559.9" x2="627.2" y2="780.0" stroke="#508ce0" stroke-width="1.5"/>
<line x1="627.2" y1="780.0" x2="579.5" y2="780.0" stroke="#508ce0" stroke-width="1.5"/>
<line x1="579.5" y1="780.0" x2="579.7" y2="685.1" stroke="#508ce0" stroke-width="1.5"/>
<line x1="579.7" y1="685.1" x2="579.7" y2="654.9" stroke="#508ce0" stroke-width="1.5"/>
<circle cx="578.5" cy="650.1" r="4.9" fill="none" stroke="#508ce0" stroke-width="1" stroke-dasharray="3,2"/>
<line x1="627.2" y1="377.0" x2="627.2" y2="518.0" stroke="#508ce0" stroke-width="1.5"/>
<line x1="627.2" y1="518.0" x2="585.4" y2="515.5" stroke="#508ce0" stroke-width="1.5"/>
<line x1="585.4" y1="515.5" x2="585.4" y2="379.5" stroke="#508ce0" stroke-width="1.5"/>
<line x1="585.4" y1="379.5" x2="620.6" y2="377.4" stroke="#508ce0" stroke-width="1.5"/>
<line x1="579.8" y1="240.1" x2="579.7" y2="209.9" stroke="#508ce0" stroke-width="1.5"/>
<line x1="579.7" y1="209.9" x2="579.5" y2="115.0" stroke="#508ce0" stroke-width="1.5"/>
<line x1="579.5" y1="115.0" x2="627.2" y2="115.0" stroke="#508ce0" stroke-width="1.5"/>
<line x1="627.2" y1="115.0" x2="627.2" y2="335.1" stroke="#508ce0" stroke-width="1.5"/>
<line x1="627.2" y1="335.1" x2="585.4" y2="332.7" stroke="#508ce0" stroke-width="1.5"/>
<line x1="585.4" y1="332.7" x2="585.4" y2="248.0" stroke="#508ce0" stroke-width="1.5"/>
<circle cx="577.1" cy="248.0" r="8.3" fill="none" stroke="#508ce0" stroke-width="1" stroke-dasharray="3,2"/>
<line x1="543.6" y1="655.3" x2="575.4" y2="655.3" stroke="#508ce0" stroke-width="1.5"/>
<line x1="575.4" y1="655.3" x2="575.4" y2="780.0" stroke="#508ce0" stroke-width="1.5"/>
<line x1="575.4" y1="780.0" x2="543.6" y2="780.0" stroke="#508ce0" stroke-width="1.5"/>
<line x1="543.6" y1="780.0" x2="543.6" y2="659.9" stroke="#508ce0" stroke-width="1.5"/>
<line x1="543.6" y1="239.7" x2="575.4" y2="239.7" stroke="#508ce0" stroke-width="1.5"/>
<line x1="575.4" y1="239.7" x2="575.4" y2="115.0" stroke="#508ce0" stroke-width="1.5"/>
<line x1="575.4" y1="115.0" x2="543.6" y2="115.0" stroke="#508ce0" stroke-width="1.5"/>
<line x1="543.6" y1="115.0" x2="543.6" y2="235.0" stroke="#508ce0" stroke-width="1.5"/>
<circle cx="606.3" cy="422.6" r="8.3" fill="none" stroke="#508ce0" stroke-width="1.5"/>
<text x="618.6" y="426.6" fill="#508ce0" font-family="monospace" font-size="8">ø20.03</text>
<circle cx="606.3" cy="472.4" r="8.3" fill="none" stroke="#508ce0" stroke-width="1.5"/>
<text x="618.6" y="476.4" fill="#508ce0" font-family="monospace" font-size="8">ø20.03</text>
</g>
<text x="421" y="802" fill="#786432" font-family="monospace" font-size="9">Range: 124.8 x 800.0 mm</text>
<rect x="786" y="70" width="365" height="740" fill="none" stroke="#1e1e23" stroke-width="1"/>
<text x="794" y="86" fill="#dcdcdc" font-family="monospace" font-size="11">Plane +Y d3/3 (12 profiles)</text>
<defs><clipPath id="clip-2-nist_ctc_01_asme1_ap242-e1"><rect x="787" y="71" width="363" height="738"/></clipPath></defs>
<g clip-path="url(#clip-2-nist_ctc_01_asme1_ap242-e1)">
<line x1="910.5" y1="70" x2="910.5" y2="810" stroke="#1e1e23" stroke-width="0.5"/>
<line x1="918.8" y1="70" x2="918.8" y2="810" stroke="#1e1e23" stroke-width="0.5"/>
<line x1="927.1" y1="70" x2="927.1" y2="810" stroke="#1e1e23" stroke-width="0.5"/>
<line x1="935.5" y1="70" x2="935.5" y2="810" stroke="#1e1e23" stroke-width="0.5"/>
<line x1="943.8" y1="70" x2="943.8" y2="810" stroke="#1e1e23" stroke-width="0.5"/>
<line x1="952.1" y1="70" x2="952.1" y2="810" stroke="#1e1e23" stroke-width="0.5"/>
<line x1="960.4" y1="70" x2="960.4" y2="810" stroke="#1e1e23" stroke-width="0.5"/>
<line x1="968.7" y1="70" x2="968.7" y2="810" stroke="#1e1e23" stroke-width="0.5"/>
<line x1="977.0" y1="70" x2="977.0" y2="810" stroke="#1e1e23" stroke-width="0.5"/>
<line x1="985.3" y1="70" x2="985.3" y2="810" stroke="#1e1e23" stroke-width="0.5"/>
<line x1="993.6" y1="70" x2="993.6" y2="810" stroke="#1e1e23" stroke-width="0.5"/>
<line x1="1002.0" y1="70" x2="1002.0" y2="810" stroke="#1e1e23" stroke-width="0.5"/>
<line x1="1010.3" y1="70" x2="1010.3" y2="810" stroke="#1e1e23" stroke-width="0.5"/>
<line x1="1018.6" y1="70" x2="1018.6" y2="810" stroke="#1e1e23" stroke-width="0.5"/>
<line x1="1026.9" y1="70" x2="1026.9" y2="810" stroke="#1e1e23" stroke-width="0.5"/>
<line x1="786" y1="788.3" x2="1159" y2="788.3" stroke="#1e1e23" stroke-width="0.5"/>
<line x1="786" y1="780.0" x2="1159" y2="780.0" stroke="#1e1e23" stroke-width="0.5"/>
<line x1="786" y1="771.7" x2="1159" y2="771.7" stroke="#1e1e23" stroke-width="0.5"/>
<line x1="786" y1="763.4" x2="1159" y2="763.4" stroke="#1e1e23" stroke-width="0.5"/>
<line x1="786" y1="755.1" x2="1159" y2="755.1" stroke="#1e1e23" stroke-width="0.5"/>
<line x1="786" y1="746.7" x2="1159" y2="746.7" stroke="#1e1e23" stroke-width="0.5"/>
<line x1="786" y1="738.4" x2="1159" y2="738.4" stroke="#1e1e23" stroke-width="0.5"/>
<line x1="786" y1="730.1" x2="1159" y2="730.1" stroke="#1e1e23" stroke-width="0.5"/>
<line x1="786" y1="721.8" x2="1159" y2="721.8" stroke="#1e1e23" stroke-width="0.5"/>
<line x1="786" y1="713.5" x2="1159" y2="713.5" stroke="#1e1e23" stroke-width="0.5"/>
<line x1="786" y1="705.2" x2="1159" y2="705.2" stroke="#1e1e23" stroke-width="0.5"/>
<line x1="786" y1="696.9" x2="1159" y2="696.9" stroke="#1e1e23" stroke-width="0.5"/>
<line x1="786" y1="688.6" x2="1159" y2="688.6" stroke="#1e1e23" stroke-width="0.5"/>
<line x1="786" y1="680.2" x2="1159" y2="680.2" stroke="#1e1e23" stroke-width="0.5"/>
<line x1="786" y1="671.9" x2="1159" y2="671.9" stroke="#1e1e23" stroke-width="0.5"/>
<line x1="786" y1="663.6" x2="1159" y2="663.6" stroke="#1e1e23" stroke-width="0.5"/>
<line x1="786" y1="655.3" x2="1159" y2="655.3" stroke="#1e1e23" stroke-width="0.5"/>
<line x1="786" y1="647.0" x2="1159" y2="647.0" stroke="#1e1e23" stroke-width="0.5"/>
<line x1="786" y1="638.7" x2="1159" y2="638.7" stroke="#1e1e23" stroke-width="0.5"/>
<line x1="786" y1="630.4" x2="1159" y2="630.4" stroke="#1e1e23" stroke-width="0.5"/>
<line x1="786" y1="622.1" x2="1159" y2="622.1" stroke="#1e1e23" stroke-width="0.5"/>
<line x1="786" y1="613.7" x2="1159" y2="613.7" stroke="#1e1e23" stroke-width="0.5"/>
<line x1="786" y1="605.4" x2="1159" y2="605.4" stroke="#1e1e23" stroke-width="0.5"/>
<line x1="786" y1="597.1" x2="1159" y2="597.1" stroke="#1e1e23" stroke-width="0.5"/>
<line x1="786" y1="588.8" x2="1159" y2="588.8" stroke="#1e1e23" stroke-width="0.5"/>
<line x1="786" y1="580.5" x2="1159" y2="580.5" stroke="#1e1e23" stroke-width="0.5"/>
<line x1="786" y1="572.2" x2="1159" y2="572.2" stroke="#1e1e23" stroke-width="0.5"/>
<line x1="786" y1="563.9" x2="1159" y2="563.9" stroke="#1e1e23" stroke-width="0.5"/>
<line x1="786" y1="555.6" x2="1159" y2="555.6" stroke="#1e1e23" stroke-width="0.5"/>
<line x1="786" y1="547.2" x2="1159" y2="547.2" stroke="#1e1e23" stroke-width="0.5"/>
<line x1="786" y1="538.9" x2="1159" y2="538.9" stroke="#1e1e23" stroke-width="0.5"/>
<line x1="786" y1="530.6" x2="1159" y2="530.6" stroke="#1e1e23" stroke-width="0.5"/>
<line x1="786" y1="522.3" x2="1159" y2="522.3" stroke="#1e1e23" stroke-width="0.5"/>
<line x1="786" y1="514.0" x2="1159" y2="514.0" stroke="#1e1e23" stroke-width="0.5"/>
<line x1="786" y1="505.7" x2="1159" y2="505.7" stroke="#1e1e23" stroke-width="0.5"/>
<line x1="786" y1="497.4" x2="1159" y2="497.4" stroke="#1e1e23" stroke-width="0.5"/>
<line x1="786" y1="489.1" x2="1159" y2="489.1" stroke="#1e1e23" stroke-width="0.5"/>
<line x1="786" y1="480.8" x2="1159" y2="480.8" stroke="#1e1e23" stroke-width="0.5"/>
<line x1="786" y1="472.4" x2="1159" y2="472.4" stroke="#1e1e23" stroke-width="0.5"/>
<line x1="786" y1="464.1" x2="1159" y2="464.1" stroke="#1e1e23" stroke-width="0.5"/>
<line x1="786" y1="455.8" x2="1159" y2="455.8" stroke="#1e1e23" stroke-width="0.5"/>
<line x1="786" y1="447.5" x2="1159" y2="447.5" stroke="#1e1e23" stroke-width="0.5"/>
<line x1="786" y1="439.2" x2="1159" y2="439.2" stroke="#1e1e23" stroke-width="0.5"/>
<line x1="786" y1="430.9" x2="1159" y2="430.9" stroke="#1e1e23" stroke-width="0.5"/>
<line x1="786" y1="422.6" x2="1159" y2="422.6" stroke="#1e1e23" stroke-width="0.5"/>
<line x1="786" y1="414.3" x2="1159" y2="414.3" stroke="#1e1e23" stroke-width="0.5"/>
<line x1="786" y1="405.9" x2="1159" y2="405.9" stroke="#1e1e23" stroke-width="0.5"/>
<line x1="786" y1="397.6" x2="1159" y2="397.6" stroke="#1e1e23" stroke-width="0.5"/>
<line x1="786" y1="389.3" x2="1159" y2="389.3" stroke="#1e1e23" stroke-width="0.5"/>
<line x1="786" y1="381.0" x2="1159" y2="381.0" stroke="#1e1e23" stroke-width="0.5"/>
<line x1="786" y1="372.7" x2="1159" y2="372.7" stroke="#1e1e23" stroke-width="0.5"/>
<line x1="786" y1="364.4" x2="1159" y2="364.4" stroke="#1e1e23" stroke-width="0.5"/>
<line x1="786" y1="356.1" x2="1159" y2="356.1" stroke="#1e1e23" stroke-width="0.5"/>
<line x1="786" y1="347.8" x2="1159" y2="347.8" stroke="#1e1e23" stroke-width="0.5"/>
<line x1="786" y1="339.4" x2="1159" y2="339.4" stroke="#1e1e23" stroke-width="0.5"/>
<line x1="786" y1="331.1" x2="1159" y2="331.1" stroke="#1e1e23" stroke-width="0.5"/>
<line x1="786" y1="322.8" x2="1159" y2="322.8" stroke="#1e1e23" stroke-width="0.5"/>
<line x1="786" y1="314.5" x2="1159" y2="314.5" stroke="#1e1e23" stroke-width="0.5"/>
<line x1="786" y1="306.2" x2="1159" y2="306.2" stroke="#1e1e23" stroke-width="0.5"/>
<line x1="786" y1="297.9" x2="1159" y2="297.9" stroke="#1e1e23" stroke-width="0.5"/>
<line x1="786" y1="289.6" x2="1159" y2="289.6" stroke="#1e1e23" stroke-width="0.5"/>
<line x1="786" y1="281.3" x2="1159" y2="281.3" stroke="#1e1e23" stroke-width="0.5"/>
<line x1="786" y1="272.9" x2="1159" y2="272.9" stroke="#1e1e23" stroke-width="0.5"/>
<line x1="786" y1="264.6" x2="1159" y2="264.6" stroke="#1e1e23" stroke-width="0.5"/>
<line x1="786" y1="256.3" x2="1159" y2="256.3" stroke="#1e1e23" stroke-width="0.5"/>
<line x1="786" y1="248.0" x2="1159" y2="248.0" stroke="#1e1e23" stroke-width="0.5"/>
<line x1="786" y1="239.7" x2="1159" y2="239.7" stroke="#1e1e23" stroke-width="0.5"/>
<line x1="786" y1="231.4" x2="1159" y2="231.4" stroke="#1e1e23" stroke-width="0.5"/>
<line x1="786" y1="223.1" x2="1159" y2="223.1" stroke="#1e1e23" stroke-width="0.5"/>
<line x1="786" y1="214.8" x2="1159" y2="214.8" stroke="#1e1e23" stroke-width="0.5"/>
<line x1="786" y1="206.4" x2="1159" y2="206.4" stroke="#1e1e23" stroke-width="0.5"/>
<line x1="786" y1="198.1" x2="1159" y2="198.1" stroke="#1e1e23" stroke-width="0.5"/>
<line x1="786" y1="189.8" x2="1159" y2="189.8" stroke="#1e1e23" stroke-width="0.5"/>
<line x1="786" y1="181.5" x2="1159" y2="181.5" stroke="#1e1e23" stroke-width="0.5"/>
<line x1="786" y1="173.2" x2="1159" y2="173.2" stroke="#1e1e23" stroke-width="0.5"/>
<line x1="786" y1="164.9" x2="1159" y2="164.9" stroke="#1e1e23" stroke-width="0.5"/>
<line x1="786" y1="156.6" x2="1159" y2="156.6" stroke="#1e1e23" stroke-width="0.5"/>
<line x1="786" y1="148.3" x2="1159" y2="148.3" stroke="#1e1e23" stroke-width="0.5"/>
<line x1="786" y1="139.9" x2="1159" y2="139.9" stroke="#1e1e23" stroke-width="0.5"/>
<line x1="786" y1="131.6" x2="1159" y2="131.6" stroke="#1e1e23" stroke-width="0.5"/>
<line x1="786" y1="123.3" x2="1159" y2="123.3" stroke="#1e1e23" stroke-width="0.5"/>
<line x1="786" y1="115.0" x2="1159" y2="115.0" stroke="#1e1e23" stroke-width="0.5"/>
<line x1="786" y1="106.7" x2="1159" y2="106.7" stroke="#1e1e23" stroke-width="0.5"/>
<line x1="1020.3" y1="559.9" x2="1020.3" y2="780.0" stroke="#508ce0" stroke-width="1.5"/>
<line x1="1020.3" y1="780.0" x2="978.5" y2="780.0" stroke="#508ce0" stroke-width="1.5"/>
<line x1="978.5" y1="780.0" x2="978.5" y2="557.4" stroke="#508ce0" stroke-width="1.5"/>
<line x1="978.5" y1="557.4" x2="1011.4" y2="559.4" stroke="#508ce0" stroke-width="1.5"/>
<line x1="1020.3" y1="377.0" x2="1020.3" y2="518.0" stroke="#508ce0" stroke-width="1.5"/>
<line x1="1020.3" y1="518.0" x2="978.5" y2="520.4" stroke="#508ce0" stroke-width="1.5"/>
<line x1="978.5" y1="520.4" x2="978.5" y2="374.6" stroke="#508ce0" stroke-width="1.5"/>
<line x1="978.5" y1="374.6" x2="1011.4" y2="376.5" stroke="#508ce0" stroke-width="1.5"/>
<line x1="978.5" y1="115.0" x2="1020.3" y2="115.0" stroke="#508ce0" stroke-width="1.5"/>
<line x1="1020.3" y1="115.0" x2="1020.3" y2="335.1" stroke="#508ce0" stroke-width="1.5"/>
<line x1="1020.3" y1="335.1" x2="978.5" y2="337.6" stroke="#508ce0" stroke-width="1.5"/>
<line x1="978.5" y1="337.6" x2="978.5" y2="115.6" stroke="#508ce0" stroke-width="1.5"/>
<circle cx="999.4" cy="422.6" r="8.3" fill="none" stroke="#508ce0" stroke-width="1.5"/>
<text x="1011.7" y="426.6" fill="#508ce0" font-family="monospace" font-size="8">ø20.01</text>
<circle cx="999.4" cy="472.4" r="8.3" fill="none" stroke="#508ce0" stroke-width="1.5"/>
<text x="1011.7" y="476.4" fill="#508ce0" font-family="monospace" font-size="8">ø20.01</text>
<circle cx="950.1" cy="647.0" r="8.3" fill="none" stroke="#508ce0" stroke-width="1" stroke-dasharray="3,2"/>
<line x1="958.5" y1="647.0" x2="958.5" y2="562.2" stroke="#508ce0" stroke-width="1.5"/>
<line x1="958.5" y1="562.2" x2="1000.2" y2="559.7" stroke="#508ce0" stroke-width="1.5"/>
<line x1="1000.2" y1="559.7" x2="1000.2" y2="780.0" stroke="#508ce0" stroke-width="1.5"/>
<line x1="1000.2" y1="780.0" x2="953.8" y2="780.0" stroke="#508ce0" stroke-width="1.5"/>
<line x1="953.8" y1="780.0" x2="953.8" y2="753.3" stroke="#508ce0" stroke-width="1.5"/>
<line x1="953.8" y1="753.3" x2="953.8" y2="654.4" stroke="#508ce0" stroke-width="1.5"/>
<line x1="953.8" y1="654.4" x2="954.2" y2="654.2" stroke="#508ce0" stroke-width="1.5"/>
<line x1="1000.2" y1="376.8" x2="1000.2" y2="518.2" stroke="#508ce0" stroke-width="1.5"/>
<line x1="1000.2" y1="518.2" x2="958.5" y2="515.7" stroke="#508ce0" stroke-width="1.5"/>
<line x1="958.5" y1="515.7" x2="958.5" y2="379.3" stroke="#508ce0" stroke-width="1.5"/>
<line x1="958.5" y1="379.3" x2="993.2" y2="377.2" stroke="#508ce0" stroke-width="1.5"/>
<circle cx="950.4" cy="247.7" r="7.9" fill="none" stroke="#508ce0" stroke-width="1" stroke-dasharray="3,2"/>
<line x1="953.8" y1="240.6" x2="953.8" y2="141.7" stroke="#508ce0" stroke-width="1.5"/>
<line x1="953.8" y1="141.7" x2="953.8" y2="115.0" stroke="#508ce0" stroke-width="1.5"/>
<line x1="953.8" y1="115.0" x2="1000.2" y2="115.0" stroke="#508ce0" stroke-width="1.5"/>
<line x1="1000.2" y1="115.0" x2="1000.2" y2="335.3" stroke="#508ce0" stroke-width="1.5"/>
<line x1="1000.2" y1="335.3" x2="958.5" y2="332.8" stroke="#508ce0" stroke-width="1.5"/>
<line x1="958.5" y1="332.8" x2="958.4" y2="248.0" stroke="#508ce0" stroke-width="1.5"/>
<circle cx="950.2" cy="248.0" r="8.2" fill="none" stroke="#508ce0" stroke-width="1" stroke-dasharray="3,2"/>
<line x1="916.7" y1="655.3" x2="945.2" y2="655.3" stroke="#508ce0" stroke-width="1.5"/>
<line x1="945.2" y1="655.3" x2="945.2" y2="780.0" stroke="#508ce0" stroke-width="1.5"/>
<line x1="945.2" y1="780.0" x2="916.7" y2="780.0" stroke="#508ce0" stroke-width="1.5"/>
<line x1="916.7" y1="780.0" x2="916.7" y2="659.4" stroke="#508ce0" stroke-width="1.5"/>
<line x1="916.7" y1="239.7" x2="945.2" y2="239.7" stroke="#508ce0" stroke-width="1.5"/>
<line x1="945.2" y1="239.7" x2="945.2" y2="115.0" stroke="#508ce0" stroke-width="1.5"/>
<line x1="945.2" y1="115.0" x2="916.7" y2="115.0" stroke="#508ce0" stroke-width="1.5"/>
<line x1="916.7" y1="115.0" x2="916.7" y2="235.5" stroke="#508ce0" stroke-width="1.5"/>
<circle cx="979.3" cy="422.6" r="8.3" fill="none" stroke="#508ce0" stroke-width="1.5"/>
<text x="991.7" y="426.6" fill="#508ce0" font-family="monospace" font-size="8">ø20.03</text>
<circle cx="979.3" cy="472.4" r="8.3" fill="none" stroke="#508ce0" stroke-width="1.5"/>
<text x="991.7" y="476.4" fill="#508ce0" font-family="monospace" font-size="8">ø20.03</text>
</g>
<text x="794" y="802" fill="#786432" font-family="monospace" font-size="9">Range: 124.7 x 800.0 mm</text>
<text x="40" y="880" fill="#c9a84c" font-family="monospace" font-size="9">Features (34): ⊙× Circular Pattern ×6 (⊙ Hole ø20.01) | ⊙× Circular Pattern ×4 (⊙ Hole ø24.91) | ⊙× Circular Pattern ×4 (⊙ Hole ø34.90) | ▭ Pocket 50.3×267.1 | ▭ Pocket 50.3×267.1 | ▭ Pocket 50.3×174.3 | ▭ Pocket 50.3×267.5 | ▭ Pocket 50.3×267.5</text>
</svg>