<svg xmlns="http://www.w3.org/2000/svg" width="1200" height="900" viewBox="0 0 1200 900">
<rect width="1200" height="900" fill="#08090d"/>
<text x="40" y="30" fill="#c9a84c" font-family="monospace" font-size="16" font-weight="bold">nist_ftc_09_asme1_ap242-e1.stp  </text>
<text x="40" y="50" fill="#786432" font-family="monospace" font-size="11">BBox: 190.5 x 3.0 x 279.4 mm   Diag: 338.2mm</text>
<rect x="40" y="70" width="552" height="740" fill="none" stroke="#1e1e23" stroke-width="1"/>
<text x="48" y="86" fill="#dcdcdc" font-family="monospace" font-size="11">Plane +X (5 profiles)</text>
<defs><clipPath id="clip-0-nist_ftc_09_asme1_ap242-e1"><rect x="41" y="71" width="550" height="738"/></clipPath></defs>
<g clip-path="url(#clip-0-nist_ftc_09_asme1_ap242-e1)">
<line x1="64.5" y1="70" x2="64.5" y2="810" stroke="#1e1e23" stroke-width="0.5"/>
<line x1="82.4" y1="70" x2="82.4" y2="810" stroke="#1e1e23" stroke-width="0.5"/>
<line x1="100.4" y1="70" x2="100.4" y2="810" stroke="#1e1e23" stroke-width="0.5"/>
<line x1="118.4" y1="70" x2="118.4" y2="810" stroke="#1e1e23" stroke-width="0.5"/>
<line x1="136.3" y1="70" x2="136.3" y2="810" stroke="#1e1e23" stroke-width="0.5"/>
<line x1="154.3" y1="70" x2="154.3" y2="810" stroke="#1e1e23" stroke-width="0.5"/>
<line x1="172.3" y1="70" x2="172.3" y2="810" stroke="#1e1e23" stroke-width="0.5"/>
<line x1="190.2" y1="70" x2="190.2" y2="810" stroke="#1e1e23" stroke-width="0.5"/>
<line x1="208.2" y1="70" x2="208.2" y2="810" stroke="#1e1e23" stroke-width="0.5"/>
<line x1="226.2" y1="70" x2="226.2" y2="810" stroke="#1e1e23" stroke-width="0.5"/>
<line x1="244.1" y1="70" x2="244.1" y2="810" stroke="#1e1e23" stroke-width="0.5"/>
<line x1="262.1" y1="70" x2="262.1" y2="810" stroke="#1e1e23" stroke-width="0.5"/>
<line x1="280.1" y1="70" x2="280.1" y2="810" stroke="#1e1e23" stroke-width="0.5"/>
<line x1="298.0" y1="70" x2="298.0" y2="810" stroke="#1e1e23" stroke-width="0.5"/>
<line x1="316.0" y1="70" x2="316.0" y2="810" stroke="#1e1e23" stroke-width="0.5"/>
<line x1="334.0" y1="70" x2="334.0" y2="810" stroke="#1e1e23" stroke-width="0.5"/>
<line x1="351.9" y1="70" x2="351.9" y2="810" stroke="#1e1e23" stroke-width="0.5"/>
<line x1="369.9" y1="70" x2="369.9" y2="810" stroke="#1e1e23" stroke-width="0.5"/>
<line x1="387.9" y1="70" x2="387.9" y2="810" stroke="#1e1e23" stroke-width="0.5"/>
<line x1="405.8" y1="70" x2="405.8" y2="810" stroke="#1e1e23" stroke-width="0.5"/>
<line x1="423.8" y1="70" x2="423.8" y2="810" stroke="#1e1e23" stroke-width="0.5"/>
<line x1="441.8" y1="70" x2="441.8" y2="810" stroke="#1e1e23" stroke-width="0.5"/>
<line x1="459.7" y1="70" x2="459.7" y2="810" stroke="#1e1e23" stroke-width="0.5"/>
<line x1="477.7" y1="70" x2="477.7" y2="810" stroke="#1e1e23" stroke-width="0.5"/>
<line x1="495.7" y1="70" x2="495.7" y2="810" stroke="#1e1e23" stroke-width="0.5"/>
<line x1="513.6" y1="70" x2="513.6" y2="810" stroke="#1e1e23" stroke-width="0.5"/>
<line x1="531.6" y1="70" x2="531.6" y2="810" stroke="#1e1e23" stroke-width="0.5"/>
<line x1="549.6" y1="70" x2="549.6" y2="810" stroke="#1e1e23" stroke-width="0.5"/>
<line x1="567.5" y1="70" x2="567.5" y2="810" stroke="#1e1e23" stroke-width="0.5"/>
<line x1="40" y1="450.2" x2="600" y2="450.2" stroke="#1e1e23" stroke-width="0.5"/>
<line x1="40" y1="432.3" x2="600" y2="432.3" stroke="#1e1e23" stroke-width="0.5"/>
<line x1="241.3" y1="444.8" x2="241.3" y2="450.2" stroke="#c9a84c" stroke-width="1.5"/>
<line x1="241.3" y1="450.2" x2="65.0" y2="450.2" stroke="#c9a84c" stroke-width="1.5"/>
<line x1="65.0" y1="450.2" x2="65.0" y2="444.8" stroke="#c9a84c" stroke-width="1.5"/>
<line x1="65.0" y1="444.8" x2="240.0" y2="444.8" stroke="#c9a84c" stroke-width="1.5"/>
<line x1="554.4" y1="450.2" x2="554.4" y2="444.8" stroke="#508ce0" stroke-width="1.5"/>
<line x1="554.4" y1="444.8" x2="567.0" y2="444.8" stroke="#508ce0" stroke-width="1.5"/>
<line x1="567.0" y1="444.8" x2="567.0" y2="450.2" stroke="#508ce0" stroke-width="1.5"/>
<line x1="567.0" y1="450.2" x2="554.5" y2="450.2" stroke="#508ce0" stroke-width="1.5"/>
<line x1="403.7" y1="450.2" x2="252.7" y2="450.2" stroke="#508ce0" stroke-width="1.5"/>
<line x1="252.7" y1="450.2" x2="252.7" y2="444.8" stroke="#508ce0" stroke-width="1.5"/>
<line x1="252.7" y1="444.8" x2="403.7" y2="444.8" stroke="#508ce0" stroke-width="1.5"/>
<line x1="403.7" y1="444.8" x2="403.7" y2="448.0" stroke="#508ce0" stroke-width="1.5"/>
<line x1="492.9" y1="446.1" x2="492.9" y2="450.2" stroke="#508ce0" stroke-width="1.5"/>
<line x1="492.9" y1="450.2" x2="413.7" y2="450.2" stroke="#508ce0" stroke-width="1.5"/>
<line x1="413.7" y1="450.2" x2="413.7" y2="444.8" stroke="#508ce0" stroke-width="1.5"/>
<line x1="413.7" y1="444.8" x2="492.9" y2="444.8" stroke="#508ce0" stroke-width="1.5"/>
<line x1="543.1" y1="450.2" x2="543.1" y2="444.8" stroke="#508ce0" stroke-width="1.5"/>
<line x1="543.1" y1="444.8" x2="504.2" y2="444.8" stroke="#508ce0" stroke-width="1.5"/>
<line x1="504.2" y1="444.8" x2="504.2" y2="450.2" stroke="#508ce0" stroke-width="1.5"/>
<line x1="504.2" y1="450.2" x2="527.2" y2="450.2" stroke="#508ce0" stroke-width="1.5"/>
</g>
<text x="48" y="802" fill="#786432" font-family="monospace" font-size="9">Range: 279.4 x 3.0 mm</text>
<rect x="600" y="70" width="552" height="740" fill="none" stroke="#1e1e23" stroke-width="1"/>
<text x="608" y="86" fill="#dcdcdc" font-family="monospace" font-size="11">Plane +Z (2 profiles)</text>
<defs><clipPath id="clip-1-nist_ftc_09_asme1_ap242-e1"><rect x="601" y="71" width="550" height="738"/></clipPath></defs>
<g clip-path="url(#clip-1-nist_ftc_09_asme1_ap242-e1)">
<line x1="612.5" y1="70" x2="612.5" y2="810" stroke="#1e1e23" stroke-width="0.5"/>
<line x1="638.8" y1="70" x2="638.8" y2="810" stroke="#1e1e23" stroke-width="0.5"/>
<line x1="665.2" y1="70" x2="665.2" y2="810" stroke="#1e1e23" stroke-width="0.5"/>
<line x1="691.5" y1="70" x2="691.5" y2="810" stroke="#1e1e23" stroke-width="0.5"/>
<line x1="717.9" y1="70" x2="717.9" y2="810" stroke="#1e1e23" stroke-width="0.5"/>
<line x1="744.2" y1="70" x2="744.2" y2="810" stroke="#1e1e23" stroke-width="0.5"/>
<line x1="770.6" y1="70" x2="770.6" y2="810" stroke="#1e1e23" stroke-width="0.5"/>
<line x1="796.9" y1="70" x2="796.9" y2="810" stroke="#1e1e23" stroke-width="0.5"/>
<line x1="823.3" y1="70" x2="823.3" y2="810" stroke="#1e1e23" stroke-width="0.5"/>
<line x1="849.6" y1="70" x2="849.6" y2="810" stroke="#1e1e23" stroke-width="0.5"/>
<line x1="876.0" y1="70" x2="876.0" y2="810" stroke="#1e1e23" stroke-width="0.5"/>
<line x1="902.4" y1="70" x2="902.4" y2="810" stroke="#1e1e23" stroke-width="0.5"/>
<line x1="928.7" y1="70" x2="928.7" y2="810" stroke="#1e1e23" stroke-width="0.5"/>
<line x1="955.1" y1="70" x2="955.1" y2="810" stroke="#1e1e23" stroke-width="0.5"/>
<line x1="981.4" y1="70" x2="981.4" y2="810" stroke="#1e1e23" stroke-width="0.5"/>
<line x1="1007.8" y1="70" x2="1007.8" y2="810" stroke="#1e1e23" stroke-width="0.5"/>
<line x1="1034.1" y1="70" x2="1034.1" y2="810" stroke="#1e1e23" stroke-width="0.5"/>
<line x1="1060.5" y1="70" x2="1060.5" y2="810" stroke="#1e1e23" stroke-width="0.5"/>
<line x1="1086.8" y1="70" x2="1086.8" y2="810" stroke="#1e1e23" stroke-width="0.5"/>
<line x1="1113.2" y1="70" x2="1113.2" y2="810" stroke="#1e1e23" stroke-width="0.5"/>
<line x1="1139.5" y1="70" x2="1139.5" y2="810" stroke="#1e1e23" stroke-width="0.5"/>
<line x1="600" y1="451.5" x2="1160" y2="451.5" stroke="#1e1e23" stroke-width="0.5"/>
<line x1="600" y1="425.2" x2="1160" y2="425.2" stroke="#1e1e23" stroke-width="0.5"/>
<line x1="643.4" y1="451.5" x2="643.4" y2="443.5" stroke="#508ce0" stroke-width="1.5"/>
<line x1="643.4" y1="443.5" x2="625.0" y2="443.5" stroke="#508ce0" stroke-width="1.5"/>
<line x1="625.0" y1="443.5" x2="625.0" y2="451.5" stroke="#508ce0" stroke-width="1.5"/>
<line x1="625.0" y1="451.5" x2="643.4" y2="451.5" stroke="#508ce0" stroke-width="1.5"/>
<line x1="660.3" y1="451.5" x2="660.1" y2="443.5" stroke="#c9a84c" stroke-width="1.5"/>
<line x1="660.1" y1="443.5" x2="1127.0" y2="443.5" stroke="#c9a84c" stroke-width="1.5"/>
<line x1="1127.0" y1="443.5" x2="1127.0" y2="451.5" stroke="#c9a84c" stroke-width="1.5"/>
<line x1="1127.0" y1="451.5" x2="660.3" y2="451.5" stroke="#c9a84c" stroke-width="1.5"/>
</g>
<text x="608" y="802" fill="#786432" font-family="monospace" font-size="9">Range: 190.5 x 3.0 mm</text>
<text x="40" y="880" fill="#c9a84c" font-family="monospace" font-size="9">Features (6): ▭ Boss 98.1×3.0 | ▭ Pocket 7.0×3.0 | ▭ Pocket 84.1×3.0 | ▭ Pocket 44.0×3.0 | ▭ Pocket 21.6×3.0 | ▭ Pocket 7.0×3.0</text>
</svg>