<svg xmlns="http://www.w3.org/2000/svg" width="1200" height="900" viewBox="0 0 1200 900">
<rect width="1200" height="900" fill="#08090d"/>
<text x="40" y="30" fill="#c9a84c" font-family="monospace" font-size="16" font-weight="bold">nist_ctc_05_asme1_rd.stp  [REVOLUTION]</text>
<text x="40" y="50" fill="#786432" font-family="monospace" font-size="11">BBox: 527.0 x 558.3 x 482.6 mm   Diag: 906.9mm</text>
<rect x="40" y="70" width="365" height="740" fill="none" stroke="#1e1e23" stroke-width="1"/>
<text x="48" y="86" fill="#dcdcdc" font-family="monospace" font-size="11">Plane ⊥Z t1/25 (12 profiles)</text>
<defs><clipPath id="clip-0-nist_ctc_05_asme1_rd"><rect x="41" y="71" width="363" height="738"/></clipPath></defs>
<g clip-path="url(#clip-0-nist_ctc_05_asme1_rd)">
<line x1="64.3" y1="70" x2="64.3" y2="810" stroke="#1e1e23" stroke-width="0.5"/>
<line x1="70.0" y1="70" x2="70.0" y2="810" stroke="#1e1e23" stroke-width="0.5"/>
<line x1="75.6" y1="70" x2="75.6" y2="810" stroke="#1e1e23" stroke-width="0.5"/>
<line x1="81.3" y1="70" x2="81.3" y2="810" stroke="#1e1e23" stroke-width="0.5"/>
<line x1="86.9" y1="70" x2="86.9" y2="810" stroke="#1e1e23" stroke-width="0.5"/>
<line x1="92.6" y1="70" x2="92.6" y2="810" stroke="#1e1e23" stroke-width="0.5"/>
<line x1="98.2" y1="70" x2="98.2" y2="810" stroke="#1e1e23" stroke-width="0.5"/>
<line x1="103.9" y1="70" x2="103.9" y2="810" stroke="#1e1e23" stroke-width="0.5"/>
<line x1="109.5" y1="70" x2="109.5" y2="810" stroke="#1e1e23" stroke-width="0.5"/>
<line x1="115.2" y1="70" x2="115.2" y2="810" stroke="#1e1e23" stroke-width="0.5"/>
<line x1="120.8" y1="70" x2="120.8" y2="810" stroke="#1e1e23" stroke-width="0.5"/>
<line x1="126.5" y1="70" x2="126.5" y2="810" stroke="#1e1e23" stroke-width="0.5"/>
<line x1="132.1" y1="70" x2="132.1" y2="810" stroke="#1e1e23" stroke-width="0.5"/>
<line x1="137.8" y1="70" x2="137.8" y2="810" stroke="#1e1e23" stroke-width="0.5"/>
<line x1="143.4" y1="70" x2="143.4" y2="810" stroke="#1e1e23" stroke-width="0.5"/>
<line x1="149.1" y1="70" x2="149.1" y2="810" stroke="#1e1e23" stroke-width="0.5"/>
<line x1="154.7" y1="70" x2="154.7" y2="810" stroke="#1e1e23" stroke-width="0.5"/>
<line x1="160.4" y1="70" x2="160.4" y2="810" stroke="#1e1e23" stroke-width="0.5"/>
<line x1="166.0" y1="70" x2="166.0" y2="810" stroke="#1e1e23" stroke-width="0.5"/>
<line x1="171.7" y1="70" x2="171.7" y2="810" stroke="#1e1e23" stroke-width="0.5"/>
<line x1="177.3" y1="70" x2="177.3" y2="810" stroke="#1e1e23" stroke-width="0.5"/>
<line x1="183.0" y1="70" x2="183.0" y2="810" stroke="#1e1e23" stroke-width="0.5"/>
<line x1="188.6" y1="70" x2="188.6" y2="810" stroke="#1e1e23" stroke-width="0.5"/>
<line x1="194.3" y1="70" x2="194.3" y2="810" stroke="#1e1e23" stroke-width="0.5"/>
<line x1="199.9" y1="70" x2="199.9" y2="810" stroke="#1e1e23" stroke-width="0.5"/>
<line x1="205.6" y1="70" x2="205.6" y2="810" stroke="#1e1e23" stroke-width="0.5"/>
<line x1="211.2" y1="70" x2="211.2" y2="810" stroke="#1e1e23" stroke-width="0.5"/>
<line x1="216.9" y1="70" x2="216.9" y2="810" stroke="#1e1e23" stroke-width="0.5"/>
<line x1="222.5" y1="70" x2="222.5" y2="810" stroke="#1e1e23" stroke-width="0.5"/>
<line x1="228.1" y1="70" x2="228.1" y2="810" stroke="#1e1e23" stroke-width="0.5"/>
<line x1="233.8" y1="70" x2="233.8" y2="810" stroke="#1e1e23" stroke-width="0.5"/>
<line x1="239.4" y1="70" x2="239.4" y2="810" stroke="#1e1e23" stroke-width="0.5"/>
<line x1="245.1" y1="70" x2="245.1" y2="810" stroke="#1e1e23" stroke-width="0.5"/>
<line x1="250.7" y1="70" x2="250.7" y2="810" stroke="#1e1e23" stroke-width="0.5"/>
<line x1="256.4" y1="70" x2="256.4" y2="810" stroke="#1e1e23" stroke-width="0.5"/>
<line x1="262.0" y1="70" x2="262.0" y2="810" stroke="#1e1e23" stroke-width="0.5"/>
<line x1="267.7" y1="70" x2="267.7" y2="810" stroke="#1e1e23" stroke-width="0.5"/>
<line x1="273.3" y1="70" x2="273.3" y2="810" stroke="#1e1e23" stroke-width="0.5"/>
<line x1="279.0" y1="70" x2="279.0" y2="810" stroke="#1e1e23" stroke-width="0.5"/>
<line x1="284.6" y1="70" x2="284.6" y2="810" stroke="#1e1e23" stroke-width="0.5"/>
<line x1="290.3" y1="70" x2="290.3" y2="810" stroke="#1e1e23" stroke-width="0.5"/>
<line x1="295.9" y1="70" x2="295.9" y2="810" stroke="#1e1e23" stroke-width="0.5"/>
<line x1="301.6" y1="70" x2="301.6" y2="810" stroke="#1e1e23" stroke-width="0.5"/>
<line x1="307.2" y1="70" x2="307.2" y2="810" stroke="#1e1e23" stroke-width="0.5"/>
<line x1="312.9" y1="70" x2="312.9" y2="810" stroke="#1e1e23" stroke-width="0.5"/>
<line x1="318.5" y1="70" x2="318.5" y2="810" stroke="#1e1e23" stroke-width="0.5"/>
<line x1="324.2" y1="70" x2="324.2" y2="810" stroke="#1e1e23" stroke-width="0.5"/>
<line x1="329.8" y1="70" x2="329.8" y2="810" stroke="#1e1e23" stroke-width="0.5"/>
<line x1="335.5" y1="70" x2="335.5" y2="810" stroke="#1e1e23" stroke-width="0.5"/>
<line x1="341.1" y1="70" x2="341.1" y2="810" stroke="#1e1e23" stroke-width="0.5"/>
<line x1="346.8" y1="70" x2="346.8" y2="810" stroke="#1e1e23" stroke-width="0.5"/>
<line x1="352.4" y1="70" x2="352.4" y2="810" stroke="#1e1e23" stroke-width="0.5"/>
<line x1="358.1" y1="70" x2="358.1" y2="810" stroke="#1e1e23" stroke-width="0.5"/>
<line x1="363.7" y1="70" x2="363.7" y2="810" stroke="#1e1e23" stroke-width="0.5"/>
<line x1="369.4" y1="70" x2="369.4" y2="810" stroke="#1e1e23" stroke-width="0.5"/>
<line x1="375.0" y1="70" x2="375.0" y2="810" stroke="#1e1e23" stroke-width="0.5"/>
<line x1="380.7" y1="70" x2="380.7" y2="810" stroke="#1e1e23" stroke-width="0.5"/>
<line x1="40" y1="605.7" x2="413" y2="605.7" stroke="#1e1e23" stroke-width="0.5"/>
<line x1="40" y1="600.0" x2="413" y2="600.0" stroke="#1e1e23" stroke-width="0.5"/>
<line x1="40" y1="594.4" x2="413" y2="594.4" stroke="#1e1e23" stroke-width="0.5"/>
<line x1="40" y1="588.7" x2="413" y2="588.7" stroke="#1e1e23" stroke-width="0.5"/>
<line x1="40" y1="583.1" x2="413" y2="583.1" stroke="#1e1e23" stroke-width="0.5"/>
<line x1="40" y1="577.4" x2="413" y2="577.4" stroke="#1e1e23" stroke-width="0.5"/>
<line x1="40" y1="571.8" x2="413" y2="571.8" stroke="#1e1e23" stroke-width="0.5"/>
<line x1="40" y1="566.1" x2="413" y2="566.1" stroke="#1e1e23" stroke-width="0.5"/>
<line x1="40" y1="560.5" x2="413" y2="560.5" stroke="#1e1e23" stroke-width="0.5"/>
<line x1="40" y1="554.8" x2="413" y2="554.8" stroke="#1e1e23" stroke-width="0.5"/>
<line x1="40" y1="549.2" x2="413" y2="549.2" stroke="#1e1e23" stroke-width="0.5"/>
<line x1="40" y1="543.5" x2="413" y2="543.5" stroke="#1e1e23" stroke-width="0.5"/>
<line x1="40" y1="537.9" x2="413" y2="537.9" stroke="#1e1e23" stroke-width="0.5"/>
<line x1="40" y1="532.2" x2="413" y2="532.2" stroke="#1e1e23" stroke-width="0.5"/>
<line x1="40" y1="526.6" x2="413" y2="526.6" stroke="#1e1e23" stroke-width="0.5"/>
<line x1="40" y1="520.9" x2="413" y2="520.9" stroke="#1e1e23" stroke-width="0.5"/>
<line x1="40" y1="515.3" x2="413" y2="515.3" stroke="#1e1e23" stroke-width="0.5"/>
<line x1="40" y1="509.6" x2="413" y2="509.6" stroke="#1e1e23" stroke-width="0.5"/>
<line x1="40" y1="504.0" x2="413" y2="504.0" stroke="#1e1e23" stroke-width="0.5"/>
<line x1="40" y1="498.3" x2="413" y2="498.3" stroke="#1e1e23" stroke-width="0.5"/>
<line x1="40" y1="492.7" x2="413" y2="492.7" stroke="#1e1e23" stroke-width="0.5"/>
<line x1="40" y1="487.0" x2="413" y2="487.0" stroke="#1e1e23" stroke-width="0.5"/>
<line x1="40" y1="481.4" x2="413" y2="481.4" stroke="#1e1e23" stroke-width="0.5"/>
<line x1="40" y1="475.7" x2="413" y2="475.7" stroke="#1e1e23" stroke-width="0.5"/>
<line x1="40" y1="470.1" x2="413" y2="470.1" stroke="#1e1e23" stroke-width="0.5"/>
<line x1="40" y1="464.4" x2="413" y2="464.4" stroke="#1e1e23" stroke-width="0.5"/>
<line x1="40" y1="458.8" x2="413" y2="458.8" stroke="#1e1e23" stroke-width="0.5"/>
<line x1="40" y1="453.1" x2="413" y2="453.1" stroke="#1e1e23" stroke-width="0.5"/>
<line x1="40" y1="447.5" x2="413" y2="447.5" stroke="#1e1e23" stroke-width="0.5"/>
<line x1="40" y1="441.9" x2="413" y2="441.9" stroke="#1e1e23" stroke-width="0.5"/>
<line x1="40" y1="436.2" x2="413" y2="436.2" stroke="#1e1e23" stroke-width="0.5"/>
<line x1="40" y1="430.6" x2="413" y2="430.6" stroke="#1e1e23" stroke-width="0.5"/>
<line x1="40" y1="424.9" x2="413" y2="424.9" stroke="#1e1e23" stroke-width="0.5"/>
<line x1="40" y1="419.3" x2="413" y2="419.3" stroke="#1e1e23" stroke-width="0.5"/>
<line x1="40" y1="413.6" x2="413" y2="413.6" stroke="#1e1e23" stroke-width="0.5"/>
<line x1="40" y1="408.0" x2="413" y2="408.0" stroke="#1e1e23" stroke-width="0.5"/>
<line x1="40" y1="402.3" x2="413" y2="402.3" stroke="#1e1e23" stroke-width="0.5"/>
<line x1="40" y1="396.7" x2="413" y2="396.7" stroke="#1e1e23" stroke-width="0.5"/>
<line x1="40" y1="391.0" x2="413" y2="391.0" stroke="#1e1e23" stroke-width="0.5"/>
<line x1="40" y1="385.4" x2="413" y2="385.4" stroke="#1e1e23" stroke-width="0.5"/>
<line x1="40" y1="379.7" x2="413" y2="379.7" stroke="#1e1e23" stroke-width="0.5"/>
<line x1="40" y1="374.1" x2="413" y2="374.1" stroke="#1e1e23" stroke-width="0.5"/>
<line x1="40" y1="368.4" x2="413" y2="368.4" stroke="#1e1e23" stroke-width="0.5"/>
<line x1="40" y1="362.8" x2="413" y2="362.8" stroke="#1e1e23" stroke-width="0.5"/>
<line x1="40" y1="357.1" x2="413" y2="357.1" stroke="#1e1e23" stroke-width="0.5"/>
<line x1="40" y1="351.5" x2="413" y2="351.5" stroke="#1e1e23" stroke-width="0.5"/>
<line x1="40" y1="345.8" x2="413" y2="345.8" stroke="#1e1e23" stroke-width="0.5"/>
<line x1="40" y1="340.2" x2="413" y2="340.2" stroke="#1e1e23" stroke-width="0.5"/>
<line x1="40" y1="334.5" x2="413" y2="334.5" stroke="#1e1e23" stroke-width="0.5"/>
<line x1="40" y1="328.9" x2="413" y2="328.9" stroke="#1e1e23" stroke-width="0.5"/>
<line x1="40" y1="323.2" x2="413" y2="323.2" stroke="#1e1e23" stroke-width="0.5"/>
<line x1="40" y1="317.6" x2="413" y2="317.6" stroke="#1e1e23" stroke-width="0.5"/>
<line x1="40" y1="311.9" x2="413" y2="311.9" stroke="#1e1e23" stroke-width="0.5"/>
<line x1="40" y1="306.3" x2="413" y2="306.3" stroke="#1e1e23" stroke-width="0.5"/>
<line x1="40" y1="300.6" x2="413" y2="300.6" stroke="#1e1e23" stroke-width="0.5"/>
<line x1="40" y1="295.0" x2="413" y2="295.0" stroke="#1e1e23" stroke-width="0.5"/>
<line x1="40" y1="289.3" x2="413" y2="289.3" stroke="#1e1e23" stroke-width="0.5"/>
<circle cx="222.5" cy="447.5" r="157.5" fill="none" stroke="#c9a84c" stroke-width="1.5"/>
<text x="384.0" y="451.5" fill="#c9a84c" font-family="monospace" font-size="8">ø557.62</text>
<circle cx="222.5" cy="322.0" r="5.4" fill="none" stroke="#508ce0" stroke-width="1.5"/>
<text x="231.9" y="326.0" fill="#508ce0" font-family="monospace" font-size="8">ø19.00</text>
<circle cx="159.7" cy="338.8" r="5.4" fill="none" stroke="#508ce0" stroke-width="1.5"/>
<text x="169.1" y="342.8" fill="#508ce0" font-family="monospace" font-size="8">ø19.00</text>
<circle cx="113.8" cy="384.7" r="5.4" fill="none" stroke="#508ce0" stroke-width="1.5"/>
<text x="123.1" y="388.7" fill="#508ce0" font-family="monospace" font-size="8">ø19.00</text>
<circle cx="285.3" cy="338.8" r="5.4" fill="none" stroke="#508ce0" stroke-width="1.5"/>
<text x="294.6" y="342.8" fill="#508ce0" font-family="monospace" font-size="8">ø19.00</text>
<circle cx="331.2" cy="384.7" r="5.4" fill="none" stroke="#508ce0" stroke-width="1.5"/>
<text x="340.6" y="388.7" fill="#508ce0" font-family="monospace" font-size="8">ø19.00</text>
<circle cx="222.5" cy="573.0" r="5.4" fill="none" stroke="#508ce0" stroke-width="1.5"/>
<text x="231.9" y="577.0" fill="#508ce0" font-family="monospace" font-size="8">ø19.00</text>
<circle cx="285.3" cy="556.2" r="5.4" fill="none" stroke="#508ce0" stroke-width="1.5"/>
<text x="294.6" y="560.2" fill="#508ce0" font-family="monospace" font-size="8">ø19.00</text>
<circle cx="331.2" cy="510.3" r="5.4" fill="none" stroke="#508ce0" stroke-width="1.5"/>
<text x="340.6" y="514.3" fill="#508ce0" font-family="monospace" font-size="8">ø19.00</text>
<circle cx="159.7" cy="556.2" r="5.4" fill="none" stroke="#508ce0" stroke-width="1.5"/>
<text x="169.1" y="560.2" fill="#508ce0" font-family="monospace" font-size="8">ø19.00</text>
<circle cx="113.8" cy="510.3" r="5.4" fill="none" stroke="#508ce0" stroke-width="1.5"/>
<text x="123.1" y="514.3" fill="#508ce0" font-family="monospace" font-size="8">ø19.00</text>
<circle cx="222.5" cy="447.5" r="71.7" fill="none" stroke="#508ce0" stroke-width="1.5"/>
<text x="298.2" y="451.5" fill="#508ce0" font-family="monospace" font-size="8">ø254.00</text>
</g>
<text x="48" y="802" fill="#786432" font-family="monospace" font-size="9">Range: 557.6 x 557.6 mm</text>
<rect x="413" y="70" width="365" height="740" fill="none" stroke="#1e1e23" stroke-width="1"/>
<text x="421" y="86" fill="#dcdcdc" font-family="monospace" font-size="11">Plane ⊥Z t2/25 (6 profiles)</text>
<defs><clipPath id="clip-1-nist_ctc_05_asme1_rd"><rect x="414" y="71" width="363" height="738"/></clipPath></defs>
<g clip-path="url(#clip-1-nist_ctc_05_asme1_rd)">
<line x1="434.1" y1="70" x2="434.1" y2="810" stroke="#1e1e23" stroke-width="0.5"/>
<line x1="440.1" y1="70" x2="440.1" y2="810" stroke="#1e1e23" stroke-width="0.5"/>
<line x1="446.1" y1="70" x2="446.1" y2="810" stroke="#1e1e23" stroke-width="0.5"/>
<line x1="452.1" y1="70" x2="452.1" y2="810" stroke="#1e1e23" stroke-width="0.5"/>
<line x1="458.0" y1="70" x2="458.0" y2="810" stroke="#1e1e23" stroke-width="0.5"/>
<line x1="464.0" y1="70" x2="464.0" y2="810" stroke="#1e1e23" stroke-width="0.5"/>
<line x1="470.0" y1="70" x2="470.0" y2="810" stroke="#1e1e23" stroke-width="0.5"/>
<line x1="476.0" y1="70" x2="476.0" y2="810" stroke="#1e1e23" stroke-width="0.5"/>
<line x1="481.9" y1="70" x2="481.9" y2="810" stroke="#1e1e23" stroke-width="0.5"/>
<line x1="487.9" y1="70" x2="487.9" y2="810" stroke="#1e1e23" stroke-width="0.5"/>
<line x1="493.9" y1="70" x2="493.9" y2="810" stroke="#1e1e23" stroke-width="0.5"/>
<line x1="499.9" y1="70" x2="499.9" y2="810" stroke="#1e1e23" stroke-width="0.5"/>
<line x1="505.9" y1="70" x2="505.9" y2="810" stroke="#1e1e23" stroke-width="0.5"/>
<line x1="511.8" y1="70" x2="511.8" y2="810" stroke="#1e1e23" stroke-width="0.5"/>
<line x1="517.8" y1="70" x2="517.8" y2="810" stroke="#1e1e23" stroke-width="0.5"/>
<line x1="523.8" y1="70" x2="523.8" y2="810" stroke="#1e1e23" stroke-width="0.5"/>
<line x1="529.8" y1="70" x2="529.8" y2="810" stroke="#1e1e23" stroke-width="0.5"/>
<line x1="535.7" y1="70" x2="535.7" y2="810" stroke="#1e1e23" stroke-width="0.5"/>
<line x1="541.7" y1="70" x2="541.7" y2="810" stroke="#1e1e23" stroke-width="0.5"/>
<line x1="547.7" y1="70" x2="547.7" y2="810" stroke="#1e1e23" stroke-width="0.5"/>
<line x1="553.7" y1="70" x2="553.7" y2="810" stroke="#1e1e23" stroke-width="0.5"/>
<line x1="559.6" y1="70" x2="559.6" y2="810" stroke="#1e1e23" stroke-width="0.5"/>
<line x1="565.6" y1="70" x2="565.6" y2="810" stroke="#1e1e23" stroke-width="0.5"/>
<line x1="571.6" y1="70" x2="571.6" y2="810" stroke="#1e1e23" stroke-width="0.5"/>
<line x1="577.6" y1="70" x2="577.6" y2="810" stroke="#1e1e23" stroke-width="0.5"/>
<line x1="583.5" y1="70" x2="583.5" y2="810" stroke="#1e1e23" stroke-width="0.5"/>
<line x1="589.5" y1="70" x2="589.5" y2="810" stroke="#1e1e23" stroke-width="0.5"/>
<line x1="595.5" y1="70" x2="595.5" y2="810" stroke="#1e1e23" stroke-width="0.5"/>
<line x1="601.5" y1="70" x2="601.5" y2="810" stroke="#1e1e23" stroke-width="0.5"/>
<line x1="607.5" y1="70" x2="607.5" y2="810" stroke="#1e1e23" stroke-width="0.5"/>
<line x1="613.4" y1="70" x2="613.4" y2="810" stroke="#1e1e23" stroke-width="0.5"/>
<line x1="619.4" y1="70" x2="619.4" y2="810" stroke="#1e1e23" stroke-width="0.5"/>
<line x1="625.4" y1="70" x2="625.4" y2="810" stroke="#1e1e23" stroke-width="0.5"/>
<line x1="631.4" y1="70" x2="631.4" y2="810" stroke="#1e1e23" stroke-width="0.5"/>
<line x1="637.3" y1="70" x2="637.3" y2="810" stroke="#1e1e23" stroke-width="0.5"/>
<line x1="643.3" y1="70" x2="643.3" y2="810" stroke="#1e1e23" stroke-width="0.5"/>
<line x1="649.3" y1="70" x2="649.3" y2="810" stroke="#1e1e23" stroke-width="0.5"/>
<line x1="655.3" y1="70" x2="655.3" y2="810" stroke="#1e1e23" stroke-width="0.5"/>
<line x1="661.2" y1="70" x2="661.2" y2="810" stroke="#1e1e23" stroke-width="0.5"/>
<line x1="667.2" y1="70" x2="667.2" y2="810" stroke="#1e1e23" stroke-width="0.5"/>
<line x1="673.2" y1="70" x2="673.2" y2="810" stroke="#1e1e23" stroke-width="0.5"/>
<line x1="679.2" y1="70" x2="679.2" y2="810" stroke="#1e1e23" stroke-width="0.5"/>
<line x1="685.1" y1="70" x2="685.1" y2="810" stroke="#1e1e23" stroke-width="0.5"/>
<line x1="691.1" y1="70" x2="691.1" y2="810" stroke="#1e1e23" stroke-width="0.5"/>
<line x1="697.1" y1="70" x2="697.1" y2="810" stroke="#1e1e23" stroke-width="0.5"/>
<line x1="703.1" y1="70" x2="703.1" y2="810" stroke="#1e1e23" stroke-width="0.5"/>
<line x1="709.1" y1="70" x2="709.1" y2="810" stroke="#1e1e23" stroke-width="0.5"/>
<line x1="715.0" y1="70" x2="715.0" y2="810" stroke="#1e1e23" stroke-width="0.5"/>
<line x1="721.0" y1="70" x2="721.0" y2="810" stroke="#1e1e23" stroke-width="0.5"/>
<line x1="727.0" y1="70" x2="727.0" y2="810" stroke="#1e1e23" stroke-width="0.5"/>
<line x1="733.0" y1="70" x2="733.0" y2="810" stroke="#1e1e23" stroke-width="0.5"/>
<line x1="738.9" y1="70" x2="738.9" y2="810" stroke="#1e1e23" stroke-width="0.5"/>
<line x1="744.9" y1="70" x2="744.9" y2="810" stroke="#1e1e23" stroke-width="0.5"/>
<line x1="750.9" y1="70" x2="750.9" y2="810" stroke="#1e1e23" stroke-width="0.5"/>
<line x1="756.9" y1="70" x2="756.9" y2="810" stroke="#1e1e23" stroke-width="0.5"/>
<line x1="413" y1="543.1" x2="786" y2="543.1" stroke="#1e1e23" stroke-width="0.5"/>
<line x1="413" y1="537.1" x2="786" y2="537.1" stroke="#1e1e23" stroke-width="0.5"/>
<line x1="413" y1="531.2" x2="786" y2="531.2" stroke="#1e1e23" stroke-width="0.5"/>
<line x1="413" y1="525.2" x2="786" y2="525.2" stroke="#1e1e23" stroke-width="0.5"/>
<line x1="413" y1="519.2" x2="786" y2="519.2" stroke="#1e1e23" stroke-width="0.5"/>
<line x1="413" y1="513.2" x2="786" y2="513.2" stroke="#1e1e23" stroke-width="0.5"/>
<line x1="413" y1="507.2" x2="786" y2="507.2" stroke="#1e1e23" stroke-width="0.5"/>
<line x1="413" y1="501.3" x2="786" y2="501.3" stroke="#1e1e23" stroke-width="0.5"/>
<line x1="413" y1="495.3" x2="786" y2="495.3" stroke="#1e1e23" stroke-width="0.5"/>
<line x1="413" y1="489.3" x2="786" y2="489.3" stroke="#1e1e23" stroke-width="0.5"/>
<line x1="413" y1="483.3" x2="786" y2="483.3" stroke="#1e1e23" stroke-width="0.5"/>
<line x1="413" y1="477.4" x2="786" y2="477.4" stroke="#1e1e23" stroke-width="0.5"/>
<line x1="413" y1="471.4" x2="786" y2="471.4" stroke="#1e1e23" stroke-width="0.5"/>
<line x1="413" y1="465.4" x2="786" y2="465.4" stroke="#1e1e23" stroke-width="0.5"/>
<line x1="413" y1="459.4" x2="786" y2="459.4" stroke="#1e1e23" stroke-width="0.5"/>
<line x1="413" y1="453.5" x2="786" y2="453.5" stroke="#1e1e23" stroke-width="0.5"/>
<line x1="413" y1="447.5" x2="786" y2="447.5" stroke="#1e1e23" stroke-width="0.5"/>
<line x1="413" y1="441.5" x2="786" y2="441.5" stroke="#1e1e23" stroke-width="0.5"/>
<line x1="413" y1="435.5" x2="786" y2="435.5" stroke="#1e1e23" stroke-width="0.5"/>
<line x1="413" y1="429.5" x2="786" y2="429.5" stroke="#1e1e23" stroke-width="0.5"/>
<line x1="413" y1="423.6" x2="786" y2="423.6" stroke="#1e1e23" stroke-width="0.5"/>
<line x1="413" y1="417.6" x2="786" y2="417.6" stroke="#1e1e23" stroke-width="0.5"/>
<line x1="413" y1="411.6" x2="786" y2="411.6" stroke="#1e1e23" stroke-width="0.5"/>
<line x1="413" y1="405.6" x2="786" y2="405.6" stroke="#1e1e23" stroke-width="0.5"/>
<line x1="413" y1="399.7" x2="786" y2="399.7" stroke="#1e1e23" stroke-width="0.5"/>
<line x1="413" y1="393.7" x2="786" y2="393.7" stroke="#1e1e23" stroke-width="0.5"/>
<line x1="413" y1="387.7" x2="786" y2="387.7" stroke="#1e1e23" stroke-width="0.5"/>
<line x1="413" y1="381.7" x2="786" y2="381.7" stroke="#1e1e23" stroke-width="0.5"/>
<line x1="413" y1="375.8" x2="786" y2="375.8" stroke="#1e1e23" stroke-width="0.5"/>
<line x1="413" y1="369.8" x2="786" y2="369.8" stroke="#1e1e23" stroke-width="0.5"/>
<line x1="413" y1="363.8" x2="786" y2="363.8" stroke="#1e1e23" stroke-width="0.5"/>
<line x1="413" y1="357.8" x2="786" y2="357.8" stroke="#1e1e23" stroke-width="0.5"/>
<line x1="413" y1="351.9" x2="786" y2="351.9" stroke="#1e1e23" stroke-width="0.5"/>
<line x1="513.1" y1="405.2" x2="512.3" y2="405.3" stroke="#508ce0" stroke-width="1.5"/>
<line x1="512.3" y1="405.3" x2="438.0" y2="405.3" stroke="#508ce0" stroke-width="1.5"/>
<line x1="438.0" y1="405.3" x2="438.0" y2="489.6" stroke="#508ce0" stroke-width="1.5"/>
<line x1="438.0" y1="489.6" x2="512.3" y2="489.6" stroke="#508ce0" stroke-width="1.5"/>
<circle cx="512.1" cy="492.4" r="2.8" fill="none" stroke="#508ce0" stroke-width="1" stroke-dasharray="3,2"/>
<circle cx="512.2" cy="493.2" r="3.5" fill="none" stroke="#508ce0" stroke-width="1" stroke-dasharray="3,2"/>
<circle cx="596.2" cy="447.0" r="92.3" fill="none" stroke="#508ce0" stroke-width="1" stroke-dasharray="3,2"/>
<line x1="527.1" y1="508.2" x2="534.4" y2="515.5" stroke="#508ce0" stroke-width="1.5"/>
<circle cx="596.0" cy="446.8" r="92.3" fill="none" stroke="#508ce0" stroke-width="1" stroke-dasharray="3,2"/>
<circle cx="595.5" cy="447.4" r="91.6" fill="none" stroke="#508ce0" stroke-width="1" stroke-dasharray="3,2"/>
<circle cx="595.5" cy="447.4" r="91.6" fill="none" stroke="#508ce0" stroke-width="1" stroke-dasharray="3,2"/>
<circle cx="596.3" cy="448.4" r="90.3" fill="none" stroke="#508ce0" stroke-width="1" stroke-dasharray="3,2"/>
<line x1="663.9" y1="508.2" x2="670.3" y2="500.1" stroke="#508ce0" stroke-width="1.5"/>
<line x1="670.3" y1="500.1" x2="675.7" y2="491.4" stroke="#508ce0" stroke-width="1.5"/>
<line x1="675.7" y1="491.4" x2="676.2" y2="490.7" stroke="#508ce0" stroke-width="1.5"/>
<circle cx="679.6" cy="494.5" r="5.0" fill="none" stroke="#508ce0" stroke-width="1.5"/>
<text x="688.6" y="498.5" fill="#508ce0" font-family="monospace" font-size="8">ø16.85</text>
<circle cx="679.2" cy="497.5" r="7.9" fill="none" stroke="#508ce0" stroke-width="1" stroke-dasharray="3,2"/>
<line x1="678.7" y1="489.6" x2="753.0" y2="489.6" stroke="#508ce0" stroke-width="1.5"/>
<line x1="753.0" y1="489.6" x2="753.0" y2="405.3" stroke="#508ce0" stroke-width="1.5"/>
<line x1="753.0" y1="405.3" x2="678.7" y2="405.3" stroke="#508ce0" stroke-width="1.5"/>
<circle cx="678.9" cy="402.6" r="2.8" fill="none" stroke="#508ce0" stroke-width="1" stroke-dasharray="3,2"/>
<circle cx="678.8" cy="401.8" r="3.5" fill="none" stroke="#508ce0" stroke-width="1" stroke-dasharray="3,2"/>
<circle cx="594.8" cy="447.9" r="92.3" fill="none" stroke="#508ce0" stroke-width="1" stroke-dasharray="3,2"/>
<circle cx="594.9" cy="448.1" r="92.3" fill="none" stroke="#508ce0" stroke-width="1" stroke-dasharray="3,2"/>
<circle cx="595.5" cy="447.6" r="91.6" fill="none" stroke="#508ce0" stroke-width="1" stroke-dasharray="3,2"/>
<circle cx="595.5" cy="447.6" r="91.6" fill="none" stroke="#508ce0" stroke-width="1" stroke-dasharray="3,2"/>
<circle cx="595.9" cy="448.2" r="92.3" fill="none" stroke="#508ce0" stroke-width="1" stroke-dasharray="3,2"/>
<line x1="534.3" y1="379.4" x2="527.1" y2="386.8" stroke="#508ce0" stroke-width="1.5"/>
<line x1="527.1" y1="386.8" x2="520.7" y2="394.8" stroke="#508ce0" stroke-width="1.5"/>
<line x1="520.7" y1="394.8" x2="515.3" y2="403.6" stroke="#508ce0" stroke-width="1.5"/>
<line x1="515.3" y1="403.6" x2="514.8" y2="404.2" stroke="#508ce0" stroke-width="1.5"/>
<circle cx="511.4" cy="400.5" r="5.0" fill="none" stroke="#508ce0" stroke-width="1.5"/>
<text x="520.4" y="404.5" fill="#508ce0" font-family="monospace" font-size="8">ø16.85</text>
<circle cx="474.1" cy="447.5" r="2.4" fill="none" stroke="#508ce0" stroke-width="1.5"/>
<text x="480.4" y="451.5" fill="#508ce0" font-family="monospace" font-size="8">ø7.91</text>
<circle cx="455.1" cy="447.5" r="2.4" fill="none" stroke="#508ce0" stroke-width="1.5"/>
<text x="461.4" y="451.5" fill="#508ce0" font-family="monospace" font-size="8">ø7.91</text>
<circle cx="716.9" cy="447.5" r="2.4" fill="none" stroke="#508ce0" stroke-width="1.5"/>
<text x="723.3" y="451.5" fill="#508ce0" font-family="monospace" font-size="8">ø7.91</text>
<circle cx="735.9" cy="447.5" r="2.4" fill="none" stroke="#508ce0" stroke-width="1.5"/>
<text x="742.3" y="451.5" fill="#508ce0" font-family="monospace" font-size="8">ø7.91</text>
<circle cx="595.5" cy="447.5" r="75.9" fill="none" stroke="#508ce0" stroke-width="1.5"/>
<text x="675.4" y="451.5" fill="#508ce0" font-family="monospace" font-size="8">ø253.83</text>
</g>
<text x="421" y="802" fill="#786432" font-family="monospace" font-size="9">Range: 527.0 x 311.0 mm</text>
<rect x="786" y="70" width="365" height="740" fill="none" stroke="#1e1e23" stroke-width="1"/>
<text x="794" y="86" fill="#dcdcdc" font-family="monospace" font-size="11">Plane ⊥Z t3/25 (2 profiles)</text>
<defs><clipPath id="clip-2-nist_ctc_05_asme1_rd"><rect x="787" y="71" width="363" height="738"/></clipPath></defs>
<g clip-path="url(#clip-2-nist_ctc_05_asme1_rd)">
<line x1="806.9" y1="70" x2="806.9" y2="810" stroke="#1e1e23" stroke-width="0.5"/>
<line x1="812.3" y1="70" x2="812.3" y2="810" stroke="#1e1e23" stroke-width="0.5"/>
<line x1="817.8" y1="70" x2="817.8" y2="810" stroke="#1e1e23" stroke-width="0.5"/>
<line x1="823.2" y1="70" x2="823.2" y2="810" stroke="#1e1e23" stroke-width="0.5"/>
<line x1="828.6" y1="70" x2="828.6" y2="810" stroke="#1e1e23" stroke-width="0.5"/>
<line x1="834.0" y1="70" x2="834.0" y2="810" stroke="#1e1e23" stroke-width="0.5"/>
<line x1="839.4" y1="70" x2="839.4" y2="810" stroke="#1e1e23" stroke-width="0.5"/>
<line x1="844.8" y1="70" x2="844.8" y2="810" stroke="#1e1e23" stroke-width="0.5"/>
<line x1="850.3" y1="70" x2="850.3" y2="810" stroke="#1e1e23" stroke-width="0.5"/>
<line x1="855.7" y1="70" x2="855.7" y2="810" stroke="#1e1e23" stroke-width="0.5"/>
<line x1="861.1" y1="70" x2="861.1" y2="810" stroke="#1e1e23" stroke-width="0.5"/>
<line x1="866.5" y1="70" x2="866.5" y2="810" stroke="#1e1e23" stroke-width="0.5"/>
<line x1="871.9" y1="70" x2="871.9" y2="810" stroke="#1e1e23" stroke-width="0.5"/>
<line x1="877.3" y1="70" x2="877.3" y2="810" stroke="#1e1e23" stroke-width="0.5"/>
<line x1="882.8" y1="70" x2="882.8" y2="810" stroke="#1e1e23" stroke-width="0.5"/>
<line x1="888.2" y1="70" x2="888.2" y2="810" stroke="#1e1e23" stroke-width="0.5"/>
<line x1="893.6" y1="70" x2="893.6" y2="810" stroke="#1e1e23" stroke-width="0.5"/>
<line x1="899.0" y1="70" x2="899.0" y2="810" stroke="#1e1e23" stroke-width="0.5"/>
<line x1="904.4" y1="70" x2="904.4" y2="810" stroke="#1e1e23" stroke-width="0.5"/>
<line x1="909.8" y1="70" x2="909.8" y2="810" stroke="#1e1e23" stroke-width="0.5"/>
<line x1="915.3" y1="70" x2="915.3" y2="810" stroke="#1e1e23" stroke-width="0.5"/>
<line x1="920.7" y1="70" x2="920.7" y2="810" stroke="#1e1e23" stroke-width="0.5"/>
<line x1="926.1" y1="70" x2="926.1" y2="810" stroke="#1e1e23" stroke-width="0.5"/>
<line x1="931.5" y1="70" x2="931.5" y2="810" stroke="#1e1e23" stroke-width="0.5"/>
<line x1="936.9" y1="70" x2="936.9" y2="810" stroke="#1e1e23" stroke-width="0.5"/>
<line x1="942.3" y1="70" x2="942.3" y2="810" stroke="#1e1e23" stroke-width="0.5"/>
<line x1="947.8" y1="70" x2="947.8" y2="810" stroke="#1e1e23" stroke-width="0.5"/>
<line x1="953.2" y1="70" x2="953.2" y2="810" stroke="#1e1e23" stroke-width="0.5"/>
<line x1="958.6" y1="70" x2="958.6" y2="810" stroke="#1e1e23" stroke-width="0.5"/>
<line x1="964.0" y1="70" x2="964.0" y2="810" stroke="#1e1e23" stroke-width="0.5"/>
<line x1="969.4" y1="70" x2="969.4" y2="810" stroke="#1e1e23" stroke-width="0.5"/>
<line x1="974.8" y1="70" x2="974.8" y2="810" stroke="#1e1e23" stroke-width="0.5"/>
<line x1="980.3" y1="70" x2="980.3" y2="810" stroke="#1e1e23" stroke-width="0.5"/>
<line x1="985.7" y1="70" x2="985.7" y2="810" stroke="#1e1e23" stroke-width="0.5"/>
<line x1="991.1" y1="70" x2="991.1" y2="810" stroke="#1e1e23" stroke-width="0.5"/>
<line x1="996.5" y1="70" x2="996.5" y2="810" stroke="#1e1e23" stroke-width="0.5"/>
<line x1="1001.9" y1="70" x2="1001.9" y2="810" stroke="#1e1e23" stroke-width="0.5"/>
<line x1="1007.4" y1="70" x2="1007.4" y2="810" stroke="#1e1e23" stroke-width="0.5"/>
<line x1="1012.8" y1="70" x2="1012.8" y2="810" stroke="#1e1e23" stroke-width="0.5"/>
<line x1="1018.2" y1="70" x2="1018.2" y2="810" stroke="#1e1e23" stroke-width="0.5"/>
<line x1="1023.6" y1="70" x2="1023.6" y2="810" stroke="#1e1e23" stroke-width="0.5"/>
<line x1="1029.0" y1="70" x2="1029.0" y2="810" stroke="#1e1e23" stroke-width="0.5"/>
<line x1="1034.4" y1="70" x2="1034.4" y2="810" stroke="#1e1e23" stroke-width="0.5"/>
<line x1="1039.9" y1="70" x2="1039.9" y2="810" stroke="#1e1e23" stroke-width="0.5"/>
<line x1="1045.3" y1="70" x2="1045.3" y2="810" stroke="#1e1e23" stroke-width="0.5"/>
<line x1="1050.7" y1="70" x2="1050.7" y2="810" stroke="#1e1e23" stroke-width="0.5"/>
<line x1="1056.1" y1="70" x2="1056.1" y2="810" stroke="#1e1e23" stroke-width="0.5"/>
<line x1="1061.5" y1="70" x2="1061.5" y2="810" stroke="#1e1e23" stroke-width="0.5"/>
<line x1="1066.9" y1="70" x2="1066.9" y2="810" stroke="#1e1e23" stroke-width="0.5"/>
<line x1="1072.4" y1="70" x2="1072.4" y2="810" stroke="#1e1e23" stroke-width="0.5"/>
<line x1="1077.8" y1="70" x2="1077.8" y2="810" stroke="#1e1e23" stroke-width="0.5"/>
<line x1="1083.2" y1="70" x2="1083.2" y2="810" stroke="#1e1e23" stroke-width="0.5"/>
<line x1="1088.6" y1="70" x2="1088.6" y2="810" stroke="#1e1e23" stroke-width="0.5"/>
<line x1="1094.0" y1="70" x2="1094.0" y2="810" stroke="#1e1e23" stroke-width="0.5"/>
<line x1="1099.4" y1="70" x2="1099.4" y2="810" stroke="#1e1e23" stroke-width="0.5"/>
<line x1="1104.9" y1="70" x2="1104.9" y2="810" stroke="#1e1e23" stroke-width="0.5"/>
<line x1="1110.3" y1="70" x2="1110.3" y2="810" stroke="#1e1e23" stroke-width="0.5"/>
<line x1="1115.7" y1="70" x2="1115.7" y2="810" stroke="#1e1e23" stroke-width="0.5"/>
<line x1="1121.1" y1="70" x2="1121.1" y2="810" stroke="#1e1e23" stroke-width="0.5"/>
<line x1="1126.5" y1="70" x2="1126.5" y2="810" stroke="#1e1e23" stroke-width="0.5"/>
<line x1="786" y1="599.0" x2="1159" y2="599.0" stroke="#1e1e23" stroke-width="0.5"/>
<line x1="786" y1="593.6" x2="1159" y2="593.6" stroke="#1e1e23" stroke-width="0.5"/>
<line x1="786" y1="588.2" x2="1159" y2="588.2" stroke="#1e1e23" stroke-width="0.5"/>
<line x1="786" y1="582.8" x2="1159" y2="582.8" stroke="#1e1e23" stroke-width="0.5"/>
<line x1="786" y1="577.4" x2="1159" y2="577.4" stroke="#1e1e23" stroke-width="0.5"/>
<line x1="786" y1="572.0" x2="1159" y2="572.0" stroke="#1e1e23" stroke-width="0.5"/>
<line x1="786" y1="566.5" x2="1159" y2="566.5" stroke="#1e1e23" stroke-width="0.5"/>
<line x1="786" y1="561.1" x2="1159" y2="561.1" stroke="#1e1e23" stroke-width="0.5"/>
<line x1="786" y1="555.7" x2="1159" y2="555.7" stroke="#1e1e23" stroke-width="0.5"/>
<line x1="786" y1="550.3" x2="1159" y2="550.3" stroke="#1e1e23" stroke-width="0.5"/>
<line x1="786" y1="544.9" x2="1159" y2="544.9" stroke="#1e1e23" stroke-width="0.5"/>
<line x1="786" y1="539.5" x2="1159" y2="539.5" stroke="#1e1e23" stroke-width="0.5"/>
<line x1="786" y1="534.0" x2="1159" y2="534.0" stroke="#1e1e23" stroke-width="0.5"/>
<line x1="786" y1="528.6" x2="1159" y2="528.6" stroke="#1e1e23" stroke-width="0.5"/>
<line x1="786" y1="523.2" x2="1159" y2="523.2" stroke="#1e1e23" stroke-width="0.5"/>
<line x1="786" y1="517.8" x2="1159" y2="517.8" stroke="#1e1e23" stroke-width="0.5"/>
<line x1="786" y1="512.4" x2="1159" y2="512.4" stroke="#1e1e23" stroke-width="0.5"/>
<line x1="786" y1="507.0" x2="1159" y2="507.0" stroke="#1e1e23" stroke-width="0.5"/>
<line x1="786" y1="501.5" x2="1159" y2="501.5" stroke="#1e1e23" stroke-width="0.5"/>
<line x1="786" y1="496.1" x2="1159" y2="496.1" stroke="#1e1e23" stroke-width="0.5"/>
<line x1="786" y1="490.7" x2="1159" y2="490.7" stroke="#1e1e23" stroke-width="0.5"/>
<line x1="786" y1="485.3" x2="1159" y2="485.3" stroke="#1e1e23" stroke-width="0.5"/>
<line x1="786" y1="479.9" x2="1159" y2="479.9" stroke="#1e1e23" stroke-width="0.5"/>
<line x1="786" y1="474.4" x2="1159" y2="474.4" stroke="#1e1e23" stroke-width="0.5"/>
<line x1="786" y1="469.0" x2="1159" y2="469.0" stroke="#1e1e23" stroke-width="0.5"/>
<line x1="786" y1="463.6" x2="1159" y2="463.6" stroke="#1e1e23" stroke-width="0.5"/>
<line x1="786" y1="458.2" x2="1159" y2="458.2" stroke="#1e1e23" stroke-width="0.5"/>
<line x1="786" y1="452.8" x2="1159" y2="452.8" stroke="#1e1e23" stroke-width="0.5"/>
<line x1="786" y1="447.4" x2="1159" y2="447.4" stroke="#1e1e23" stroke-width="0.5"/>
<line x1="786" y1="441.9" x2="1159" y2="441.9" stroke="#1e1e23" stroke-width="0.5"/>
<line x1="786" y1="436.5" x2="1159" y2="436.5" stroke="#1e1e23" stroke-width="0.5"/>
<line x1="786" y1="431.1" x2="1159" y2="431.1" stroke="#1e1e23" stroke-width="0.5"/>
<line x1="786" y1="425.7" x2="1159" y2="425.7" stroke="#1e1e23" stroke-width="0.5"/>
<line x1="786" y1="420.3" x2="1159" y2="420.3" stroke="#1e1e23" stroke-width="0.5"/>
<line x1="786" y1="414.9" x2="1159" y2="414.9" stroke="#1e1e23" stroke-width="0.5"/>
<line x1="786" y1="409.4" x2="1159" y2="409.4" stroke="#1e1e23" stroke-width="0.5"/>
<line x1="786" y1="404.0" x2="1159" y2="404.0" stroke="#1e1e23" stroke-width="0.5"/>
<line x1="786" y1="398.6" x2="1159" y2="398.6" stroke="#1e1e23" stroke-width="0.5"/>
<line x1="786" y1="393.2" x2="1159" y2="393.2" stroke="#1e1e23" stroke-width="0.5"/>
<line x1="786" y1="387.8" x2="1159" y2="387.8" stroke="#1e1e23" stroke-width="0.5"/>
<line x1="786" y1="382.4" x2="1159" y2="382.4" stroke="#1e1e23" stroke-width="0.5"/>
<line x1="786" y1="376.9" x2="1159" y2="376.9" stroke="#1e1e23" stroke-width="0.5"/>
<line x1="786" y1="371.5" x2="1159" y2="371.5" stroke="#1e1e23" stroke-width="0.5"/>
<line x1="786" y1="366.1" x2="1159" y2="366.1" stroke="#1e1e23" stroke-width="0.5"/>
<line x1="786" y1="360.7" x2="1159" y2="360.7" stroke="#1e1e23" stroke-width="0.5"/>
<line x1="786" y1="355.3" x2="1159" y2="355.3" stroke="#1e1e23" stroke-width="0.5"/>
<line x1="786" y1="349.9" x2="1159" y2="349.9" stroke="#1e1e23" stroke-width="0.5"/>
<line x1="786" y1="344.4" x2="1159" y2="344.4" stroke="#1e1e23" stroke-width="0.5"/>
<line x1="786" y1="339.0" x2="1159" y2="339.0" stroke="#1e1e23" stroke-width="0.5"/>
<line x1="786" y1="333.6" x2="1159" y2="333.6" stroke="#1e1e23" stroke-width="0.5"/>
<line x1="786" y1="328.2" x2="1159" y2="328.2" stroke="#1e1e23" stroke-width="0.5"/>
<line x1="786" y1="322.8" x2="1159" y2="322.8" stroke="#1e1e23" stroke-width="0.5"/>
<line x1="786" y1="317.4" x2="1159" y2="317.4" stroke="#1e1e23" stroke-width="0.5"/>
<line x1="786" y1="311.9" x2="1159" y2="311.9" stroke="#1e1e23" stroke-width="0.5"/>
<line x1="786" y1="306.5" x2="1159" y2="306.5" stroke="#1e1e23" stroke-width="0.5"/>
<line x1="786" y1="301.1" x2="1159" y2="301.1" stroke="#1e1e23" stroke-width="0.5"/>
<line x1="786" y1="295.7" x2="1159" y2="295.7" stroke="#1e1e23" stroke-width="0.5"/>
<line x1="1047.6" y1="408.2" x2="1042.6" y2="400.2" stroke="#508ce0" stroke-width="1.5"/>
<line x1="1042.6" y1="400.2" x2="1041.6" y2="398.8" stroke="#508ce0" stroke-width="1.5"/>
<circle cx="974.4" cy="447.6" r="83.0" fill="none" stroke="#508ce0" stroke-width="1" stroke-dasharray="3,2"/>
<circle cx="976.3" cy="445.7" r="80.4" fill="none" stroke="#508ce0" stroke-width="1" stroke-dasharray="3,2"/>
<circle cx="974.4" cy="447.7" r="83.0" fill="none" stroke="#508ce0" stroke-width="1" stroke-dasharray="3,2"/>
<line x1="1006.7" y1="371.2" x2="997.9" y2="368.1" stroke="#508ce0" stroke-width="1.5"/>
<line x1="997.9" y1="368.1" x2="996.2" y2="367.7" stroke="#508ce0" stroke-width="1.5"/>
<line x1="996.2" y1="367.7" x2="988.8" y2="366.0" stroke="#508ce0" stroke-width="1.5"/>
<line x1="988.8" y1="366.0" x2="979.5" y2="364.9" stroke="#508ce0" stroke-width="1.5"/>
<line x1="979.5" y1="364.9" x2="970.2" y2="364.9" stroke="#508ce0" stroke-width="1.5"/>
<line x1="970.2" y1="364.9" x2="960.9" y2="366.0" stroke="#508ce0" stroke-width="1.5"/>
<line x1="960.9" y1="366.0" x2="951.8" y2="368.1" stroke="#508ce0" stroke-width="1.5"/>
<line x1="951.8" y1="368.1" x2="943.0" y2="371.2" stroke="#508ce0" stroke-width="1.5"/>
<line x1="943.0" y1="371.2" x2="934.5" y2="375.3" stroke="#508ce0" stroke-width="1.5"/>
<circle cx="975.3" cy="447.6" r="83.0" fill="none" stroke="#508ce0" stroke-width="1" stroke-dasharray="3,2"/>
<circle cx="973.3" cy="445.9" r="80.4" fill="none" stroke="#508ce0" stroke-width="1" stroke-dasharray="3,2"/>
<line x1="912.8" y1="392.9" x2="908.1" y2="398.8" stroke="#508ce0" stroke-width="1.5"/>
<line x1="908.1" y1="398.8" x2="907.1" y2="400.2" stroke="#508ce0" stroke-width="1.5"/>
<line x1="907.1" y1="400.2" x2="902.4" y2="407.7" stroke="#508ce0" stroke-width="1.5"/>
<circle cx="866.2" cy="385.6" r="42.5" fill="none" stroke="#508ce0" stroke-width="1.5"/>
<text x="912.6" y="389.6" fill="#508ce0" font-family="monospace" font-size="8">ø156.74</text>
<circle cx="982.8" cy="485.5" r="111.2" fill="none" stroke="#508ce0" stroke-width="1.5"/>
<text x="1098.0" y="489.5" fill="#508ce0" font-family="monospace" font-size="8">ø410.49</text>
<circle cx="902.2" cy="422.0" r="9.5" fill="none" stroke="#508ce0" stroke-width="1" stroke-dasharray="3,2"/>
<line x1="895.5" y1="415.2" x2="872.9" y2="415.2" stroke="#508ce0" stroke-width="1.5"/>
<line x1="872.9" y1="415.2" x2="832.1" y2="415.3" stroke="#508ce0" stroke-width="1.5"/>
<line x1="832.1" y1="415.3" x2="832.1" y2="437.0" stroke="#508ce0" stroke-width="1.5"/>
<line x1="832.1" y1="437.0" x2="864.8" y2="437.0" stroke="#508ce0" stroke-width="1.5"/>
<line x1="864.8" y1="437.0" x2="867.2" y2="437.3" stroke="#508ce0" stroke-width="1.5"/>
<line x1="867.2" y1="437.3" x2="869.6" y2="438.2" stroke="#508ce0" stroke-width="1.5"/>
<line x1="869.6" y1="438.2" x2="871.6" y2="439.6" stroke="#508ce0" stroke-width="1.5"/>
<line x1="871.6" y1="439.6" x2="873.3" y2="441.5" stroke="#508ce0" stroke-width="1.5"/>
<line x1="873.3" y1="441.5" x2="874.4" y2="443.7" stroke="#508ce0" stroke-width="1.5"/>
<line x1="874.4" y1="443.7" x2="875.0" y2="446.1" stroke="#508ce0" stroke-width="1.5"/>
<line x1="875.0" y1="446.1" x2="875.0" y2="448.6" stroke="#508ce0" stroke-width="1.5"/>
<line x1="875.0" y1="448.6" x2="874.4" y2="451.0" stroke="#508ce0" stroke-width="1.5"/>
<line x1="874.4" y1="451.0" x2="873.3" y2="453.2" stroke="#508ce0" stroke-width="1.5"/>
<line x1="873.3" y1="453.2" x2="871.6" y2="455.1" stroke="#508ce0" stroke-width="1.5"/>
<line x1="871.6" y1="455.1" x2="869.6" y2="456.5" stroke="#508ce0" stroke-width="1.5"/>
<line x1="869.6" y1="456.5" x2="867.2" y2="457.4" stroke="#508ce0" stroke-width="1.5"/>
<line x1="867.2" y1="457.4" x2="864.8" y2="457.7" stroke="#508ce0" stroke-width="1.5"/>
<line x1="864.8" y1="457.7" x2="832.1" y2="457.7" stroke="#508ce0" stroke-width="1.5"/>
<line x1="832.1" y1="457.7" x2="832.1" y2="479.5" stroke="#508ce0" stroke-width="1.5"/>
<line x1="832.1" y1="479.5" x2="872.8" y2="479.6" stroke="#508ce0" stroke-width="1.5"/>
<line x1="872.8" y1="479.6" x2="895.5" y2="479.5" stroke="#508ce0" stroke-width="1.5"/>
<line x1="895.5" y1="479.5" x2="895.8" y2="479.7" stroke="#508ce0" stroke-width="1.5"/>
<circle cx="896.5" cy="479.5" r="0.7" fill="none" stroke="#508ce0" stroke-width="1" stroke-dasharray="3,2"/>
<line x1="896.3" y1="480.2" x2="898.3" y2="481.5" stroke="#508ce0" stroke-width="1.5"/>
<line x1="898.3" y1="481.5" x2="898.5" y2="481.7" stroke="#508ce0" stroke-width="1.5"/>
<line x1="898.5" y1="481.7" x2="899.7" y2="483.1" stroke="#508ce0" stroke-width="1.5"/>
<circle cx="860.4" cy="513.0" r="49.4" fill="none" stroke="#508ce0" stroke-width="1.5"/>
<text x="913.8" y="517.0" fill="#508ce0" font-family="monospace" font-size="8">ø182.38</text>
<line x1="902.4" y1="487.0" x2="907.1" y2="494.5" stroke="#508ce0" stroke-width="1.5"/>
<line x1="907.1" y1="494.5" x2="908.1" y2="495.9" stroke="#508ce0" stroke-width="1.5"/>
<line x1="908.1" y1="495.9" x2="912.8" y2="501.8" stroke="#508ce0" stroke-width="1.5"/>
<circle cx="977.2" cy="444.8" r="86.0" fill="none" stroke="#508ce0" stroke-width="1" stroke-dasharray="3,2"/>
<line x1="926.7" y1="514.4" x2="934.5" y2="519.4" stroke="#508ce0" stroke-width="1.5"/>
<line x1="934.5" y1="519.4" x2="943.0" y2="523.5" stroke="#508ce0" stroke-width="1.5"/>
<line x1="943.0" y1="523.5" x2="944.6" y2="524.1" stroke="#508ce0" stroke-width="1.5"/>
<line x1="944.6" y1="524.1" x2="951.8" y2="526.6" stroke="#508ce0" stroke-width="1.5"/>
<line x1="951.8" y1="526.6" x2="960.9" y2="528.7" stroke="#508ce0" stroke-width="1.5"/>
<line x1="960.9" y1="528.7" x2="970.2" y2="529.8" stroke="#508ce0" stroke-width="1.5"/>
<line x1="970.2" y1="529.8" x2="979.5" y2="529.8" stroke="#508ce0" stroke-width="1.5"/>
<line x1="979.5" y1="529.8" x2="988.8" y2="528.7" stroke="#508ce0" stroke-width="1.5"/>
<line x1="988.8" y1="528.7" x2="996.2" y2="527.0" stroke="#508ce0" stroke-width="1.5"/>
<line x1="996.2" y1="527.0" x2="997.9" y2="526.6" stroke="#508ce0" stroke-width="1.5"/>
<line x1="997.9" y1="526.6" x2="1006.7" y2="523.5" stroke="#508ce0" stroke-width="1.5"/>
<line x1="1006.7" y1="523.5" x2="1015.2" y2="519.4" stroke="#508ce0" stroke-width="1.5"/>
<line x1="1015.2" y1="519.4" x2="1023.0" y2="514.4" stroke="#508ce0" stroke-width="1.5"/>
<circle cx="974.4" cy="447.1" r="83.0" fill="none" stroke="#508ce0" stroke-width="1" stroke-dasharray="3,2"/>
<circle cx="976.6" cy="448.6" r="80.4" fill="none" stroke="#508ce0" stroke-width="1" stroke-dasharray="3,2"/>
<line x1="1042.6" y1="494.5" x2="1047.3" y2="487.0" stroke="#508ce0" stroke-width="1.5"/>
<circle cx="1083.5" cy="509.1" r="42.5" fill="none" stroke="#508ce0" stroke-width="1.5"/>
<text x="1130.0" y="513.1" fill="#508ce0" font-family="monospace" font-size="8">ø156.74</text>
<circle cx="967.0" cy="409.3" r="111.0" fill="none" stroke="#508ce0" stroke-width="1.5"/>
<text x="1082.0" y="413.3" fill="#508ce0" font-family="monospace" font-size="8">ø409.87</text>
<line x1="1051.4" y1="481.4" x2="1053.5" y2="480.1" stroke="#508ce0" stroke-width="1.5"/>
<circle cx="1053.2" cy="479.5" r="0.7" fill="none" stroke="#508ce0" stroke-width="1" stroke-dasharray="3,2"/>
<line x1="1053.9" y1="479.7" x2="1054.2" y2="479.5" stroke="#508ce0" stroke-width="1.5"/>
<line x1="1054.2" y1="479.5" x2="1076.8" y2="479.6" stroke="#508ce0" stroke-width="1.5"/>
<line x1="1076.8" y1="479.6" x2="1117.6" y2="479.5" stroke="#508ce0" stroke-width="1.5"/>
<line x1="1117.6" y1="479.5" x2="1117.6" y2="457.7" stroke="#508ce0" stroke-width="1.5"/>
<line x1="1117.6" y1="457.7" x2="1084.9" y2="457.7" stroke="#508ce0" stroke-width="1.5"/>
<line x1="1084.9" y1="457.7" x2="1082.5" y2="457.4" stroke="#508ce0" stroke-width="1.5"/>
<line x1="1082.5" y1="457.4" x2="1080.1" y2="456.5" stroke="#508ce0" stroke-width="1.5"/>
<line x1="1080.1" y1="456.5" x2="1078.1" y2="455.1" stroke="#508ce0" stroke-width="1.5"/>
<line x1="1078.1" y1="455.1" x2="1076.4" y2="453.2" stroke="#508ce0" stroke-width="1.5"/>
<line x1="1076.4" y1="453.2" x2="1075.3" y2="451.0" stroke="#508ce0" stroke-width="1.5"/>
<line x1="1075.3" y1="451.0" x2="1074.7" y2="448.6" stroke="#508ce0" stroke-width="1.5"/>
<line x1="1074.7" y1="448.6" x2="1074.7" y2="446.1" stroke="#508ce0" stroke-width="1.5"/>
<line x1="1074.7" y1="446.1" x2="1075.3" y2="443.7" stroke="#508ce0" stroke-width="1.5"/>
<line x1="1075.3" y1="443.7" x2="1076.4" y2="441.5" stroke="#508ce0" stroke-width="1.5"/>
<line x1="1076.4" y1="441.5" x2="1078.1" y2="439.6" stroke="#508ce0" stroke-width="1.5"/>
<line x1="1078.1" y1="439.6" x2="1080.1" y2="438.2" stroke="#508ce0" stroke-width="1.5"/>
<line x1="1080.1" y1="438.2" x2="1082.5" y2="437.3" stroke="#508ce0" stroke-width="1.5"/>
<line x1="1082.5" y1="437.3" x2="1084.9" y2="437.0" stroke="#508ce0" stroke-width="1.5"/>
<line x1="1084.9" y1="437.0" x2="1117.6" y2="437.0" stroke="#508ce0" stroke-width="1.5"/>
<line x1="1117.6" y1="437.0" x2="1117.6" y2="415.3" stroke="#508ce0" stroke-width="1.5"/>
<line x1="1117.6" y1="415.3" x2="1076.9" y2="415.2" stroke="#508ce0" stroke-width="1.5"/>
<line x1="1076.9" y1="415.2" x2="1054.2" y2="415.2" stroke="#508ce0" stroke-width="1.5"/>
<line x1="1054.2" y1="415.2" x2="1053.9" y2="415.0" stroke="#508ce0" stroke-width="1.5"/>
<circle cx="1053.2" cy="415.2" r="0.7" fill="none" stroke="#508ce0" stroke-width="1" stroke-dasharray="3,2"/>
<line x1="1053.4" y1="414.6" x2="1051.4" y2="413.3" stroke="#508ce0" stroke-width="1.5"/>
<circle cx="1073.1" cy="393.1" r="29.6" fill="none" stroke="#508ce0" stroke-width="1.5"/>
<text x="1106.7" y="397.1" fill="#508ce0" font-family="monospace" font-size="8">ø109.31</text>
<circle cx="974.8" cy="447.4" r="68.7" fill="none" stroke="#508ce0" stroke-width="1.5"/>
<text x="1047.6" y="451.4" fill="#508ce0" font-family="monospace" font-size="8">ø253.76</text>
</g>
<text x="794" y="802" fill="#786432" font-family="monospace" font-size="9">Range: 581.5 x 550.8 mm</text>
<text x="40" y="880" fill="#c9a84c" font-family="monospace" font-size="9">Features (30): ⊙× Circular Pattern ×10 (⊙ Hole ø19.00) | ⊙× Circular Pattern ×4 (⊙ Hole ø7.91) | ◎ Revolution taper ø63.3→ø304.7 | ~ Freeform Pocket (32 ents) | ~ Freeform Pocket (99 ents) | ▭ Pocket 177.8×156.6 | ▭ Pocket 177.8×152.3 | ▭ Pocket 177.8×148.1</text>
</svg>