<svg xmlns="http://www.w3.org/2000/svg" width="1200" height="900" viewBox="0 0 1200 900">
<rect width="1200" height="900" fill="#08090d"/>
<text x="40" y="30" fill="#c9a84c" font-family="monospace" font-size="16" font-weight="bold">nist_ftc_06_asme1_rd.stp  </text>
<text x="40" y="50" fill="#786432" font-family="monospace" font-size="11">BBox: 304.8 x 97.8 x 247.6 mm   Diag: 404.7mm</text>
<rect x="40" y="70" width="365" height="740" fill="none" stroke="#1e1e23" stroke-width="1"/>
<text x="48" y="86" fill="#dcdcdc" font-family="monospace" font-size="11">Plane +X (1 profiles)</text>
<defs><clipPath id="clip-0-nist_ftc_06_asme1_rd"><rect x="41" y="71" width="363" height="738"/></clipPath></defs>
<g clip-path="url(#clip-0-nist_ftc_06_asme1_rd)">
<line x1="53.8" y1="70" x2="53.8" y2="810" stroke="#1e1e23" stroke-width="0.5"/>
<line x1="67.1" y1="70" x2="67.1" y2="810" stroke="#1e1e23" stroke-width="0.5"/>
<line x1="80.4" y1="70" x2="80.4" y2="810" stroke="#1e1e23" stroke-width="0.5"/>
<line x1="93.7" y1="70" x2="93.7" y2="810" stroke="#1e1e23" stroke-width="0.5"/>
<line x1="107.0" y1="70" x2="107.0" y2="810" stroke="#1e1e23" stroke-width="0.5"/>
<line x1="120.4" y1="70" x2="120.4" y2="810" stroke="#1e1e23" stroke-width="0.5"/>
<line x1="133.7" y1="70" x2="133.7" y2="810" stroke="#1e1e23" stroke-width="0.5"/>
<line x1="147.0" y1="70" x2="147.0" y2="810" stroke="#1e1e23" stroke-width="0.5"/>
<line x1="160.3" y1="70" x2="160.3" y2="810" stroke="#1e1e23" stroke-width="0.5"/>
<line x1="173.6" y1="70" x2="173.6" y2="810" stroke="#1e1e23" stroke-width="0.5"/>
<line x1="186.9" y1="70" x2="186.9" y2="810" stroke="#1e1e23" stroke-width="0.5"/>
<line x1="200.3" y1="70" x2="200.3" y2="810" stroke="#1e1e23" stroke-width="0.5"/>
<line x1="213.6" y1="70" x2="213.6" y2="810" stroke="#1e1e23" stroke-width="0.5"/>
<line x1="226.9" y1="70" x2="226.9" y2="810" stroke="#1e1e23" stroke-width="0.5"/>
<line x1="240.2" y1="70" x2="240.2" y2="810" stroke="#1e1e23" stroke-width="0.5"/>
<line x1="253.5" y1="70" x2="253.5" y2="810" stroke="#1e1e23" stroke-width="0.5"/>
<line x1="266.9" y1="70" x2="266.9" y2="810" stroke="#1e1e23" stroke-width="0.5"/>
<line x1="280.2" y1="70" x2="280.2" y2="810" stroke="#1e1e23" stroke-width="0.5"/>
<line x1="293.5" y1="70" x2="293.5" y2="810" stroke="#1e1e23" stroke-width="0.5"/>
<line x1="306.8" y1="70" x2="306.8" y2="810" stroke="#1e1e23" stroke-width="0.5"/>
<line x1="320.1" y1="70" x2="320.1" y2="810" stroke="#1e1e23" stroke-width="0.5"/>
<line x1="333.5" y1="70" x2="333.5" y2="810" stroke="#1e1e23" stroke-width="0.5"/>
<line x1="346.8" y1="70" x2="346.8" y2="810" stroke="#1e1e23" stroke-width="0.5"/>
<line x1="360.1" y1="70" x2="360.1" y2="810" stroke="#1e1e23" stroke-width="0.5"/>
<line x1="373.4" y1="70" x2="373.4" y2="810" stroke="#1e1e23" stroke-width="0.5"/>
<line x1="386.7" y1="70" x2="386.7" y2="810" stroke="#1e1e23" stroke-width="0.5"/>
<line x1="40" y1="530.0" x2="413" y2="530.0" stroke="#1e1e23" stroke-width="0.5"/>
<line x1="40" y1="516.7" x2="413" y2="516.7" stroke="#1e1e23" stroke-width="0.5"/>
<line x1="40" y1="503.4" x2="413" y2="503.4" stroke="#1e1e23" stroke-width="0.5"/>
<line x1="40" y1="490.0" x2="413" y2="490.0" stroke="#1e1e23" stroke-width="0.5"/>
<line x1="40" y1="476.7" x2="413" y2="476.7" stroke="#1e1e23" stroke-width="0.5"/>
<line x1="40" y1="463.4" x2="413" y2="463.4" stroke="#1e1e23" stroke-width="0.5"/>
<line x1="40" y1="450.1" x2="413" y2="450.1" stroke="#1e1e23" stroke-width="0.5"/>
<line x1="40" y1="436.8" x2="413" y2="436.8" stroke="#1e1e23" stroke-width="0.5"/>
<line x1="40" y1="423.5" x2="413" y2="423.5" stroke="#1e1e23" stroke-width="0.5"/>
<line x1="40" y1="410.1" x2="413" y2="410.1" stroke="#1e1e23" stroke-width="0.5"/>
<line x1="40" y1="396.8" x2="413" y2="396.8" stroke="#1e1e23" stroke-width="0.5"/>
<line x1="40" y1="383.5" x2="413" y2="383.5" stroke="#1e1e23" stroke-width="0.5"/>
<line x1="40" y1="370.2" x2="413" y2="370.2" stroke="#1e1e23" stroke-width="0.5"/>
<line x1="377.1" y1="521.5" x2="376.6" y2="517.4" stroke="#508ce0" stroke-width="1.5"/>
<line x1="376.6" y1="517.4" x2="380.0" y2="517.4" stroke="#508ce0" stroke-width="1.5"/>
<line x1="380.0" y1="517.4" x2="380.0" y2="511.7" stroke="#508ce0" stroke-width="1.5"/>
<line x1="380.0" y1="511.7" x2="376.6" y2="511.7" stroke="#508ce0" stroke-width="1.5"/>
<line x1="376.6" y1="511.7" x2="376.6" y2="503.5" stroke="#508ce0" stroke-width="1.5"/>
<line x1="376.6" y1="503.5" x2="380.0" y2="503.5" stroke="#508ce0" stroke-width="1.5"/>
<line x1="380.0" y1="503.5" x2="380.0" y2="462.3" stroke="#508ce0" stroke-width="1.5"/>
<line x1="380.0" y1="462.3" x2="346.2" y2="462.3" stroke="#508ce0" stroke-width="1.5"/>
<line x1="346.2" y1="462.3" x2="346.2" y2="483.5" stroke="#508ce0" stroke-width="1.5"/>
<line x1="346.2" y1="483.5" x2="346.1" y2="484.4" stroke="#508ce0" stroke-width="1.5"/>
<circle cx="341.9" cy="483.4" r="4.3" fill="none" stroke="#508ce0" stroke-width="1" stroke-dasharray="3,2"/>
<line x1="342.9" y1="487.6" x2="341.9" y2="487.7" stroke="#508ce0" stroke-width="1.5"/>
<line x1="341.9" y1="487.7" x2="248.9" y2="487.7" stroke="#508ce0" stroke-width="1.5"/>
<line x1="248.9" y1="487.7" x2="248.0" y2="487.6" stroke="#508ce0" stroke-width="1.5"/>
<circle cx="248.9" cy="483.5" r="4.2" fill="none" stroke="#508ce0" stroke-width="1" stroke-dasharray="3,2"/>
<circle cx="250.4" cy="483.4" r="5.8" fill="none" stroke="#508ce0" stroke-width="1" stroke-dasharray="3,2"/>
<line x1="244.7" y1="483.5" x2="244.7" y2="467.4" stroke="#508ce0" stroke-width="1.5"/>
<line x1="244.7" y1="467.4" x2="109.4" y2="399.8" stroke="#508ce0" stroke-width="1.5"/>
<line x1="109.4" y1="399.8" x2="105.1" y2="399.8" stroke="#508ce0" stroke-width="1.5"/>
<circle cx="88.1" cy="399.7" r="17.0" fill="none" stroke="#508ce0" stroke-width="1" stroke-dasharray="3,2"/>
<circle cx="86.5" cy="395.3" r="21.5" fill="none" stroke="#508ce0" stroke-width="1" stroke-dasharray="3,2"/>
<circle cx="88.9" cy="394.3" r="22.3" fill="none" stroke="#508ce0" stroke-width="1" stroke-dasharray="3,2"/>
<circle cx="90.2" cy="396.9" r="20.3" fill="none" stroke="#508ce0" stroke-width="1" stroke-dasharray="3,2"/>
<circle cx="88.4" cy="399.7" r="17.1" fill="none" stroke="#508ce0" stroke-width="1" stroke-dasharray="3,2"/>
<line x1="71.3" y1="399.8" x2="71.8" y2="403.8" stroke="#508ce0" stroke-width="1.5"/>
<line x1="71.8" y1="403.8" x2="71.3" y2="399.8" stroke="#508ce0" stroke-width="1.5"/>
<line x1="71.3" y1="399.8" x2="380.0" y2="521.6" stroke="#508ce0" stroke-width="1.5"/>
<circle cx="378.5" cy="521.6" r="1.5" fill="none" stroke="#508ce0" stroke-width="1" stroke-dasharray="3,2"/>
</g>
<text x="48" y="802" fill="#786432" font-family="monospace" font-size="9">Range: 236.5 x 113.5 mm</text>
<rect x="413" y="70" width="365" height="740" fill="none" stroke="#1e1e23" stroke-width="1"/>
<text x="421" y="86" fill="#dcdcdc" font-family="monospace" font-size="11">Plane +Y (10 profiles)</text>
<defs><clipPath id="clip-1-nist_ftc_06_asme1_rd"><rect x="414" y="71" width="363" height="738"/></clipPath></defs>
<g clip-path="url(#clip-1-nist_ftc_06_asme1_rd)">
<line x1="435.0" y1="70" x2="435.0" y2="810" stroke="#1e1e23" stroke-width="0.5"/>
<line x1="447.7" y1="70" x2="447.7" y2="810" stroke="#1e1e23" stroke-width="0.5"/>
<line x1="460.5" y1="70" x2="460.5" y2="810" stroke="#1e1e23" stroke-width="0.5"/>
<line x1="473.2" y1="70" x2="473.2" y2="810" stroke="#1e1e23" stroke-width="0.5"/>
<line x1="485.9" y1="70" x2="485.9" y2="810" stroke="#1e1e23" stroke-width="0.5"/>
<line x1="498.6" y1="70" x2="498.6" y2="810" stroke="#1e1e23" stroke-width="0.5"/>
<line x1="511.3" y1="70" x2="511.3" y2="810" stroke="#1e1e23" stroke-width="0.5"/>
<line x1="524.0" y1="70" x2="524.0" y2="810" stroke="#1e1e23" stroke-width="0.5"/>
<line x1="536.8" y1="70" x2="536.8" y2="810" stroke="#1e1e23" stroke-width="0.5"/>
<line x1="549.5" y1="70" x2="549.5" y2="810" stroke="#1e1e23" stroke-width="0.5"/>
<line x1="562.2" y1="70" x2="562.2" y2="810" stroke="#1e1e23" stroke-width="0.5"/>
<line x1="574.9" y1="70" x2="574.9" y2="810" stroke="#1e1e23" stroke-width="0.5"/>
<line x1="587.6" y1="70" x2="587.6" y2="810" stroke="#1e1e23" stroke-width="0.5"/>
<line x1="600.4" y1="70" x2="600.4" y2="810" stroke="#1e1e23" stroke-width="0.5"/>
<line x1="613.1" y1="70" x2="613.1" y2="810" stroke="#1e1e23" stroke-width="0.5"/>
<line x1="625.8" y1="70" x2="625.8" y2="810" stroke="#1e1e23" stroke-width="0.5"/>
<line x1="638.5" y1="70" x2="638.5" y2="810" stroke="#1e1e23" stroke-width="0.5"/>
<line x1="651.2" y1="70" x2="651.2" y2="810" stroke="#1e1e23" stroke-width="0.5"/>
<line x1="664.0" y1="70" x2="664.0" y2="810" stroke="#1e1e23" stroke-width="0.5"/>
<line x1="676.7" y1="70" x2="676.7" y2="810" stroke="#1e1e23" stroke-width="0.5"/>
<line x1="689.4" y1="70" x2="689.4" y2="810" stroke="#1e1e23" stroke-width="0.5"/>
<line x1="702.1" y1="70" x2="702.1" y2="810" stroke="#1e1e23" stroke-width="0.5"/>
<line x1="714.8" y1="70" x2="714.8" y2="810" stroke="#1e1e23" stroke-width="0.5"/>
<line x1="727.6" y1="70" x2="727.6" y2="810" stroke="#1e1e23" stroke-width="0.5"/>
<line x1="740.3" y1="70" x2="740.3" y2="810" stroke="#1e1e23" stroke-width="0.5"/>
<line x1="753.0" y1="70" x2="753.0" y2="810" stroke="#1e1e23" stroke-width="0.5"/>
<line x1="765.7" y1="70" x2="765.7" y2="810" stroke="#1e1e23" stroke-width="0.5"/>
<line x1="413" y1="651.0" x2="786" y2="651.0" stroke="#1e1e23" stroke-width="0.5"/>
<line x1="413" y1="638.3" x2="786" y2="638.3" stroke="#1e1e23" stroke-width="0.5"/>
<line x1="413" y1="625.6" x2="786" y2="625.6" stroke="#1e1e23" stroke-width="0.5"/>
<line x1="413" y1="612.9" x2="786" y2="612.9" stroke="#1e1e23" stroke-width="0.5"/>
<line x1="413" y1="600.1" x2="786" y2="600.1" stroke="#1e1e23" stroke-width="0.5"/>
<line x1="413" y1="587.4" x2="786" y2="587.4" stroke="#1e1e23" stroke-width="0.5"/>
<line x1="413" y1="574.7" x2="786" y2="574.7" stroke="#1e1e23" stroke-width="0.5"/>
<line x1="413" y1="562.0" x2="786" y2="562.0" stroke="#1e1e23" stroke-width="0.5"/>
<line x1="413" y1="549.3" x2="786" y2="549.3" stroke="#1e1e23" stroke-width="0.5"/>
<line x1="413" y1="536.5" x2="786" y2="536.5" stroke="#1e1e23" stroke-width="0.5"/>
<line x1="413" y1="523.8" x2="786" y2="523.8" stroke="#1e1e23" stroke-width="0.5"/>
<line x1="413" y1="511.1" x2="786" y2="511.1" stroke="#1e1e23" stroke-width="0.5"/>
<line x1="413" y1="498.4" x2="786" y2="498.4" stroke="#1e1e23" stroke-width="0.5"/>
<line x1="413" y1="485.7" x2="786" y2="485.7" stroke="#1e1e23" stroke-width="0.5"/>
<line x1="413" y1="472.9" x2="786" y2="472.9" stroke="#1e1e23" stroke-width="0.5"/>
<line x1="413" y1="460.2" x2="786" y2="460.2" stroke="#1e1e23" stroke-width="0.5"/>
<line x1="413" y1="447.5" x2="786" y2="447.5" stroke="#1e1e23" stroke-width="0.5"/>
<line x1="413" y1="434.8" x2="786" y2="434.8" stroke="#1e1e23" stroke-width="0.5"/>
<line x1="413" y1="422.1" x2="786" y2="422.1" stroke="#1e1e23" stroke-width="0.5"/>
<line x1="413" y1="409.3" x2="786" y2="409.3" stroke="#1e1e23" stroke-width="0.5"/>
<line x1="413" y1="396.6" x2="786" y2="396.6" stroke="#1e1e23" stroke-width="0.5"/>
<line x1="413" y1="383.9" x2="786" y2="383.9" stroke="#1e1e23" stroke-width="0.5"/>
<line x1="413" y1="371.2" x2="786" y2="371.2" stroke="#1e1e23" stroke-width="0.5"/>
<line x1="413" y1="358.5" x2="786" y2="358.5" stroke="#1e1e23" stroke-width="0.5"/>
<line x1="413" y1="345.7" x2="786" y2="345.7" stroke="#1e1e23" stroke-width="0.5"/>
<line x1="413" y1="333.0" x2="786" y2="333.0" stroke="#1e1e23" stroke-width="0.5"/>
<line x1="413" y1="320.3" x2="786" y2="320.3" stroke="#1e1e23" stroke-width="0.5"/>
<line x1="413" y1="307.6" x2="786" y2="307.6" stroke="#1e1e23" stroke-width="0.5"/>
<line x1="413" y1="294.9" x2="786" y2="294.9" stroke="#1e1e23" stroke-width="0.5"/>
<line x1="413" y1="282.1" x2="786" y2="282.1" stroke="#1e1e23" stroke-width="0.5"/>
<line x1="413" y1="269.4" x2="786" y2="269.4" stroke="#1e1e23" stroke-width="0.5"/>
<line x1="413" y1="256.7" x2="786" y2="256.7" stroke="#1e1e23" stroke-width="0.5"/>
<line x1="413" y1="244.0" x2="786" y2="244.0" stroke="#1e1e23" stroke-width="0.5"/>
<line x1="448.1" y1="591.6" x2="448.1" y2="589.4" stroke="#508ce0" stroke-width="1.5"/>
<line x1="448.1" y1="589.4" x2="486.5" y2="589.4" stroke="#508ce0" stroke-width="1.5"/>
<line x1="486.5" y1="589.4" x2="486.5" y2="641.3" stroke="#508ce0" stroke-width="1.5"/>
<line x1="486.5" y1="641.3" x2="454.2" y2="641.3" stroke="#508ce0" stroke-width="1.5"/>
<line x1="454.2" y1="641.3" x2="454.2" y2="613.7" stroke="#508ce0" stroke-width="1.5"/>
<line x1="454.2" y1="613.7" x2="438.0" y2="613.7" stroke="#508ce0" stroke-width="1.5"/>
<line x1="438.0" y1="613.7" x2="438.0" y2="591.6" stroke="#508ce0" stroke-width="1.5"/>
<line x1="438.0" y1="591.6" x2="444.1" y2="591.6" stroke="#508ce0" stroke-width="1.5"/>
<line x1="451.3" y1="557.5" x2="438.0" y2="557.6" stroke="#508ce0" stroke-width="1.5"/>
<line x1="438.0" y1="557.6" x2="438.0" y2="579.7" stroke="#508ce0" stroke-width="1.5"/>
<line x1="438.0" y1="579.7" x2="448.1" y2="579.7" stroke="#508ce0" stroke-width="1.5"/>
<line x1="448.1" y1="579.7" x2="448.1" y2="581.8" stroke="#508ce0" stroke-width="1.5"/>
<line x1="448.1" y1="581.8" x2="486.5" y2="581.8" stroke="#508ce0" stroke-width="1.5"/>
<line x1="486.5" y1="581.8" x2="486.5" y2="497.3" stroke="#508ce0" stroke-width="1.5"/>
<line x1="486.5" y1="497.3" x2="448.1" y2="497.3" stroke="#508ce0" stroke-width="1.5"/>
<line x1="448.1" y1="497.3" x2="448.1" y2="499.5" stroke="#508ce0" stroke-width="1.5"/>
<line x1="448.1" y1="499.5" x2="438.0" y2="499.5" stroke="#508ce0" stroke-width="1.5"/>
<line x1="438.0" y1="499.5" x2="438.0" y2="521.7" stroke="#508ce0" stroke-width="1.5"/>
<line x1="438.0" y1="521.7" x2="454.2" y2="521.6" stroke="#508ce0" stroke-width="1.5"/>
<line x1="454.2" y1="521.6" x2="454.2" y2="557.5" stroke="#508ce0" stroke-width="1.5"/>
<line x1="451.3" y1="465.4" x2="438.0" y2="465.5" stroke="#508ce0" stroke-width="1.5"/>
<line x1="438.0" y1="465.5" x2="438.0" y2="487.6" stroke="#508ce0" stroke-width="1.5"/>
<line x1="438.0" y1="487.6" x2="448.1" y2="487.6" stroke="#508ce0" stroke-width="1.5"/>
<line x1="448.1" y1="487.6" x2="448.1" y2="489.7" stroke="#508ce0" stroke-width="1.5"/>
<line x1="448.1" y1="489.7" x2="486.5" y2="489.7" stroke="#508ce0" stroke-width="1.5"/>
<line x1="486.5" y1="489.7" x2="486.5" y2="405.3" stroke="#508ce0" stroke-width="1.5"/>
<line x1="486.5" y1="405.3" x2="448.1" y2="405.3" stroke="#508ce0" stroke-width="1.5"/>
<line x1="448.1" y1="405.3" x2="448.1" y2="407.4" stroke="#508ce0" stroke-width="1.5"/>
<line x1="448.1" y1="407.4" x2="438.0" y2="407.4" stroke="#508ce0" stroke-width="1.5"/>
<line x1="438.0" y1="407.4" x2="438.0" y2="429.6" stroke="#508ce0" stroke-width="1.5"/>
<line x1="438.0" y1="429.6" x2="454.2" y2="429.6" stroke="#508ce0" stroke-width="1.5"/>
<line x1="454.2" y1="429.6" x2="454.2" y2="465.4" stroke="#508ce0" stroke-width="1.5"/>
<line x1="451.3" y1="373.3" x2="438.0" y2="373.4" stroke="#508ce0" stroke-width="1.5"/>
<line x1="438.0" y1="373.4" x2="438.0" y2="395.5" stroke="#508ce0" stroke-width="1.5"/>
<line x1="438.0" y1="395.5" x2="448.1" y2="395.5" stroke="#508ce0" stroke-width="1.5"/>
<line x1="448.1" y1="395.5" x2="448.1" y2="397.7" stroke="#508ce0" stroke-width="1.5"/>
<line x1="448.1" y1="397.7" x2="486.5" y2="397.7" stroke="#508ce0" stroke-width="1.5"/>
<line x1="486.5" y1="397.7" x2="486.5" y2="313.2" stroke="#508ce0" stroke-width="1.5"/>
<line x1="486.5" y1="313.2" x2="448.1" y2="313.2" stroke="#508ce0" stroke-width="1.5"/>
<line x1="448.1" y1="313.2" x2="448.1" y2="315.3" stroke="#508ce0" stroke-width="1.5"/>
<line x1="448.1" y1="315.3" x2="438.0" y2="315.3" stroke="#508ce0" stroke-width="1.5"/>
<line x1="438.0" y1="315.3" x2="438.0" y2="337.5" stroke="#508ce0" stroke-width="1.5"/>
<line x1="438.0" y1="337.5" x2="454.2" y2="337.5" stroke="#508ce0" stroke-width="1.5"/>
<line x1="454.2" y1="337.5" x2="454.2" y2="373.4" stroke="#508ce0" stroke-width="1.5"/>
<line x1="451.3" y1="281.3" x2="438.0" y2="281.3" stroke="#508ce0" stroke-width="1.5"/>
<line x1="438.0" y1="281.3" x2="438.0" y2="303.4" stroke="#508ce0" stroke-width="1.5"/>
<line x1="438.0" y1="303.4" x2="448.1" y2="303.4" stroke="#508ce0" stroke-width="1.5"/>
<line x1="448.1" y1="303.4" x2="448.1" y2="305.6" stroke="#508ce0" stroke-width="1.5"/>
<line x1="448.1" y1="305.6" x2="486.5" y2="305.6" stroke="#508ce0" stroke-width="1.5"/>
<line x1="486.5" y1="305.6" x2="486.5" y2="253.7" stroke="#508ce0" stroke-width="1.5"/>
<line x1="486.5" y1="253.7" x2="454.2" y2="253.7" stroke="#508ce0" stroke-width="1.5"/>
<line x1="454.2" y1="253.7" x2="454.2" y2="281.3" stroke="#508ce0" stroke-width="1.5"/>
<circle cx="708.6" cy="427.3" r="4.1" fill="none" stroke="#c9a84c" stroke-width="1" stroke-dasharray="3,2"/>
<line x1="708.6" y1="431.3" x2="588.2" y2="431.3" stroke="#c9a84c" stroke-width="1.5"/>
<line x1="588.2" y1="431.3" x2="588.2" y2="463.7" stroke="#c9a84c" stroke-width="1.5"/>
<line x1="588.2" y1="463.7" x2="708.6" y2="463.7" stroke="#c9a84c" stroke-width="1.5"/>
<circle cx="708.6" cy="467.7" r="4.1" fill="none" stroke="#c9a84c" stroke-width="1" stroke-dasharray="3,2"/>
<circle cx="708.6" cy="467.7" r="4.0" fill="none" stroke="#c9a84c" stroke-width="1" stroke-dasharray="3,2"/>
<line x1="712.6" y1="467.7" x2="712.6" y2="641.3" stroke="#c9a84c" stroke-width="1.5"/>
<line x1="712.6" y1="641.3" x2="753.0" y2="641.3" stroke="#c9a84c" stroke-width="1.5"/>
<line x1="753.0" y1="641.3" x2="753.0" y2="253.7" stroke="#c9a84c" stroke-width="1.5"/>
<line x1="753.0" y1="253.7" x2="712.6" y2="253.7" stroke="#c9a84c" stroke-width="1.5"/>
<line x1="712.6" y1="253.7" x2="712.6" y2="427.9" stroke="#c9a84c" stroke-width="1.5"/>
<circle cx="551.1" cy="350.6" r="19.7" fill="none" stroke="#508ce0" stroke-width="1.5"/>
<text x="574.8" y="354.6" fill="#508ce0" font-family="monospace" font-size="8">ø31.02</text>
<circle cx="615.7" cy="302.1" r="14.5" fill="none" stroke="#508ce0" stroke-width="1.5"/>
<text x="634.2" y="306.1" fill="#508ce0" font-family="monospace" font-size="8">ø22.82</text>
<circle cx="551.1" cy="544.4" r="19.7" fill="none" stroke="#508ce0" stroke-width="1.5"/>
<text x="574.8" y="548.4" fill="#508ce0" font-family="monospace" font-size="8">ø31.02</text>
<circle cx="615.7" cy="592.9" r="14.5" fill="none" stroke="#508ce0" stroke-width="1.5"/>
<text x="634.2" y="596.9" fill="#508ce0" font-family="monospace" font-size="8">ø22.82</text>
</g>
<text x="421" y="802" fill="#786432" font-family="monospace" font-size="9">Range: 247.6 x 304.8 mm</text>
<rect x="786" y="70" width="365" height="740" fill="none" stroke="#1e1e23" stroke-width="1"/>
<text x="794" y="86" fill="#dcdcdc" font-family="monospace" font-size="11">Plane +Z (1 profiles)</text>
<defs><clipPath id="clip-2-nist_ftc_06_asme1_rd"><rect x="787" y="71" width="363" height="738"/></clipPath></defs>
<g clip-path="url(#clip-2-nist_ftc_06_asme1_rd)">
<line x1="803.1" y1="70" x2="803.1" y2="810" stroke="#1e1e23" stroke-width="0.5"/>
<line x1="813.5" y1="70" x2="813.5" y2="810" stroke="#1e1e23" stroke-width="0.5"/>
<line x1="823.8" y1="70" x2="823.8" y2="810" stroke="#1e1e23" stroke-width="0.5"/>
<line x1="834.1" y1="70" x2="834.1" y2="810" stroke="#1e1e23" stroke-width="0.5"/>
<line x1="844.5" y1="70" x2="844.5" y2="810" stroke="#1e1e23" stroke-width="0.5"/>
<line x1="854.8" y1="70" x2="854.8" y2="810" stroke="#1e1e23" stroke-width="0.5"/>
<line x1="865.2" y1="70" x2="865.2" y2="810" stroke="#1e1e23" stroke-width="0.5"/>
<line x1="875.5" y1="70" x2="875.5" y2="810" stroke="#1e1e23" stroke-width="0.5"/>
<line x1="885.8" y1="70" x2="885.8" y2="810" stroke="#1e1e23" stroke-width="0.5"/>
<line x1="896.2" y1="70" x2="896.2" y2="810" stroke="#1e1e23" stroke-width="0.5"/>
<line x1="906.5" y1="70" x2="906.5" y2="810" stroke="#1e1e23" stroke-width="0.5"/>
<line x1="916.8" y1="70" x2="916.8" y2="810" stroke="#1e1e23" stroke-width="0.5"/>
<line x1="927.2" y1="70" x2="927.2" y2="810" stroke="#1e1e23" stroke-width="0.5"/>
<line x1="937.5" y1="70" x2="937.5" y2="810" stroke="#1e1e23" stroke-width="0.5"/>
<line x1="947.8" y1="70" x2="947.8" y2="810" stroke="#1e1e23" stroke-width="0.5"/>
<line x1="958.2" y1="70" x2="958.2" y2="810" stroke="#1e1e23" stroke-width="0.5"/>
<line x1="968.5" y1="70" x2="968.5" y2="810" stroke="#1e1e23" stroke-width="0.5"/>
<line x1="978.8" y1="70" x2="978.8" y2="810" stroke="#1e1e23" stroke-width="0.5"/>
<line x1="989.2" y1="70" x2="989.2" y2="810" stroke="#1e1e23" stroke-width="0.5"/>
<line x1="999.5" y1="70" x2="999.5" y2="810" stroke="#1e1e23" stroke-width="0.5"/>
<line x1="1009.8" y1="70" x2="1009.8" y2="810" stroke="#1e1e23" stroke-width="0.5"/>
<line x1="1020.2" y1="70" x2="1020.2" y2="810" stroke="#1e1e23" stroke-width="0.5"/>
<line x1="1030.5" y1="70" x2="1030.5" y2="810" stroke="#1e1e23" stroke-width="0.5"/>
<line x1="1040.8" y1="70" x2="1040.8" y2="810" stroke="#1e1e23" stroke-width="0.5"/>
<line x1="1051.2" y1="70" x2="1051.2" y2="810" stroke="#1e1e23" stroke-width="0.5"/>
<line x1="1061.5" y1="70" x2="1061.5" y2="810" stroke="#1e1e23" stroke-width="0.5"/>
<line x1="1071.8" y1="70" x2="1071.8" y2="810" stroke="#1e1e23" stroke-width="0.5"/>
<line x1="1082.2" y1="70" x2="1082.2" y2="810" stroke="#1e1e23" stroke-width="0.5"/>
<line x1="1092.5" y1="70" x2="1092.5" y2="810" stroke="#1e1e23" stroke-width="0.5"/>
<line x1="1102.9" y1="70" x2="1102.9" y2="810" stroke="#1e1e23" stroke-width="0.5"/>
<line x1="1113.2" y1="70" x2="1113.2" y2="810" stroke="#1e1e23" stroke-width="0.5"/>
<line x1="1123.5" y1="70" x2="1123.5" y2="810" stroke="#1e1e23" stroke-width="0.5"/>
<line x1="1133.9" y1="70" x2="1133.9" y2="810" stroke="#1e1e23" stroke-width="0.5"/>
<line x1="786" y1="474.2" x2="1159" y2="474.2" stroke="#1e1e23" stroke-width="0.5"/>
<line x1="786" y1="463.9" x2="1159" y2="463.9" stroke="#1e1e23" stroke-width="0.5"/>
<line x1="786" y1="453.6" x2="1159" y2="453.6" stroke="#1e1e23" stroke-width="0.5"/>
<line x1="786" y1="443.2" x2="1159" y2="443.2" stroke="#1e1e23" stroke-width="0.5"/>
<line x1="786" y1="432.9" x2="1159" y2="432.9" stroke="#1e1e23" stroke-width="0.5"/>
<line x1="786" y1="422.6" x2="1159" y2="422.6" stroke="#1e1e23" stroke-width="0.5"/>
<line x1="786" y1="412.2" x2="1159" y2="412.2" stroke="#1e1e23" stroke-width="0.5"/>
<circle cx="985.0" cy="438.1" r="3.4" fill="none" stroke="#c9a84c" stroke-width="1.5"/>
<text x="992.3" y="442.1" fill="#c9a84c" font-family="monospace" font-size="8">ø6.49</text>
<line x1="981.6" y1="438.1" x2="981.6" y2="420.8" stroke="#c9a84c" stroke-width="1.5"/>
<line x1="981.6" y1="420.8" x2="955.4" y2="420.8" stroke="#c9a84c" stroke-width="1.5"/>
<line x1="955.4" y1="420.8" x2="955.4" y2="438.5" stroke="#c9a84c" stroke-width="1.5"/>
<circle cx="952.1" cy="438.1" r="3.3" fill="none" stroke="#c9a84c" stroke-width="1" stroke-dasharray="3,2"/>
<line x1="952.9" y1="441.3" x2="952.1" y2="441.4" stroke="#c9a84c" stroke-width="1.5"/>
<line x1="952.1" y1="441.4" x2="811.0" y2="441.4" stroke="#c9a84c" stroke-width="1.5"/>
<line x1="811.0" y1="441.4" x2="811.0" y2="474.2" stroke="#c9a84c" stroke-width="1.5"/>
<line x1="811.0" y1="474.2" x2="1126.0" y2="474.2" stroke="#c9a84c" stroke-width="1.5"/>
<line x1="1126.0" y1="474.2" x2="1126.0" y2="441.4" stroke="#c9a84c" stroke-width="1.5"/>
<line x1="1126.0" y1="441.4" x2="984.9" y2="441.4" stroke="#c9a84c" stroke-width="1.5"/>
<circle cx="984.9" cy="438.2" r="3.3" fill="none" stroke="#c9a84c" stroke-width="1" stroke-dasharray="3,2"/>
</g>
<text x="794" y="802" fill="#786432" font-family="monospace" font-size="9">Range: 304.8 x 51.8 mm</text>
<text x="40" y="880" fill="#c9a84c" font-family="monospace" font-size="9">Features (8): →× Linear Pattern ×3 (▭ Pocket 38.1×66.4) | ▭ Fillet Pocket 231.8×91.5 R9.5 | ▭ Pocket 38.1×40.8 | ▭ Pocket 38.1×40.8 | ⊙ Hole ø31.02 | ⊙ Hole ø31.02 | ⊙ Hole ø22.82 | ⊙ Hole ø22.82</text>
</svg>