<svg xmlns="http://www.w3.org/2000/svg" width="1200" height="4564" viewBox="0 0 1200 4564">
<rect width="100%" height="100%" fill="#1a1a2e"/>
<text x="10" y="18" fill="#888" font-size="11" font-family="monospace">nist_ctc_01_asme1_ap242-e1 — contour #5 — +Y d2/3=-118.56</text>
<text x="10" y="32" fill="#888" font-size="11" font-family="monospace">51 pts → 4 entities (tol=0.5443, diag=272.13)</text>
<text x="10" y="46" fill="#ff4444" font-size="11" font-family="monospace">maxErr=10.0348 avgErr=2.7393 highErrPts=29/51</text>
<text x="10" y="60" fill="#888" font-size="11" font-family="monospace">3 lines, 1 arcs, 0 circles</text>
<line x1="838.28" y1="259.33" x2="990.00" y2="4353.25" stroke="#e0e0e0" stroke-width="1.5" stroke-opacity="0.9"/>
<circle cx="838.28" cy="259.33" r="3" fill="#00ff00" opacity="0.7"/>
<circle cx="990.00" cy="4353.25" r="3" fill="#00ccff" opacity="0.7"/>
<line x1="990.00" y1="4353.25" x2="210.91" y2="4353.25" stroke="#e0e0e0" stroke-width="1.5" stroke-opacity="0.9"/>
<circle cx="990.00" cy="4353.25" r="3" fill="#00ff00" opacity="0.7"/>
<circle cx="210.91" cy="4353.25" r="3" fill="#00ccff" opacity="0.7"/>
<line x1="210.91" y1="4353.25" x2="210.97" y2="366.17" stroke="#e0e0e0" stroke-width="1.5" stroke-opacity="0.9"/>
<circle cx="210.91" cy="4353.25" r="3" fill="#00ff00" opacity="0.7"/>
<circle cx="210.97" cy="366.17" r="3" fill="#00ccff" opacity="0.7"/>
<path d="M 210.97 366.17 A 319.07 319.07 0 0 0 838.28 259.33" fill="none" stroke="#cc44ff" stroke-width="2" stroke-opacity="0.8"/>
<circle cx="210.97" cy="366.17" r="3" fill="#00ff00" opacity="0.7"/>
<circle cx="838.28" cy="259.33" r="3" fill="#00ccff" opacity="0.7"/>
<circle cx="210.75" cy="4342.50" r="1.5" fill="rgb(1,127,100)" opacity="0.4"/>
<circle cx="210.75" cy="4341.70" r="1.5" fill="rgb(1,127,100)" opacity="0.4"/>
<circle cx="210.75" cy="1888.13" r="1.5" fill="rgb(1,127,100)" opacity="0.4"/>
<circle cx="210.75" cy="1875.81" r="1.5" fill="rgb(1,127,100)" opacity="0.4"/>
<circle cx="210.75" cy="1875.07" r="1.5" fill="rgb(1,127,100)" opacity="0.4"/>
<circle cx="210.75" cy="1859.39" r="1.5" fill="rgb(1,127,100)" opacity="0.4"/>
<circle cx="210.75" cy="1858.36" r="1.5" fill="rgb(1,127,100)" opacity="0.4"/>
<circle cx="210.75" cy="1511.78" r="1.5" fill="rgb(1,127,100)" opacity="0.4"/>
<circle cx="210.75" cy="1502.57" r="1.5" fill="rgb(1,127,100)" opacity="0.4"/>
<circle cx="210.75" cy="1493.05" r="1.5" fill="rgb(1,127,100)" opacity="0.4"/>
<circle cx="210.75" cy="372.47" r="1.5" fill="rgb(1,127,99)" opacity="0.4"/>
<circle cx="210.75" cy="365.89" r="1.5" fill="rgb(2,126,99)" opacity="0.4"/>
<circle cx="210.75" cy="358.38" r="1.5" fill="rgb(47,104,82)" opacity="0.4"/>
<circle cx="210.75" cy="210.74" r="4" fill="rgb(255,0,0)" opacity="0.9"/>
<text x="215.75" y="207.74" fill="#ff4444" font-size="8" font-family="monospace">10.035</text>
<circle cx="837.59" cy="247.64" r="4" fill="rgb(71,92,72)" opacity="0.9"/>
<circle cx="989.25" cy="256.57" r="4" fill="rgb(255,0,0)" opacity="0.9"/>
<text x="994.25" y="253.57" fill="#ff4444" font-size="8" font-family="monospace">9.724</text>
<circle cx="989.25" cy="335.08" r="4" fill="rgb(255,0,0)" opacity="0.9"/>
<text x="994.25" y="332.08" fill="#ff4444" font-size="8" font-family="monospace">9.559</text>
<circle cx="989.25" cy="339.07" r="4" fill="rgb(255,0,0)" opacity="0.9"/>
<text x="994.25" y="336.07" fill="#ff4444" font-size="8" font-family="monospace">9.550</text>
<circle cx="989.25" cy="342.57" r="4" fill="rgb(255,0,0)" opacity="0.9"/>
<text x="994.25" y="339.57" fill="#ff4444" font-size="8" font-family="monospace">9.541</text>
<circle cx="989.25" cy="1563.12" r="4" fill="rgb(255,0,0)" opacity="0.9"/>
<text x="994.25" y="1560.12" fill="#ff4444" font-size="8" font-family="monospace">6.623</text>
<circle cx="989.25" cy="1568.19" r="4" fill="rgb(255,0,0)" opacity="0.9"/>
<text x="994.25" y="1565.19" fill="#ff4444" font-size="8" font-family="monospace">6.611</text>
<circle cx="989.25" cy="1573.08" r="4" fill="rgb(255,0,0)" opacity="0.9"/>
<text x="994.25" y="1570.08" fill="#ff4444" font-size="8" font-family="monospace">6.599</text>
<circle cx="989.25" cy="1577.46" r="4" fill="rgb(255,0,0)" opacity="0.9"/>
<text x="994.25" y="1574.46" fill="#ff4444" font-size="8" font-family="monospace">6.589</text>
<circle cx="989.25" cy="1655.70" r="4" fill="rgb(255,0,0)" opacity="0.9"/>
<text x="994.25" y="1652.7" fill="#ff4444" font-size="8" font-family="monospace">6.402</text>
<circle cx="989.25" cy="1737.94" r="4" fill="rgb(255,0,0)" opacity="0.9"/>
<text x="994.25" y="1734.94" fill="#ff4444" font-size="8" font-family="monospace">6.205</text>
<circle cx="989.25" cy="1742.52" r="4" fill="rgb(255,0,0)" opacity="0.9"/>
<text x="994.25" y="1739.52" fill="#ff4444" font-size="8" font-family="monospace">6.194</text>
<circle cx="989.25" cy="1821.66" r="4" fill="rgb(255,0,0)" opacity="0.9"/>
<text x="994.25" y="1818.66" fill="#ff4444" font-size="8" font-family="monospace">6.005</text>
<circle cx="989.25" cy="1891.11" r="4" fill="rgb(255,0,0)" opacity="0.9"/>
<text x="994.25" y="1888.11" fill="#ff4444" font-size="8" font-family="monospace">5.839</text>
<circle cx="989.25" cy="2017.59" r="4" fill="rgb(255,0,0)" opacity="0.9"/>
<text x="994.25" y="2014.59" fill="#ff4444" font-size="8" font-family="monospace">5.536</text>
<circle cx="989.25" cy="2111.36" r="4" fill="rgb(255,0,0)" opacity="0.9"/>
<text x="994.25" y="2108.36" fill="#ff4444" font-size="8" font-family="monospace">5.312</text>
<circle cx="989.25" cy="3119.87" r="4" fill="rgb(255,0,0)" opacity="0.9"/>
<text x="994.25" y="3116.87" fill="#ff4444" font-size="8" font-family="monospace">2.901</text>
<circle cx="989.25" cy="3164.82" r="4" fill="rgb(255,0,0)" opacity="0.9"/>
<text x="994.25" y="3161.82" fill="#ff4444" font-size="8" font-family="monospace">2.793</text>
<circle cx="989.25" cy="3211.90" r="4" fill="rgb(251,2,1)" opacity="0.9"/>
<text x="994.25" y="3208.9" fill="#ff4444" font-size="8" font-family="monospace">2.681</text>
<circle cx="989.25" cy="3232.54" r="4" fill="rgb(247,4,3)" opacity="0.9"/>
<text x="994.25" y="3229.54" fill="#ff4444" font-size="8" font-family="monospace">2.631</text>
<circle cx="989.25" cy="3278.45" r="4" fill="rgb(236,9,7)" opacity="0.9"/>
<text x="994.25" y="3275.45" fill="#ff4444" font-size="8" font-family="monospace">2.522</text>
<circle cx="989.25" cy="3298.02" r="4" fill="rgb(232,12,9)" opacity="0.9"/>
<text x="994.25" y="3295.02" fill="#ff4444" font-size="8" font-family="monospace">2.475</text>
<circle cx="989.25" cy="3340.01" r="4" fill="rgb(222,16,13)" opacity="0.9"/>
<text x="994.25" y="3337.01" fill="#ff4444" font-size="8" font-family="monospace">2.374</text>
<circle cx="989.25" cy="3992.08" r="4" fill="rgb(76,89,70)" opacity="0.9"/>
<circle cx="989.25" cy="4019.70" r="4" fill="rgb(70,92,72)" opacity="0.9"/>
<circle cx="989.25" cy="4043.95" r="4" fill="rgb(65,95,75)" opacity="0.9"/>
<circle cx="989.25" cy="4063.35" r="4" fill="rgb(60,97,76)" opacity="0.9"/>
<circle cx="989.25" cy="4077.00" r="4" fill="rgb(57,99,78)" opacity="0.9"/>
<circle cx="989.25" cy="4353.25" r="1.5" fill="rgb(0,127,100)" opacity="0.4"/>
<circle cx="836.71" cy="4353.25" r="1.5" fill="rgb(0,127,100)" opacity="0.4"/>
<circle cx="210.75" cy="4353.25" r="1.5" fill="rgb(1,127,100)" opacity="0.4"/>
<circle cx="210.75" cy="4346.08" r="1.5" fill="rgb(1,127,100)" opacity="0.4"/>
<circle cx="210.75" cy="4345.61" r="1.5" fill="rgb(1,127,100)" opacity="0.4"/>
<circle cx="210.75" cy="4344.98" r="1.5" fill="rgb(1,127,100)" opacity="0.4"/>
<circle cx="210.75" cy="4344.22" r="1.5" fill="rgb(1,127,100)" opacity="0.4"/>
<circle cx="210.75" cy="4343.37" r="1.5" fill="rgb(1,127,100)" opacity="0.4"/>
<circle cx="210.75" cy="4342.50" r="1.5" fill="rgb(1,127,100)" opacity="0.4"/>
<text x="920.14" y="2309.29" fill="#666" font-size="9" font-family="monospace">#0</text>
<text x="606.455" y="4356.25" fill="#666" font-size="9" font-family="monospace">#1</text>
<text x="216.94" y="2362.71" fill="#666" font-size="9" font-family="monospace">#2</text>
<text x="473.12" y="-22.56" fill="#666" font-size="9" font-family="monospace">#3</text>
</svg>