<svg xmlns="http://www.w3.org/2000/svg" width="1200" height="1200" viewBox="0 0 1200 1200">
<rect width="100%" height="100%" fill="#1a1a2e"/>
<text x="10" y="18" fill="#888" font-size="11" font-family="monospace">nist_ctc_01_asme1_ap242-e1 — contour #3 — +Y d1/3=-119.08</text>
<text x="10" y="32" fill="#888" font-size="11" font-family="monospace">53 pts → 1 entities (tol=0.0566, diag=28.28)</text>
<text x="10" y="46" fill="#44ff44" font-size="11" font-family="monospace">maxErr=0.0519 avgErr=0.0227 highErrPts=0/53</text>
<text x="10" y="60" fill="#888" font-size="11" font-family="monospace">0 lines, 0 arcs, 1 circles</text>
<circle cx="600.31" cy="599.96" r="526.29" fill="none" stroke="#ffd700" stroke-width="2" stroke-opacity="0.8"/>
<circle cx="940.45" cy="999.43" r="1.5" fill="rgb(28,113,89)" opacity="0.4"/>
<circle cx="853.39" cy="1061.37" r="1.5" fill="rgb(1,127,100)" opacity="0.4"/>
<circle cx="833.91" cy="1069.09" r="1.5" fill="rgb(38,108,85)" opacity="0.4"/>
<circle cx="735.02" cy="1108.28" r="1.5" fill="rgb(7,124,97)" opacity="0.4"/>
<circle cx="630.69" cy="1122.65" r="1.5" fill="rgb(47,104,82)" opacity="0.4"/>
<circle cx="608.81" cy="1125.66" r="1.5" fill="rgb(9,123,96)" opacity="0.4"/>
<circle cx="504.74" cy="1114.84" r="1.5" fill="rgb(45,105,82)" opacity="0.4"/>
<circle cx="482.09" cy="1112.48" r="1.5" fill="rgb(5,125,98)" opacity="0.4"/>
<circle cx="384.27" cy="1077.42" r="1.5" fill="rgb(38,108,85)" opacity="0.4"/>
<circle cx="362.22" cy="1069.52" r="1.5" fill="rgb(3,126,99)" opacity="0.4"/>
<circle cx="276.17" cy="1012.51" r="1.5" fill="rgb(28,113,89)" opacity="0.4"/>
<circle cx="256.17" cy="999.27" r="1.5" fill="rgb(14,120,94)" opacity="0.4"/>
<circle cx="186.67" cy="923.79" r="1.5" fill="rgb(17,119,93)" opacity="0.4"/>
<circle cx="170.10" cy="905.81" r="1.5" fill="rgb(27,114,90)" opacity="0.4"/>
<circle cx="120.95" cy="816.30" r="1.5" fill="rgb(6,124,97)" opacity="0.4"/>
<circle cx="109.02" cy="794.58" r="1.5" fill="rgb(37,109,86)" opacity="0.4"/>
<circle cx="82.88" cy="696.16" r="1.5" fill="rgb(0,127,100)" opacity="0.4"/>
<circle cx="76.47" cy="672.03" r="1.5" fill="rgb(43,106,83)" opacity="0.4"/>
<circle cx="76.05" cy="647.04" r="1.5" fill="rgb(1,127,99)" opacity="0.4"/>
<circle cx="74.34" cy="545.30" r="1.5" fill="rgb(43,106,83)" opacity="0.4"/>
<circle cx="97.19" cy="446.00" r="1.5" fill="rgb(2,126,99)" opacity="0.4"/>
<circle cx="102.77" cy="421.75" r="1.5" fill="rgb(38,109,85)" opacity="0.4"/>
<circle cx="148.96" cy="330.52" r="1.5" fill="rgb(11,122,96)" opacity="0.4"/>
<circle cx="160.09" cy="308.55" r="1.5" fill="rgb(28,113,89)" opacity="0.4"/>
<circle cx="227.17" cy="230.65" r="1.5" fill="rgb(22,116,91)" opacity="0.4"/>
<circle cx="242.98" cy="212.29" r="1.5" fill="rgb(16,119,94)" opacity="0.4"/>
<circle cx="327.30" cy="152.30" r="1.5" fill="rgb(33,111,87)" opacity="0.4"/>
<circle cx="346.61" cy="138.56" r="1.5" fill="rgb(4,125,98)" opacity="0.4"/>
<circle cx="368.46" cy="129.90" r="1.5" fill="rgb(37,109,85)" opacity="0.4"/>
<circle cx="464.98" cy="91.64" r="1.5" fill="rgb(5,125,98)" opacity="0.4"/>
<circle cx="568.98" cy="77.33" r="1.5" fill="rgb(47,104,82)" opacity="0.4"/>
<circle cx="591.19" cy="74.27" r="1.5" fill="rgb(9,123,97)" opacity="0.4"/>
<circle cx="696.31" cy="85.20" r="1.5" fill="rgb(46,105,82)" opacity="0.4"/>
<circle cx="717.91" cy="87.45" r="1.5" fill="rgb(8,124,97)" opacity="0.4"/>
<circle cx="817.97" cy="123.31" r="1.5" fill="rgb(39,108,85)" opacity="0.4"/>
<circle cx="837.78" cy="130.41" r="1.5" fill="rgb(2,127,99)" opacity="0.4"/>
<circle cx="926.80" cy="189.38" r="1.5" fill="rgb(30,113,88)" opacity="0.4"/>
<circle cx="943.83" cy="200.66" r="1.5" fill="rgb(8,124,97)" opacity="0.4"/>
<circle cx="957.53" cy="215.54" r="1.5" fill="rgb(26,114,90)" opacity="0.4"/>
<circle cx="1029.90" cy="294.12" r="1.5" fill="rgb(18,119,93)" opacity="0.4"/>
<circle cx="1039.41" cy="311.44" r="1.5" fill="rgb(15,120,94)" opacity="0.4"/>
<circle cx="1090.98" cy="405.35" r="1.5" fill="rgb(27,114,89)" opacity="0.4"/>
<circle cx="1118.58" cy="509.23" r="1.5" fill="rgb(2,126,99)" opacity="0.4"/>
<circle cx="1123.53" cy="527.89" r="1.5" fill="rgb(32,111,87)" opacity="0.4"/>
<circle cx="1123.86" cy="547.16" r="1.5" fill="rgb(2,127,99)" opacity="0.4"/>
<circle cx="1125.66" cy="654.62" r="1.5" fill="rgb(32,111,87)" opacity="0.4"/>
<circle cx="1121.33" cy="673.42" r="1.5" fill="rgb(2,127,99)" opacity="0.4"/>
<circle cx="1097.23" cy="778.18" r="1.5" fill="rgb(28,114,89)" opacity="0.4"/>
<circle cx="1088.43" cy="795.56" r="1.5" fill="rgb(8,124,97)" opacity="0.4"/>
<circle cx="1039.91" cy="891.38" r="1.5" fill="rgb(19,118,92)" opacity="0.4"/>
<circle cx="1026.96" cy="906.41" r="1.5" fill="rgb(17,119,93)" opacity="0.4"/>
<circle cx="957.02" cy="987.64" r="1.5" fill="rgb(9,123,96)" opacity="0.4"/>
<circle cx="940.45" cy="999.43" r="1.5" fill="rgb(28,113,89)" opacity="0.4"/>
<text x="606.31" y="602.96" fill="#666" font-size="9" font-family="monospace">#0</text>
</svg>