<svg xmlns="http://www.w3.org/2000/svg" width="1200" height="1200" viewBox="0 0 1200 1200">
<rect width="100%" height="100%" fill="#1a1a2e"/>
<text x="10" y="18" fill="#888" font-size="11" font-family="monospace">nist_ctc_01_asme1_ap242-e1 — contour #14 — +Y d3/3=-118.04</text>
<text x="10" y="32" fill="#888" font-size="11" font-family="monospace">53 pts → 1 entities (tol=0.0566, diag=28.28)</text>
<text x="10" y="46" fill="#44ff44" font-size="11" font-family="monospace">maxErr=0.0546 avgErr=0.0237 highErrPts=0/53</text>
<text x="10" y="60" fill="#888" font-size="11" font-family="monospace">0 lines, 0 arcs, 1 circles</text>
<circle cx="600.15" cy="599.96" r="525.77" fill="none" stroke="#ffd700" stroke-width="2" stroke-opacity="0.8"/>
<circle cx="242.98" cy="212.29" r="1.5" fill="rgb(23,116,91)" opacity="0.4"/>
<circle cx="324.87" cy="154.03" r="1.5" fill="rgb(29,113,89)" opacity="0.4"/>
<circle cx="346.61" cy="138.56" r="1.5" fill="rgb(12,121,95)" opacity="0.4"/>
<circle cx="440.74" cy="101.25" r="1.5" fill="rgb(38,109,85)" opacity="0.4"/>
<circle cx="464.98" cy="91.64" r="1.5" fill="rgb(4,126,99)" opacity="0.4"/>
<circle cx="566.02" cy="77.73" r="1.5" fill="rgb(42,107,84)" opacity="0.4"/>
<circle cx="591.19" cy="74.27" r="1.5" fill="rgb(0,127,100)" opacity="0.4"/>
<circle cx="616.18" cy="76.87" r="1.5" fill="rgb(42,107,84)" opacity="0.4"/>
<circle cx="717.91" cy="87.45" r="1.5" fill="rgb(2,127,99)" opacity="0.4"/>
<circle cx="815.16" cy="122.30" r="1.5" fill="rgb(33,111,87)" opacity="0.4"/>
<circle cx="837.78" cy="130.41" r="1.5" fill="rgb(8,123,97)" opacity="0.4"/>
<circle cx="924.32" cy="187.74" r="1.5" fill="rgb(23,116,91)" opacity="0.4"/>
<circle cx="943.83" cy="200.66" r="1.5" fill="rgb(18,118,93)" opacity="0.4"/>
<circle cx="959.53" cy="217.71" r="1.5" fill="rgb(19,118,93)" opacity="0.4"/>
<circle cx="1029.90" cy="294.12" r="1.5" fill="rgb(29,113,89)" opacity="0.4"/>
<circle cx="1080.16" cy="385.64" r="1.5" fill="rgb(1,127,99)" opacity="0.4"/>
<circle cx="1090.98" cy="405.35" r="1.5" fill="rgb(38,108,85)" opacity="0.4"/>
<circle cx="1096.73" cy="426.98" r="1.5" fill="rgb(1,127,99)" opacity="0.4"/>
<circle cx="1123.53" cy="527.89" r="1.5" fill="rgb(44,106,83)" opacity="0.4"/>
<circle cx="1123.91" cy="550.12" r="1.5" fill="rgb(6,124,98)" opacity="0.4"/>
<circle cx="1125.66" cy="654.62" r="1.5" fill="rgb(44,105,83)" opacity="0.4"/>
<circle cx="1120.67" cy="676.31" r="1.5" fill="rgb(6,125,98)" opacity="0.4"/>
<circle cx="1097.23" cy="778.18" r="1.5" fill="rgb(39,108,85)" opacity="0.4"/>
<circle cx="1087.09" cy="798.21" r="1.5" fill="rgb(0,127,100)" opacity="0.4"/>
<circle cx="1039.91" cy="891.38" r="1.5" fill="rgb(31,112,88)" opacity="0.4"/>
<circle cx="1025.02" cy="908.67" r="1.5" fill="rgb(10,122,96)" opacity="0.4"/>
<circle cx="957.02" cy="987.64" r="1.5" fill="rgb(20,118,92)" opacity="0.4"/>
<circle cx="938.02" cy="1001.16" r="1.5" fill="rgb(22,117,92)" opacity="0.4"/>
<circle cx="853.39" cy="1061.37" r="1.5" fill="rgb(10,123,96)" opacity="0.4"/>
<circle cx="831.14" cy="1070.19" r="1.5" fill="rgb(32,111,87)" opacity="0.4"/>
<circle cx="735.02" cy="1108.28" r="1.5" fill="rgb(2,126,99)" opacity="0.4"/>
<circle cx="633.61" cy="1122.24" r="1.5" fill="rgb(41,107,84)" opacity="0.4"/>
<circle cx="608.81" cy="1125.66" r="1.5" fill="rgb(0,127,100)" opacity="0.4"/>
<circle cx="507.68" cy="1115.14" r="1.5" fill="rgb(40,107,84)" opacity="0.4"/>
<circle cx="482.09" cy="1112.48" r="1.5" fill="rgb(3,126,99)" opacity="0.4"/>
<circle cx="387.05" cy="1078.42" r="1.5" fill="rgb(34,110,87)" opacity="0.4"/>
<circle cx="362.22" cy="1069.52" r="1.5" fill="rgb(11,122,96)" opacity="0.4"/>
<circle cx="340.04" cy="1054.83" r="1.5" fill="rgb(31,112,88)" opacity="0.4"/>
<circle cx="256.17" cy="999.27" r="1.5" fill="rgb(22,117,91)" opacity="0.4"/>
<circle cx="188.66" cy="925.96" r="1.5" fill="rgb(14,121,95)" opacity="0.4"/>
<circle cx="170.10" cy="905.81" r="1.5" fill="rgb(33,111,87)" opacity="0.4"/>
<circle cx="122.37" cy="818.88" r="1.5" fill="rgb(4,126,99)" opacity="0.4"/>
<circle cx="109.02" cy="794.58" r="1.5" fill="rgb(43,106,83)" opacity="0.4"/>
<circle cx="83.63" cy="699.02" r="1.5" fill="rgb(3,126,99)" opacity="0.4"/>
<circle cx="76.47" cy="672.03" r="1.5" fill="rgb(49,103,81)" opacity="0.4"/>
<circle cx="74.81" cy="573.26" r="1.5" fill="rgb(4,125,98)" opacity="0.4"/>
<circle cx="74.34" cy="545.30" r="1.5" fill="rgb(49,103,81)" opacity="0.4"/>
<circle cx="96.52" cy="448.88" r="1.5" fill="rgb(1,127,100)" opacity="0.4"/>
<circle cx="102.77" cy="421.75" r="1.5" fill="rgb(44,105,83)" opacity="0.4"/>
<circle cx="115.31" cy="396.98" r="1.5" fill="rgb(3,126,99)" opacity="0.4"/>
<circle cx="160.09" cy="308.55" r="1.5" fill="rgb(35,110,86)" opacity="0.4"/>
<circle cx="225.23" cy="232.90" r="1.5" fill="rgb(18,118,93)" opacity="0.4"/>
<circle cx="242.98" cy="212.29" r="1.5" fill="rgb(23,116,91)" opacity="0.4"/>
<text x="606.15" y="602.96" fill="#666" font-size="9" font-family="monospace">#0</text>
</svg>