<svg xmlns="http://www.w3.org/2000/svg" width="1200" height="1441" viewBox="0 0 1200 1441">
<rect width="100%" height="100%" fill="#1a1a2e"/>
<text x="10" y="18" fill="#888" font-size="11" font-family="monospace">nist_ctc_01_asme1_ap242-e1 — contour #34 — +X=0.00</text>
<text x="10" y="32" fill="#888" font-size="11" font-family="monospace">20 pts → 3 entities (tol=0.1732, diag=86.58)</text>
<text x="10" y="46" fill="#ff4444" font-size="11" font-family="monospace">maxErr=14.3674 avgErr=1.9062 highErrPts=12/20</text>
<text x="10" y="60" fill="#888" font-size="11" font-family="monospace">3 lines, 0 arcs, 0 circles</text>
<line x1="1117.81" y1="366.98" x2="168.52" y2="82.19" stroke="#e0e0e0" stroke-width="1.5" stroke-opacity="0.9"/>
<circle cx="1117.81" cy="366.98" r="3" fill="#00ff00" opacity="0.7"/>
<circle cx="168.52" cy="82.19" r="3" fill="#00ccff" opacity="0.7"/>
<line x1="168.52" y1="82.19" x2="168.52" y2="1249.63" stroke="#e0e0e0" stroke-width="1.5" stroke-opacity="0.9"/>
<circle cx="168.52" cy="82.19" r="3" fill="#00ff00" opacity="0.7"/>
<circle cx="168.52" cy="1249.63" r="3" fill="#00ccff" opacity="0.7"/>
<line x1="168.52" y1="1249.63" x2="82.13" y2="1358.80" stroke="#e0e0e0" stroke-width="1.5" stroke-opacity="0.9"/>
<circle cx="168.52" cy="1249.63" r="3" fill="#00ff00" opacity="0.7"/>
<circle cx="82.13" cy="1358.80" r="3" fill="#00ccff" opacity="0.7"/>
<circle cx="1117.81" cy="366.98" r="1.5" fill="rgb(0,128,100)" opacity="0.4"/>
<circle cx="1117.81" cy="224.59" r="4" fill="rgb(255,0,0)" opacity="0.9"/>
<text x="1122.81" y="221.59" fill="#ff4444" font-size="8" font-family="monospace">7.184</text>
<circle cx="1117.81" cy="82.19" r="4" fill="rgb(255,0,0)" opacity="0.9"/>
<text x="1122.81" y="79.19" fill="#ff4444" font-size="8" font-family="monospace">14.367</text>
<circle cx="643.16" cy="82.19" r="4" fill="rgb(255,0,0)" opacity="0.9"/>
<text x="648.16" y="79.19" fill="#ff4444" font-size="8" font-family="monospace">7.184</text>
<circle cx="168.52" cy="82.19" r="1.5" fill="rgb(0,128,100)" opacity="0.4"/>
<circle cx="168.52" cy="1249.66" r="1.5" fill="rgb(0,127,100)" opacity="0.4"/>
<circle cx="168.52" cy="1249.66" r="1.5" fill="rgb(0,127,100)" opacity="0.4"/>
<circle cx="168.52" cy="1249.66" r="1.5" fill="rgb(0,127,100)" opacity="0.4"/>
<circle cx="168.52" cy="1249.66" r="1.5" fill="rgb(0,127,100)" opacity="0.4"/>
<circle cx="165.69" cy="1276.19" r="4" fill="rgb(221,17,13)" opacity="0.9"/>
<text x="170.69" y="1273.19" fill="#ff4444" font-size="8" font-family="monospace">0.751</text>
<circle cx="157.21" cy="1301.54" r="4" fill="rgb(255,0,0)" opacity="0.9"/>
<text x="162.21" y="1298.54" fill="#ff4444" font-size="8" font-family="monospace">1.230</text>
<circle cx="144.24" cy="1322.49" r="4" fill="rgb(255,0,0)" opacity="0.9"/>
<text x="149.24" y="1319.49" fill="#ff4444" font-size="8" font-family="monospace">1.379</text>
<circle cx="143.15" cy="1324.24" r="4" fill="rgb(255,0,0)" opacity="0.9"/>
<text x="148.15" y="1321.24" fill="#ff4444" font-size="8" font-family="monospace">1.391</text>
<circle cx="143.15" cy="1324.24" r="4" fill="rgb(255,0,0)" opacity="0.9"/>
<text x="148.15" y="1321.24" fill="#ff4444" font-size="8" font-family="monospace">1.391</text>
<circle cx="125.96" cy="1341.10" r="4" fill="rgb(255,0,0)" opacity="0.9"/>
<text x="130.95999999999998" y="1338.1" fill="#ff4444" font-size="8" font-family="monospace">1.232</text>
<circle cx="114.76" cy="1348.44" r="4" fill="rgb(255,0,0)" opacity="0.9"/>
<text x="119.76" y="1345.44" fill="#ff4444" font-size="8" font-family="monospace">1.009</text>
<circle cx="102.54" cy="1354.02" r="4" fill="rgb(202,26,21)" opacity="0.9"/>
<text x="107.54" y="1351.02" fill="#ff4444" font-size="8" font-family="monospace">0.687</text>
<circle cx="90.75" cy="1357.43" r="4" fill="rgb(92,82,64)" opacity="0.9"/>
<circle cx="82.19" cy="1358.81" r="1.5" fill="rgb(1,127,100)" opacity="0.4"/>
<circle cx="82.19" cy="1358.81" r="1.5" fill="rgb(1,127,100)" opacity="0.4"/>
<text x="649.165" y="227.585" fill="#666" font-size="9" font-family="monospace">#0</text>
<text x="174.52" y="668.9100000000001" fill="#666" font-size="9" font-family="monospace">#1</text>
<text x="131.325" y="1307.2150000000001" fill="#666" font-size="9" font-family="monospace">#2</text>
</svg>