<svg xmlns="http://www.w3.org/2000/svg" width="1200" height="660" viewBox="0 0 1200 660">
<rect width="100%" height="100%" fill="#1a1a2e"/>
<text x="10" y="18" fill="#888" font-size="11" font-family="monospace">nist_ctc_01_asme1_ap242-e1 — contour #47 — +Z=-25.00</text>
<text x="10" y="32" fill="#888" font-size="11" font-family="monospace">65 pts → 8 entities (tol=0.2236, diag=111.80)</text>
<text x="10" y="46" fill="#ff4444" font-size="11" font-family="monospace">maxErr=1.4929 avgErr=0.7837 highErrPts=56/65</text>
<text x="10" y="60" fill="#888" font-size="11" font-family="monospace">8 lines, 0 arcs, 0 circles</text>
<line x1="1122.39" y1="556.49" x2="1031.73" y2="599.66" stroke="#e0e0e0" stroke-width="1.5" stroke-opacity="0.9"/>
<circle cx="1122.39" cy="556.49" r="3" fill="#00ff00" opacity="0.7"/>
<circle cx="1031.73" cy="599.66" r="3" fill="#00ccff" opacity="0.7"/>
<line x1="1031.73" y1="599.66" x2="121.86" y2="588.87" stroke="#e0e0e0" stroke-width="1.5" stroke-opacity="0.9"/>
<circle cx="1031.73" cy="599.66" r="3" fill="#00ff00" opacity="0.7"/>
<circle cx="121.86" cy="588.87" r="3" fill="#00ccff" opacity="0.7"/>
<line x1="121.86" y1="588.87" x2="60.34" y2="491.73" stroke="#e0e0e0" stroke-width="1.5" stroke-opacity="0.9"/>
<circle cx="121.86" cy="588.87" r="3" fill="#00ff00" opacity="0.7"/>
<circle cx="60.34" cy="491.73" r="3" fill="#00ccff" opacity="0.7"/>
<line x1="60.34" y1="491.73" x2="71.13" y2="121.52" stroke="#e0e0e0" stroke-width="1.5" stroke-opacity="0.9"/>
<circle cx="60.34" cy="491.73" r="3" fill="#00ff00" opacity="0.7"/>
<circle cx="71.13" cy="121.52" r="3" fill="#00ccff" opacity="0.7"/>
<line x1="71.13" y1="121.52" x2="168.27" y2="60.00" stroke="#e0e0e0" stroke-width="1.5" stroke-opacity="0.9"/>
<circle cx="71.13" cy="121.52" r="3" fill="#00ff00" opacity="0.7"/>
<circle cx="168.27" cy="60.00" r="3" fill="#00ccff" opacity="0.7"/>
<line x1="168.27" y1="60.00" x2="1078.14" y2="70.79" stroke="#e0e0e0" stroke-width="1.5" stroke-opacity="0.9"/>
<circle cx="168.27" cy="60.00" r="3" fill="#00ff00" opacity="0.7"/>
<circle cx="1078.14" cy="70.79" r="3" fill="#00ccff" opacity="0.7"/>
<line x1="1078.14" y1="70.79" x2="1139.66" y2="167.93" stroke="#e0e0e0" stroke-width="1.5" stroke-opacity="0.9"/>
<circle cx="1078.14" cy="70.79" r="3" fill="#00ff00" opacity="0.7"/>
<circle cx="1139.66" cy="167.93" r="3" fill="#00ccff" opacity="0.7"/>
<line x1="1139.66" y1="167.93" x2="1122.39" y2="556.49" stroke="#e0e0e0" stroke-width="1.5" stroke-opacity="0.9"/>
<circle cx="1139.66" cy="167.93" r="3" fill="#00ff00" opacity="0.7"/>
<circle cx="1122.39" cy="556.49" r="3" fill="#00ccff" opacity="0.7"/>
<circle cx="156.26" cy="61.35" r="4" fill="rgb(112,72,56)" opacity="0.9"/>
<text x="161.26" y="58.35" fill="#ff4444" font-size="8" font-family="monospace">0.489</text>
<circle cx="168.27" cy="60.00" r="1.5" fill="rgb(0,128,100)" opacity="0.4"/>
<circle cx="600.00" cy="60.00" r="4" fill="rgb(108,73,58)" opacity="0.9"/>
<text x="605" y="57" fill="#ff4444" font-size="8" font-family="monospace">0.474</text>
<circle cx="1031.73" cy="60.00" r="4" fill="rgb(216,19,15)" opacity="0.9"/>
<text x="1036.73" y="57" fill="#ff4444" font-size="8" font-family="monospace">0.949</text>
<circle cx="1043.74" cy="61.35" r="4" fill="rgb(191,32,25)" opacity="0.9"/>
<text x="1048.74" y="58.35" fill="#ff4444" font-size="8" font-family="monospace">0.837</text>
<circle cx="1055.75" cy="62.71" r="4" fill="rgb(165,45,35)" opacity="0.9"/>
<text x="1060.75" y="59.71" fill="#ff4444" font-size="8" font-family="monospace">0.725</text>
<circle cx="1067.15" cy="66.70" r="4" fill="rgb(84,86,67)" opacity="0.9"/>
<circle cx="1078.56" cy="70.69" r="1.5" fill="rgb(9,123,97)" opacity="0.4"/>
<circle cx="1088.79" cy="77.12" r="4" fill="rgb(119,68,53)" opacity="0.9"/>
<text x="1093.79" y="74.12" fill="#ff4444" font-size="8" font-family="monospace">0.520</text>
<circle cx="1099.03" cy="83.55" r="4" fill="rgb(229,13,10)" opacity="0.9"/>
<text x="1104.03" y="80.55" fill="#ff4444" font-size="8" font-family="monospace">1.002</text>
<circle cx="1107.57" cy="92.09" r="4" fill="rgb(255,0,0)" opacity="0.9"/>
<text x="1112.57" y="89.09" fill="#ff4444" font-size="8" font-family="monospace">1.248</text>
<circle cx="1116.12" cy="100.64" r="4" fill="rgb(255,0,0)" opacity="0.9"/>
<text x="1121.12" y="97.64" fill="#ff4444" font-size="8" font-family="monospace">1.493</text>
<circle cx="1122.55" cy="110.87" r="4" fill="rgb(255,0,0)" opacity="0.9"/>
<text x="1127.55" y="107.87" fill="#ff4444" font-size="8" font-family="monospace">1.489</text>
<circle cx="1128.97" cy="121.10" r="4" fill="rgb(255,0,0)" opacity="0.9"/>
<text x="1133.97" y="118.1" fill="#ff4444" font-size="8" font-family="monospace">1.485</text>
<circle cx="1132.97" cy="132.51" r="4" fill="rgb(255,0,0)" opacity="0.9"/>
<text x="1137.97" y="129.51" fill="#ff4444" font-size="8" font-family="monospace">1.232</text>
<circle cx="1136.96" cy="143.92" r="4" fill="rgb(223,16,12)" opacity="0.9"/>
<text x="1141.96" y="140.92" fill="#ff4444" font-size="8" font-family="monospace">0.979</text>
<circle cx="1138.31" cy="155.92" r="4" fill="rgb(112,72,56)" opacity="0.9"/>
<text x="1143.31" y="152.92" fill="#ff4444" font-size="8" font-family="monospace">0.489</text>
<circle cx="1139.66" cy="167.93" r="1.5" fill="rgb(0,128,100)" opacity="0.4"/>
<circle cx="1139.66" cy="329.83" r="4" fill="rgb(152,52,40)" opacity="0.9"/>
<text x="1144.66" y="326.83" fill="#ff4444" font-size="8" font-family="monospace">0.666</text>
<circle cx="1139.66" cy="491.73" r="4" fill="rgb(255,0,0)" opacity="0.9"/>
<text x="1144.66" y="488.73" fill="#ff4444" font-size="8" font-family="monospace">1.332</text>
<circle cx="1138.31" cy="503.74" r="4" fill="rgb(255,0,0)" opacity="0.9"/>
<text x="1143.31" y="500.74" fill="#ff4444" font-size="8" font-family="monospace">1.256</text>
<circle cx="1136.96" cy="515.75" r="4" fill="rgb(255,0,0)" opacity="0.9"/>
<text x="1141.96" y="512.75" fill="#ff4444" font-size="8" font-family="monospace">1.180</text>
<circle cx="1132.97" cy="527.15" r="4" fill="rgb(196,30,23)" opacity="0.9"/>
<text x="1137.97" y="524.15" fill="#ff4444" font-size="8" font-family="monospace">0.858</text>
<circle cx="1128.97" cy="538.56" r="4" fill="rgb(122,66,52)" opacity="0.9"/>
<text x="1133.97" y="535.56" fill="#ff4444" font-size="8" font-family="monospace">0.535</text>
<circle cx="1122.55" cy="548.79" r="1.5" fill="rgb(4,125,98)" opacity="0.4"/>
<circle cx="1116.12" cy="559.03" r="1.5" fill="rgb(9,123,97)" opacity="0.4"/>
<circle cx="1107.57" cy="567.57" r="4" fill="rgb(77,89,70)" opacity="0.9"/>
<circle cx="1099.03" cy="576.12" r="4" fill="rgb(162,46,36)" opacity="0.9"/>
<text x="1104.03" y="573.12" fill="#ff4444" font-size="8" font-family="monospace">0.711</text>
<circle cx="1088.79" cy="582.55" r="4" fill="rgb(192,32,25)" opacity="0.9"/>
<text x="1093.79" y="579.55" fill="#ff4444" font-size="8" font-family="monospace">0.841</text>
<circle cx="1078.56" cy="588.98" r="4" fill="rgb(222,17,13)" opacity="0.9"/>
<text x="1083.56" y="585.98" fill="#ff4444" font-size="8" font-family="monospace">0.971</text>
<circle cx="1067.15" cy="592.97" r="4" fill="rgb(194,30,24)" opacity="0.9"/>
<text x="1072.15" y="589.97" fill="#ff4444" font-size="8" font-family="monospace">0.851</text>
<circle cx="1055.75" cy="596.96" r="4" fill="rgb(167,44,35)" opacity="0.9"/>
<text x="1060.75" y="593.96" fill="#ff4444" font-size="8" font-family="monospace">0.730</text>
<circle cx="1043.74" cy="598.31" r="4" fill="rgb(83,86,67)" opacity="0.9"/>
<circle cx="1031.73" cy="599.66" r="1.5" fill="rgb(0,128,100)" opacity="0.4"/>
<circle cx="600.00" cy="599.66" r="4" fill="rgb(108,73,58)" opacity="0.9"/>
<text x="605" y="596.66" fill="#ff4444" font-size="8" font-family="monospace">0.474</text>
<circle cx="168.27" cy="599.66" r="4" fill="rgb(216,19,15)" opacity="0.9"/>
<text x="173.27" y="596.66" fill="#ff4444" font-size="8" font-family="monospace">0.949</text>
<circle cx="156.26" cy="598.31" r="4" fill="rgb(191,32,25)" opacity="0.9"/>
<text x="161.26" y="595.31" fill="#ff4444" font-size="8" font-family="monospace">0.837</text>
<circle cx="144.25" cy="596.96" r="4" fill="rgb(165,45,35)" opacity="0.9"/>
<text x="149.25" y="593.96" fill="#ff4444" font-size="8" font-family="monospace">0.725</text>
<circle cx="132.85" cy="592.97" r="4" fill="rgb(84,86,67)" opacity="0.9"/>
<circle cx="121.44" cy="588.98" r="1.5" fill="rgb(9,123,97)" opacity="0.4"/>
<circle cx="111.21" cy="582.55" r="4" fill="rgb(119,68,53)" opacity="0.9"/>
<text x="116.21" y="579.55" fill="#ff4444" font-size="8" font-family="monospace">0.520</text>
<circle cx="100.97" cy="576.12" r="4" fill="rgb(229,13,10)" opacity="0.9"/>
<text x="105.97" y="573.12" fill="#ff4444" font-size="8" font-family="monospace">1.002</text>
<circle cx="92.43" cy="567.57" r="4" fill="rgb(255,0,0)" opacity="0.9"/>
<text x="97.43" y="564.57" fill="#ff4444" font-size="8" font-family="monospace">1.248</text>
<circle cx="83.88" cy="559.03" r="4" fill="rgb(255,0,0)" opacity="0.9"/>
<text x="88.88" y="556.03" fill="#ff4444" font-size="8" font-family="monospace">1.493</text>
<circle cx="77.45" cy="548.79" r="4" fill="rgb(255,0,0)" opacity="0.9"/>
<text x="82.45" y="545.79" fill="#ff4444" font-size="8" font-family="monospace">1.489</text>
<circle cx="71.02" cy="538.56" r="4" fill="rgb(255,0,0)" opacity="0.9"/>
<text x="76.02" y="535.56" fill="#ff4444" font-size="8" font-family="monospace">1.485</text>
<circle cx="67.03" cy="527.15" r="4" fill="rgb(255,0,0)" opacity="0.9"/>
<text x="72.03" y="524.15" fill="#ff4444" font-size="8" font-family="monospace">1.232</text>
<circle cx="63.04" cy="515.75" r="4" fill="rgb(223,16,12)" opacity="0.9"/>
<text x="68.03999999999999" y="512.75" fill="#ff4444" font-size="8" font-family="monospace">0.979</text>
<circle cx="61.69" cy="503.74" r="4" fill="rgb(112,72,56)" opacity="0.9"/>
<text x="66.69" y="500.74" fill="#ff4444" font-size="8" font-family="monospace">0.489</text>
<circle cx="60.34" cy="491.73" r="1.5" fill="rgb(0,128,100)" opacity="0.4"/>
<circle cx="60.34" cy="329.83" r="4" fill="rgb(100,78,61)" opacity="0.9"/>
<circle cx="60.34" cy="167.93" r="4" fill="rgb(199,28,22)" opacity="0.9"/>
<text x="65.34" y="164.93" fill="#ff4444" font-size="8" font-family="monospace">0.874</text>
<circle cx="61.69" cy="155.92" r="4" fill="rgb(178,38,30)" opacity="0.9"/>
<text x="66.69" y="152.92" fill="#ff4444" font-size="8" font-family="monospace">0.781</text>
<circle cx="63.04" cy="143.92" r="4" fill="rgb(157,49,38)" opacity="0.9"/>
<text x="68.03999999999999" y="140.92" fill="#ff4444" font-size="8" font-family="monospace">0.689</text>
<circle cx="67.03" cy="132.51" r="4" fill="rgb(80,88,69)" opacity="0.9"/>
<circle cx="71.02" cy="121.10" r="1.5" fill="rgb(9,123,97)" opacity="0.4"/>
<circle cx="77.45" cy="110.87" r="4" fill="rgb(119,68,53)" opacity="0.9"/>
<text x="82.45" y="107.87" fill="#ff4444" font-size="8" font-family="monospace">0.520</text>
<circle cx="83.88" cy="100.64" r="4" fill="rgb(229,13,10)" opacity="0.9"/>
<text x="88.88" y="97.64" fill="#ff4444" font-size="8" font-family="monospace">1.002</text>
<circle cx="92.43" cy="92.09" r="4" fill="rgb(255,0,0)" opacity="0.9"/>
<text x="97.43" y="89.09" fill="#ff4444" font-size="8" font-family="monospace">1.248</text>
<circle cx="100.97" cy="83.55" r="4" fill="rgb(255,0,0)" opacity="0.9"/>
<text x="105.97" y="80.55" fill="#ff4444" font-size="8" font-family="monospace">1.493</text>
<circle cx="111.21" cy="77.12" r="4" fill="rgb(255,0,0)" opacity="0.9"/>
<text x="116.21" y="74.12" fill="#ff4444" font-size="8" font-family="monospace">1.489</text>
<circle cx="121.44" cy="70.69" r="4" fill="rgb(255,0,0)" opacity="0.9"/>
<text x="126.44" y="67.69" fill="#ff4444" font-size="8" font-family="monospace">1.485</text>
<circle cx="132.85" cy="66.70" r="4" fill="rgb(255,0,0)" opacity="0.9"/>
<text x="137.85" y="63.7" fill="#ff4444" font-size="8" font-family="monospace">1.232</text>
<circle cx="144.25" cy="62.71" r="4" fill="rgb(223,16,12)" opacity="0.9"/>
<text x="149.25" y="59.71" fill="#ff4444" font-size="8" font-family="monospace">0.979</text>
<circle cx="156.26" cy="61.35" r="4" fill="rgb(112,72,56)" opacity="0.9"/>
<text x="161.26" y="58.35" fill="#ff4444" font-size="8" font-family="monospace">0.489</text>
<text x="1083.06" y="581.075" fill="#666" font-size="9" font-family="monospace">#0</text>
<text x="582.795" y="597.265" fill="#666" font-size="9" font-family="monospace">#1</text>
<text x="97.1" y="543.3" fill="#666" font-size="9" font-family="monospace">#2</text>
<text x="71.735" y="309.625" fill="#666" font-size="9" font-family="monospace">#3</text>
<text x="125.7" y="93.75999999999999" fill="#666" font-size="9" font-family="monospace">#4</text>
<text x="629.205" y="68.39500000000001" fill="#666" font-size="9" font-family="monospace">#5</text>
<text x="1114.9" y="122.36000000000001" fill="#666" font-size="9" font-family="monospace">#6</text>
<text x="1137.025" y="365.21000000000004" fill="#666" font-size="9" font-family="monospace">#7</text>
</svg>