<svg xmlns="http://www.w3.org/2000/svg" width="1200" height="770" viewBox="0 0 1200 770">
<rect width="100%" height="100%" fill="#1a1a2e"/>
<text x="10" y="18" fill="#888" font-size="11" font-family="monospace">nist_ctc_01_asme1_ap242-e1 — contour #40 — +Z=-25.00</text>
<text x="10" y="32" fill="#888" font-size="11" font-family="monospace">250 pts → 28 entities (tol=1.7493, diag=874.64)</text>
<text x="10" y="46" fill="#ff4444" font-size="11" font-family="monospace">maxErr=27.0402 avgErr=3.8233 highErrPts=105/250</text>
<text x="10" y="60" fill="#888" font-size="11" font-family="monospace">17 lines, 11 arcs, 0 circles</text>
<line x1="621.49" y1="564.05" x2="680.39" y2="564.05" stroke="#e0e0e0" stroke-width="1.5" stroke-opacity="0.9"/>
<circle cx="621.49" cy="564.05" r="3" fill="#00ff00" opacity="0.7"/>
<circle cx="680.39" cy="564.05" r="3" fill="#00ccff" opacity="0.7"/>
<line x1="680.39" y1="564.05" x2="721.61" y2="504.75" stroke="#e0e0e0" stroke-width="1.5" stroke-opacity="0.9"/>
<circle cx="680.39" cy="564.05" r="3" fill="#00ff00" opacity="0.7"/>
<circle cx="721.61" cy="504.75" r="3" fill="#00ccff" opacity="0.7"/>
<path d="M 721.61 504.75 A 96.72 96.72 0 1 0 761.92 564.05" fill="none" stroke="#cc44ff" stroke-width="2" stroke-opacity="0.8"/>
<circle cx="721.61" cy="504.75" r="3" fill="#00ff00" opacity="0.7"/>
<circle cx="761.92" cy="564.05" r="3" fill="#00ccff" opacity="0.7"/>
<line x1="761.92" y1="564.05" x2="886.58" y2="564.05" stroke="#e0e0e0" stroke-width="1.5" stroke-opacity="0.9"/>
<circle cx="761.92" cy="564.05" r="3" fill="#00ff00" opacity="0.7"/>
<circle cx="886.58" cy="564.05" r="3" fill="#00ccff" opacity="0.7"/>
<line x1="886.58" y1="564.05" x2="912.50" y2="572.91" stroke="#e0e0e0" stroke-width="1.5" stroke-opacity="0.9"/>
<circle cx="886.58" cy="564.05" r="3" fill="#00ff00" opacity="0.7"/>
<circle cx="912.50" cy="572.91" r="3" fill="#00ccff" opacity="0.7"/>
<path d="M 912.50 572.91 A 152.46 152.46 0 1 0 924.15 656.44" fill="none" stroke="#cc44ff" stroke-width="2" stroke-opacity="0.8"/>
<circle cx="912.50" cy="572.91" r="3" fill="#00ff00" opacity="0.7"/>
<circle cx="924.15" cy="656.44" r="3" fill="#00ccff" opacity="0.7"/>
<line x1="924.15" y1="656.44" x2="945.76" y2="688.42" stroke="#e0e0e0" stroke-width="1.5" stroke-opacity="0.9"/>
<circle cx="924.15" cy="656.44" r="3" fill="#00ff00" opacity="0.7"/>
<circle cx="945.76" cy="688.42" r="3" fill="#00ccff" opacity="0.7"/>
<line x1="945.76" y1="688.42" x2="981.58" y2="706.19" stroke="#e0e0e0" stroke-width="1.5" stroke-opacity="0.9"/>
<circle cx="945.76" cy="688.42" r="3" fill="#00ff00" opacity="0.7"/>
<circle cx="981.58" cy="706.19" r="3" fill="#00ccff" opacity="0.7"/>
<line x1="981.58" y1="706.19" x2="1077.75" y2="706.24" stroke="#e0e0e0" stroke-width="1.5" stroke-opacity="0.9"/>
<circle cx="981.58" cy="706.19" r="3" fill="#00ff00" opacity="0.7"/>
<circle cx="1077.75" cy="706.24" r="3" fill="#00ccff" opacity="0.7"/>
<path d="M 1077.75 706.24 A 71.79 71.79 0 0 0 1136.24 647.73" fill="none" stroke="#cc44ff" stroke-width="2" stroke-opacity="0.8"/>
<circle cx="1077.75" cy="706.24" r="3" fill="#00ff00" opacity="0.7"/>
<circle cx="1136.24" cy="647.73" r="3" fill="#00ccff" opacity="0.7"/>
<line x1="1136.24" y1="647.73" x2="1137.34" y2="134.18" stroke="#e0e0e0" stroke-width="1.5" stroke-opacity="0.9"/>
<circle cx="1136.24" cy="647.73" r="3" fill="#00ff00" opacity="0.7"/>
<circle cx="1137.34" cy="134.18" r="3" fill="#00ccff" opacity="0.7"/>
<line x1="1137.34" y1="134.18" x2="1065.69" y2="62.53" stroke="#e0e0e0" stroke-width="1.5" stroke-opacity="0.9"/>
<circle cx="1137.34" cy="134.18" r="3" fill="#00ff00" opacity="0.7"/>
<circle cx="1065.69" cy="62.53" r="3" fill="#00ccff" opacity="0.7"/>
<line x1="1065.69" y1="62.53" x2="1009.85" y2="62.51" stroke="#e0e0e0" stroke-width="1.5" stroke-opacity="0.9"/>
<circle cx="1065.69" cy="62.53" r="3" fill="#00ff00" opacity="0.7"/>
<circle cx="1009.85" cy="62.51" r="3" fill="#00ccff" opacity="0.7"/>
<path d="M 1009.85 62.51 A 84.40 84.40 0 0 0 948.31 78.89" fill="none" stroke="#cc44ff" stroke-width="2" stroke-opacity="0.8"/>
<circle cx="1009.85" cy="62.51" r="3" fill="#00ff00" opacity="0.7"/>
<circle cx="948.31" cy="78.89" r="3" fill="#00ccff" opacity="0.7"/>
<line x1="948.31" y1="78.89" x2="926.70" y2="109.68" stroke="#e0e0e0" stroke-width="1.5" stroke-opacity="0.9"/>
<circle cx="948.31" cy="78.89" r="3" fill="#00ff00" opacity="0.7"/>
<circle cx="926.70" cy="109.68" r="3" fill="#00ccff" opacity="0.7"/>
<line x1="926.70" y1="109.68" x2="913.93" y2="194.61" stroke="#e0e0e0" stroke-width="1.5" stroke-opacity="0.9"/>
<circle cx="926.70" cy="109.68" r="3" fill="#00ff00" opacity="0.7"/>
<circle cx="913.93" cy="194.61" r="3" fill="#00ccff" opacity="0.7"/>
<path d="M 913.93 194.61 A 87.41 87.41 0 1 0 838.34 203.90" fill="none" stroke="#cc44ff" stroke-width="2" stroke-opacity="0.8"/>
<circle cx="913.93" cy="194.61" r="3" fill="#00ff00" opacity="0.7"/>
<circle cx="838.34" cy="203.90" r="3" fill="#00ccff" opacity="0.7"/>
<path d="M 838.34 203.90 A 32.24 32.24 0 1 0 833.13 240.21" fill="none" stroke="#cc44ff" stroke-width="2" stroke-opacity="0.8"/>
<circle cx="838.34" cy="203.90" r="3" fill="#00ff00" opacity="0.7"/>
<circle cx="833.13" cy="240.21" r="3" fill="#00ccff" opacity="0.7"/>
<line x1="833.13" y1="240.21" x2="727.54" y2="241.31" stroke="#e0e0e0" stroke-width="1.5" stroke-opacity="0.9"/>
<circle cx="833.13" cy="240.21" r="3" fill="#00ff00" opacity="0.7"/>
<circle cx="727.54" cy="241.31" r="3" fill="#00ccff" opacity="0.7"/>
<path d="M 727.54 241.31 A 27.80 27.80 0 1 0 719.48 205.82" fill="none" stroke="#cc44ff" stroke-width="2" stroke-opacity="0.8"/>
<circle cx="727.54" cy="241.31" r="3" fill="#00ff00" opacity="0.7"/>
<circle cx="719.48" cy="205.82" r="3" fill="#00ccff" opacity="0.7"/>
<line x1="719.48" y1="205.82" x2="408.87" y2="205.82" stroke="#e0e0e0" stroke-width="1.5" stroke-opacity="0.9"/>
<circle cx="719.48" cy="205.82" r="3" fill="#00ff00" opacity="0.7"/>
<circle cx="408.87" cy="205.82" r="3" fill="#00ccff" opacity="0.7"/>
<path d="M 408.87 205.82 A 27.80 27.80 0 1 0 400.83 241.23" fill="none" stroke="#cc44ff" stroke-width="2" stroke-opacity="0.8"/>
<circle cx="408.87" cy="205.82" r="3" fill="#00ff00" opacity="0.7"/>
<circle cx="400.83" cy="241.23" r="3" fill="#00ccff" opacity="0.7"/>
<line x1="400.83" y1="241.23" x2="299.66" y2="241.68" stroke="#e0e0e0" stroke-width="1.5" stroke-opacity="0.9"/>
<circle cx="400.83" cy="241.23" r="3" fill="#00ff00" opacity="0.7"/>
<circle cx="299.66" cy="241.68" r="3" fill="#00ccff" opacity="0.7"/>
<path d="M 299.66 241.68 A 24.93 24.93 0 1 0 292.63 202.48" fill="none" stroke="#cc44ff" stroke-width="2" stroke-opacity="0.8"/>
<circle cx="299.66" cy="241.68" r="3" fill="#00ff00" opacity="0.7"/>
<circle cx="292.63" cy="202.48" r="3" fill="#00ccff" opacity="0.7"/>
<path d="M 292.63 202.48 A 79.53 79.53 0 1 0 207.39 187.96" fill="none" stroke="#cc44ff" stroke-width="2" stroke-opacity="0.8"/>
<circle cx="292.63" cy="202.48" r="3" fill="#00ff00" opacity="0.7"/>
<circle cx="207.39" cy="187.96" r="3" fill="#00ccff" opacity="0.7"/>
<path d="M 207.39 187.96 A 146.59 146.59 0 0 0 184.63 81.30" fill="none" stroke="#cc44ff" stroke-width="2" stroke-opacity="0.8"/>
<circle cx="207.39" cy="187.96" r="3" fill="#00ff00" opacity="0.7"/>
<circle cx="184.63" cy="81.30" r="3" fill="#00ccff" opacity="0.7"/>
<line x1="184.63" y1="81.30" x2="146.77" y2="63.68" stroke="#e0e0e0" stroke-width="1.5" stroke-opacity="0.9"/>
<circle cx="184.63" cy="81.30" r="3" fill="#00ff00" opacity="0.7"/>
<circle cx="146.77" cy="63.68" r="3" fill="#00ccff" opacity="0.7"/>
<line x1="146.77" y1="63.68" x2="62.66" y2="62.53" stroke="#e0e0e0" stroke-width="1.5" stroke-opacity="0.9"/>
<circle cx="146.77" cy="63.68" r="3" fill="#00ff00" opacity="0.7"/>
<circle cx="62.66" cy="62.53" r="3" fill="#00ccff" opacity="0.7"/>
<circle cx="621.47" cy="564.05" r="1.5" fill="rgb(1,127,100)" opacity="0.4"/>
<circle cx="621.88" cy="564.05" r="1.5" fill="rgb(0,128,100)" opacity="0.4"/>
<circle cx="680.43" cy="564.05" r="1.5" fill="rgb(1,127,100)" opacity="0.4"/>
<circle cx="694.91" cy="538.97" r="1.5" fill="rgb(49,103,81)" opacity="0.4"/>
<circle cx="709.39" cy="513.90" r="4" fill="rgb(98,79,62)" opacity="0.9"/>
<circle cx="710.38" cy="512.56" r="4" fill="rgb(97,79,62)" opacity="0.9"/>
<circle cx="711.37" cy="511.23" r="4" fill="rgb(96,80,62)" opacity="0.9"/>
<circle cx="712.65" cy="510.16" r="4" fill="rgb(87,84,66)" opacity="0.9"/>
<circle cx="713.92" cy="509.09" r="4" fill="rgb(78,89,69)" opacity="0.9"/>
<circle cx="715.41" cy="508.34" r="4" fill="rgb(62,97,76)" opacity="0.9"/>
<circle cx="716.90" cy="507.59" r="1.5" fill="rgb(46,105,82)" opacity="0.4"/>
<circle cx="718.51" cy="507.21" r="1.5" fill="rgb(23,116,91)" opacity="0.4"/>
<circle cx="720.13" cy="506.83" r="1.5" fill="rgb(0,127,100)" opacity="0.4"/>
<circle cx="721.80" cy="506.83" r="1.5" fill="rgb(27,114,89)" opacity="0.4"/>
<circle cx="723.46" cy="506.83" r="4" fill="rgb(55,100,78)" opacity="0.9"/>
<circle cx="725.08" cy="507.21" r="4" fill="rgb(87,84,66)" opacity="0.9"/>
<circle cx="726.70" cy="507.59" r="4" fill="rgb(119,68,53)" opacity="0.9"/>
<text x="731.7" y="504.59" fill="#ff4444" font-size="8" font-family="monospace">4.070</text>
<circle cx="728.18" cy="508.34" r="4" fill="rgb(152,51,40)" opacity="0.9"/>
<text x="733.18" y="505.34" fill="#ff4444" font-size="8" font-family="monospace">5.230</text>
<circle cx="729.67" cy="509.09" r="4" fill="rgb(186,34,27)" opacity="0.9"/>
<text x="734.67" y="506.09" fill="#ff4444" font-size="8" font-family="monospace">6.391</text>
<circle cx="730.94" cy="510.16" r="4" fill="rgb(220,18,14)" opacity="0.9"/>
<text x="735.94" y="507.16" fill="#ff4444" font-size="8" font-family="monospace">7.531</text>
<circle cx="732.22" cy="511.23" r="4" fill="rgb(253,1,1)" opacity="0.9"/>
<text x="737.22" y="508.23" fill="#ff4444" font-size="8" font-family="monospace">8.677</text>
<circle cx="733.21" cy="512.56" r="4" fill="rgb(255,0,0)" opacity="0.9"/>
<text x="738.21" y="509.55999999999995" fill="#ff4444" font-size="8" font-family="monospace">9.764</text>
<circle cx="734.21" cy="513.90" r="4" fill="rgb(255,0,0)" opacity="0.9"/>
<text x="739.21" y="510.9" fill="#ff4444" font-size="8" font-family="monospace">10.863</text>
<circle cx="748.68" cy="538.97" r="4" fill="rgb(255,0,0)" opacity="0.9"/>
<text x="753.68" y="535.97" fill="#ff4444" font-size="8" font-family="monospace">19.793</text>
<circle cx="763.16" cy="564.05" r="1.5" fill="rgb(0,127,100)" opacity="0.4"/>
<circle cx="824.87" cy="564.05" r="1.5" fill="rgb(0,127,100)" opacity="0.4"/>
<circle cx="886.58" cy="564.05" r="1.5" fill="rgb(0,128,100)" opacity="0.4"/>
<circle cx="890.39" cy="564.46" r="1.5" fill="rgb(17,119,93)" opacity="0.4"/>
<circle cx="894.38" cy="564.91" r="1.5" fill="rgb(35,110,86)" opacity="0.4"/>
<circle cx="898.02" cy="566.12" r="1.5" fill="rgb(35,110,86)" opacity="0.4"/>
<circle cx="901.80" cy="567.44" r="1.5" fill="rgb(35,110,86)" opacity="0.4"/>
<circle cx="905.10" cy="569.40" r="1.5" fill="rgb(19,118,93)" opacity="0.4"/>
<circle cx="908.49" cy="571.54" r="1.5" fill="rgb(0,127,100)" opacity="0.4"/>
<circle cx="910.42" cy="573.21" r="1.5" fill="rgb(20,118,92)" opacity="0.4"/>
<circle cx="913.28" cy="576.07" r="4" fill="rgb(66,94,74)" opacity="0.9"/>
<circle cx="914.90" cy="577.94" r="4" fill="rgb(113,71,56)" opacity="0.9"/>
<text x="919.9" y="574.94" fill="#ff4444" font-size="8" font-family="monospace">3.891</text>
<circle cx="916.14" cy="579.84" r="4" fill="rgb(159,48,38)" opacity="0.9"/>
<text x="921.14" y="576.84" fill="#ff4444" font-size="8" font-family="monospace">5.460</text>
<circle cx="918.38" cy="583.41" r="4" fill="rgb(245,5,4)" opacity="0.9"/>
<text x="923.38" y="580.41" fill="#ff4444" font-size="8" font-family="monospace">8.396</text>
<circle cx="919.55" cy="586.00" r="4" fill="rgb(255,0,0)" opacity="0.9"/>
<text x="924.55" y="583" fill="#ff4444" font-size="8" font-family="monospace">10.374</text>
<circle cx="920.99" cy="590.12" r="4" fill="rgb(255,0,0)" opacity="0.9"/>
<text x="925.99" y="587.12" fill="#ff4444" font-size="8" font-family="monospace">13.393</text>
<circle cx="921.68" cy="592.77" r="4" fill="rgb(255,0,0)" opacity="0.9"/>
<text x="926.68" y="589.77" fill="#ff4444" font-size="8" font-family="monospace">15.270</text>
<circle cx="922.18" cy="597.27" r="4" fill="rgb(255,0,0)" opacity="0.9"/>
<text x="927.18" y="594.27" fill="#ff4444" font-size="8" font-family="monospace">18.295</text>
<circle cx="922.40" cy="599.87" r="4" fill="rgb(255,0,0)" opacity="0.9"/>
<text x="927.4" y="596.87" fill="#ff4444" font-size="8" font-family="monospace">20.043</text>
<circle cx="922.40" cy="620.77" r="4" fill="rgb(255,0,0)" opacity="0.9"/>
<text x="927.4" y="617.77" fill="#ff4444" font-size="8" font-family="monospace">24.929</text>
<circle cx="922.40" cy="635.69" r="4" fill="rgb(255,0,0)" opacity="0.9"/>
<text x="927.4" y="632.69" fill="#ff4444" font-size="8" font-family="monospace">14.534</text>
<circle cx="923.22" cy="645.02" r="4" fill="rgb(233,11,9)" opacity="0.9"/>
<text x="928.22" y="642.02" fill="#ff4444" font-size="8" font-family="monospace">7.997</text>
<circle cx="923.49" cy="648.13" r="4" fill="rgb(170,43,33)" opacity="0.9"/>
<text x="928.49" y="645.13" fill="#ff4444" font-size="8" font-family="monospace">5.818</text>
<circle cx="925.91" cy="657.18" r="1.5" fill="rgb(21,117,92)" opacity="0.4"/>
<circle cx="926.72" cy="660.20" r="1.5" fill="rgb(1,127,100)" opacity="0.4"/>
<circle cx="930.68" cy="668.68" r="1.5" fill="rgb(29,113,88)" opacity="0.4"/>
<circle cx="932.00" cy="671.51" r="1.5" fill="rgb(39,108,85)" opacity="0.4"/>
<circle cx="937.37" cy="679.19" r="1.5" fill="rgb(36,109,86)" opacity="0.4"/>
<circle cx="939.16" cy="681.74" r="1.5" fill="rgb(35,110,86)" opacity="0.4"/>
<circle cx="945.79" cy="688.37" r="1.5" fill="rgb(1,127,100)" opacity="0.4"/>
<circle cx="947.99" cy="690.57" r="1.5" fill="rgb(19,118,93)" opacity="0.4"/>
<circle cx="955.67" cy="695.95" r="1.5" fill="rgb(48,104,81)" opacity="0.4"/>
<circle cx="958.22" cy="697.74" r="4" fill="rgb(57,99,78)" opacity="0.9"/>
<circle cx="966.71" cy="701.70" r="4" fill="rgb(53,101,79)" opacity="0.9"/>
<circle cx="969.54" cy="703.02" r="1.5" fill="rgb(51,102,80)" opacity="0.4"/>
<circle cx="978.59" cy="705.44" r="1.5" fill="rgb(13,121,95)" opacity="0.4"/>
<circle cx="981.61" cy="706.25" r="1.5" fill="rgb(1,127,100)" opacity="0.4"/>
<circle cx="990.94" cy="707.06" r="1.5" fill="rgb(18,119,93)" opacity="0.4"/>
<circle cx="994.05" cy="707.34" r="1.5" fill="rgb(23,116,91)" opacity="0.4"/>
<circle cx="1047.78" cy="707.34" r="1.5" fill="rgb(23,116,91)" opacity="0.4"/>
<circle cx="1065.69" cy="707.34" r="1.5" fill="rgb(22,116,91)" opacity="0.4"/>
<circle cx="1075.02" cy="706.52" r="1.5" fill="rgb(6,125,98)" opacity="0.4"/>
<circle cx="1078.13" cy="706.25" r="1.5" fill="rgb(0,127,100)" opacity="0.4"/>
<circle cx="1087.18" cy="703.82" r="1.5" fill="rgb(3,126,99)" opacity="0.4"/>
<circle cx="1090.20" cy="703.02" r="1.5" fill="rgb(1,127,100)" opacity="0.4"/>
<circle cx="1093.03" cy="701.70" r="1.5" fill="rgb(3,126,99)" opacity="0.4"/>
<circle cx="1101.51" cy="697.74" r="1.5" fill="rgb(1,127,100)" opacity="0.4"/>
<circle cx="1109.19" cy="692.37" r="1.5" fill="rgb(3,126,99)" opacity="0.4"/>
<circle cx="1111.74" cy="690.57" r="1.5" fill="rgb(1,127,100)" opacity="0.4"/>
<circle cx="1118.37" cy="683.95" r="1.5" fill="rgb(3,126,99)" opacity="0.4"/>
<circle cx="1120.57" cy="681.74" r="1.5" fill="rgb(1,127,100)" opacity="0.4"/>
<circle cx="1122.37" cy="679.19" r="1.5" fill="rgb(3,126,99)" opacity="0.4"/>
<circle cx="1127.74" cy="671.51" r="1.5" fill="rgb(1,127,100)" opacity="0.4"/>
<circle cx="1129.06" cy="668.68" r="1.5" fill="rgb(3,126,99)" opacity="0.4"/>
<circle cx="1133.02" cy="660.20" r="1.5" fill="rgb(1,127,100)" opacity="0.4"/>
<circle cx="1135.44" cy="651.15" r="1.5" fill="rgb(4,126,99)" opacity="0.4"/>
<circle cx="1136.25" cy="648.13" r="1.5" fill="rgb(0,127,100)" opacity="0.4"/>
<circle cx="1137.06" cy="638.80" r="1.5" fill="rgb(16,119,94)" opacity="0.4"/>
<circle cx="1137.34" cy="635.69" r="1.5" fill="rgb(22,117,91)" opacity="0.4"/>
<circle cx="1137.34" cy="604.53" r="1.5" fill="rgb(20,117,92)" opacity="0.4"/>
<circle cx="1137.34" cy="602.88" r="1.5" fill="rgb(20,117,92)" opacity="0.4"/>
<circle cx="1137.34" cy="600.92" r="1.5" fill="rgb(20,117,92)" opacity="0.4"/>
<circle cx="1137.34" cy="598.78" r="1.5" fill="rgb(20,117,92)" opacity="0.4"/>
<circle cx="1137.34" cy="596.59" r="1.5" fill="rgb(20,117,92)" opacity="0.4"/>
<circle cx="1137.34" cy="594.51" r="1.5" fill="rgb(20,118,92)" opacity="0.4"/>
<circle cx="1137.34" cy="592.70" r="1.5" fill="rgb(20,118,92)" opacity="0.4"/>
<circle cx="1137.34" cy="341.95" r="1.5" fill="rgb(9,123,96)" opacity="0.4"/>
<circle cx="1137.34" cy="177.16" r="1.5" fill="rgb(2,127,99)" opacity="0.4"/>
<circle cx="1137.34" cy="175.36" r="1.5" fill="rgb(2,127,99)" opacity="0.4"/>
<circle cx="1137.34" cy="173.28" r="1.5" fill="rgb(2,127,99)" opacity="0.4"/>
<circle cx="1137.34" cy="171.09" r="1.5" fill="rgb(2,127,99)" opacity="0.4"/>
<circle cx="1137.34" cy="168.95" r="1.5" fill="rgb(2,127,99)" opacity="0.4"/>
<circle cx="1137.34" cy="166.99" r="1.5" fill="rgb(1,127,99)" opacity="0.4"/>
<circle cx="1137.34" cy="165.33" r="1.5" fill="rgb(1,127,99)" opacity="0.4"/>
<circle cx="1137.34" cy="134.18" r="1.5" fill="rgb(0,128,100)" opacity="0.4"/>
<circle cx="1119.43" cy="116.27" r="1.5" fill="rgb(0,128,100)" opacity="0.4"/>
<circle cx="1065.69" cy="62.53" r="1.5" fill="rgb(0,128,100)" opacity="0.4"/>
<circle cx="1011.96" cy="62.53" r="1.5" fill="rgb(0,127,100)" opacity="0.4"/>
<circle cx="994.05" cy="62.53" r="1.5" fill="rgb(11,122,96)" opacity="0.4"/>
<circle cx="984.72" cy="63.35" r="1.5" fill="rgb(6,125,98)" opacity="0.4"/>
<circle cx="981.61" cy="63.62" r="1.5" fill="rgb(1,127,100)" opacity="0.4"/>
<circle cx="972.56" cy="66.05" r="1.5" fill="rgb(2,127,99)" opacity="0.4"/>
<circle cx="969.54" cy="66.85" r="1.5" fill="rgb(7,124,97)" opacity="0.4"/>
<circle cx="961.05" cy="70.81" r="1.5" fill="rgb(2,126,99)" opacity="0.4"/>
<circle cx="958.22" cy="72.13" r="1.5" fill="rgb(5,125,98)" opacity="0.4"/>
<circle cx="950.55" cy="77.50" r="1.5" fill="rgb(4,125,98)" opacity="0.4"/>
<circle cx="947.99" cy="79.29" r="1.5" fill="rgb(0,127,100)" opacity="0.4"/>
<circle cx="941.37" cy="85.92" r="1.5" fill="rgb(33,111,87)" opacity="0.4"/>
<circle cx="939.16" cy="88.13" r="1.5" fill="rgb(44,105,83)" opacity="0.4"/>
<circle cx="933.79" cy="95.80" r="1.5" fill="rgb(44,105,83)" opacity="0.4"/>
<circle cx="932.00" cy="98.36" r="1.5" fill="rgb(44,105,83)" opacity="0.4"/>
<circle cx="928.04" cy="106.84" r="1.5" fill="rgb(11,122,96)" opacity="0.4"/>
<circle cx="926.72" cy="109.67" r="1.5" fill="rgb(0,127,100)" opacity="0.4"/>
<circle cx="925.91" cy="112.69" r="1.5" fill="rgb(7,124,97)" opacity="0.4"/>
<circle cx="923.49" cy="121.74" r="1.5" fill="rgb(28,113,89)" opacity="0.4"/>
<circle cx="922.67" cy="131.07" r="1.5" fill="rgb(16,119,94)" opacity="0.4"/>
<circle cx="922.40" cy="134.18" r="1.5" fill="rgb(12,121,95)" opacity="0.4"/>
<circle cx="922.40" cy="149.10" r="1.5" fill="rgb(33,111,87)" opacity="0.4"/>
<circle cx="922.40" cy="170.00" r="4" fill="rgb(96,80,62)" opacity="0.9"/>
<circle cx="921.91" cy="173.93" r="4" fill="rgb(98,79,62)" opacity="0.9"/>
<circle cx="921.41" cy="178.35" r="4" fill="rgb(101,77,60)" opacity="0.9"/>
<circle cx="919.94" cy="182.55" r="4" fill="rgb(84,85,67)" opacity="0.9"/>
<circle cx="918.40" cy="186.42" r="4" fill="rgb(65,95,74)" opacity="0.9"/>
<circle cx="916.16" cy="189.99" r="1.5" fill="rgb(31,112,88)" opacity="0.4"/>
<circle cx="914.22" cy="192.78" r="1.5" fill="rgb(0,127,100)" opacity="0.4"/>
<circle cx="912.86" cy="194.20" r="1.5" fill="rgb(23,116,91)" opacity="0.4"/>
<circle cx="910.01" cy="197.05" r="4" fill="rgb(94,81,63)" opacity="0.9"/>
<circle cx="908.49" cy="198.33" r="4" fill="rgb(134,60,47)" opacity="0.9"/>
<text x="913.49" y="195.33" fill="#ff4444" font-size="8" font-family="monospace">4.597</text>
<circle cx="905.10" cy="200.47" r="4" fill="rgb(216,20,15)" opacity="0.9"/>
<text x="910.1" y="197.47" fill="#ff4444" font-size="8" font-family="monospace">7.395</text>
<circle cx="901.80" cy="202.43" r="4" fill="rgb(255,0,0)" opacity="0.9"/>
<text x="906.8" y="199.43" fill="#ff4444" font-size="8" font-family="monospace">10.069</text>
<circle cx="898.02" cy="203.75" r="4" fill="rgb(255,0,0)" opacity="0.9"/>
<text x="903.02" y="200.75" fill="#ff4444" font-size="8" font-family="monospace">12.807</text>
<circle cx="894.38" cy="204.96" r="4" fill="rgb(255,0,0)" opacity="0.9"/>
<text x="899.38" y="201.96" fill="#ff4444" font-size="8" font-family="monospace">15.439</text>
<circle cx="890.39" cy="205.41" r="4" fill="rgb(255,0,0)" opacity="0.9"/>
<text x="895.39" y="202.41" fill="#ff4444" font-size="8" font-family="monospace">18.073</text>
<circle cx="886.58" cy="205.82" r="4" fill="rgb(255,0,0)" opacity="0.9"/>
<text x="891.58" y="202.82" fill="#ff4444" font-size="8" font-family="monospace">20.629</text>
<circle cx="863.29" cy="205.82" r="4" fill="rgb(255,0,0)" opacity="0.9"/>
<text x="868.29" y="202.82" fill="#ff4444" font-size="8" font-family="monospace">17.470</text>
<circle cx="840.01" cy="205.82" r="4" fill="rgb(52,102,80)" opacity="0.9"/>
<circle cx="840.01" cy="216.57" r="4" fill="rgb(255,0,0)" opacity="0.9"/>
<text x="845.01" y="213.57" fill="#ff4444" font-size="8" font-family="monospace">8.920</text>
<circle cx="840.01" cy="227.32" r="4" fill="rgb(255,0,0)" opacity="0.9"/>
<text x="845.01" y="224.32" fill="#ff4444" font-size="8" font-family="monospace">10.198</text>
<circle cx="839.83" cy="228.91" r="4" fill="rgb(255,0,0)" opacity="0.9"/>
<text x="844.83" y="225.91" fill="#ff4444" font-size="8" font-family="monospace">9.167</text>
<circle cx="839.65" cy="230.50" r="4" fill="rgb(238,9,7)" opacity="0.9"/>
<text x="844.65" y="227.5" fill="#ff4444" font-size="8" font-family="monospace">8.159</text>
<circle cx="839.12" cy="232.02" r="4" fill="rgb(206,24,19)" opacity="0.9"/>
<text x="844.12" y="229.02" fill="#ff4444" font-size="8" font-family="monospace">7.081</text>
<circle cx="838.59" cy="233.53" r="4" fill="rgb(175,40,31)" opacity="0.9"/>
<text x="843.59" y="230.53" fill="#ff4444" font-size="8" font-family="monospace">6.018</text>
<circle cx="837.74" cy="234.89" r="4" fill="rgb(143,56,44)" opacity="0.9"/>
<text x="842.74" y="231.89" fill="#ff4444" font-size="8" font-family="monospace">4.909</text>
<circle cx="836.88" cy="236.25" r="4" fill="rgb(111,72,56)" opacity="0.9"/>
<text x="841.88" y="233.25" fill="#ff4444" font-size="8" font-family="monospace">3.806</text>
<circle cx="835.75" cy="237.38" r="4" fill="rgb(78,88,69)" opacity="0.9"/>
<circle cx="834.62" cy="238.52" r="1.5" fill="rgb(46,105,82)" opacity="0.4"/>
<circle cx="833.26" cy="239.37" r="1.5" fill="rgb(17,119,93)" opacity="0.4"/>
<circle cx="831.90" cy="240.23" r="1.5" fill="rgb(0,127,100)" opacity="0.4"/>
<circle cx="830.38" cy="240.76" r="1.5" fill="rgb(11,122,96)" opacity="0.4"/>
<circle cx="828.87" cy="241.29" r="1.5" fill="rgb(21,117,92)" opacity="0.4"/>
<circle cx="827.28" cy="241.47" r="1.5" fill="rgb(24,115,90)" opacity="0.4"/>
<circle cx="825.68" cy="241.64" r="1.5" fill="rgb(28,114,89)" opacity="0.4"/>
<circle cx="779.11" cy="241.64" r="1.5" fill="rgb(18,119,93)" opacity="0.4"/>
<circle cx="732.54" cy="241.64" r="1.5" fill="rgb(8,124,97)" opacity="0.4"/>
<circle cx="730.95" cy="241.47" r="1.5" fill="rgb(4,126,99)" opacity="0.4"/>
<circle cx="729.35" cy="241.29" r="1.5" fill="rgb(0,127,100)" opacity="0.4"/>
<circle cx="727.84" cy="240.76" r="1.5" fill="rgb(11,122,96)" opacity="0.4"/>
<circle cx="726.33" cy="240.23" r="1.5" fill="rgb(33,111,87)" opacity="0.4"/>
<circle cx="724.97" cy="239.37" r="4" fill="rgb(66,95,74)" opacity="0.9"/>
<circle cx="723.61" cy="238.52" r="4" fill="rgb(98,78,61)" opacity="0.9"/>
<circle cx="722.47" cy="237.38" r="4" fill="rgb(131,62,49)" opacity="0.9"/>
<text x="727.47" y="234.38" fill="#ff4444" font-size="8" font-family="monospace">4.476</text>
<circle cx="721.34" cy="236.25" r="4" fill="rgb(163,46,36)" opacity="0.9"/>
<text x="726.34" y="233.25" fill="#ff4444" font-size="8" font-family="monospace">5.589</text>
<circle cx="720.49" cy="234.89" r="4" fill="rgb(194,30,24)" opacity="0.9"/>
<text x="725.49" y="231.89" fill="#ff4444" font-size="8" font-family="monospace">6.659</text>
<circle cx="719.63" cy="233.53" r="4" fill="rgb(226,15,11)" opacity="0.9"/>
<text x="724.63" y="230.53" fill="#ff4444" font-size="8" font-family="monospace">7.744</text>
<circle cx="719.10" cy="232.02" r="4" fill="rgb(255,0,0)" opacity="0.9"/>
<text x="724.1" y="229.02" fill="#ff4444" font-size="8" font-family="monospace">8.763</text>
<circle cx="718.57" cy="230.50" r="4" fill="rgb(255,0,0)" opacity="0.9"/>
<text x="723.57" y="227.5" fill="#ff4444" font-size="8" font-family="monospace">9.803</text>
<circle cx="718.39" cy="228.91" r="4" fill="rgb(255,0,0)" opacity="0.9"/>
<text x="723.39" y="225.91" fill="#ff4444" font-size="8" font-family="monospace">10.757</text>
<circle cx="718.21" cy="227.32" r="4" fill="rgb(255,0,0)" opacity="0.9"/>
<text x="723.21" y="224.32" fill="#ff4444" font-size="8" font-family="monospace">11.740</text>
<circle cx="718.21" cy="216.57" r="4" fill="rgb(219,18,14)" opacity="0.9"/>
<text x="723.21" y="213.57" fill="#ff4444" font-size="8" font-family="monospace">7.501</text>
<circle cx="718.21" cy="205.82" r="1.5" fill="rgb(0,127,100)" opacity="0.4"/>
<circle cx="564.18" cy="205.82" r="1.5" fill="rgb(0,127,100)" opacity="0.4"/>
<circle cx="410.14" cy="205.82" r="1.5" fill="rgb(0,127,100)" opacity="0.4"/>
<circle cx="410.14" cy="216.57" r="4" fill="rgb(219,18,14)" opacity="0.9"/>
<text x="415.14" y="213.57" fill="#ff4444" font-size="8" font-family="monospace">7.501</text>
<circle cx="410.14" cy="227.32" r="4" fill="rgb(255,0,0)" opacity="0.9"/>
<text x="415.14" y="224.32" fill="#ff4444" font-size="8" font-family="monospace">11.685</text>
<circle cx="409.96" cy="228.91" r="4" fill="rgb(255,0,0)" opacity="0.9"/>
<text x="414.96" y="225.91" fill="#ff4444" font-size="8" font-family="monospace">10.703</text>
<circle cx="409.78" cy="230.50" r="4" fill="rgb(255,0,0)" opacity="0.9"/>
<text x="414.78" y="227.5" fill="#ff4444" font-size="8" font-family="monospace">9.750</text>
<circle cx="409.25" cy="232.02" r="4" fill="rgb(254,1,0)" opacity="0.9"/>
<text x="414.25" y="229.02" fill="#ff4444" font-size="8" font-family="monospace">8.711</text>
<circle cx="408.72" cy="233.53" r="4" fill="rgb(224,15,12)" opacity="0.9"/>
<text x="413.72" y="230.53" fill="#ff4444" font-size="8" font-family="monospace">7.694</text>
<circle cx="407.87" cy="234.89" r="4" fill="rgb(193,31,24)" opacity="0.9"/>
<text x="412.87" y="231.89" fill="#ff4444" font-size="8" font-family="monospace">6.611</text>
<circle cx="407.02" cy="236.25" r="4" fill="rgb(162,47,37)" opacity="0.9"/>
<text x="412.02" y="233.25" fill="#ff4444" font-size="8" font-family="monospace">5.542</text>
<circle cx="405.88" cy="237.38" r="4" fill="rgb(129,63,49)" opacity="0.9"/>
<text x="410.88" y="234.38" fill="#ff4444" font-size="8" font-family="monospace">4.431</text>
<circle cx="404.75" cy="238.52" r="4" fill="rgb(97,79,62)" opacity="0.9"/>
<circle cx="403.39" cy="239.37" r="4" fill="rgb(64,95,75)" opacity="0.9"/>
<circle cx="402.03" cy="240.23" r="1.5" fill="rgb(32,112,88)" opacity="0.4"/>
<circle cx="400.51" cy="240.76" r="1.5" fill="rgb(10,123,96)" opacity="0.4"/>
<circle cx="399.00" cy="241.29" r="1.5" fill="rgb(1,127,100)" opacity="0.4"/>
<circle cx="397.41" cy="241.47" r="1.5" fill="rgb(4,125,98)" opacity="0.4"/>
<circle cx="395.81" cy="241.64" r="1.5" fill="rgb(8,124,97)" opacity="0.4"/>
<circle cx="349.24" cy="241.64" r="1.5" fill="rgb(4,126,99)" opacity="0.4"/>
<circle cx="302.67" cy="241.64" r="1.5" fill="rgb(0,127,100)" opacity="0.4"/>
<circle cx="301.08" cy="241.47" r="1.5" fill="rgb(4,125,98)" opacity="0.4"/>
<circle cx="299.49" cy="241.29" r="1.5" fill="rgb(9,123,97)" opacity="0.4"/>
<circle cx="297.97" cy="240.76" r="1.5" fill="rgb(39,108,85)" opacity="0.4"/>
<circle cx="296.46" cy="240.23" r="4" fill="rgb(71,92,72)" opacity="0.9"/>
<circle cx="295.10" cy="239.37" r="4" fill="rgb(104,76,59)" opacity="0.9"/>
<text x="300.1" y="236.37" fill="#ff4444" font-size="8" font-family="monospace">3.565</text>
<circle cx="293.74" cy="238.52" r="4" fill="rgb(136,59,46)" opacity="0.9"/>
<text x="298.74" y="235.52" fill="#ff4444" font-size="8" font-family="monospace">4.681</text>
<circle cx="292.61" cy="237.38" r="4" fill="rgb(168,44,34)" opacity="0.9"/>
<text x="297.61" y="234.38" fill="#ff4444" font-size="8" font-family="monospace">5.761</text>
<circle cx="291.47" cy="236.25" r="4" fill="rgb(200,28,22)" opacity="0.9"/>
<text x="296.47" y="233.25" fill="#ff4444" font-size="8" font-family="monospace">6.855</text>
<circle cx="290.62" cy="234.89" r="4" fill="rgb(230,13,10)" opacity="0.9"/>
<text x="295.62" y="231.89" fill="#ff4444" font-size="8" font-family="monospace">7.888</text>
<circle cx="289.76" cy="233.53" r="4" fill="rgb(255,0,0)" opacity="0.9"/>
<text x="294.76" y="230.53" fill="#ff4444" font-size="8" font-family="monospace">8.943</text>
<circle cx="289.23" cy="232.02" r="4" fill="rgb(255,0,0)" opacity="0.9"/>
<text x="294.23" y="229.02" fill="#ff4444" font-size="8" font-family="monospace">9.917</text>
<circle cx="288.70" cy="230.50" r="4" fill="rgb(255,0,0)" opacity="0.9"/>
<text x="293.7" y="227.5" fill="#ff4444" font-size="8" font-family="monospace">10.919</text>
<circle cx="288.52" cy="228.91" r="4" fill="rgb(255,0,0)" opacity="0.9"/>
<text x="293.52" y="225.91" fill="#ff4444" font-size="8" font-family="monospace">11.822</text>
<circle cx="288.34" cy="227.32" r="4" fill="rgb(255,0,0)" opacity="0.9"/>
<text x="293.34" y="224.32" fill="#ff4444" font-size="8" font-family="monospace">12.759</text>
<circle cx="288.34" cy="216.57" r="4" fill="rgb(255,0,0)" opacity="0.9"/>
<text x="293.34" y="213.57" fill="#ff4444" font-size="8" font-family="monospace">10.276</text>
<circle cx="288.34" cy="205.82" r="4" fill="rgb(110,72,57)" opacity="0.9"/>
<text x="293.34" y="202.82" fill="#ff4444" font-size="8" font-family="monospace">3.790</text>
<circle cx="265.06" cy="205.82" r="4" fill="rgb(255,0,0)" opacity="0.9"/>
<text x="270.06" y="202.82" fill="#ff4444" font-size="8" font-family="monospace">19.379</text>
<circle cx="241.78" cy="205.82" r="4" fill="rgb(255,0,0)" opacity="0.9"/>
<text x="246.78" y="202.82" fill="#ff4444" font-size="8" font-family="monospace">27.040</text>
<circle cx="237.96" cy="205.41" r="4" fill="rgb(255,0,0)" opacity="0.9"/>
<text x="242.96" y="202.41" fill="#ff4444" font-size="8" font-family="monospace">24.566</text>
<circle cx="233.98" cy="204.96" r="4" fill="rgb(255,0,0)" opacity="0.9"/>
<text x="238.98" y="201.96" fill="#ff4444" font-size="8" font-family="monospace">22.023</text>
<circle cx="230.34" cy="203.75" r="4" fill="rgb(255,0,0)" opacity="0.9"/>
<text x="235.34" y="200.75" fill="#ff4444" font-size="8" font-family="monospace">19.439</text>
<circle cx="226.55" cy="202.43" r="4" fill="rgb(255,0,0)" opacity="0.9"/>
<text x="231.55" y="199.43" fill="#ff4444" font-size="8" font-family="monospace">16.755</text>
<circle cx="223.26" cy="200.47" r="4" fill="rgb(255,0,0)" opacity="0.9"/>
<text x="228.26" y="197.47" fill="#ff4444" font-size="8" font-family="monospace">14.098</text>
<circle cx="219.86" cy="198.33" r="4" fill="rgb(255,0,0)" opacity="0.9"/>
<text x="224.86" y="195.33" fill="#ff4444" font-size="8" font-family="monospace">11.319</text>
<circle cx="217.93" cy="196.65" r="4" fill="rgb(255,0,0)" opacity="0.9"/>
<text x="222.93" y="193.65" fill="#ff4444" font-size="8" font-family="monospace">9.536</text>
<circle cx="215.08" cy="193.80" r="4" fill="rgb(196,29,23)" opacity="0.9"/>
<text x="220.08" y="190.8" fill="#ff4444" font-size="8" font-family="monospace">6.734</text>
<circle cx="213.45" cy="191.93" r="4" fill="rgb(147,54,42)" opacity="0.9"/>
<text x="218.45" y="188.93" fill="#ff4444" font-size="8" font-family="monospace">5.054</text>
<circle cx="212.22" cy="190.03" r="4" fill="rgb(107,74,58)" opacity="0.9"/>
<text x="217.22" y="187.03" fill="#ff4444" font-size="8" font-family="monospace">3.665</text>
<circle cx="209.98" cy="186.46" r="1.5" fill="rgb(47,104,82)" opacity="0.4"/>
<circle cx="208.81" cy="183.87" r="1.5" fill="rgb(15,120,94)" opacity="0.4"/>
<circle cx="207.37" cy="179.75" r="1.5" fill="rgb(24,115,90)" opacity="0.4"/>
<circle cx="206.68" cy="177.10" r="1.5" fill="rgb(44,105,83)" opacity="0.4"/>
<circle cx="206.17" cy="172.60" r="4" fill="rgb(62,97,76)" opacity="0.9"/>
<circle cx="205.95" cy="170.00" r="4" fill="rgb(69,93,73)" opacity="0.9"/>
<circle cx="205.95" cy="149.10" r="4" fill="rgb(59,98,77)" opacity="0.9"/>
<circle cx="205.95" cy="134.18" r="1.5" fill="rgb(14,120,94)" opacity="0.4"/>
<circle cx="205.14" cy="124.85" r="1.5" fill="rgb(13,121,95)" opacity="0.4"/>
<circle cx="204.86" cy="121.74" r="1.5" fill="rgb(24,115,90)" opacity="0.4"/>
<circle cx="202.44" cy="112.69" r="1.5" fill="rgb(34,110,86)" opacity="0.4"/>
<circle cx="201.63" cy="109.67" r="1.5" fill="rgb(40,107,84)" opacity="0.4"/>
<circle cx="197.67" cy="101.18" r="1.5" fill="rgb(33,111,87)" opacity="0.4"/>
<circle cx="196.35" cy="98.36" r="1.5" fill="rgb(34,111,87)" opacity="0.4"/>
<circle cx="190.98" cy="90.68" r="1.5" fill="rgb(9,123,96)" opacity="0.4"/>
<circle cx="189.19" cy="88.13" r="1.5" fill="rgb(4,126,99)" opacity="0.4"/>
<circle cx="182.57" cy="81.50" r="1.5" fill="rgb(21,117,92)" opacity="0.4"/>
<circle cx="180.36" cy="79.29" r="1.5" fill="rgb(0,127,100)" opacity="0.4"/>
<circle cx="172.69" cy="73.92" r="1.5" fill="rgb(34,111,87)" opacity="0.4"/>
<circle cx="170.13" cy="72.13" r="1.5" fill="rgb(45,105,83)" opacity="0.4"/>
<circle cx="161.64" cy="68.17" r="1.5" fill="rgb(45,105,82)" opacity="0.4"/>
<circle cx="158.81" cy="66.85" r="1.5" fill="rgb(45,105,82)" opacity="0.4"/>
<circle cx="155.80" cy="66.05" r="1.5" fill="rgb(34,111,87)" opacity="0.4"/>
<circle cx="146.75" cy="63.62" r="1.5" fill="rgb(1,127,100)" opacity="0.4"/>
<circle cx="137.42" cy="62.80" r="1.5" fill="rgb(15,120,94)" opacity="0.4"/>
<circle cx="134.31" cy="62.53" r="1.5" fill="rgb(20,118,92)" opacity="0.4"/>
<circle cx="80.57" cy="62.53" r="1.5" fill="rgb(5,125,98)" opacity="0.4"/>
<circle cx="62.66" cy="62.53" r="1.5" fill="rgb(0,128,100)" opacity="0.4"/>
<text x="656.94" y="567.05" fill="#666" font-size="9" font-family="monospace">#0</text>
<text x="707" y="537.4" fill="#666" font-size="9" font-family="monospace">#1</text>
<text x="753.45" y="533.54" fill="#666" font-size="9" font-family="monospace">#2</text>
<text x="830.25" y="567.05" fill="#666" font-size="9" font-family="monospace">#3</text>
<text x="905.54" y="571.48" fill="#666" font-size="9" font-family="monospace">#4</text>
<text x="930.23" y="616.86" fill="#666" font-size="9" font-family="monospace">#5</text>
<text x="940.9549999999999" y="675.4300000000001" fill="#666" font-size="9" font-family="monospace">#6</text>
<text x="969.6700000000001" y="700.3050000000001" fill="#666" font-size="9" font-family="monospace">#7</text>
<text x="1035.665" y="709.215" fill="#666" font-size="9" font-family="monospace">#8</text>
<text x="1122.32" y="689.3" fill="#666" font-size="9" font-family="monospace">#9</text>
<text x="1142.79" y="393.95500000000004" fill="#666" font-size="9" font-family="monospace">#10</text>
<text x="1107.5149999999999" y="101.355" fill="#666" font-size="9" font-family="monospace">#11</text>
<text x="1043.77" y="65.52" fill="#666" font-size="9" font-family="monospace">#12</text>
<text x="983.47" y="67.66" fill="#666" font-size="9" font-family="monospace">#13</text>
<text x="943.505" y="97.285" fill="#666" font-size="9" font-family="monospace">#14</text>
<text x="926.315" y="155.145" fill="#666" font-size="9" font-family="monospace">#15</text>
<text x="883.19" y="210.89" fill="#666" font-size="9" font-family="monospace">#16</text>
<text x="847.4" y="225.86" fill="#666" font-size="9" font-family="monospace">#17</text>
<text x="786.335" y="243.76" fill="#666" font-size="9" font-family="monospace">#18</text>
<text x="722.91" y="228.06" fill="#666" font-size="9" font-family="monospace">#19</text>
<text x="570.175" y="208.82" fill="#666" font-size="9" font-family="monospace">#20</text>
<text x="417.46" y="228.02" fill="#666" font-size="9" font-family="monospace">#21</text>
<text x="356.245" y="244.45499999999998" fill="#666" font-size="9" font-family="monospace">#22</text>
<text x="292.3" y="226.84" fill="#666" font-size="9" font-family="monospace">#23</text>
<text x="253.87" y="210.84" fill="#666" font-size="9" font-family="monospace">#24</text>
<text x="212.32" y="135.43" fill="#666" font-size="9" font-family="monospace">#25</text>
<text x="171.7" y="75.49" fill="#666" font-size="9" font-family="monospace">#26</text>
<text x="110.715" y="66.105" fill="#666" font-size="9" font-family="monospace">#27</text>
</svg>