<svg xmlns="http://www.w3.org/2000/svg" width="1200" height="4224" viewBox="0 0 1200 4224">
<rect width="100%" height="100%" fill="#1a1a2e"/>
<text x="10" y="18" fill="#888" font-size="11" font-family="monospace">nist_ctc_01_asme1_ap242-e1 — contour #27 — +Y d3/3=-117.63</text>
<text x="10" y="32" fill="#888" font-size="11" font-family="monospace">60 pts → 6 entities (tol=0.5417, diag=270.86)</text>
<text x="10" y="46" fill="#ff4444" font-size="11" font-family="monospace">maxErr=1.3323 avgErr=0.1674 highErrPts=8/60</text>
<text x="10" y="60" fill="#888" font-size="11" font-family="monospace">6 lines, 0 arcs, 0 circles</text>
<line x1="203.94" y1="1840.44" x2="277.68" y2="1714.64" stroke="#e0e0e0" stroke-width="1.5" stroke-opacity="0.9"/>
<circle cx="203.94" cy="1840.44" r="3" fill="#00ff00" opacity="0.7"/>
<circle cx="277.68" cy="1714.64" r="3" fill="#00ccff" opacity="0.7"/>
<line x1="277.68" y1="1714.64" x2="277.68" y2="238.32" stroke="#e0e0e0" stroke-width="1.5" stroke-opacity="0.9"/>
<circle cx="277.68" cy="1714.64" r="3" fill="#00ff00" opacity="0.7"/>
<circle cx="277.68" cy="238.32" r="3" fill="#00ccff" opacity="0.7"/>
<line x1="277.68" y1="238.32" x2="1003.55" y2="196.39" stroke="#e0e0e0" stroke-width="1.5" stroke-opacity="0.9"/>
<circle cx="277.68" cy="238.32" r="3" fill="#00ff00" opacity="0.7"/>
<circle cx="1003.55" cy="196.39" r="3" fill="#00ccff" opacity="0.7"/>
<line x1="1003.55" y1="196.39" x2="1003.55" y2="4028.17" stroke="#e0e0e0" stroke-width="1.5" stroke-opacity="0.9"/>
<circle cx="1003.55" cy="196.39" r="3" fill="#00ff00" opacity="0.7"/>
<circle cx="1003.55" cy="4028.17" r="3" fill="#00ccff" opacity="0.7"/>
<line x1="1003.55" y1="4028.17" x2="196.71" y2="4028.17" stroke="#e0e0e0" stroke-width="1.5" stroke-opacity="0.9"/>
<circle cx="1003.55" cy="4028.17" r="3" fill="#00ff00" opacity="0.7"/>
<circle cx="196.71" cy="4028.17" r="3" fill="#00ccff" opacity="0.7"/>
<line x1="196.71" y1="4028.17" x2="203.94" y2="1840.44" stroke="#e0e0e0" stroke-width="1.5" stroke-opacity="0.9"/>
<circle cx="196.71" cy="4028.17" r="3" fill="#00ff00" opacity="0.7"/>
<circle cx="203.94" cy="1840.44" r="3" fill="#00ccff" opacity="0.7"/>
<circle cx="277.41" cy="1714.64" r="1.5" fill="rgb(2,127,99)" opacity="0.4"/>
<circle cx="277.41" cy="1669.21" r="1.5" fill="rgb(2,127,99)" opacity="0.4"/>
<circle cx="277.41" cy="1603.78" r="1.5" fill="rgb(2,127,99)" opacity="0.4"/>
<circle cx="277.41" cy="1532.98" r="1.5" fill="rgb(2,127,99)" opacity="0.4"/>
<circle cx="277.41" cy="1479.61" r="1.5" fill="rgb(2,127,99)" opacity="0.4"/>
<circle cx="277.41" cy="1478.33" r="1.5" fill="rgb(2,127,99)" opacity="0.4"/>
<circle cx="277.41" cy="1477.01" r="1.5" fill="rgb(2,127,99)" opacity="0.4"/>
<circle cx="277.41" cy="261.16" r="1.5" fill="rgb(2,127,99)" opacity="0.4"/>
<circle cx="277.41" cy="260.25" r="1.5" fill="rgb(2,127,99)" opacity="0.4"/>
<circle cx="277.41" cy="259.20" r="1.5" fill="rgb(2,127,99)" opacity="0.4"/>
<circle cx="277.41" cy="238.75" r="1.5" fill="rgb(2,127,99)" opacity="0.4"/>
<circle cx="881.93" cy="203.16" r="1.5" fill="rgb(2,127,99)" opacity="0.4"/>
<circle cx="1004.17" cy="195.97" r="1.5" fill="rgb(5,125,98)" opacity="0.4"/>
<circle cx="1004.17" cy="280.95" r="1.5" fill="rgb(4,125,98)" opacity="0.4"/>
<circle cx="1004.17" cy="285.28" r="1.5" fill="rgb(4,125,98)" opacity="0.4"/>
<circle cx="1004.17" cy="289.07" r="1.5" fill="rgb(4,125,98)" opacity="0.4"/>
<circle cx="1004.17" cy="1411.59" r="1.5" fill="rgb(4,125,98)" opacity="0.4"/>
<circle cx="1004.17" cy="1417.07" r="1.5" fill="rgb(4,125,98)" opacity="0.4"/>
<circle cx="1004.17" cy="1422.38" r="1.5" fill="rgb(4,125,98)" opacity="0.4"/>
<circle cx="1004.17" cy="1427.11" r="1.5" fill="rgb(4,125,98)" opacity="0.4"/>
<circle cx="1004.17" cy="1511.81" r="1.5" fill="rgb(4,125,98)" opacity="0.4"/>
<circle cx="1004.17" cy="1587.88" r="1.5" fill="rgb(4,125,98)" opacity="0.4"/>
<circle cx="1004.17" cy="1592.76" r="1.5" fill="rgb(4,125,98)" opacity="0.4"/>
<circle cx="1004.17" cy="1665.95" r="1.5" fill="rgb(4,125,98)" opacity="0.4"/>
<circle cx="1004.17" cy="1730.18" r="1.5" fill="rgb(4,125,98)" opacity="0.4"/>
<circle cx="1004.17" cy="1857.99" r="1.5" fill="rgb(4,125,98)" opacity="0.4"/>
<circle cx="1004.17" cy="1944.70" r="1.5" fill="rgb(4,125,98)" opacity="0.4"/>
<circle cx="1004.17" cy="2877.38" r="1.5" fill="rgb(4,125,98)" opacity="0.4"/>
<circle cx="1004.17" cy="2918.95" r="1.5" fill="rgb(4,125,98)" opacity="0.4"/>
<circle cx="1004.17" cy="2962.49" r="1.5" fill="rgb(4,125,98)" opacity="0.4"/>
<circle cx="1004.17" cy="2982.23" r="1.5" fill="rgb(4,125,98)" opacity="0.4"/>
<circle cx="1004.17" cy="3024.68" r="1.5" fill="rgb(4,125,98)" opacity="0.4"/>
<circle cx="1004.17" cy="3043.39" r="1.5" fill="rgb(4,125,98)" opacity="0.4"/>
<circle cx="1004.17" cy="3082.23" r="1.5" fill="rgb(4,125,98)" opacity="0.4"/>
<circle cx="1004.17" cy="3685.39" r="1.5" fill="rgb(4,125,98)" opacity="0.4"/>
<circle cx="1004.17" cy="3711.61" r="1.5" fill="rgb(4,125,98)" opacity="0.4"/>
<circle cx="1004.17" cy="3734.62" r="1.5" fill="rgb(4,125,98)" opacity="0.4"/>
<circle cx="1004.17" cy="3753.04" r="1.5" fill="rgb(4,125,98)" opacity="0.4"/>
<circle cx="1004.17" cy="3765.98" r="1.5" fill="rgb(4,125,98)" opacity="0.4"/>
<circle cx="1004.17" cy="4028.17" r="1.5" fill="rgb(4,125,98)" opacity="0.4"/>
<circle cx="864.42" cy="4028.17" r="1.5" fill="rgb(0,127,100)" opacity="0.4"/>
<circle cx="370.87" cy="4028.17" r="1.5" fill="rgb(0,127,100)" opacity="0.4"/>
<circle cx="345.45" cy="4028.17" r="1.5" fill="rgb(0,127,100)" opacity="0.4"/>
<circle cx="313.39" cy="4028.17" r="1.5" fill="rgb(0,127,100)" opacity="0.4"/>
<circle cx="276.03" cy="4028.17" r="1.5" fill="rgb(0,127,100)" opacity="0.4"/>
<circle cx="235.46" cy="4028.17" r="1.5" fill="rgb(0,127,100)" opacity="0.4"/>
<circle cx="196.61" cy="4028.17" r="1.5" fill="rgb(1,127,100)" opacity="0.4"/>
<circle cx="196.98" cy="3563.38" r="1.5" fill="rgb(8,123,97)" opacity="0.4"/>
<circle cx="195.83" cy="1844.07" r="4" fill="rgb(53,101,79)" opacity="0.9"/>
<circle cx="203.71" cy="1840.43" r="1.5" fill="rgb(1,127,99)" opacity="0.4"/>
<circle cx="204.34" cy="1839.99" r="1.5" fill="rgb(1,127,100)" opacity="0.4"/>
<circle cx="223.64" cy="1826.81" r="4" fill="rgb(66,95,74)" opacity="0.9"/>
<circle cx="238.49" cy="1813.11" r="4" fill="rgb(104,75,59)" opacity="0.9"/>
<text x="243.49" y="1810.11" fill="#ff4444" font-size="8" font-family="monospace">1.106</text>
<circle cx="252.00" cy="1795.64" r="4" fill="rgb(122,66,52)" opacity="0.9"/>
<text x="257" y="1792.64" fill="#ff4444" font-size="8" font-family="monospace">1.301</text>
<circle cx="257.55" cy="1787.08" r="4" fill="rgb(125,65,51)" opacity="0.9"/>
<text x="262.55" y="1784.08" fill="#ff4444" font-size="8" font-family="monospace">1.332</text>
<circle cx="267.12" cy="1767.94" r="4" fill="rgb(116,69,54)" opacity="0.9"/>
<text x="272.12" y="1764.94" fill="#ff4444" font-size="8" font-family="monospace">1.234</text>
<circle cx="270.28" cy="1758.17" r="4" fill="rgb(102,77,60)" opacity="0.9"/>
<circle cx="274.64" cy="1742.57" r="4" fill="rgb(75,90,71)" opacity="0.9"/>
<circle cx="276.25" cy="1727.50" r="1.5" fill="rgb(34,110,87)" opacity="0.4"/>
<circle cx="277.41" cy="1714.64" r="1.5" fill="rgb(2,127,99)" opacity="0.4"/>
<text x="246.81" y="1780.54" fill="#666" font-size="9" font-family="monospace">#0</text>
<text x="283.68" y="979.48" fill="#666" font-size="9" font-family="monospace">#1</text>
<text x="646.615" y="220.355" fill="#666" font-size="9" font-family="monospace">#2</text>
<text x="1009.55" y="2115.28" fill="#666" font-size="9" font-family="monospace">#3</text>
<text x="606.13" y="4031.17" fill="#666" font-size="9" font-family="monospace">#4</text>
<text x="206.325" y="2937.3050000000003" fill="#666" font-size="9" font-family="monospace">#5</text>
</svg>