<svg xmlns="http://www.w3.org/2000/svg" width="1200" height="3376" viewBox="0 0 1200 3376">
<rect width="100%" height="100%" fill="#1a1a2e"/>
<text x="10" y="18" fill="#888" font-size="11" font-family="monospace">nist_ctc_01_asme1_ap242-e1 — contour #1 — +Y d1/3=-119.08</text>
<text x="10" y="32" fill="#888" font-size="11" font-family="monospace">12 pts → 3 entities (tol=0.3628, diag=181.40)</text>
<text x="10" y="46" fill="#ff4444" font-size="11" font-family="monospace">maxErr=50.2539 avgErr=13.9317 highErrPts=5/12</text>
<text x="10" y="60" fill="#888" font-size="11" font-family="monospace">2 lines, 1 arcs, 0 circles</text>
<line x1="1040.71" y1="-140.31" x2="1040.79" y2="3165.15" stroke="#e0e0e0" stroke-width="1.5" stroke-opacity="0.9"/>
<circle cx="1040.71" cy="-140.31" r="3" fill="#00ff00" opacity="0.7"/>
<circle cx="1040.79" cy="3165.15" r="3" fill="#00ccff" opacity="0.7"/>
<line x1="1040.79" y1="3165.15" x2="290.02" y2="3209.11" stroke="#e0e0e0" stroke-width="1.5" stroke-opacity="0.9"/>
<circle cx="1040.79" cy="3165.15" r="3" fill="#00ff00" opacity="0.7"/>
<circle cx="290.02" cy="3209.11" r="3" fill="#00ccff" opacity="0.7"/>
<path d="M 290.02 3209.11 A 2336.78 2336.78 0 1 0 1040.71 -140.31" fill="none" stroke="#cc44ff" stroke-width="2" stroke-opacity="0.8"/>
<circle cx="290.02" cy="3209.11" r="3" fill="#00ff00" opacity="0.7"/>
<circle cx="1040.71" cy="-140.31" r="3" fill="#00ccff" opacity="0.7"/>
<circle cx="159.12" cy="1217.73" r="4" fill="rgb(255,0,0)" opacity="0.9"/>
<text x="164.12" y="1214.73" fill="#ff4444" font-size="8" font-family="monospace">50.254</text>
<circle cx="159.12" cy="159.12" r="4" fill="rgb(255,0,0)" opacity="0.9"/>
<text x="164.12" y="156.12" fill="#ff4444" font-size="8" font-family="monospace">50.252</text>
<circle cx="884.58" cy="201.82" r="4" fill="rgb(255,0,0)" opacity="0.9"/>
<text x="889.58" y="198.82" fill="#ff4444" font-size="8" font-family="monospace">8.900</text>
<circle cx="1040.88" cy="211.02" r="1.5" fill="rgb(1,127,99)" opacity="0.4"/>
<circle cx="1040.88" cy="290.70" r="1.5" fill="rgb(1,127,99)" opacity="0.4"/>
<circle cx="1040.88" cy="387.24" r="1.5" fill="rgb(1,127,99)" opacity="0.4"/>
<circle cx="1040.88" cy="2988.76" r="1.5" fill="rgb(1,127,100)" opacity="0.4"/>
<circle cx="1040.88" cy="3085.30" r="1.5" fill="rgb(1,127,100)" opacity="0.4"/>
<circle cx="1040.88" cy="3164.98" r="1.5" fill="rgb(1,127,100)" opacity="0.4"/>
<circle cx="388.11" cy="3203.40" r="1.5" fill="rgb(0,127,100)" opacity="0.4"/>
<circle cx="159.12" cy="3216.88" r="4" fill="rgb(255,0,0)" opacity="0.9"/>
<text x="164.12" y="3213.88" fill="#ff4444" font-size="8" font-family="monospace">7.475</text>
<circle cx="159.12" cy="1217.73" r="4" fill="rgb(255,0,0)" opacity="0.9"/>
<text x="164.12" y="1214.73" fill="#ff4444" font-size="8" font-family="monospace">50.254</text>
<text x="1046.75" y="1515.42" fill="#666" font-size="9" font-family="monospace">#0</text>
<text x="671.405" y="3190.13" fill="#666" font-size="9" font-family="monospace">#1</text>
<text x="-61.55" y="1373.07" fill="#666" font-size="9" font-family="monospace">#2</text>
</svg>