<svg xmlns="http://www.w3.org/2000/svg" width="1200" height="4567" viewBox="0 0 1200 4567">
<rect width="100%" height="100%" fill="#1a1a2e"/>
<text x="10" y="18" fill="#888" font-size="11" font-family="monospace">nist_ctc_01_asme1_ap242-e1 — contour #12 — +Y d3/3=-118.04</text>
<text x="10" y="32" fill="#888" font-size="11" font-family="monospace">57 pts → 4 entities (tol=0.5449, diag=272.43)</text>
<text x="10" y="46" fill="#ff4444" font-size="11" font-family="monospace">maxErr=21.3897 avgErr=0.4477 highErrPts=2/57</text>
<text x="10" y="60" fill="#888" font-size="11" font-family="monospace">3 lines, 1 arcs, 0 circles</text>
<path d="M 210.46 214.85 A 422.68 422.68 0 0 0 989.65 541.67" fill="none" stroke="#cc44ff" stroke-width="2" stroke-opacity="0.8"/>
<circle cx="210.46" cy="214.85" r="3" fill="#00ff00" opacity="0.7"/>
<circle cx="989.65" cy="541.67" r="3" fill="#00ccff" opacity="0.7"/>
<line x1="989.65" y1="541.67" x2="989.13" y2="4310.36" stroke="#e0e0e0" stroke-width="1.5" stroke-opacity="0.9"/>
<circle cx="989.65" cy="541.67" r="3" fill="#00ff00" opacity="0.7"/>
<circle cx="989.13" cy="4310.36" r="3" fill="#00ccff" opacity="0.7"/>
<line x1="989.13" y1="4310.36" x2="210.34" y2="4356.81" stroke="#e0e0e0" stroke-width="1.5" stroke-opacity="0.9"/>
<circle cx="989.13" cy="4310.36" r="3" fill="#00ff00" opacity="0.7"/>
<circle cx="210.34" cy="4356.81" r="3" fill="#00ccff" opacity="0.7"/>
<line x1="210.34" y1="4356.81" x2="210.46" y2="214.85" stroke="#e0e0e0" stroke-width="1.5" stroke-opacity="0.9"/>
<circle cx="210.34" cy="4356.81" r="3" fill="#00ff00" opacity="0.7"/>
<circle cx="210.46" cy="214.85" r="3" fill="#00ccff" opacity="0.7"/>
<circle cx="210.90" cy="4194.62" r="1.5" fill="rgb(3,126,99)" opacity="0.4"/>
<circle cx="210.90" cy="4187.56" r="1.5" fill="rgb(3,126,99)" opacity="0.4"/>
<circle cx="210.90" cy="3078.12" r="1.5" fill="rgb(3,126,99)" opacity="0.4"/>
<circle cx="210.90" cy="3068.17" r="1.5" fill="rgb(3,126,99)" opacity="0.4"/>
<circle cx="210.90" cy="3058.43" r="1.5" fill="rgb(3,126,99)" opacity="0.4"/>
<circle cx="210.90" cy="2713.91" r="1.5" fill="rgb(3,126,99)" opacity="0.4"/>
<circle cx="210.90" cy="2712.29" r="1.5" fill="rgb(3,126,99)" opacity="0.4"/>
<circle cx="210.90" cy="2687.59" r="1.5" fill="rgb(3,126,99)" opacity="0.4"/>
<circle cx="210.90" cy="2687.05" r="1.5" fill="rgb(3,126,99)" opacity="0.4"/>
<circle cx="210.90" cy="2686.49" r="1.5" fill="rgb(3,126,99)" opacity="0.4"/>
<circle cx="210.90" cy="2666.27" r="1.5" fill="rgb(3,126,99)" opacity="0.4"/>
<circle cx="210.90" cy="229.45" r="1.5" fill="rgb(3,126,99)" opacity="0.4"/>
<circle cx="210.90" cy="228.84" r="1.5" fill="rgb(3,126,99)" opacity="0.4"/>
<circle cx="210.90" cy="228.16" r="1.5" fill="rgb(3,126,99)" opacity="0.4"/>
<circle cx="210.90" cy="227.47" r="1.5" fill="rgb(3,126,99)" opacity="0.4"/>
<circle cx="210.90" cy="226.80" r="1.5" fill="rgb(3,126,99)" opacity="0.4"/>
<circle cx="210.90" cy="226.19" r="1.5" fill="rgb(3,126,99)" opacity="0.4"/>
<circle cx="210.90" cy="225.68" r="1.5" fill="rgb(3,126,99)" opacity="0.4"/>
<circle cx="210.90" cy="225.28" r="1.5" fill="rgb(3,126,99)" opacity="0.4"/>
<circle cx="210.90" cy="221.87" r="1.5" fill="rgb(3,126,99)" opacity="0.4"/>
<circle cx="210.90" cy="210.50" r="1.5" fill="rgb(26,114,90)" opacity="0.4"/>
<circle cx="214.77" cy="210.50" r="1.5" fill="rgb(37,109,85)" opacity="0.4"/>
<circle cx="989.10" cy="210.50" r="4" fill="rgb(255,0,0)" opacity="0.9"/>
<text x="994.1" y="207.5" fill="#ff4444" font-size="8" font-family="monospace">21.390</text>
<circle cx="989.10" cy="508.94" r="4" fill="rgb(198,29,22)" opacity="0.9"/>
<text x="994.1" y="505.94" fill="#ff4444" font-size="8" font-family="monospace">2.114</text>
<circle cx="989.10" cy="564.90" r="1.5" fill="rgb(3,126,99)" opacity="0.4"/>
<circle cx="989.10" cy="571.28" r="1.5" fill="rgb(3,126,99)" opacity="0.4"/>
<circle cx="989.10" cy="580.33" r="1.5" fill="rgb(3,126,99)" opacity="0.4"/>
<circle cx="989.10" cy="591.65" r="1.5" fill="rgb(3,126,99)" opacity="0.4"/>
<circle cx="989.10" cy="604.69" r="1.5" fill="rgb(3,126,99)" opacity="0.4"/>
<circle cx="989.10" cy="1232.74" r="1.5" fill="rgb(3,126,99)" opacity="0.4"/>
<circle cx="989.10" cy="1241.94" r="1.5" fill="rgb(3,126,99)" opacity="0.4"/>
<circle cx="989.10" cy="1281.27" r="1.5" fill="rgb(3,126,99)" opacity="0.4"/>
<circle cx="989.10" cy="1291.12" r="1.5" fill="rgb(3,126,99)" opacity="0.4"/>
<circle cx="989.10" cy="1335.36" r="1.5" fill="rgb(3,126,99)" opacity="0.4"/>
<circle cx="989.10" cy="1345.49" r="1.5" fill="rgb(3,126,99)" opacity="0.4"/>
<circle cx="989.10" cy="1391.61" r="1.5" fill="rgb(3,126,99)" opacity="0.4"/>
<circle cx="989.10" cy="1436.12" r="1.5" fill="rgb(3,126,99)" opacity="0.4"/>
<circle cx="989.10" cy="2437.98" r="1.5" fill="rgb(2,127,99)" opacity="0.4"/>
<circle cx="989.10" cy="2532.43" r="1.5" fill="rgb(2,127,99)" opacity="0.4"/>
<circle cx="989.10" cy="2671.02" r="1.5" fill="rgb(2,127,99)" opacity="0.4"/>
<circle cx="989.10" cy="2739.86" r="1.5" fill="rgb(1,127,99)" opacity="0.4"/>
<circle cx="989.10" cy="2818.38" r="1.5" fill="rgb(1,127,99)" opacity="0.4"/>
<circle cx="989.10" cy="2820.80" r="1.5" fill="rgb(1,127,99)" opacity="0.4"/>
<circle cx="989.10" cy="2902.58" r="1.5" fill="rgb(1,127,99)" opacity="0.4"/>
<circle cx="989.10" cy="2904.76" r="1.5" fill="rgb(1,127,99)" opacity="0.4"/>
<circle cx="989.10" cy="2991.71" r="1.5" fill="rgb(1,127,100)" opacity="0.4"/>
<circle cx="989.10" cy="2996.58" r="1.5" fill="rgb(1,127,100)" opacity="0.4"/>
<circle cx="989.10" cy="3001.96" r="1.5" fill="rgb(1,127,100)" opacity="0.4"/>
<circle cx="989.10" cy="3007.47" r="1.5" fill="rgb(1,127,100)" opacity="0.4"/>
<circle cx="989.10" cy="4217.06" r="1.5" fill="rgb(0,127,100)" opacity="0.4"/>
<circle cx="989.10" cy="4220.96" r="1.5" fill="rgb(0,127,100)" opacity="0.4"/>
<circle cx="989.10" cy="4225.36" r="1.5" fill="rgb(0,127,100)" opacity="0.4"/>
<circle cx="989.10" cy="4310.29" r="1.5" fill="rgb(0,127,100)" opacity="0.4"/>
<circle cx="823.83" cy="4320.02" r="1.5" fill="rgb(1,127,100)" opacity="0.4"/>
<circle cx="210.90" cy="4356.10" r="1.5" fill="rgb(3,126,99)" opacity="0.4"/>
<circle cx="210.90" cy="4202.58" r="1.5" fill="rgb(3,126,99)" opacity="0.4"/>
<circle cx="210.90" cy="4194.62" r="1.5" fill="rgb(3,126,99)" opacity="0.4"/>
<text x="770" y="-9.07" fill="#666" font-size="9" font-family="monospace">#0</text>
<text x="995.39" y="2429.015" fill="#666" font-size="9" font-family="monospace">#1</text>
<text x="605.735" y="4336.585" fill="#666" font-size="9" font-family="monospace">#2</text>
<text x="216.4" y="2288.8300000000004" fill="#666" font-size="9" font-family="monospace">#3</text>
</svg>