<svg xmlns="http://www.w3.org/2000/svg" width="1200" height="1200" viewBox="0 0 1200 1200">
<rect width="100%" height="100%" fill="#1a1a2e"/>
<text x="10" y="18" fill="#888" font-size="11" font-family="monospace">nist_ctc_01_asme1_ap242-e1 — contour #9 — +Y d2/3=-118.56</text>
<text x="10" y="32" fill="#888" font-size="11" font-family="monospace">53 pts → 1 entities (tol=0.0566, diag=28.28)</text>
<text x="10" y="46" fill="#44ff44" font-size="11" font-family="monospace">maxErr=0.0525 avgErr=0.0235 highErrPts=0/53</text>
<text x="10" y="60" fill="#888" font-size="11" font-family="monospace">0 lines, 0 arcs, 1 circles</text>
<circle cx="599.97" cy="599.96" r="525.77" fill="none" stroke="#ffd700" stroke-width="2" stroke-opacity="0.8"/>
<circle cx="242.98" cy="212.29" r="1.5" fill="rgb(21,117,92)" opacity="0.4"/>
<circle cx="326.08" cy="153.16" r="1.5" fill="rgb(29,113,89)" opacity="0.4"/>
<circle cx="346.61" cy="138.56" r="1.5" fill="rgb(11,122,96)" opacity="0.4"/>
<circle cx="442.12" cy="100.70" r="1.5" fill="rgb(37,109,86)" opacity="0.4"/>
<circle cx="464.98" cy="91.64" r="1.5" fill="rgb(3,126,99)" opacity="0.4"/>
<circle cx="567.50" cy="77.53" r="1.5" fill="rgb(40,108,84)" opacity="0.4"/>
<circle cx="591.19" cy="74.27" r="1.5" fill="rgb(0,127,100)" opacity="0.4"/>
<circle cx="614.71" cy="76.72" r="1.5" fill="rgb(40,108,84)" opacity="0.4"/>
<circle cx="717.91" cy="87.45" r="1.5" fill="rgb(2,126,99)" opacity="0.4"/>
<circle cx="816.57" cy="122.81" r="1.5" fill="rgb(30,112,88)" opacity="0.4"/>
<circle cx="837.78" cy="130.41" r="1.5" fill="rgb(10,123,96)" opacity="0.4"/>
<circle cx="925.56" cy="188.56" r="1.5" fill="rgb(19,118,93)" opacity="0.4"/>
<circle cx="943.83" cy="200.66" r="1.5" fill="rgb(20,117,92)" opacity="0.4"/>
<circle cx="958.53" cy="216.63" r="1.5" fill="rgb(15,120,94)" opacity="0.4"/>
<circle cx="1029.90" cy="294.12" r="1.5" fill="rgb(32,112,88)" opacity="0.4"/>
<circle cx="1080.87" cy="386.94" r="1.5" fill="rgb(4,126,99)" opacity="0.4"/>
<circle cx="1090.98" cy="405.35" r="1.5" fill="rgb(41,107,84)" opacity="0.4"/>
<circle cx="1096.35" cy="425.56" r="1.5" fill="rgb(6,124,98)" opacity="0.4"/>
<circle cx="1123.53" cy="527.89" r="1.5" fill="rgb(47,104,82)" opacity="0.4"/>
<circle cx="1123.88" cy="548.64" r="1.5" fill="rgb(11,122,96)" opacity="0.4"/>
<circle cx="1125.66" cy="654.62" r="1.5" fill="rgb(47,104,81)" opacity="0.4"/>
<circle cx="1121.00" cy="674.87" r="1.5" fill="rgb(11,122,96)" opacity="0.4"/>
<circle cx="1097.23" cy="778.18" r="1.5" fill="rgb(42,106,83)" opacity="0.4"/>
<circle cx="1087.76" cy="796.89" r="1.5" fill="rgb(5,125,98)" opacity="0.4"/>
<circle cx="1039.91" cy="891.38" r="1.5" fill="rgb(33,111,87)" opacity="0.4"/>
<circle cx="1025.99" cy="907.54" r="1.5" fill="rgb(5,125,98)" opacity="0.4"/>
<circle cx="957.02" cy="987.64" r="1.5" fill="rgb(22,117,91)" opacity="0.4"/>
<circle cx="939.23" cy="1000.29" r="1.5" fill="rgb(17,119,93)" opacity="0.4"/>
<circle cx="853.39" cy="1061.37" r="1.5" fill="rgb(11,122,96)" opacity="0.4"/>
<circle cx="832.52" cy="1069.64" r="1.5" fill="rgb(29,113,89)" opacity="0.4"/>
<circle cx="735.02" cy="1108.28" r="1.5" fill="rgb(3,126,99)" opacity="0.4"/>
<circle cx="632.15" cy="1122.45" r="1.5" fill="rgb(39,108,85)" opacity="0.4"/>
<circle cx="608.81" cy="1125.66" r="1.5" fill="rgb(0,127,100)" opacity="0.4"/>
<circle cx="506.21" cy="1114.99" r="1.5" fill="rgb(39,108,85)" opacity="0.4"/>
<circle cx="482.09" cy="1112.48" r="1.5" fill="rgb(2,126,99)" opacity="0.4"/>
<circle cx="385.66" cy="1077.92" r="1.5" fill="rgb(34,111,87)" opacity="0.4"/>
<circle cx="362.22" cy="1069.52" r="1.5" fill="rgb(9,123,96)" opacity="0.4"/>
<circle cx="341.29" cy="1055.65" r="1.5" fill="rgb(31,112,88)" opacity="0.4"/>
<circle cx="256.17" cy="999.27" r="1.5" fill="rgb(20,118,92)" opacity="0.4"/>
<circle cx="187.66" cy="924.88" r="1.5" fill="rgb(14,120,94)" opacity="0.4"/>
<circle cx="170.10" cy="905.81" r="1.5" fill="rgb(31,112,88)" opacity="0.4"/>
<circle cx="121.66" cy="817.59" r="1.5" fill="rgb(5,125,98)" opacity="0.4"/>
<circle cx="109.02" cy="794.58" r="1.5" fill="rgb(40,107,84)" opacity="0.4"/>
<circle cx="83.26" cy="697.59" r="1.5" fill="rgb(1,127,99)" opacity="0.4"/>
<circle cx="76.47" cy="672.03" r="1.5" fill="rgb(46,105,82)" opacity="0.4"/>
<circle cx="74.79" cy="571.78" r="1.5" fill="rgb(3,126,99)" opacity="0.4"/>
<circle cx="74.34" cy="545.30" r="1.5" fill="rgb(46,104,82)" opacity="0.4"/>
<circle cx="96.86" cy="447.44" r="1.5" fill="rgb(1,127,100)" opacity="0.4"/>
<circle cx="102.77" cy="421.75" r="1.5" fill="rgb(41,107,84)" opacity="0.4"/>
<circle cx="114.64" cy="398.29" r="1.5" fill="rgb(4,126,99)" opacity="0.4"/>
<circle cx="160.09" cy="308.55" r="1.5" fill="rgb(32,111,87)" opacity="0.4"/>
<circle cx="226.20" cy="231.77" r="1.5" fill="rgb(19,118,93)" opacity="0.4"/>
<circle cx="242.98" cy="212.29" r="1.5" fill="rgb(21,117,92)" opacity="0.4"/>
<text x="605.97" y="602.96" fill="#666" font-size="9" font-family="monospace">#0</text>
</svg>