<svg xmlns="http://www.w3.org/2000/svg" width="1200" height="4561" viewBox="0 0 1200 4561">
<rect width="100%" height="100%" fill="#1a1a2e"/>
<text x="10" y="18" fill="#888" font-size="11" font-family="monospace">nist_ctc_01_asme1_ap242-e1 — contour #0 — +Y d1/3=-119.08</text>
<text x="10" y="32" fill="#888" font-size="11" font-family="monospace">51 pts → 4 entities (tol=0.5437, diag=271.84)</text>
<text x="10" y="46" fill="#ff4444" font-size="11" font-family="monospace">maxErr=9.5444 avgErr=2.5143 highErrPts=29/51</text>
<text x="10" y="60" fill="#888" font-size="11" font-family="monospace">3 lines, 1 arcs, 0 circles</text>
<line x1="852.44" y1="258.33" x2="989.32" y2="4350.40" stroke="#e0e0e0" stroke-width="1.5" stroke-opacity="0.9"/>
<circle cx="852.44" cy="258.33" r="3" fill="#00ff00" opacity="0.7"/>
<circle cx="989.32" cy="4350.40" r="3" fill="#00ccff" opacity="0.7"/>
<line x1="989.32" y1="4350.40" x2="209.93" y2="4350.40" stroke="#e0e0e0" stroke-width="1.5" stroke-opacity="0.9"/>
<circle cx="989.32" cy="4350.40" r="3" fill="#00ff00" opacity="0.7"/>
<circle cx="209.93" cy="4350.40" r="3" fill="#00ccff" opacity="0.7"/>
<line x1="209.93" y1="4350.40" x2="210.35" y2="358.88" stroke="#e0e0e0" stroke-width="1.5" stroke-opacity="0.9"/>
<circle cx="209.93" cy="4350.40" r="3" fill="#00ff00" opacity="0.7"/>
<circle cx="210.35" cy="358.88" r="3" fill="#00ccff" opacity="0.7"/>
<path d="M 210.35 358.88 A 325.39 325.39 0 0 0 852.44 258.33" fill="none" stroke="#cc44ff" stroke-width="2" stroke-opacity="0.8"/>
<circle cx="210.35" cy="358.88" r="3" fill="#00ff00" opacity="0.7"/>
<circle cx="852.44" cy="258.33" r="3" fill="#00ccff" opacity="0.7"/>
<circle cx="210.60" cy="4345.61" r="1.5" fill="rgb(4,125,98)" opacity="0.4"/>
<circle cx="210.60" cy="4345.26" r="1.5" fill="rgb(4,125,98)" opacity="0.4"/>
<circle cx="210.60" cy="1877.06" r="1.5" fill="rgb(2,126,99)" opacity="0.4"/>
<circle cx="210.60" cy="1871.58" r="1.5" fill="rgb(2,126,99)" opacity="0.4"/>
<circle cx="210.60" cy="1871.25" r="1.5" fill="rgb(2,126,99)" opacity="0.4"/>
<circle cx="210.60" cy="1864.27" r="1.5" fill="rgb(2,126,99)" opacity="0.4"/>
<circle cx="210.60" cy="1863.81" r="1.5" fill="rgb(2,126,99)" opacity="0.4"/>
<circle cx="210.60" cy="1514.11" r="1.5" fill="rgb(2,126,99)" opacity="0.4"/>
<circle cx="210.60" cy="1505.34" r="1.5" fill="rgb(2,126,99)" opacity="0.4"/>
<circle cx="210.60" cy="1496.28" r="1.5" fill="rgb(2,126,99)" opacity="0.4"/>
<circle cx="210.60" cy="365.03" r="1.5" fill="rgb(2,127,99)" opacity="0.4"/>
<circle cx="210.60" cy="358.76" r="1.5" fill="rgb(2,127,99)" opacity="0.4"/>
<circle cx="210.60" cy="351.61" r="1.5" fill="rgb(44,105,83)" opacity="0.4"/>
<circle cx="210.60" cy="210.99" r="4" fill="rgb(255,0,0)" opacity="0.9"/>
<text x="215.6" y="207.99" fill="#ff4444" font-size="8" font-family="monospace">9.544</text>
<circle cx="851.35" cy="248.71" r="4" fill="rgb(59,98,77)" opacity="0.9"/>
<circle cx="989.40" cy="256.84" r="4" fill="rgb(255,0,0)" opacity="0.9"/>
<text x="994.4" y="253.83999999999997" fill="#ff4444" font-size="8" font-family="monospace">8.837</text>
<circle cx="989.40" cy="328.30" r="4" fill="rgb(255,0,0)" opacity="0.9"/>
<text x="994.4" y="325.3" fill="#ff4444" font-size="8" font-family="monospace">8.683</text>
<circle cx="989.40" cy="331.94" r="4" fill="rgb(255,0,0)" opacity="0.9"/>
<text x="994.4" y="328.94" fill="#ff4444" font-size="8" font-family="monospace">8.675</text>
<circle cx="989.40" cy="335.12" r="4" fill="rgb(255,0,0)" opacity="0.9"/>
<text x="994.4" y="332.12" fill="#ff4444" font-size="8" font-family="monospace">8.668</text>
<circle cx="989.40" cy="1566.38" r="4" fill="rgb(255,0,0)" opacity="0.9"/>
<text x="994.4" y="1563.38" fill="#ff4444" font-size="8" font-family="monospace">6.012</text>
<circle cx="989.40" cy="1570.98" r="4" fill="rgb(255,0,0)" opacity="0.9"/>
<text x="994.4" y="1567.98" fill="#ff4444" font-size="8" font-family="monospace">6.002</text>
<circle cx="989.40" cy="1575.44" r="4" fill="rgb(255,0,0)" opacity="0.9"/>
<text x="994.4" y="1572.44" fill="#ff4444" font-size="8" font-family="monospace">5.992</text>
<circle cx="989.40" cy="1579.42" r="4" fill="rgb(255,0,0)" opacity="0.9"/>
<text x="994.4" y="1576.42" fill="#ff4444" font-size="8" font-family="monospace">5.984</text>
<circle cx="989.40" cy="1650.64" r="4" fill="rgb(255,0,0)" opacity="0.9"/>
<text x="994.4" y="1647.64" fill="#ff4444" font-size="8" font-family="monospace">5.830</text>
<circle cx="989.40" cy="1733.35" r="4" fill="rgb(255,0,0)" opacity="0.9"/>
<text x="994.4" y="1730.35" fill="#ff4444" font-size="8" font-family="monospace">5.652</text>
<circle cx="989.40" cy="1737.56" r="4" fill="rgb(255,0,0)" opacity="0.9"/>
<text x="994.4" y="1734.56" fill="#ff4444" font-size="8" font-family="monospace">5.643</text>
<circle cx="989.40" cy="1817.14" r="4" fill="rgb(255,0,0)" opacity="0.9"/>
<text x="994.4" y="1814.14" fill="#ff4444" font-size="8" font-family="monospace">5.471</text>
<circle cx="989.40" cy="1886.99" r="4" fill="rgb(255,0,0)" opacity="0.9"/>
<text x="994.4" y="1883.99" fill="#ff4444" font-size="8" font-family="monospace">5.320</text>
<circle cx="989.40" cy="2007.63" r="4" fill="rgb(255,0,0)" opacity="0.9"/>
<text x="994.4" y="2004.63" fill="#ff4444" font-size="8" font-family="monospace">5.060</text>
<circle cx="989.40" cy="2101.93" r="4" fill="rgb(255,0,0)" opacity="0.9"/>
<text x="994.4" y="2098.93" fill="#ff4444" font-size="8" font-family="monospace">4.856</text>
<circle cx="989.40" cy="3116.16" r="4" fill="rgb(250,2,2)" opacity="0.9"/>
<text x="994.4" y="3113.16" fill="#ff4444" font-size="8" font-family="monospace">2.668</text>
<circle cx="989.40" cy="3161.37" r="4" fill="rgb(241,7,5)" opacity="0.9"/>
<text x="994.4" y="3158.37" fill="#ff4444" font-size="8" font-family="monospace">2.571</text>
<circle cx="989.40" cy="3208.72" r="4" fill="rgb(232,12,9)" opacity="0.9"/>
<text x="994.4" y="3205.72" fill="#ff4444" font-size="8" font-family="monospace">2.468</text>
<circle cx="989.40" cy="3229.09" r="4" fill="rgb(227,14,11)" opacity="0.9"/>
<text x="994.4" y="3226.09" fill="#ff4444" font-size="8" font-family="monospace">2.424</text>
<circle cx="989.40" cy="3275.25" r="4" fill="rgb(218,18,14)" opacity="0.9"/>
<text x="994.4" y="3272.25" fill="#ff4444" font-size="8" font-family="monospace">2.325</text>
<circle cx="989.40" cy="3294.57" r="4" fill="rgb(214,20,16)" opacity="0.9"/>
<text x="994.4" y="3291.57" fill="#ff4444" font-size="8" font-family="monospace">2.283</text>
<circle cx="989.40" cy="3336.79" r="4" fill="rgb(206,25,19)" opacity="0.9"/>
<text x="994.4" y="3333.79" fill="#ff4444" font-size="8" font-family="monospace">2.192</text>
<circle cx="989.40" cy="3992.49" r="4" fill="rgb(73,91,71)" opacity="0.9"/>
<circle cx="989.40" cy="4019.86" r="4" fill="rgb(67,94,74)" opacity="0.9"/>
<circle cx="989.40" cy="4043.89" r="4" fill="rgb(63,96,75)" opacity="0.9"/>
<circle cx="989.40" cy="4063.11" r="4" fill="rgb(59,98,77)" opacity="0.9"/>
<circle cx="989.40" cy="4076.64" r="4" fill="rgb(56,100,78)" opacity="0.9"/>
<circle cx="989.40" cy="4350.40" r="1.5" fill="rgb(0,127,100)" opacity="0.4"/>
<circle cx="838.23" cy="4350.40" r="1.5" fill="rgb(0,127,100)" opacity="0.4"/>
<circle cx="210.60" cy="4350.40" r="1.5" fill="rgb(0,127,100)" opacity="0.4"/>
<circle cx="210.60" cy="4347.21" r="1.5" fill="rgb(4,125,98)" opacity="0.4"/>
<circle cx="210.60" cy="4347.00" r="1.5" fill="rgb(4,125,98)" opacity="0.4"/>
<circle cx="210.60" cy="4346.72" r="1.5" fill="rgb(4,125,98)" opacity="0.4"/>
<circle cx="210.60" cy="4346.38" r="1.5" fill="rgb(4,125,98)" opacity="0.4"/>
<circle cx="210.60" cy="4346.00" r="1.5" fill="rgb(4,125,98)" opacity="0.4"/>
<circle cx="210.60" cy="4345.61" r="1.5" fill="rgb(4,125,98)" opacity="0.4"/>
<text x="926.8800000000001" y="2307.365" fill="#666" font-size="9" font-family="monospace">#0</text>
<text x="605.625" y="4353.4" fill="#666" font-size="9" font-family="monospace">#1</text>
<text x="216.14" y="2357.64" fill="#666" font-size="9" font-family="monospace">#2</text>
<text x="483.23" y="-33.9" fill="#666" font-size="9" font-family="monospace">#3</text>
</svg>