<svg xmlns="http://www.w3.org/2000/svg" width="1200" height="1194" viewBox="0 0 1200 1194">
<rect width="100%" height="100%" fill="#1a1a2e"/>
<text x="10" y="18" fill="#888" font-size="11" font-family="monospace">nist_ctc_01_asme1_ap242-e1 — contour #49 — +Z=-25.00</text>
<text x="10" y="32" fill="#888" font-size="11" font-family="monospace">53 pts → 1 entities (tol=0.0705, diag=35.26)</text>
<text x="10" y="46" fill="#44ff44" font-size="11" font-family="monospace">maxErr=0.0456 avgErr=0.0456 highErrPts=0/53</text>
<text x="10" y="60" fill="#888" font-size="11" font-family="monospace">0 lines, 0 arcs, 1 circles</text>
<circle cx="600.00" cy="596.78" r="523.99" fill="none" stroke="#ffd700" stroke-width="2" stroke-opacity="0.8"/>
<circle cx="175.35" cy="293.08" r="1.5" fill="rgb(33,111,87)" opacity="0.4"/>
<circle cx="138.47" cy="344.64" r="1.5" fill="rgb(33,111,87)" opacity="0.4"/>
<circle cx="115.01" cy="403.53" r="1.5" fill="rgb(33,111,87)" opacity="0.4"/>
<circle cx="91.55" cy="462.42" r="1.5" fill="rgb(33,111,87)" opacity="0.4"/>
<circle cx="82.86" cy="525.21" r="1.5" fill="rgb(33,111,87)" opacity="0.4"/>
<circle cx="74.17" cy="588.01" r="1.5" fill="rgb(33,111,87)" opacity="0.4"/>
<circle cx="80.76" cy="651.05" r="1.5" fill="rgb(33,111,87)" opacity="0.4"/>
<circle cx="87.35" cy="714.10" r="1.5" fill="rgb(33,111,87)" opacity="0.4"/>
<circle cx="108.84" cy="773.74" r="1.5" fill="rgb(33,111,87)" opacity="0.4"/>
<circle cx="130.32" cy="833.38" r="1.5" fill="rgb(33,111,87)" opacity="0.4"/>
<circle cx="165.46" cy="886.14" r="1.5" fill="rgb(33,111,87)" opacity="0.4"/>
<circle cx="200.59" cy="938.90" r="1.5" fill="rgb(33,111,87)" opacity="0.4"/>
<circle cx="247.33" cy="981.72" r="1.5" fill="rgb(33,111,87)" opacity="0.4"/>
<circle cx="294.07" cy="1024.55" r="1.5" fill="rgb(33,111,87)" opacity="0.4"/>
<circle cx="349.71" cy="1054.94" r="1.5" fill="rgb(33,111,87)" opacity="0.4"/>
<circle cx="405.34" cy="1085.33" r="1.5" fill="rgb(33,111,87)" opacity="0.4"/>
<circle cx="466.62" cy="1101.52" r="1.5" fill="rgb(33,111,87)" opacity="0.4"/>
<circle cx="527.91" cy="1117.72" r="1.5" fill="rgb(33,111,87)" opacity="0.4"/>
<circle cx="591.29" cy="1118.78" r="1.5" fill="rgb(33,111,87)" opacity="0.4"/>
<circle cx="654.68" cy="1119.83" r="1.5" fill="rgb(33,111,87)" opacity="0.4"/>
<circle cx="716.47" cy="1105.69" r="1.5" fill="rgb(33,111,87)" opacity="0.4"/>
<circle cx="778.26" cy="1091.55" r="1.5" fill="rgb(33,111,87)" opacity="0.4"/>
<circle cx="834.88" cy="1063.03" r="1.5" fill="rgb(33,111,87)" opacity="0.4"/>
<circle cx="891.49" cy="1034.51" r="1.5" fill="rgb(33,111,87)" opacity="0.4"/>
<circle cx="939.63" cy="993.27" r="1.5" fill="rgb(33,111,87)" opacity="0.4"/>
<circle cx="987.77" cy="952.03" r="1.5" fill="rgb(33,111,87)" opacity="0.4"/>
<circle cx="1024.65" cy="900.47" r="1.5" fill="rgb(33,111,87)" opacity="0.4"/>
<circle cx="1061.53" cy="848.91" r="1.5" fill="rgb(33,111,87)" opacity="0.4"/>
<circle cx="1084.99" cy="790.02" r="1.5" fill="rgb(33,111,87)" opacity="0.4"/>
<circle cx="1108.45" cy="731.13" r="1.5" fill="rgb(33,111,87)" opacity="0.4"/>
<circle cx="1117.14" cy="668.34" r="1.5" fill="rgb(33,111,87)" opacity="0.4"/>
<circle cx="1125.83" cy="605.55" r="1.5" fill="rgb(33,111,87)" opacity="0.4"/>
<circle cx="1119.24" cy="542.50" r="1.5" fill="rgb(33,111,87)" opacity="0.4"/>
<circle cx="1112.65" cy="479.45" r="1.5" fill="rgb(33,111,87)" opacity="0.4"/>
<circle cx="1091.16" cy="419.81" r="1.5" fill="rgb(33,111,87)" opacity="0.4"/>
<circle cx="1069.68" cy="360.18" r="1.5" fill="rgb(33,111,87)" opacity="0.4"/>
<circle cx="1034.54" cy="307.41" r="1.5" fill="rgb(33,111,87)" opacity="0.4"/>
<circle cx="999.41" cy="254.65" r="1.5" fill="rgb(33,111,87)" opacity="0.4"/>
<circle cx="952.67" cy="211.83" r="1.5" fill="rgb(33,111,87)" opacity="0.4"/>
<circle cx="905.93" cy="169.01" r="1.5" fill="rgb(33,111,87)" opacity="0.4"/>
<circle cx="850.29" cy="138.62" r="1.5" fill="rgb(33,111,87)" opacity="0.4"/>
<circle cx="794.66" cy="108.23" r="1.5" fill="rgb(33,111,87)" opacity="0.4"/>
<circle cx="733.38" cy="92.03" r="1.5" fill="rgb(33,111,87)" opacity="0.4"/>
<circle cx="672.09" cy="75.84" r="1.5" fill="rgb(33,111,87)" opacity="0.4"/>
<circle cx="608.71" cy="74.78" r="1.5" fill="rgb(33,111,87)" opacity="0.4"/>
<circle cx="545.32" cy="73.72" r="1.5" fill="rgb(33,111,87)" opacity="0.4"/>
<circle cx="483.53" cy="87.86" r="1.5" fill="rgb(33,111,87)" opacity="0.4"/>
<circle cx="421.74" cy="102.00" r="1.5" fill="rgb(33,111,87)" opacity="0.4"/>
<circle cx="365.12" cy="130.52" r="1.5" fill="rgb(33,111,87)" opacity="0.4"/>
<circle cx="308.51" cy="159.04" r="1.5" fill="rgb(33,111,87)" opacity="0.4"/>
<circle cx="260.37" cy="200.28" r="1.5" fill="rgb(33,111,87)" opacity="0.4"/>
<circle cx="212.23" cy="241.52" r="1.5" fill="rgb(33,111,87)" opacity="0.4"/>
<circle cx="175.35" cy="293.08" r="1.5" fill="rgb(33,111,87)" opacity="0.4"/>
<text x="606" y="599.78" fill="#666" font-size="9" font-family="monospace">#0</text>
</svg>