<svg xmlns="http://www.w3.org/2000/svg" width="1200" height="109" viewBox="0 0 1200 109">
<rect width="100%" height="100%" fill="#1a1a2e"/>
<text x="10" y="18" fill="#888" font-size="11" font-family="monospace">nist_ctc_01_asme1_ap242-e1 — contour #35 — +X=0.00</text>
<text x="10" y="32" fill="#888" font-size="11" font-family="monospace">22 pts → 1 entities (tol=0.0648, diag=32.42)</text>
<text x="10" y="46" fill="#44ff44" font-size="11" font-family="monospace">maxErr=0.0016 avgErr=0.0001 highErrPts=0/22</text>
<text x="10" y="60" fill="#888" font-size="11" font-family="monospace">1 lines, 0 arcs, 0 circles</text>
<line x1="54.60" y1="54.45" x2="1145.45" y2="54.45" stroke="#e0e0e0" stroke-width="1.5" stroke-opacity="0.9"/>
<circle cx="54.60" cy="54.45" r="3" fill="#00ff00" opacity="0.7"/>
<circle cx="1145.45" cy="54.45" r="3" fill="#00ccff" opacity="0.7"/>
<circle cx="54.55" cy="54.45" r="1.5" fill="rgb(1,127,99)" opacity="0.4"/>
<circle cx="81.19" cy="54.45" r="1.5" fill="rgb(0,128,100)" opacity="0.4"/>
<circle cx="114.94" cy="54.45" r="1.5" fill="rgb(0,128,100)" opacity="0.4"/>
<circle cx="147.94" cy="54.45" r="1.5" fill="rgb(0,128,100)" opacity="0.4"/>
<circle cx="186.18" cy="54.45" r="1.5" fill="rgb(0,128,100)" opacity="0.4"/>
<circle cx="223.76" cy="54.45" r="1.5" fill="rgb(0,128,100)" opacity="0.4"/>
<circle cx="264.14" cy="54.45" r="1.5" fill="rgb(0,128,100)" opacity="0.4"/>
<circle cx="304.27" cy="54.45" r="1.5" fill="rgb(0,128,100)" opacity="0.4"/>
<circle cx="344.39" cy="54.45" r="1.5" fill="rgb(0,128,100)" opacity="0.4"/>
<circle cx="384.77" cy="54.45" r="1.5" fill="rgb(0,128,100)" opacity="0.4"/>
<circle cx="422.35" cy="54.45" r="1.5" fill="rgb(0,128,100)" opacity="0.4"/>
<circle cx="460.59" cy="54.45" r="1.5" fill="rgb(0,128,100)" opacity="0.4"/>
<circle cx="493.59" cy="54.45" r="1.5" fill="rgb(0,127,100)" opacity="0.4"/>
<circle cx="527.34" cy="54.45" r="1.5" fill="rgb(0,128,100)" opacity="0.4"/>
<circle cx="553.98" cy="54.45" r="1.5" fill="rgb(0,128,100)" opacity="0.4"/>
<circle cx="581.12" cy="54.45" r="1.5" fill="rgb(0,128,100)" opacity="0.4"/>
<circle cx="600.00" cy="54.45" r="1.5" fill="rgb(0,128,100)" opacity="0.4"/>
<circle cx="618.82" cy="54.45" r="1.5" fill="rgb(0,127,100)" opacity="0.4"/>
<circle cx="628.89" cy="54.45" r="1.5" fill="rgb(0,128,100)" opacity="0.4"/>
<circle cx="638.24" cy="54.45" r="1.5" fill="rgb(0,128,100)" opacity="0.4"/>
<circle cx="772.16" cy="54.45" r="1.5" fill="rgb(0,128,100)" opacity="0.4"/>
<circle cx="1145.45" cy="54.45" r="1.5" fill="rgb(0,128,100)" opacity="0.4"/>
<text x="606.025" y="57.45" fill="#666" font-size="9" font-family="monospace">#0</text>
</svg>